<svg xmlns="http://www.w3.org/2000/svg" xmlns:xlink="http://www.w3.org/1999/xlink" width="740.14" height="556.99" viewBox="0 0 740.14 556.99">
  <defs>
    <style>
      .cls-1, .cls-13, .cls-14, .cls-17, .cls-18, .cls-30, .cls-39, .cls-40, .cls-7, .cls-9, .cls-80 {
        fill: none;
      }

      .cls-2, .cls-20, .cls-38, .cls-48, .cls-6 {
        fill: #000000;
      }

      .cls-2 {
        opacity: 0.25;
      }

      .cls-3 {
        fill: url(#dots-dark);
      }

      .cls-4 {
        fill: url(#dots);
      }

      .cls-12, .cls-13, .cls-14, .cls-15, .cls-17, .cls-18, .cls-30, .cls-33, .cls-38, .cls-39, .cls-40, .cls-7 {
        stroke: #231f20;
      }

      .cls-18, .cls-30, .cls-38, .cls-39, .cls-7, .cls-9 {
        stroke-linecap: round;
      }

      .cls-12, .cls-13, .cls-14, .cls-15, .cls-17, .cls-18, .cls-24, .cls-29, .cls-30, .cls-33, .cls-38, .cls-39, .cls-40, .cls-7, .cls-9 {
        stroke-miterlimit: 10;
      }

      .cls-12, .cls-30, .cls-40, .cls-7 {
        stroke-width: 0.5px;
      }

      .cls-15, .cls-33, .cls-8 {
        fill: #fff;
      }

      .cls-9 {
        stroke: #fff;
      }

      .cls-18, .cls-24, .cls-9 {
        stroke-width: 0.25px;
      }

      .cls-12 {
        fill: url(#White_Black);
      }

      .cls-13, .cls-17 {
        stroke-width: 2px;
      }

      .cls-13 {
        stroke-dasharray: 0.99 0.99;
      }

      .cls-15 {
        fill-opacity: 0.5;
        stroke-width: 0.75px;
      }

      .cls-20 {
        opacity: 0.2;
      }

      .cls-24, .cls-41 {
        fill: url(#drkCross);
      }

      .cls-30 {
        stroke-dasharray: 1.98 0.99;
      }

      .cls-31 {
        fill: url(#radial-gradient);
      }

      .cls-32, .cls-34, .cls-43 {
        opacity: 0.5;
      }

      .cls-32 {
        fill: url(#drkCross);
      }

      .cls-80 {
        stroke-width: 15px;
        stroke: url(#drkCross);
      }

      .cls-41 {
        opacity: 0.6;
      }

      .cls-34 {
        fill: url(#ltCross);
      }

      /*Opaque*/
      .cls-43 {
        fill: url(#ltCross);
      }

      .cls-48 {
        font-size: 34px;
      }

      .cls-48, .cls-61, .cls-62 {
        font-family: Oswald-Medium, Oswald;
        font-weight: 500;
      }

      .cls-49 {
        letter-spacing: 0em;
      }

      .cls-50 {
        font-size: 46px;
      }

      .cls-50, .cls-58, .cls-63 {
        font-family: Oswald-SemiBold, Oswald;
        font-weight: 600;
      }

      .cls-51 {
        letter-spacing: -0.01em;
      }

      .cls-52 {
        letter-spacing: 0em;
      }

      .cls-53 {
        letter-spacing: -0.01em;
      }

      .cls-54 {
        font-size: 39px;
      }

      .cls-55 {
        font-size: 28px;
      }

      .cls-56, .cls-58 {
        font-size: 33px;
      }

      .cls-57 {
        letter-spacing: -0.01em;
      }

      .cls-59 {
        letter-spacing: -0.01em;
      }

      .cls-60 {
        letter-spacing: -0.01em;
      }

      .cls-62 {
        font-size: 27px;
      }

      .cls-63 {
        font-size: 30px;
      }

      .cls-64 {
        letter-spacing: 0em;
      }

      .cls-65 {
        letter-spacing: -0.03em;
      }

      .cls-66 {
        letter-spacing: -0.01em;
      }

      .cls-67 {
        letter-spacing: -0.05em;
      }
    </style>
    <pattern id="dots" width="16" height="16" patternUnits="userSpaceOnUse">
      <use width="16" height="16" xlink:href="#dots-pattern"/>
    </pattern>
    <pattern id="dots-dark" width="16" height="16" patternUnits="userSpaceOnUse">
      <path d="M0 0h16v16H0z" class="cls-2"/>
      <use width="16" height="16" xlink:href="#dots-pattern"/>
    </pattern>
    <linearGradient id="White_Black" x1="25.4" y1="17.45" x2="25.4" y2="5.08" gradientUnits="userSpaceOnUse">
      <stop offset="0" stop-color="#fff"/>
      <stop offset="1" stop-color="#231f20"/>
    </linearGradient>
    <pattern id="drkCross" width="200.5" height="200.5" patternTransform="matrix(.79 0 0 .51 75 266)" patternUnits="userSpaceOnUse">
      <path d="M114 200h-2l-1-150 1-50h2zm9 0h-3l-1-107 1-93h3l-1 93 1 107zm7 0v-43a1 1 0 011-1 1 1 0 011 1v43zm1-46a1 1 0 01-1-1l-1-70 1-83h2l-1 83 1 70a1 1 0 01-1 1zm6-154h3v200h-3zm10 0h4v200h-4zm13 200h-3l1-52-2-115 1-33h3l-1 33 2 116-1 51zM178 0h2v200h-2zm-7 201h-4V26a2 2 0 012-2 2 2 0 012 2zm-2-180a2 2 0 01-2-2V0h4v19a2 2 0 01-2 2zm17-21h4v200h-4zm9 0h2v200h-2zM2 0h2v200H2zm5 0h4v200H7zm26 0h2v200h-2zM18 109a1 1 0 01-1-1V0h2v108a1 1 0 01-1 1zm-1 91v-79a1 1 0 011-1 1 1 0 011 1v79zm11 0h-3L24 67l1-67h3l1 160-1 40zm17 0h-4l1-64L41 0h4zm10 0h-3V78a2 2 0 012-2 2 2 0 011 2zM54 70a2 2 0 01-2-1V0h3v69a2 2 0 01-1 1zm10 130h-2l1-154-1-46h2l1 46-1 154zM69 0h3v200h-3zm11 0h2v200h-2zm19 200h-2V0h2l1 102-1 98zm6 0h-1V0h1v200zm-14 0h-3L87 46l1-46h3l-2 78 2 122z"/>
      <path d="M1 115v-2l149-1 50 1v2zm0 10v-3l107-1 93 1v3l-93-1-107 1zm0 6h41a1 1 0 011 1 1 1 0 01-1 1H1zm46 1a1 1 0 011-1l70-1 83 1v2l-83-1-70 1a1 1 0 01-1-1zm-46 6h200v3H1zm0 14v-4a15262 15262 0 00200 0v4zm0 9v-3a3435 3435 0 00167-1l32 1v3l-32-1-117 2-50-1zm0 18h200v2H1zm-1-7v-4l69 1 104-1a2 2 0 012 2 2 2 0 01-2 2l-97-1-76 1zm181-2a2 2 0 012-2h18v4h-18a2 2 0 01-2-2zM1 187h200v3H1zm0 9h200v2H1zM1 3h200v2H1zm0 6h200v3H1zm0 25h200v2H1zm91-15a1 1 0 011-1h108v2H93a1 1 0 01-1-1zM1 18h85a1 1 0 011 1 1 1 0 01-1 1H1zm0 11v-3l133-1 66 1v3l-94-1-65 2-40-1zm0 17v-4l63 1 137-1v4zm0 10v-3h121a2 2 0 012 2 2 2 0 01-2 1zm124-1a2 2 0 011-2h75v3h-75a2 2 0 01-1-1zM1 65v-2a30360 30360 0 00200 0v2l-46 1L1 65zm0 5h200v3H1zm0 11h200v2H1zm0 19v-2h200v2l-103 1-97-1zm0 6v-1h200v1H1zm0-13v-3l154-1 45 1v2z"/>
    </pattern>
    <radialGradient id="radial-gradient" cx="337" cy="355.95" r="279.59" gradientTransform="translate(-2.07 231.44) scale(0.9 0.51)" gradientUnits="userSpaceOnUse">
      <stop offset="0.73" stop-color="#fff" stop-opacity="0"/>
      <stop offset="0.8" stop-color="#fff" stop-opacity="0.01"/>
      <stop offset="0.82" stop-color="#fff" stop-opacity="0.03"/>
      <stop offset="0.84" stop-color="#fff" stop-opacity="0.08"/>
      <stop offset="0.85" stop-color="#fff" stop-opacity="0.15"/>
      <stop offset="0.87" stop-color="#fff" stop-opacity="0.23"/>
      <stop offset="0.88" stop-color="#fff" stop-opacity="0.34"/>
      <stop offset="0.89" stop-color="#fff" stop-opacity="0.47"/>
      <stop offset="0.9" stop-color="#fff" stop-opacity="0.61"/>
      <stop offset="0.9" stop-color="#fff" stop-opacity="0.65"/>
      <stop offset="0.93" stop-color="#fff" stop-opacity="0.77"/>
      <stop offset="1" stop-color="#fff"/>
    </radialGradient>
    <pattern id="ltCross" width="200.3" height="200.5" patternTransform="rotate(-45 233 -96.4) scale(.6)" patternUnits="userSpaceOnUse">
      <path d="M117 200h-1.4S115 87.6 115 50.2c0-12.6.6-50.2.6-50.2h1.4zm12.3 0v-43a1 1 0 0 1 1-1 1 1 0 0 1 1 1v43zm1-46a1 1 0 0 1-1-1l-1-70.2 1-82.8h2l-1 82.8 1 70.2a1 1 0 0 1-1 1zM145.7 0h1.6v200h-1.6zm32.6 0h2v200h-2zm-13.8 200.5h-1.8V26c0-1.1.4-2 1-2 .4 0 .8.9.8 2zM163.6 21c-.5 0-1-1-1-2.1V0h2v18.9c0 1.2-.5 2.1-1 2.1zm28.7-21h2v200h-2zM6.3 0h2v200h-2zm14 109a1 1 0 0 1-1-1V0h2v108a1 1 0 0 1-1 1zm-1 91v-79a1 1 0 0 1 1-1 1 1 0 0 1 1 1v79zm16.7 0h-1.6s.4-37.2.4-63.6L34.4 0H36zm17.6 0h-2.4V77.5a1.4 1.4 0 0 1 1.2-1.5 1.4 1.4 0 0 1 1.2 1.6zM52.4 70a1.4 1.4 0 0 1-1.2-1.5V0h2.4v68.5a1.4 1.4 0 0 1-1.2 1.5zm18 130h-1s.5-115.2.5-153.6c0-11.6-.5-46.4-.5-46.4h1l.5 45.9c.1 38.5-.5 154.1-.5 154.1zm30.4 0h-1V0h1v200zm-11.5 0H87s-.8-115.8-.8-154.4L87 0h2.3s-1.5 58.6-1.5 78.2c0 30.4 1.5 121.8 1.5 121.8z"/>
      <path d="M72 86.8H50.4L.3 86.5v-.7H72s.9.2.9.5c0 .4-.9.5-.9.5zm12.5 0c47.8 0 115.8-.3 115.8-.3V86H84.5s-.7 0-.7.4.7.5.7.5zm115.8-18.6h-43a1 1 0 0 1-1-.9 1 1 0 0 1 1-.8h43zm0-16.6v2h-104a1 1 0 0 1-1-1 1 1 0 0 1 1-1zM154 67.3a1 1 0 0 1-1 .9l-70.2.8L0 68.2v-1.7l82.8.8 70.2-.8a1 1 0 0 1 1 .8zM90 52.6a1 1 0 0 1-1 1H0v-2h89a1 1 0 0 1 1 1zM75.2 23.4H.3v-1h75l-.1 1zm6.6-1h118.5v1H81.9l-.1-1zM200.3 36v1.9H25.8c-1.1 0-2-.5-2-1s1-.9 2-.9zM21 36.9c0 .5-1 1-2.1 1H0V36h18.9c1.2 0 2.1.4 2.1.9zM.3 6.3h200v2H.3zm0 186.5h200v1H.3zM109 180.3a1 1 0 0 1-1 1H0v-2h108a1 1 0 0 1 1 1zm58-.3a1 1 0 0 1-1 1h-44.8a1 1 0 0 1-1-1 1 1 0 0 1 1-1H166a1 1 0 0 1 1 1zm20.3-1h13v2h-13a1 1 0 0 1-1-1 1 1 0 0 1 1-1zM117 165.3a.8.8 0 0 1-.8.8c-2.8-.1-11.7-.4-18.3-.4l-40 .4a.8.8 0 0 1-.9-.8.8.8 0 0 1 .8-.8h58.4a.8.8 0 0 1 .8.8zm83.3-.8v1.6s-11.2-.4-19.1-.4l-40.1.4a.8.8 0 0 1-.8-.8.8.8 0 0 1 .8-.8zm-150 .8a.8.8 0 0 1-.9.8c-2.4-.1-9.6-.4-15-.4l-34.2.4v-1.6h49.2a.8.8 0 0 1 .9.8zm150-18.2v2H77.8c-.9 0-1.6-.5-1.6-1 0-.6.7-1 1.6-1zm-130.3 1c0 .6-.7 1-1.5 1H0v-2h68.5c.8 0 1.5.5 1.5 1zm130.3-18.6v1.7s-115.3-.8-153.7-.8c-11.6 0-46.4.8-46.4.8v-1.7s34.5-.8 46-.9c38.5-.2 154 1 154 1zm0-29.7v1H.3v-1h200zm-49.3 14c-36.4.2-83.2.5-105.1.5-11.4 0-45.6-.8-45.6-.8v-2.3s58.6 1.5 78.2 1.5c15.2 0 45.6-.3 72.3-.7zm9.4-1.9l39.8-.7v2.3l-39.4.2z"/>
    </pattern>
    <symbol id="dots-pattern" viewBox="0 0 16 16">
      <circle cx="15.4" cy="7.1" r=".5"/>
      <circle cx="5.7" cy="9.8" r=".5"/>
      <circle cx="1.5" cy="1.9" r=".1"/>
      <circle cx="6.4" cy="7.9" r=".4"/>
      <circle cx="14" cy="5.8" r=".4"/>
      <circle cx="5.2" cy=".4" r=".4"/>
      <path d="M1 1L0 0v2l1-1zm0 10l-1-1v2a1 1 0 001-1z"/>
      <circle cx="7" cy="13.3" r=".8"/>
      <circle cx="3.1" cy="11.8" r=".5"/>
      <circle cx="6.2" cy="3.7" r=".8"/>
      <circle cx="2.1" cy="13.3" r=".5"/>
      <path d="M1 4a1 1 0 000-1H0v1h1z"/>
      <circle cx="8.8" cy="7.1" r=".3"/>
      <circle cx="14.1" cy="1.2" r=".5"/>
      <circle cx="6.2" cy="1.5" r=".5"/>
      <path d="M1 13a1 1 0 00-1-1v1h1zM16 1v1-2a1 1 0 000 1zm-1 10l1 1v-2l-1 1zm1 2v-1a1 1 0 000 1zM2 1V0H1l1 1z"/>
      <circle cx="9" cy=".7" r=".2"/>
      <circle cx="12" cy="15.7" r=".2"/>
      <circle cx="9" cy="13" r=".2"/>
      <circle cx="12" cy="13" r=".2"/>
      <circle cx="6" cy="15" r=".2"/>
      <circle cx="4" cy="12" r=".2"/>
      <circle cx="7" cy="11" r=".2"/>
      <circle cx="4.9" cy="7.5" r=".2"/>
      <circle cx="8" cy="10.5" r=".2"/>
      <circle cx="2" cy="15" r=".2"/>
      <circle cx="9.8" cy="11.5" r=".2"/>
      <circle cx="11.8" cy="9.5" r=".3"/>
      <circle cx="13.8" cy="12.5" r=".2"/>
      <path d="M7 1l1-1H7v1z"/>
      <circle cx="13.7" cy="4" r=".3"/>
      <circle cx="11.8" cy="3.4" r=".2"/>
      <circle cx="10.7" cy="4.8" r=".1"/>
      <circle cx="12.4" cy="4.5" r=".4"/>
      <circle cx="10.9" cy="5.7" r=".4"/>
      <ellipse cx="13.3" cy="7.5" rx=".7" ry=".6"/>
      <circle cx="10.2" cy="3.9" r=".2"/>
      <circle cx="11.9" cy="5.5" r=".2"/>
      <circle cx="14.3" cy="15.4" r=".4"/>
      <circle cx=".7" cy="15.4" r=".6"/>
      <circle cx="13.1" cy="14.1" r=".6"/>
      <circle cx="9.1" cy="5.5" r=".7"/>
      <path d="M2 16H1h1zm5-1a1 1 0 000 1h1a1 1 0 00-1-1z"/>
      <circle cx=".6" cy="14.2" r=".3"/>
      <circle cx="14.8" cy="9.5" r=".2"/>
      <circle cx="3" cy="1.7" r=".2"/>
      <circle cx="1" cy="10.7" r=".2"/>
      <circle cx="2" cy="11.7" r=".2"/>
      <circle cx="3.8" cy="10.5" r=".2"/>
      <circle cx=".8" cy="9.5" r=".2"/>
      <circle cx="12.8" cy=".5" r=".2"/>
      <circle cx="1.5" cy="7.6" r=".2"/>
      <circle cx="4.7" cy=".7" r=".3"/>
      <circle cx="14.6" cy="5.5" r=".6"/>
      <circle cx="10" cy="10.3" r=".4"/>
      <circle cx="14.3" cy=".2" r=".2"/>
      <circle cx="3.3" cy="6.8" r=".2"/>
      <circle cx="4.5" cy="6.8" r=".2"/>
      <circle cx="7" cy="7.3" r=".6"/>
      <circle cx="6.1" cy="5.4" r=".4"/>
      <circle cx="1.9" cy="2.3" r=".4"/>
      <circle cx="3.6" cy=".6" r=".5"/>
      <circle cx="9.6" cy="14.5" r=".4"/>
      <circle cx="6.3" cy="9.9" r=".4"/>
      <circle cx="7.9" cy="4.3" r=".4"/>
      <circle cx="10.9" cy="1.9" r=".4"/>
      <circle cx="4.1" cy="8.5" r=".6"/>
      <circle cx=".5" cy="7.7" r=".4"/>
      <circle cx="15.2" cy=".5" r=".4"/>
      <circle cx="15.2" cy="8.5" r=".4"/>
      <circle cx="2.2" cy="8.5" r=".4"/>
      <circle cx="2.2" cy="6.5" r=".4"/>
      <circle cx=".5" cy="6.9" r=".1"/>
      <circle cx="8.3" cy="14.9" r=".3"/>
      <circle cx="14.3" cy="12.9" r=".3"/>
      <circle cx="11.3" cy="14.9" r=".3"/>
      <circle cx="3.3" cy="13.9" r=".3"/>
      <circle cx="3.3" cy="3.9" r=".3"/>
      <circle cx="11.4" cy="11.1" r=".5"/>
      <circle cx="8.4" cy="9.1" r=".5"/>
      <circle cx="12.2" cy="11.8" r=".4"/>
      <circle cx="15.2" cy="14.8" r=".4"/>
      <circle cx="8.2" cy="11.8" r=".3"/>
      <circle cx=".5" cy="5.5" r=".4"/>
      <circle cx="10.4" cy="13.1" r=".5"/>
      <circle cx="9.4" cy="3.1" r=".5"/>
      <circle cx="8" cy="2.1" r=".3"/>
      <circle cx="5.3" cy="12.6" r=".5"/>
      <circle cx="13.5" cy="9.8" r=".7"/>
      <circle cx="5.6" cy="11.8" r=".4"/>
      <circle cx="4" cy="5.8" r=".4"/>
      <circle cx="2.2" cy="5.1" r=".7"/>
      <circle cx="2.7" cy="9.8" r=".4"/>
      <circle cx="10.8" cy="8.6" r=".3"/>
      <circle cx="14.1" cy="12" r=".5"/>
      <circle cx="3.9" cy="14.9" r=".6"/>
      <circle cx="4" cy="2.9" r=".6"/>
      <circle cx="10.7" cy="7.8" r=".5"/>
      <circle cx="15" cy="3.1" r=".7"/>
      <circle cx="10.7" cy=".5" r=".4"/>
      <circle cx="12.7" cy="2.5" r=".4"/>
    </symbol>
    <symbol id="button" viewBox="0 0 17.89 6.85">
      <circle class="cls-6" cx="9.16" cy="3.43" r="3.43"/>
      <path class="cls-7" d="M17.45.76a5.89,5.89,0,0,1-1.37.8,6.82,6.82,0,0,1-2.63.51"/>
      <path class="cls-7" d="M17.64,5.42a5.89,5.89,0,0,0-1.37-.8,6.59,6.59,0,0,0-2.63-.5"/>
      <path class="cls-7" d="M.44.76a5.78,5.78,0,0,0,1.38.8,6.79,6.79,0,0,0,2.63.51"/>
      <path class="cls-7" d="M.25,5.42a5.78,5.78,0,0,1,1.38-.8,6.56,6.56,0,0,1,2.63-.5"/>
      <circle class="cls-8" cx="7.91" cy="3.43" r="0.47"/>
      <circle class="cls-8" cx="10.45" cy="3.43" r="0.47"/>
      <path class="cls-9" d="M10.43,3.44a3.83,3.83,0,0,1-.92.23,4.43,4.43,0,0,1-1.6-.14"/>
    </symbol>
    <symbol id="shoulders" data-name="shoulders" viewBox="0 0 526.46 246.22">
      <path stroke="inherit" fill="inherit" d="M197.63,1c-21.33-7.06-36,32.36-48,41.31-18.15,13.57-59.31,34-80.86,41-13.91,4.54-41,19.32-50.22,30.65C3.24,132.73,1,174.18,1.24,198.47,1.34,210.38.13,246.1.13,246.1l526.16-5.54s-12.81-46.35-21-66c-3.5-8.34-10-35.3-16.5-41.6-17-16.48-89.84-48.62-89.84-48.62s-11.36,47.25-17,62.4c-7.83,21.1-39.38,66-39.38,66,.57.15-62.57-39-80-57.6-46.14-49.33-51.25-74.83-61.61-104.42-2.84-8.11-5.62-25.27-5.88-33.85C194.92,12.85,201.45,2.23,197.63,1Z"/>
    </symbol>
    <symbol id="eye" viewBox="0 0 46.63 22.27">
      <polygon class="cls-4" points="9.66 13.19 18.95 5.99 30.23 5.19 38.57 11.02 27.37 7.02 21.43 7.36 9.66 13.19"/>
      <polygon class="cls-4" points="6.76 14.41 21.62 18.71 33.43 18.07 42.12 12.62 30.34 16.2 21.5 16.77 6.76 14.41"/>
      <circle id="Left-pupil" class="cls-12" cx="25.4" cy="11.27" r="6.19"/>
      <circle id="Left-pupil-2" class="cls-6" cx="25.4" cy="11.27" r="3.86"/>
      <g id="Left-pupil-3" >
        <circle class="cls-13" cx="25.4" cy="11.27" r="5.03"/>
      </g>
      <path class="cls-14" d="M5.51,14.52c.39.13,12.89,4.33,18.75,4.54,10.49.37,17-5,17.21-6.17"/>
      <path class="cls-7" d="M13.54,19.85c.31.07,10.26,2.41,14.81,2.15,8.12-.47,12.72-5.1,12.83-6"/>
      <path id="lid-open" class="cls-15" d="M.11,16.62a37.83,37.83,0,0,0,14.4-7.83c7.2-6.34,17.39-3.4,20.86-.23,2,1.79,6.34,5.26,10.75,5.2-.21-.64-3.14-2.58-5.26-6.34S32.06.92,29,.56C21.32-.32,14.17,1.93,10.11,7,3,15.93.11,16.62.11,16.62Z"/>
      <polygon class="cls-4" points="24.46 0.59 30.46 0.77 38.61 5.04 45.43 13.31 43.94 13.25 37.63 6.33 24.46 0.59"/>
      <path id="lash-open" class="cls-17" d="M7.54,12.62c2.2-1.51,9.85-7.9,13.77-8.66a16.23,16.23,0,0,1,7.2.09c2.32.51,4.57,1.91,7.54,3.72,1.69,1,4.26,3.05,5.52,3.71"/>
      <path class="cls-18" d="M5.82,15.59A9,9,0,0,0,4,16.88a15.14,15.14,0,0,0-1.64,2.31"/>
      <path class="cls-18" d="M42.08,15.22a8.76,8.76,0,0,1,1.84,1.29,14.42,14.42,0,0,1,1.64,2.31"/>
    </symbol>
    <symbol id="hair_4" viewBox="0 0 10.63 15.73">
      <path class="cls-4" d="M9.21.85C8.94,3.07,8.9,3.75,8,5.4,7.5,6.2,5.44,9,4.5,10.62a16.6,16.6,0,0,1-3.92,4c-1,.74-.6,1.54.52,1A42.31,42.31,0,0,0,5.38,13C7.1,11.88,9.32,7.61,9.84,6.4s.57-3.69.77-5.18S9.36-.32,9.21.85Z"/>
    </symbol>
    <symbol id="Eyebrow" viewBox="0 0 59.96 22.95">
      <use width="10.63" height="15.73" transform="translate(48.26 8.26) rotate(-28.83) scale(0.65)" xlink:href="#hair_4"/>
      <use width="10.63" height="15.73" transform="translate(45.11 7.13) rotate(-31.01) scale(0.67)" xlink:href="#hair_4"/>
      <use width="10.63" height="15.73" transform="translate(51.62 10.61) rotate(-27.09) scale(0.54)" xlink:href="#hair_4"/>
      <use width="10.63" height="15.73" transform="translate(53.62 11.61) rotate(-27.09) scale(0.54)" xlink:href="#hair_4"/>
      <use width="10.63" height="15.73" transform="matrix(0.6, -0.4, 0.4, 0.6, 39.22, 5.91)" xlink:href="#hair_4"/>
      <use width="10.63" height="15.73" transform="translate(41.92 5.34) rotate(-25.88) scale(0.74)" xlink:href="#hair_4"/>
      <use width="10.63" height="15.73" transform="matrix(0.56, -0.59, 0.59, 0.56, 34.52, 6.19)" xlink:href="#hair_4"/>
      <use width="10.63" height="15.73" transform="matrix(0.46, -0.68, 0.68, 0.46, 31.16, 6.96)" xlink:href="#hair_4"/>
      <use width="10.63" height="15.73" transform="translate(28.7 7.7) rotate(-59.23) scale(0.82)" xlink:href="#hair_4"/>
      <use width="10.63" height="15.73" transform="matrix(0.3, -0.76, 0.76, 0.3, 25.47, 8.27)" xlink:href="#hair_4"/>
      <use width="10.63" height="15.73" transform="translate(23.26 9.79) rotate(-77.23) scale(0.82)" xlink:href="#hair_4"/>
      <use width="10.63" height="15.73" transform="translate(20.69 10.82) rotate(-77.23) scale(0.82)" xlink:href="#hair_4"/>
      <use width="10.63" height="15.73" transform="translate(18.42 11.64) rotate(-77.23) scale(0.82)" xlink:href="#hair_4"/>
      <use width="10.63" height="15.73" transform="matrix(0.12, -0.7, 0.7, 0.12, 17.06, 11.88)" xlink:href="#hair_4"/>
      <use width="10.63" height="15.73" transform="matrix(0.12, -0.7, 0.7, 0.12, 14.78, 12.39)" xlink:href="#hair_4"/>
      <use width="10.63" height="15.73" transform="translate(13.11 14.06) rotate(-90.29) scale(0.71)" xlink:href="#hair_4"/>
      <use width="10.63" height="15.73" transform="matrix(-0.07, -0.7, 0.7, -0.07, 12.14, 16.28)" xlink:href="#hair_4"/>
      <use width="10.63" height="15.73" transform="translate(11.42 18.08) rotate(-101.96) scale(0.71)" xlink:href="#hair_4"/>
      <use width="10.63" height="15.73" transform="translate(8.98 20.29) rotate(-110.36) scale(0.71)" xlink:href="#hair_4"/>
      <use width="10.63" height="15.73" transform="translate(7.9 22.85) rotate(-119.61) scale(0.71)" xlink:href="#hair_4"/>
      <use width="10.63" height="15.73" transform="matrix(-0.24, -0.66, 0.66, -0.24, 4.07, 23.91)" xlink:href="#hair_4"/>
      <use width="10.63" height="15.73" transform="translate(3.53 26.62) rotate(-119.61) scale(0.71)" xlink:href="#hair_4"/>
      <use width="10.63" height="15.73" transform="translate(3.47 27.38) rotate(-119.61) scale(0.59)" xlink:href="#hair_4"/>
    </symbol>
    <symbol id="Beard_Dense" viewBox="0 0 31.05 124.13">
      <path class="cls-3" d="M31,17.74C30.09,11.45,29.19,6,23.75,2.06,16.53-3.2-3,1.92,2.48,13.91,7.31,24.47.47,25.15,0,32.45c-.47,7.78,4.58,11.4,5.08,17.85.28,3.64-3.72,7.57-3.17,12.1.72,5.89,6.9,5.42,7.46,10.14.49,4.26-4.51,9.34-3.14,15.26,1.16,5,4.41,6.87,3.38,10.81-.86,3.31-1.84,5.73-2.7,9.76S13.52,124,18.72,124.12c4.25.07.83-8.07.88-10.5.15-7.44,4-9.32,3.65-17.17-.3-6-5.9-7.37-3.25-14,2.07-5.21,8.8-4.31,7.92-12.32C27.21,63.71,20,62,23.13,55c2.16-6.65-3.44-13.58-1.84-19.21C22,33.19,32.1,25.91,31,17.74Z"/>
    </symbol>
    <symbol id="Beard_Large" viewBox="0 0 24.26 142.64">
      <path class="cls-4" d="M7.47.15C6.18-.73,6.11,2.59,6.14,2.92,6.34,4.65,8,5.7,9.23,6.65c2,1.6,4.25,1.52,3.42,4.6S7.28,15.43,5.19,17A12.55,12.55,0,0,0,.26,29.59C1.4,35.11,5.5,37.07,10,39.5c3.16,1.7,7.43,4.15,4.53,8.17-3.63,5-14.8,5.86-11.27,14.81,1.92,4.89,14.59,7.79,12.61,12.85-1.47,3.76-7.09,4.5-8.5,8.86-1.34,4.18.9,8.12,4.14,10.71,2.72,2.17,11.12,4.37,4.25,7.35-3.42,1.48-7.16.92-9.66,4.28a7.71,7.71,0,0,0,1.11,10.4c3.09,2.64,7.8,1.12,10.78,3.37,3.81,2.88-.08,5-3,6.19-4.14,1.64-9,1.94-10.31,7.07-1,3.78,1.35,8.27,5.39,8.95,2.54.43,3.94-.23,2.21-1.8C10,138.6,4.65,139.47,7.06,134c2.75-6.33,19.73-1.88,16.87-13.09-1.22-4.79-6.25-5-10.13-6-2.78-.71-7-2.39-4.11-6,2.21-2.75,7.67-1.81,10.56-4,3.59-2.64,3.84-6.76.58-9.76-2.93-2.69-10.28-3.8-8.68-9.38C13,83,18,81.42,19.79,79c3-3.94,2.43-8.08-1.26-11.26-5-4.34-15.14-6.27-6.12-12.3,3.94-2.63,8.68-5.46,7.94-11-.7-5.26-5.8-7.5-9.78-10C7.06,32.34,4,29.26,5.42,24.68s6.81-5.6,9.64-9.1C21.64,7.46,13.07,3.76,7.47.15Z"/>
    </symbol>
    <symbol id="Beard_Thin-2" viewBox="0 0 20.61 138.34">
      <path class="cls-4" d="M7.78,0C-4,6.1,0,17.58,4.05,28.11c2.92,7.66,6.55,16,4,24.25C5.83,59.51,1,64.28,1.61,72.33,2.28,81,7.78,84,12,90.37c4.61,7,1,13.33-1,20.38-2.54,8.92-1.27,23.9,9.56,27.59-10.51-3.58-11-19.5-8.58-27.68,2.61-8.68,5.3-14.06-.34-22.15C7.33,82.26,2.93,79,2.92,70.63c0-7,4.42-11.74,6.3-18.1,2.54-8.61-.93-17.05-4-25C1.28,17.18-2.68,7.54,7.78,0Z"/>
    </symbol>
    <symbol id="hair_2" viewBox="0 0 43.11 45.3">
      <path class="cls-4" d="M43,.79c.33-.76-.43-1.23-1-.17a24.51,24.51,0,0,1-7,7.57C30.77,11,24.2,15.66,20.86,19.5c-2.49,2.86-7.12,7.87-9.14,11.69-1.26,2.37-3.23,4.46-5,6.77a46.27,46.27,0,0,1-6.52,6.4c-.54.42,0,1.22.52.83a53.76,53.76,0,0,0,7.05-6,47.1,47.1,0,0,0,5.52-7A82.48,82.48,0,0,1,21.83,21.5a75.82,75.82,0,0,1,11.54-10A49.33,49.33,0,0,0,40.15,5.3,15.67,15.67,0,0,0,43,.79Z"/>
    </symbol>
    <symbol id="hair_3" viewBox="0 0 42.92 45.34">
      <path class="cls-3" d="M42.88.75c.24-.8-.72-1.13-1.34-.12-1.37,2.25-2.31,3.16-4.87,5.56C33,9.68,26.46,11.83,20.38,18A63.15,63.15,0,0,0,11.3,29.88C10,32.25,8.65,35.17,6.65,37.32S1.77,42.61.24,44.05c-.5.47-.23,1.69.92,1.15A35.44,35.44,0,0,0,10,38.34c2.53-2.56,6.22-8.81,8-10.93,2.42-2.93,3.5-4.61,5.87-7.25,3.3-3.69,7.54-5.94,11.8-9a22.42,22.42,0,0,0,5.49-5.84C42.46,3.3,42.36,2.4,42.88.75Z"/>
    </symbol>
    <symbol id="hair_5" viewBox="0 0 121.51 50.15">
      <path class="cls-3" d="M2.79,10.86c-3.28,1.22-3.78-.75-.92-2C9.37,5.64,25.83,1,32.12.27c9.6-1.13,31.21,1.44,40.23,4.91,13.49,5.2,25.72,10.35,31.26,21.15,4.44,8.65,11.83,20.4,16.68,21.37,1.92.38,1.44,2.84-.45,2.4-8.52-2-14.21-13.83-20-23.26C92.18,14.16,76,10.7,69.32,8.33,60.64,5.23,44.71,3.7,35.49,3.7,23,3.7,11.15,7.75,2.79,10.86Z"/>
    </symbol>
  </defs>
  <title>dwight-moody-headshot</title>
  <g id="coat">
    <use class="cls-24" width="526.46" height="246.22" transform="translate(5.96 252.68)" xlink:href="#shoulders"/>
    <use class="cls-80" width="526.46" height="246.22" transform="translate(20 260) scale(.95)" xlink:href="#shoulders"/>
    <path id="lapel-l" class="cls-80" d="M169.05,355.84s10.14,29.42,11.89,40.68c2.08,13.49,4.57,54.86,4.57,54.86l33.83,9.14-29,43.89,63.54,71.08" transform="translate(-23.21 -52.94)"/>
    <polyline id="lapel-r" class="cls-80" points="467.21 368.95 451.44 395.46 474.07 407.12 469.27 490.55"/>
    <path class="cls-24" d="M376.11,518.92a69.32,69.32,0,0,0,2-12.31c.41-7.37,1.08-33.73.62-41.1-.58-9.08-.37-21.05-1.45-30.07-.6-5-5-27.21-5-27.21s3.38,23.13,3.64,34c.16,6.85.36,21.72.7,35.74C377.1,498.48,377.1,498.53,376.11,518.92Z" transform="translate(-23.21 -52.94)"/>
    <polygon class="cls-24" points="350.22 496.2 348.99 465.67 361.29 478.47 361.29 495.46 350.22 496.2"/>
    <use width="17.89" height="6.85" transform="translate(329.29 435.2) scale(1.08)" xlink:href="#button"/>
    <path id="seam-l" class="cls-30" d="M347.58,501.88s-.17-38.07-.17-56.62a433.09,433.09,0,0,0-3.28-53" transform="translate(-23.21 -52.94)"/>
    <path id="seam-r" class="cls-30" d="M374.5,518s-.16-38.06-.16-56.61a431.87,431.87,0,0,0-3.29-53" transform="translate(-23.21 -52.94)"/>
    <use width="17.89" height="6.85" transform="translate(329.06 406.17) scale(1.08)" xlink:href="#button"/>
    <rect class="cls-31" x="33.18" y="232.91" width="538.31" height="361.82" transform="translate(1.14 -69.68) rotate(3.3)"/>
  </g>
  <g id="Face">
    <path class="cls-14" d="M356.6,251.55s-4.82-8.24-8.48-10c-4.09-1.95-9.74-1.25-9.74-1.25" transform="translate(-23.21 -52.94)"/>
    <path class="cls-32" d="M337.73,225.93c-2.37,7.82-16.67,37.87-34.81,48.38a80,80,0,0,1-12.79,5.34" transform="translate(-23.21 -52.94)"/>
    <use width="46.63" height="22.27" transform="translate(256.37 135.4) scale(1.08)" xlink:href="#eye"/>
    <path id="glare" class="cls-8" d="M299.11,199.32a20.53,20.53,0,0,1,5.65-.72c.9.11,4.6,2.3,4.6,2.3s-3.42-3.63-5.25-3.6S299.11,199.32,299.11,199.32Z" transform="translate(-23.21 -52.94)"/>
    <use width="46.63" height="22.27" transform="matrix(-1.04, -0.13, -0.13, 1.03, 387.77, 144.63)" xlink:href="#eye"/>
    <path id="glare-2" class="cls-8" d="M373.19,201.8a20.82,20.82,0,0,1,5.65-.73c.9.11,4.6,2.31,4.6,2.31s-3.42-3.63-5.25-3.6S373.19,201.8,373.19,201.8Z" transform="translate(-23.21 -52.94)"/>
    <path class="cls-33" d="M363.09,191.39c-1.85,1.85-1.62,3.66-1.75,5.74s-.61,4.43.25,6.9c.74,2.11,12.57,14.73,13.15,21.31.32,3.55,19.22,18,18.22,33.78a15.62,15.62,0,0,1-12.81,14.31c-6.93,1.48-16-3.21-25.61-6.74-4.17-1.54-7.62-8.15-15.33-6.59-6.07,1.23-3.35,6.94-6.65,6.56-5.58-.63-5.81-5-6.16-11.37a16.82,16.82,0,0,1,2.24-8.24c1.39-1.78,3.82-6.05,5.41-5.24" transform="translate(-23.21 -52.94)"/>
    <path class="cls-34" d="M360.87,203.37,371,214.69l3.29,11.82,16.24,20.18L393,258.18s-3,8.92-5.25,11S376,273.77,376,273.77l-17.73-5.58-8.69-5.74,15.09,1.8,14.61.66,5.25-9-3.77-10.34-12.8-18.21Z" transform="translate(-23.21 -52.94)"/>
    <polygon class="cls-24" points="310.83 213.28 313.42 207.94 320.8 207.33 326.71 210.65 331.34 213.74 335.04 215.25 331.88 216.19 319.31 215.6 313.05 214.96 310.83 213.28"/>
    <path class="cls-32" d="M326.7,215.08c-4.3,6.93-14.94,19.76-35.17,25.24" transform="translate(-23.21 -52.94)"/>
    <path class="cls-32" d="M408.74,238.55c-8.12-.81-24.33-4.72-38.14-20.48" transform="translate(-23.21 -52.94)"/>
  </g>
  <g id="mouth">
    <path id="mouth-open" class="cls-38" d="M384.35,307.94c.31-.15.37-.52,0-.6-4.74-1-18.16-3.78-29.09-4-11.37-.26-25.9,2.8-30.19,3.69a.42.42,0,0,0-.09.79c2.41,1.17,5.24,4.08,15.93,6.56,4.91,1.14,20.34,1.71,30.28-1.26A86.59,86.59,0,0,0,384.35,307.94Z" transform="translate(-23.21 -52.94)"/>
    <path id="mouth-top" class="cls-39" d="M323,307.25s19-4.24,32.33-3.94c13.51.31,30.85,4.43,30.85,4.43" transform="translate(-23.21 -52.94)"/>
  </g>
  <g id="Left_eyebrow" >
    <use width="59.96" height="22.95" transform="translate(245.4 114.19) scale(1.08)" xlink:href="#Eyebrow"/>
  </g>
  <g id="Right_eyebrow" >
    <use width="59.96" height="22.95" transform="matrix(-0.85, 0, 0, 0.85, 390.34, 125.53)" xlink:href="#Eyebrow"/>
  </g>
  <g id="Beard_foundation" >
    <use width="31.05" height="124.13" transform="translate(248.56 245.85) rotate(6.03) scale(1.08)" xlink:href="#Beard_Dense"/>
    <use width="31.05" height="124.13" transform="translate(263.73 253.32) scale(1.24 1.32)" xlink:href="#Beard_Dense"/>
    <use width="31.05" height="124.13" transform="matrix(0.91, -0.03, 0.05, 1.34, 317.21, 252.53)" xlink:href="#Beard_Dense"/>
    <use width="31.05" height="124.13" transform="matrix(0.8, -0.03, 0.05, 1.35, 302.25, 253.98)" xlink:href="#Beard_Dense"/>
    <use width="31.05" height="124.13" transform="matrix(-1.01, 0, 0, 1.2, 319.72, 255.5)" xlink:href="#Beard_Dense"/>
    <use width="31.05" height="124.13" transform="matrix(1, 0.09, -0.08, 0.95, 229.01, 229)" xlink:href="#Beard_Dense"/>
    <use width="31.05" height="124.13" transform="matrix(-0.83, -0.1, -0.1, 0.83, 239.4, 215.5)" xlink:href="#Beard_Dense"/>
    <use width="31.05" height="124.13" transform="matrix(1.21, -0.07, 0.08, 1.36, 332.99, 255.49)" xlink:href="#Beard_Dense"/>
    <use width="31.05" height="124.13" transform="matrix(0.88, -0.13, 0.16, 1.05, 353.5, 260.1)" xlink:href="#Beard_Dense"/>
    <use width="31.05" height="124.13" transform="matrix(-0.5, 0.1, 0.13, 0.66, 399.76, 250.55)" xlink:href="#Beard_Dense"/>
    <use width="31.05" height="124.13" transform="matrix(-0.61, 0.11, 0.14, 0.8, 389.86, 257.48)" xlink:href="#Beard_Dense"/>
    <use width="31.05" height="124.13" transform="matrix(0.59, -0.08, 0.11, 0.84, 388.52, 209.38)" xlink:href="#Beard_Dense"/>
    <use width="31.05" height="124.13" transform="matrix(-0.66, -0.09, -0.09, 0.64, 226.84, 195.94)" xlink:href="#Beard_Dense"/>
  </g>
  <g id="Beard_Thick" >
    <use width="24.26" height="142.64" transform="translate(243.13 230.9) scale(1.08)" xlink:href="#Beard_Large"/>
    <use width="24.26" height="142.64" transform="translate(243.13 230.9) scale(1.08)" xlink:href="#Beard_Large"/>
    <use width="24.26" height="142.64" transform="matrix(-1.07, 0.1, 0.1, 1.07, 278.41, 247.05)" xlink:href="#Beard_Large"/>
    <use width="24.26" height="142.64" transform="translate(281.3 262.6) scale(0.86 0.88)" xlink:href="#Beard_Large"/>
    <use width="24.26" height="142.64" transform="translate(294.28 264.43) scale(1.08)" xlink:href="#Beard_Large"/>
    <use width="24.26" height="142.64" transform="matrix(-1.2, 0.14, 0.11, 0.93, 333.34, 252.37)" xlink:href="#Beard_Large"/>
    <use width="24.26" height="142.64" transform="matrix(1.12, -0.1, 0.09, 0.99, 324.44, 266.16)" xlink:href="#Beard_Large"/>
    <use width="24.26" height="142.64" transform="matrix(1.01, 0.09, -0.06, 0.74, 210.79, 203.99)" xlink:href="#Beard_Large"/>
    <use width="24.26" height="142.64" transform="matrix(0.8, 0.07, -0.05, 0.59, 204.09, 190.87)" xlink:href="#Beard_Large"/>
    <use width="24.26" height="142.64" transform="translate(224.82 217.14) scale(1.12 0.95)" xlink:href="#Beard_Large"/>
    <use width="24.26" height="142.64" transform="translate(336.38 256.14) rotate(-6.33) scale(1.15)" xlink:href="#Beard_Large"/>
    <use width="24.26" height="142.64" transform="matrix(-1.17, 0.24, 0.18, 0.88, 379.7, 254.36)" xlink:href="#Beard_Large"/>
    <use width="24.26" height="142.64" transform="matrix(1.15, -0.14, 0.1, 0.79, 375.48, 256.74)" xlink:href="#Beard_Large"/>
    <use width="24.26" height="142.64" transform="matrix(-1.14, 0.23, 0.16, 0.78, 412.5, 233.77)" xlink:href="#Beard_Large"/>
    <use width="24.26" height="142.64" transform="matrix(-0.88, 0.18, 0.16, 0.78, 402.9, 196.26)" xlink:href="#Beard_Large"/>
    <use width="24.26" height="142.64" transform="translate(268.47 256.1) scale(1.08)" xlink:href="#Beard_Large"/>
    <use width="24.26" height="142.64" transform="translate(285.2 257.42) scale(1.1)" xlink:href="#Beard_Large"/>
  </g>
  <g id="Beard_Thin" >
    <use width="20.61" height="138.34" transform="translate(314.55 268.05) scale(1.08 0.92)" xlink:href="#Beard_Thin-2"/>
    <use width="20.61" height="138.34" transform="matrix(1.07, -0.13, 0.12, 1, 320.15, 265.19)" xlink:href="#Beard_Thin-2"/>
    <use width="20.61" height="138.34" transform="matrix(1.04, 0.29, -0.23, 0.81, 385.14, 249.66)" xlink:href="#Beard_Thin-2"/>
    <use width="20.61" height="138.34" transform="matrix(1.04, 0.29, -0.23, 0.81, 239.59, 228.58)" xlink:href="#Beard_Thin-2"/>
    <use width="20.61" height="138.34" transform="matrix(1.04, 0.29, -0.17, 0.6, 224.73, 212.38)" xlink:href="#Beard_Thin-2"/>
    <use width="20.61" height="138.34" transform="matrix(1.04, 0.29, -0.23, 0.81, 276.74, 258.85)" xlink:href="#Beard_Thin-2"/>
    <use width="20.61" height="138.34" transform="matrix(1.4, 0.4, -0.29, 1.03, 293.02, 263.1)" xlink:href="#Beard_Thin-2"/>
    <use width="20.61" height="138.34" transform="matrix(-1.12, 0, 0, 1.12, 306.97, 256.93)" xlink:href="#Beard_Thin-2"/>
    <use width="20.61" height="138.34" transform="matrix(-1.05, 0.22, 0.18, 0.85, 361.74, 260.42)" xlink:href="#Beard_Thin-2"/>
    <use width="20.61" height="138.34" transform="translate(338.31 265.01) scale(1.08 0.82)" xlink:href="#Beard_Thin-2"/>
    <use width="20.61" height="138.34" transform="matrix(-1.09, 0, 0, 1.09, 296.59, 255.76)" xlink:href="#Beard_Thin-2"/>
    <use width="20.61" height="138.34" transform="translate(242.06 238.12) scale(1.08)" xlink:href="#Beard_Thin-2"/>
    <use width="20.61" height="138.34" transform="translate(315.03 266.9) scale(1.08 1.09)" xlink:href="#Beard_Thin-2"/>
    <use width="20.61" height="138.34" transform="translate(391.77 213.73) scale(1.08 0.41)" xlink:href="#Beard_Thin-2"/>
    <use width="20.61" height="138.34" transform="matrix(1.06, 0.17, -0.09, 0.59, 389.63, 247.14)" xlink:href="#Beard_Thin-2"/>
    <use width="20.61" height="138.34" transform="translate(391.77 211.27) scale(1.08 0.85)" xlink:href="#Beard_Thin-2"/>
    <use width="20.61" height="138.34" transform="translate(391.52 237.12) scale(1.08 0.85)" xlink:href="#Beard_Thin-2"/>
    <use width="20.61" height="138.34" transform="matrix(1.08, -0.05, 0.03, 0.65, 393.03, 247.76)" xlink:href="#Beard_Thin-2"/>
    <use width="20.61" height="138.34" transform="translate(355.58 263.21) scale(1.08 1.09)" xlink:href="#Beard_Thin-2"/>
    <use width="20.61" height="138.34" transform="translate(268.44 253.61) scale(1.08 1.09)" xlink:href="#Beard_Thin-2"/>
    <use width="20.61" height="138.34" transform="translate(383.78 253.73) scale(1.08 0.91)" xlink:href="#Beard_Thin-2"/>
    <use width="20.61" height="138.34" transform="matrix(-1.14, 0.18, 0.18, 1.15, 342.64, 250.81)" xlink:href="#Beard_Thin-2"/>
    <use width="20.61" height="138.34" transform="matrix(1.07, -0.14, 0.14, 1.08, 263.61, 253.53)" xlink:href="#Beard_Thin-2"/>
    <use width="20.61" height="138.34" transform="translate(257.37 244.01) scale(1.08 1.09)" xlink:href="#Beard_Thin-2"/>
    <use width="20.61" height="138.34" transform="matrix(1.06, 0.21, -0.18, 0.92, 241.19, 231.09)" xlink:href="#Beard_Thin-2"/>
  </g>
  <g id="Moustace">
    <use width="31.05" height="124.13" transform="translate(298.52 212.2) rotate(11.23) scale(0.34)" xlink:href="#Beard_Dense"/>
    <use width="31.05" height="124.13" transform="matrix(0.25, 0.05, -0.06, 0.3, 291.82, 215.9)" xlink:href="#Beard_Dense"/>
    <use width="31.05" height="124.13" transform="translate(284.86 219.15) rotate(11.23) scale(0.28)" xlink:href="#Beard_Dense"/>
    <use width="31.05" height="124.13" transform="matrix(0.24, 0.05, -0.06, 0.28, 307.9, 213.86)" xlink:href="#Beard_Dense"/>
    <use width="31.05" height="124.13" transform="matrix(0.24, 0.03, -0.03, 0.28, 313.68, 213.6)" xlink:href="#Beard_Dense"/>
    <use width="31.05" height="124.13" transform="matrix(-0.27, -0.06, -0.05, 0.25, 288.73, 223.52)" xlink:href="#Beard_Dense"/>
    <use width="31.05" height="124.13" transform="matrix(-0.29, 0.01, 0.01, 0.27, 326.26, 214.76)" xlink:href="#Beard_Dense"/>
    <use width="31.05" height="124.13" transform="matrix(-0.27, 0.02, 0.02, 0.25, 334.02, 216.18)" xlink:href="#Beard_Dense"/>
    <use width="31.05" height="124.13" transform="matrix(-0.27, 0.02, 0.02, 0.25, 347.31, 218.52)" xlink:href="#Beard_Dense"/>
    <use width="31.05" height="124.13" transform="matrix(-0.27, 0.02, 0.02, 0.23, 358.64, 220.98)" xlink:href="#Beard_Dense"/>
    <use width="31.05" height="124.13" transform="matrix(-0.27, 0.02, 0.02, 0.21, 373.16, 226.64)" xlink:href="#Beard_Dense"/>
    <use width="31.05" height="124.13" transform="translate(275.91 224.99) rotate(11.23) scale(0.19)" xlink:href="#Beard_Dense"/>
    <use width="31.05" height="124.13" transform="matrix(0.24, -0.02, 0.03, 0.26, 334.09, 218.07)" xlink:href="#Beard_Dense"/>
    <use width="31.05" height="124.13" transform="matrix(0.24, -0.02, 0.02, 0.25, 344.92, 220.96)" xlink:href="#Beard_Dense"/>
    <use width="31.05" height="124.13" transform="matrix(0.25, -0.01, 0.01, 0.24, 358.89, 224.34)" xlink:href="#Beard_Dense"/>
    <use width="31.05" height="124.13" transform="matrix(0.22, 0, 0.01, 0.22, 373.26, 231.27)" xlink:href="#Beard_Dense"/>
    <use width="31.05" height="124.13" transform="matrix(0.17, 0, 0, 0.17, 378.89, 233.98)" xlink:href="#Beard_Dense"/>
    <use width="31.05" height="124.13" transform="matrix(0.18, 0, 0, 0.14, 383.32, 235.05)" xlink:href="#Beard_Dense"/>
    <use width="31.05" height="124.13" transform="matrix(0.21, 0.03, -0.03, 0.17, 269.99, 228.19)" xlink:href="#Beard_Dense"/>
    <use width="31.05" height="124.13" transform="matrix(0.21, 0.03, -0.03, 0.17, 263.9, 229.39)" xlink:href="#Beard_Dense"/>
    <use width="31.05" height="124.13" transform="matrix(0.21, 0.03, -0.03, 0.17, 258.51, 234.77)" xlink:href="#Beard_Dense"/>
    <use width="31.05" height="124.13" transform="matrix(0.18, 0, 0, 0.14, 387.1, 237.81)" xlink:href="#Beard_Dense"/>
    <use width="31.05" height="124.13" transform="matrix(0.18, 0, 0, 0.14, 390.33, 241.04)" xlink:href="#Beard_Dense"/>
    <use width="24.26" height="142.64" transform="translate(302.91 213.24) rotate(7.16) scale(0.28)" xlink:href="#Beard_Large"/>
    <use width="24.26" height="142.64" transform="matrix(0.28, 0.02, -0.02, 0.25, 309.51, 214.66)" xlink:href="#Beard_Large"/>
    <use width="24.26" height="142.64" transform="matrix(0.18, 0, 0, 0.25, 315.43, 214.81)" xlink:href="#Beard_Large"/>
    <use width="24.26" height="142.64" transform="matrix(0.18, 0, 0, 0.25, 324.78, 215.3)" xlink:href="#Beard_Large"/>
    <use width="24.26" height="142.64" transform="matrix(0.16, -0.01, 0.01, 0.23, 332.39, 216.94)" xlink:href="#Beard_Large"/>
    <use width="24.26" height="142.64" transform="matrix(0.16, -0.01, 0.01, 0.23, 345.6, 219.99)" xlink:href="#Beard_Large"/>
    <use width="24.26" height="142.64" transform="matrix(0.16, -0.01, 0.01, 0.2, 357.41, 222.94)" xlink:href="#Beard_Large"/>
    <use width="24.26" height="142.64" transform="matrix(0.16, -0.01, 0.01, 0.2, 364.91, 226.05)" xlink:href="#Beard_Large"/>
    <use width="24.26" height="142.64" transform="matrix(0.16, -0.01, 0.01, 0.2, 371.89, 228.91)" xlink:href="#Beard_Large"/>
    <use width="24.26" height="142.64" transform="matrix(0.17, -0.01, 0.01, 0.16, 381.88, 235.25)" xlink:href="#Beard_Large"/>
    <use width="24.26" height="142.64" transform="translate(293.41 216.74) rotate(7.16) scale(0.25)" xlink:href="#Beard_Large"/>
    <use width="24.26" height="142.64" transform="matrix(0.29, 0.04, -0.03, 0.21, 276.94, 223.56)" xlink:href="#Beard_Large"/>
  </g>
  <g id="Ear">
    <path class="cls-14" d="M228.3,217.82c-3.65-7.17-17.84-26.84-34.56-13.91-11.71,9.05,8.58,52.26,11.38,58.17s7.8,15.38,12.22,15.18c2.83-.13,7.54-3.32,8.86-5.48" transform="translate(-23.21 -52.94)"/>
    <path class="cls-40" d="M219,221.19c-.52-7.52-7.3-12.56-13.49-11.38-5.49,1-9.4,6.77-8.85,12.22.29,2.92,2.27,3.47,4.21,7.59,2.39,5.07,2,9.53,2.11,11.81.16,5.27,3,13.13,14.76,24.45" transform="translate(-23.21 -52.94)"/>
    <path class="cls-41" d="M223.25,235.52a5.68,5.68,0,0,0-1.69-6.74c-3-2-8.7.81-11,4.64-3.83,6.47,2.5,15.18,3.79,16.86,2,2.61,4.55,4.61,5.06,4.21,1-.79-7.42-10.43-4.64-14.75C216.6,237,221.56,238.68,223.25,235.52Z" transform="translate(-23.21 -52.94)"/>
    <path class="cls-43" d="M197.17,221c-.29-4.35,2.83-10.95,10-11.32,8.87-.46,12.57,11.62,12.57,11.62l-10.1-5.59-5.54,2-1,5.17,5,24,8.37,16.86s-6.94-6.28-10.46-14.28c-2.76-6.27-2.13-14.33-3.07-16.4C201.59,230,197.43,224.78,197.17,221Z" transform="translate(-23.21 -52.94)"/>
    <path class="cls-43" d="M190.9,211.66c.12-5.91,6-11.6,13.17-12,8.86-.46,16,7.66,16,7.66l-11.94-4.06-7.63.49-7,7,2,17.6,2.05,6.71,8.29,25.9,10,11.94,9.6.25s-5.17,4.55-9,3.2c-6.23-2.22-9.88-12-12.06-17-2.76-6.27-6.07-14.91-7-17C195.92,239.39,190.69,221.53,190.9,211.66Z" transform="translate(-23.21 -52.94)"/>
  </g>
  <g id="Hair">
    <path class="cls-40" d="M365,282.41" transform="translate(-23.21 -52.94)"/>
    <use width="43.11" height="45.29" transform="translate(176.49 80.51) scale(1.08)" xlink:href="#hair_2"/>
    <use width="43.11" height="45.29" transform="translate(176.15 90.02) scale(1.08)" xlink:href="#hair_2"/>
    <use width="43.11" height="45.29" transform="translate(177.72 71.25) scale(1.08)" xlink:href="#hair_2"/>
    <use width="43.11" height="45.29" transform="matrix(1.16, 0.06, -0.06, 1.16, 179.84, 58.3)" xlink:href="#hair_2"/>
    <use width="43.11" height="45.29" transform="matrix(1.07, 0.12, -0.12, 1.07, 184.49, 50.55)" xlink:href="#hair_2"/>
    <use width="43.11" height="45.29" transform="translate(179.09 105.69) scale(0.87)" xlink:href="#hair_2"/>
    <use width="43.11" height="45.29" transform="translate(186.28 114.79) scale(0.62 0.68)" xlink:href="#hair_2"/>
    <use width="43.11" height="45.29" transform="translate(190.38 39.73) rotate(11.04) scale(1.08)" xlink:href="#hair_2"/>
    <use width="43.11" height="45.29" transform="translate(194.56 30.7) rotate(13.65) scale(1.08)" xlink:href="#hair_2"/>
    <use width="43.11" height="45.29" transform="translate(203.44 20.32) rotate(19.34) scale(1.08)" xlink:href="#hair_2"/>
    <use width="43.11" height="45.29" transform="translate(210.39 11.09) rotate(24.5) scale(1.08)" xlink:href="#hair_2"/>
    <use width="43.11" height="45.29" transform="translate(217.6 5.87) rotate(25.8) scale(0.97)" xlink:href="#hair_2"/>
    <use width="43.11" height="45.29" transform="translate(230.22 4.92) rotate(32.22) scale(0.63)" xlink:href="#hair_2"/>
    <use width="43.11" height="45.29" transform="matrix(0.5, 0.29, -0.29, 0.5, 228.37, 4.56)" xlink:href="#hair_2"/>
    <use width="43.11" height="45.29" transform="translate(227.03 6.21) rotate(29.18) scale(0.67)" xlink:href="#hair_2"/>
    <use width="42.92" height="45.34" transform="matrix(0.43, -0.05, 0.05, 0.43, 192.94, 132.44)" xlink:href="#hair_3"/>
    <use width="42.92" height="45.34" transform="translate(180.76 111.47) scale(0.77)" xlink:href="#hair_3"/>
    <use width="42.92" height="45.34" transform="translate(187.5 119.09) scale(0.61)" xlink:href="#hair_3"/>
    <use width="42.92" height="45.34" transform="translate(190.47 125.49) scale(0.51)" xlink:href="#hair_3"/>
    <use width="42.92" height="45.34" transform="matrix(0.33, -0.07, 0.07, 0.33, 197.68, 142.64)" xlink:href="#hair_3"/>
    <g id="hair-left-symbols">
      <use width="42.92" height="45.34" transform="translate(175.1 98.64) scale(1.01)" xlink:href="#hair_3"/>
      <use width="42.92" height="45.34" transform="translate(179.34 73.83) scale(1.08)" xlink:href="#hair_3"/>
      <use width="42.92" height="45.34" transform="translate(179.38 64.57) rotate(2.08) scale(1.13)" xlink:href="#hair_3"/>
      <use width="42.92" height="45.34" transform="translate(183.34 53.48) rotate(5.99) scale(1.11)" xlink:href="#hair_3"/>
      <use width="42.92" height="45.34" transform="translate(193.02 36.19) rotate(13.45) scale(1.04)" xlink:href="#hair_3"/>
      <use width="42.92" height="45.34" transform="matrix(0.98, 0.18, -0.18, 0.98, 189.99, 45.31)" xlink:href="#hair_3"/>
      <use width="42.92" height="45.34" transform="translate(198.38 26.46) rotate(16.92) scale(1.04)" xlink:href="#hair_3"/>
      <use width="42.92" height="45.34" transform="matrix(0.96, 0.39, -0.39, 0.96, 205.97, 18.3)" xlink:href="#hair_3"/>
      <use width="42.92" height="45.34" transform="translate(214.33 8.27) rotate(24.49) scale(1.05)" xlink:href="#hair_3"/>
      <use width="42.92" height="45.34" transform="translate(222.03 3.36) rotate(28.38) scale(0.91)" xlink:href="#hair_3"/>
      <use width="42.92" height="45.34" transform="matrix(1.08, -0.01, 0.01, 1.08, 176.38, 85.02)" xlink:href="#hair_3"/>
    </g>
    <use width="42.92" height="45.34" transform="translate(231.59 5.03) rotate(30.34) scale(0.58)" xlink:href="#hair_3"/>
    <use width="42.92" height="45.34" transform="translate(233.02 4.6) rotate(30.34) scale(0.47)" xlink:href="#hair_3"/>
    <use width="10.63" height="15.73" transform="translate(199.18 136.05) rotate(2.34) scale(1.17)" xlink:href="#hair_4"/>
    <use width="10.63" height="15.73" transform="translate(202.67 141.8) rotate(5.28) scale(1.03)" xlink:href="#hair_4"/>
    <use width="10.63" height="15.73" transform="matrix(1.03, 0, 0, 1.03, 207.29, 172.07)" xlink:href="#hair_4"/>
    <use width="10.63" height="15.73" transform="translate(205.41 166.61) rotate(-6.75) scale(1.03)" xlink:href="#hair_4"/>
    <use width="10.63" height="15.73" transform="translate(207.63 186.72) rotate(5.28) scale(1.43)" xlink:href="#hair_4"/>
    <use width="10.63" height="15.73" transform="translate(208.89 193.55) rotate(5.28) scale(1.43)" xlink:href="#hair_4"/>
    <use width="10.63" height="15.73" transform="translate(211.47 202.41) rotate(5.28) scale(1.43)" xlink:href="#hair_4"/>
    <use width="10.63" height="15.73" transform="matrix(1.03, 0.12, -0.12, 1.03, 209.58, 181.59)" xlink:href="#hair_4"/>
    <use width="10.63" height="15.73" transform="translate(210.54 177.44) rotate(6.56) scale(0.84)" xlink:href="#hair_4"/>
    <use width="10.63" height="15.73" transform="translate(211.8 173.75) rotate(6.56) scale(0.69)" xlink:href="#hair_4"/>
    <use width="10.63" height="15.73" transform="translate(210.21 170.43) rotate(6.56) scale(0.69)" xlink:href="#hair_4"/>
    <use width="10.63" height="15.73" transform="translate(198.7 130.95) rotate(13.69) scale(1.24)" xlink:href="#hair_4"/>
    <use width="10.63" height="15.73" transform="matrix(1.35, 0.5, -0.5, 1.35, 197.52, 124.34)" xlink:href="#hair_4"/>
    <use width="10.63" height="15.73" transform="translate(209.66 166.92) rotate(6.56) scale(0.69)" xlink:href="#hair_4"/>
    <use width="10.63" height="15.73" transform="translate(205.73 148.4) rotate(11.61) scale(0.81)" xlink:href="#hair_4"/>
    <use width="10.63" height="15.73" transform="translate(207.84 154.39) rotate(11.61) scale(0.6)" xlink:href="#hair_4"/>
    <use width="10.63" height="15.73" transform="translate(208.3 157.71) rotate(11.61) scale(0.6)" xlink:href="#hair_4"/>
    <use width="10.63" height="15.73" transform="translate(209.14 160.7) rotate(11.61) scale(0.6)" xlink:href="#hair_4"/>
    <use width="10.63" height="15.73" transform="translate(210.14 163.9) rotate(11.61) scale(0.6)" xlink:href="#hair_4"/>
    <use width="10.63" height="15.73" transform="translate(207.84 154.39) rotate(11.61) scale(0.6)" xlink:href="#hair_4"/>
    <use width="10.63" height="15.73" transform="matrix(1.03, 0, 0, 1.03, 211.6, 197.92)" xlink:href="#hair_4"/>
    <use width="10.63" height="15.73" transform="matrix(1.03, 0, 0, 1.03, 210.52, 185)" xlink:href="#hair_4"/>
    <use width="10.63" height="15.73" transform="translate(203.38 161.76) rotate(-13.78) scale(1.03)" xlink:href="#hair_4"/>
    <use width="10.63" height="15.73" transform="translate(202.3 155.3) rotate(-13.78) scale(1.03)" xlink:href="#hair_4"/>
    <use width="10.63" height="15.73" transform="matrix(0.97, -0.12, 0.12, 0.97, 203.21, 147.88)" xlink:href="#hair_4"/>
    <use width="10.63" height="15.73" transform="translate(201.43 141.45) rotate(3.8) scale(0.98)" xlink:href="#hair_4"/>
    <use width="42.92" height="45.34" transform="translate(203.54 151.97) rotate(-7.33) scale(0.22)" xlink:href="#hair_3"/>
    <use width="42.92" height="45.34" transform="translate(204.61 158.43) rotate(-7.33) scale(0.22)" xlink:href="#hair_3"/>
    <use width="42.92" height="45.34" transform="translate(205.69 165.97) rotate(-7.33) scale(0.22)" xlink:href="#hair_3"/>
    <use width="42.92" height="45.34" transform="translate(208.54 174.93) rotate(1.19) scale(0.22)" xlink:href="#hair_3"/>
    <use width="42.92" height="45.34" transform="translate(207.5 179.19) rotate(1.19) scale(0.27)" xlink:href="#hair_3"/>
    <use width="42.92" height="45.34" transform="matrix(0.27, 0, 0, 0.27, 208.43, 183.64)" xlink:href="#hair_3"/>
    <use width="42.92" height="45.34" transform="translate(206.41 189.03) rotate(-0.18) scale(0.36)" xlink:href="#hair_3"/>
    <g id="hair-right-symbols">
      <use width="10.63" height="15.73" transform="matrix(0.69, -0.71, -0.71, -0.69, 387.2, 74.21)" xlink:href="#hair_4"/>
      <use width="10.63" height="15.73" transform="matrix(0.69, -0.71, -0.71, -0.69, 384.43, 69.6)" xlink:href="#hair_4"/>
      <use width="10.63" height="15.73" transform="matrix(0.54, -0.56, -0.56, -0.54, 380.65, 62.75)" xlink:href="#hair_4"/>
      <use width="10.63" height="15.73" transform="matrix(0.74, -0.62, -0.62, -0.74, 387.85, 77.68)" xlink:href="#hair_4"/>
      <use width="10.63" height="15.73" transform="matrix(0.91, -0.57, -0.57, -0.91, 389.98, 84.23)" xlink:href="#hair_4"/>
      <use width="10.63" height="15.73" transform="matrix(0.92, -0.57, -0.57, -0.92, 390.8, 88.81)" xlink:href="#hair_4"/>
      <use width="10.63" height="15.73" transform="matrix(0.8, -0.46, -0.46, -0.8, 391.6, 91.92)" xlink:href="#hair_4"/>
      <use width="10.63" height="15.73" transform="matrix(0.8, -0.46, -0.46, -0.8, 393.92, 96.53)" xlink:href="#hair_4"/>
      <use width="10.63" height="15.73" transform="matrix(0.73, -0.42, -0.45, -0.78, 394.89, 100.15)" xlink:href="#hair_4"/>
      <use width="10.63" height="15.73" transform="matrix(0.73, -0.42, -0.45, -0.78, 395.37, 103.47)" xlink:href="#hair_4"/>
      <use width="10.63" height="15.73" transform="matrix(0.83, -0.09, -0.1, -0.9, 396.7, 144.73)" xlink:href="#hair_4"/>
      <use width="10.63" height="15.73" transform="matrix(0.83, -0.09, -0.1, -0.9, 396.33, 156.18)" xlink:href="#hair_4"/>
      <use width="10.63" height="15.73" transform="matrix(0.84, 0.04, 0.04, -0.9, 394.85, 161.25)" xlink:href="#hair_4"/>
      <use width="10.63" height="15.73" transform="matrix(0.67, 0.03, 0.03, -0.74, 394.81, 165.23)" xlink:href="#hair_4"/>
      <use width="10.63" height="15.73" transform="matrix(0.67, 0.03, 0.03, -0.74, 395.17, 172.99)" xlink:href="#hair_4"/>
      <use width="10.63" height="15.73" transform="matrix(0.67, 0.03, 0.03, -0.74, 394.39, 179.79)" xlink:href="#hair_4"/>
      <use width="10.63" height="15.73" transform="matrix(0.67, 0.03, 0.03, -0.74, 394.13, 185.98)" xlink:href="#hair_4"/>
      <use width="10.63" height="15.73" transform="matrix(0.64, -0.19, -0.21, -0.71, 396.15, 189.98)" xlink:href="#hair_4"/>
      <use width="10.63" height="15.73" transform="matrix(0.94, -0.35, -0.39, -1.04, 399.16, 219.93)" xlink:href="#hair_4"/>
      <use width="10.63" height="15.73" transform="matrix(0.93, -0.33, -0.36, -1.03, 397.92, 209.87)" xlink:href="#hair_4"/>
      <use width="10.63" height="15.73" transform="matrix(0.84, -0.26, -0.26, -0.84, 397.1, 213.79)" xlink:href="#hair_4"/>
      <use width="10.63" height="15.73" transform="matrix(0.84, -0.26, -0.26, -0.84, 397.44, 208.85)" xlink:href="#hair_4"/>
      <use width="10.63" height="15.73" transform="matrix(0.78, -0.24, -0.26, -0.84, 396.75, 202.2)" xlink:href="#hair_4"/>
      <use width="10.63" height="15.73" transform="matrix(0.78, -0.24, -0.26, -0.84, 396.19, 196.11)" xlink:href="#hair_4"/>
      <use width="10.63" height="15.73" transform="matrix(0.74, -0.23, -0.29, -0.96, 397.49, 201.13)" xlink:href="#hair_4"/>
      <use width="10.63" height="15.73" transform="matrix(0.84, -0.01, -0.01, -0.9, 396.42, 150.39)" xlink:href="#hair_4"/>
      <use width="10.63" height="15.73" transform="matrix(0.6, -0.34, -0.44, -0.77, 396.78, 108.02)" xlink:href="#hair_4"/>
      <use width="10.63" height="15.73" transform="matrix(0.6, -0.34, -0.44, -0.77, 396.98, 111.4)" xlink:href="#hair_4"/>
      <use width="10.63" height="15.73" transform="matrix(0.6, -0.34, -0.44, -0.77, 397.9, 116.75)" xlink:href="#hair_4"/>
      <use width="10.63" height="15.73" transform="matrix(0.55, -0.31, -0.43, -0.76, 398.16, 121.34)" xlink:href="#hair_4"/>
      <use width="10.63" height="15.73" transform="matrix(0.51, -0.3, -0.43, -0.73, 399.18, 126.49)" xlink:href="#hair_4"/>
      <use width="10.63" height="15.73" transform="matrix(0.36, -0.2, -0.41, -0.72, 400.03, 130.88)" xlink:href="#hair_4"/>
      <use width="10.63" height="15.73" transform="matrix(0.36, -0.2, -0.41, -0.72, 401.45, 137.99)" xlink:href="#hair_4"/>
    </g>
    <use width="43.11" height="45.29" transform="matrix(-0.04, 0.36, -0.39, -0.04, 410.6, 196.11)" xlink:href="#hair_2"/>
    <use width="43.11" height="45.29" transform="matrix(-0.04, 0.39, -0.43, -0.04, 412.46, 203.83)" xlink:href="#hair_2"/>
    <use width="43.11" height="45.29" transform="matrix(-0.03, 0.29, -0.34, -0.03, 408.19, 189.77)" xlink:href="#hair_2"/>
    <use width="121.51" height="50.15" transform="translate(249.05 0) scale(1.09)" xlink:href="#hair_5"/>
    <use width="121.51" height="50.15" transform="matrix(1.09, 0.04, -0.04, 1.09, 251.15, 2.13)" xlink:href="#hair_5"/>
    <use width="121.51" height="50.15" transform="matrix(1, 0.03, -0.03, 0.91, 251.99, 3.68)" xlink:href="#hair_5"/>
    <use width="121.51" height="50.15" transform="translate(255.37 7.25) rotate(3.15) scale(1.01)" xlink:href="#hair_5"/>
    <use width="121.51" height="50.15" transform="matrix(0.94, 0.05, -0.05, 0.88, 254.63, 5.4)" xlink:href="#hair_5"/>
    <use width="121.51" height="50.15" transform="matrix(0.93, 0.04, -0.04, 0.93, 258.11, 13.27)" xlink:href="#hair_5"/>
    <use width="121.51" height="50.15" transform="translate(257.51 9.06) rotate(5.68) scale(0.93)" xlink:href="#hair_5"/>
    <use width="121.51" height="50.15" transform="matrix(0.86, 0.03, -0.03, 0.86, 259.13, 16.34)" xlink:href="#hair_5"/>
    <use width="121.51" height="50.15" transform="translate(264.86 20.53) rotate(2.45) scale(0.76)" xlink:href="#hair_5"/>
    <use width="121.51" height="50.15" transform="matrix(0.8, 0.1, -0.09, 0.76, 259.1, 14.89)" xlink:href="#hair_5"/>
    <use width="121.51" height="50.15" transform="matrix(0.88, 0.11, -0.1, 0.83, 259.1, 12.74)" xlink:href="#hair_5"/>
    <use width="121.51" height="50.15" transform="matrix(0.72, 0.04, -0.04, 0.72, 262.07, 19.04)" xlink:href="#hair_5"/>
    <use width="121.51" height="50.15" transform="translate(258.62 12.29) rotate(6.65) scale(0.69)" xlink:href="#hair_5"/>
    <polygon class="cls-43" points="224.92 74.65 224.31 105.05 231.32 112.19 238.22 122.53 235.75 135.82 228.86 147.64 228.37 155.02 228.86 159.94 233.78 165.85 236.74 180.13 254.95 189.48 259.88 204.25 268.25 210.65 284 211.64 291.16 220.97 263.33 234.58 242.15 234.28 223.94 216.07 216.47 176.44 211.24 131.32 210.98 109.9 224.92 74.65"/>
    <polygon class="cls-43" points="278.75 127.53 308.86 133.11 317.11 141.97 320.27 149.77 319.2 159.94 316.08 154.86 305.42 137.3 278.75 127.53"/>
    <polygon class="cls-43" points="363.84 61.19 376.93 58.03 388.25 81.17 396.74 140.62 396.5 178.78 391.08 240.68 378.28 233.79 377.54 205.98 387.02 182.96 390.71 139.14 377.54 116.37 359.94 89.3 338.81 94.71 316.33 95.2 304.27 87.16 336.76 86.18 358.91 79.53 359 71.57 345.79 71.41 338.37 61.08 313.87 40.8 296.39 35.06 283.43 29.23 258.73 29.73 242.32 38.51 255.69 22.67 312.39 24.89 331.92 42.2 358.31 67.07 363.84 61.19"/>
    <polygon class="cls-43" points="315.92 111.7 327.16 114.41 341.76 112.03 335.69 119.82 331.32 138.96 330.36 143.78 325.03 123.76 315.92 111.7"/>
  </g>
  <g id="quote">
    <rect class="cls-6" x="648.24" y="273.13" width="84.11" height="6.7"/>
    <text class="cls-48" transform="translate(584.32 76.21)">I NEVE<tspan class="cls-49" x="82.79" y="0">R</tspan><tspan class="cls-50"><tspan class="cls-51" x="-46.97" y="52">P</tspan><tspan class="cls-52" x="-21.85" y="52">R</tspan><tspan x="4.83" y="52">E</tspan><tspan class="cls-53" x="24.98" y="52">A</tspan><tspan x="49.22" y="52">CHED</tspan></tspan><tspan class="cls-54"><tspan x="-46.27" y="94">a sermon yet</tspan><tspan class="cls-55" x="148.06" y="94"> </tspan></tspan><tspan class="cls-56"><tspan x="-47.23" y="133.6">th</tspan><tspan class="cls-57" x="-20.5" y="133.6">a</tspan><tspan x="-5.75" y="133.6">t I could not</tspan><tspan class="cls-55" x="149.02" y="133.6"> </tspan></tspan><tspan class="cls-58"><tspan class="cls-59" x="-47.52" y="173.2">P</tspan><tspan x="-29.51" y="173.2">IC</tspan><tspan class="cls-60" x="-1.69" y="173.2">K</tspan><tspan x="16.1" y="173.2"> </tspan><tspan class="cls-61" x="24.35" y="173.2">to </tspan><tspan class="cls-59" x="58.34" y="173.2">P</tspan><tspan x="76.36" y="173.2">IECE</tspan><tspan class="cls-60" x="133.08" y="173.2">S</tspan><tspan x="41.36" y="212.8">&amp;</tspan><tspan class="cls-62" x="60.43" y="212.8"> </tspan></tspan><tspan class="cls-63"><tspan class="cls-64" x="-47.04" y="251.8">F</tspan><tspan x="-34.41" y="251.8">IND </tspan><tspan class="cls-65" x="15.6" y="251.8">F</tspan><tspan class="cls-66" x="27.54" y="251.8">A</tspan><tspan x="43.5" y="251.8">U</tspan><tspan class="cls-67" x="60.84" y="251.8">L</tspan><tspan x="72.36" y="251.8">T</tspan><tspan class="cls-61" x="85.5" y="251.8" xml:space="preserve"> with.</tspan></tspan></text>
    <rect class="cls-6" x="538.22" y="60.13" width="40.08" height="6.7"/>
    <rect class="cls-6" x="692.28" y="60.13" width="40.08" height="6.7"/>
    <rect class="cls-6" x="538.22" y="273.13" width="83.62" height="6.7"/>
  </g>
</svg>
