<svg xmlns="http://www.w3.org/2000/svg" xmlns:xlink="http://www.w3.org/1999/xlink" viewBox="0 0 2838.81 2039.11">
  <defs>
    <style>
      .pt-10,.pt-11,.pt-13,.pt-14,.pt-3,.pt-4,.pt-5,.pt-6,.pt-7,.pt-8{
        stroke:#000;
        stroke-miterlimit:10
      }

      .pt-12,.pt-15,.pt-9{
        fill:url(#linear-gradient-crowd)
      }

      .pt-16 {
        clip-path:url(#clip-path-pattern)
      }

      .cls-1, .cls-10, .cls-23, .cls-24, .cls-29, .cls-30, .cls-36, .cls-39, .cls-41, .cls-42, .cls-43, .cls-50, .cls-52, .cls-55, .cls-79, .pt-1,.pt-4 {
        fill: none;
      }

      .cls-2, .cls-22, .cls-3, .cls-5, .cls-51, .cls-77, .pt-2,.pt-3 {
        fill: #fff;
      }

      .cls-10, .cls-17, .cls-18, .cls-19, .cls-20, .cls-21, .cls-22, .cls-23, .cls-24, .cls-25, .cls-26, .cls-27, .cls-28, .cls-29, .cls-3, .cls-31, .cls-34, .cls-35, .cls-36, .cls-37, .cls-39, .cls-41, .cls-42, .cls-43, .cls-5, .cls-50, .cls-51, .cls-52, .cls-55, .cls-56, .cls-58, .cls-6, .cls-60, .cls-64, .cls-65, .cls-68, .cls-69, .cls-7, .cls-73, .cls-75, .cls-76, .cls-77, .cls-78, .cls-79, .cls-8, .cls-80, .cls-81, .cls-82, .cls-85, .cls-86, .cls-87, .cls-88, .cls-99 {
        stroke: #000;
      }

      .cls-10, .cls-17, .cls-18, .cls-19, .cls-20, .cls-21, .cls-22, .cls-23, .cls-24, .cls-25, .cls-26, .cls-27, .cls-28, .cls-29, .cls-3, .cls-30, .cls-31, .cls-34, .cls-35, .cls-36, .cls-37, .cls-39, .cls-41, .cls-42, .cls-43, .cls-5, .cls-50, .cls-51, .cls-52, .cls-55, .cls-56, .cls-57, .cls-58, .cls-6, .cls-60, .cls-64, .cls-65, .cls-68, .cls-69, .cls-7, .cls-73, .cls-75, .cls-76, .cls-77, .cls-78, .cls-79, .cls-8, .cls-80, .cls-81, .cls-82, .cls-85, .cls-86, .cls-87, .cls-88, .cls-99 {
        stroke-miterlimit: 10;
      }

      .cls-3, .cls-42 {
        stroke-width: 0.75px;
      }

      .cls-4 {
        clip-path: url(#clip-path);
      }

      .cls-10, .cls-17, .cls-25, .cls-26, .cls-27, .cls-28, .cls-35, .cls-36, .cls-37, .cls-5, .cls-58, .cls-6, .cls-75, .cls-8, .cls-87, .cls-88 {
        stroke-width: 2px;
      }

      .cls-6, .cls-7, .cls-8, .cls-18, .cls-19, .cls-20, .cls-21, .cls-27, .cls-35, .cls-40, .cls-44, .cls-45, .cls-46, .cls-48, .cls-49, .cls-66, .cls-68, .cls-72, .cls-78, .cls-80, .cls-85, .cls-87 {
        fill: url(#ltLine);
      }

      .cls-70 {
        fill: url(#ltLineDeg5);
      }

      .cls-9, .cls-12, .cls-14 , .cls-16, .cls-53, .cls-54, .cls-62, .cls-63, .cls-64, .cls-82 {
        fill: url(#lineSolidHz);
      }
      .pt-13 {
        fill: url(#lineSolidSm);
      }
      .cls-73 {
        fill: url(#lineSolid);
      }
      .cls-69 {
        fill: url(#lineSolidDeg5);
      }
      .cls-65 {
        fill: url(#lineSolidDeg49);
      }

      .cls-10, .cls-24, .cls-29, .cls-30, .cls-39, .cls-41, .cls-42, .cls-52, .cls-55, .cls-77, .cls-99, .pt-4 {
        stroke-linecap: round;
      }

      .cls-11, .cls-13, .cls-15, .cls-25, .cls-57, .cls-75 {
        fill: url(#drkCross);
      }
      .pt-10,.pt-11,.pt-6  {
        fill: url(#drkCrossSm);
      }

      .cls-17, .cls-100 {
        fill: url(#line);
      }

      .cls-23 {
        stroke-width: 0.5px;
      }

      .cls-24 {
        stroke-width: 0.25px;
      }

      .cls-26, .cls-28 {
        fill: url(#feathers);
      }

      .cls-29, .cls-51 {
        stroke-width: 3px;
      }

      .cls-30 {
        stroke-width: 5px;
        stroke: url(#dots);
      }

      .cls-31, .cls-34 {
        fill: url(#wave-drk);
      }

      .cls-32, .cls-33 {
        fill: url(#wave-lt);
      }

      .cls-37, .cls-47, .cls-56,.cls-58, .cls-60, .cls-76, .pt-14,.pt-5,.pt-7,.pt-8 {
        fill: url(#dots);
      }

      .cls-38, .cls-39 {
        opacity: 0.5;
      }

      .cls-39, .cls-55, .cls-56, .cls-64, .cls-65, .cls-68, .cls-69, .cls-73, .cls-78, .cls-79, .cls-80, .cls-81, .cls-82, .cls-85, .cls-86, .cls-99 {
        stroke-width: 4px;
      }

      .cls-50, .cls-52 {
        stroke-width: 9px;
      }

      .cls-59 {
        opacity: 0.58;
      }

      .cls-61 {
        opacity: 0.55;
      }

      .cls-67 {
        fill: url(#linear-gradient);
      }

      .cls-68 {
        fill: url(#linear-gradient-2);
      }

      .cls-71 {
        clip-path: url(#clip-path-2);
      }

      .cls-74 {
        fill: url(#radial-gradient);
      }

      .cls-81 {
        fill: gray;
      }

      .cls-83 {
        fill: url(#crowd-pattern);
      }

      .cls-84 {
        opacity: 0.81;
        fill: url(#linear-gradient-3);
      }

      .cls-86 {
        fill: url(#linear-gradient-4);
      }

      .cls-88 {
        fill: url(#radial-gradient-2);
      }

      .cls-89 {
        font-size: 48px;
      }

      .cls-89, .cls-96 {
        font-family: Oswald-Medium, Oswald;
        font-weight: 500;
      }

      .cls-90 {
        font-size: 72px;
      }

      .cls-91 {
        font-size: 60px;
      }

      .cls-92 {
        letter-spacing: 0em;
      }

      .cls-93 {
        letter-spacing: -0.01em;
      }

      .cls-94 {
        letter-spacing: 0em;
      }

      .cls-95 {
        letter-spacing: 0em;
      }

      .cls-96 {
        font-size: 80px;
      }

      .cls-97 {
        letter-spacing: -0.01em;
      }

      .cls-98 {
        letter-spacing: -0.04em;
      }
    </style>
    <clipPath id="clip-path">
      <path class="cls-1" d="M69.47,18c1-.76,2.12-1.63,3.4-2.66C81.77,8.23,86.41,6,96,6c1.43,0,2.76,0,4,.16V0A36.15,36.15,0,0,0,83.87,3.42C80.34,5.1,78,6.76,73.12,10.66c-4.44,3.56-7.83,5.89-11.3,7.34Zm-42.6-7.34C22,6.77,19.67,5.12,16.14,3.42A36.23,36.23,0,0,0,0,0V6.16c7.08.62,11.57,3.14,19.12,9.18,1.3,1,2.4,1.9,3.4,2.66H38.18C34.71,16.56,31.32,14.22,26.87,10.66ZM50,2A29.39,29.39,0,0,1,38.18,0H22.52a39.22,39.22,0,0,0,7.34,4.58A36.23,36.23,0,0,0,46,8,36.23,36.23,0,0,0,62.14,4.58,39.22,39.22,0,0,0,69.48,0H61.82A29.36,29.36,0,0,1,50,2Z"/>
    </clipPath>
    <clipPath id="clip-path-pattern">
      <path d="M0 0h200v200H0z" class="pt-1"/>
    </clipPath>
    <linearGradient id="linear-gradient-crowd" x1="25.3" x2="25.3" y1="105.6" y2="81.4" gradientUnits="userSpaceOnUse">
      <stop offset="0" stop-color="#fff"/>
      <stop offset=".3" stop-color="#fff"/>
      <stop offset=".6" stop-color="#fff" stop-opacity=".7"/>
      <stop offset="1" stop-color="#fff" stop-opacity="0"/>
    </linearGradient>
    <pattern id="ltLine" width="200" height="187.5" patternTransform="matrix(0, -1, 0.79, 0, 2201.17, 809.81)" patternUnits="userSpaceOnUse" viewBox="0 0 200 187.5">
      <rect class="cls-2" width="200" height="187.5"/>
      <path d="M71 80.6H49.5L0 80.2v-.6h71s.8.1.8.4c0 .4-.9.6-.9.6zm13.2 0l115.8-.3v-.7H84.3s-.7 0-.8.4.7.6.7.6zM200 62h-43a1 1 0 0 1-1-1 1 1 0 0 1 1-.8h43zm0-16.6v2H96a1 1 0 0 1-1-1 1 1 0 0 1 1-1zM153.8 61a1 1 0 0 1-1 1l-70 .8L0 61.9v-1.6l82.7.8 70.1-.9a1 1 0 0 1 1 .9zM89.9 46.4a1 1 0 0 1-1 1H0v-2h88.8a1 1 0 0 1 1 1zM75.1 17.1H0v-1h75.2l-.1 1zm6.4-1H200v1H81.7l-.2-1zM200 29.7v1.9H25.6c-1.2 0-2-.4-2-1 0-.5.9-.9 2-.9zm-179 .9c0 .5-1 1-2 1H0v-1.9h18.9c1.1 0 2.1.4 2.1 1zM0 186.5h200v1H0zM108.9 174a1 1 0 0 1-1 1H0v-2h107.9a1 1 0 0 1 1 1zm57.9-.3a1 1 0 0 1-1 1H121a1 1 0 0 1-1-1 1 1 0 0 1 1-1h44.8a1 1 0 0 1 1 1zm20.2-.9h13v2h-13a1 1 0 0 1-1-1 1 1 0 0 1 1-1zM116.8 159a.8.8 0 0 1-.9.8c-2.7 0-11.6-.4-18.2-.4l-40.1.4a.8.8 0 0 1-.8-.8.8.8 0 0 1 .8-.8h58.3a.8.8 0 0 1 .8.8zm83.2-.8v1.7s-11.2-.5-19-.5l-40.2.4a.8.8 0 0 1-.8-.8.8.8 0 0 1 .8-.8zm-149.8.8a.8.8 0 0 1-.9.8c-2.4 0-9.6-.4-15-.4l-34.3.4v-1.6h49.4a.8.8 0 0 1 .8.8zM200 140.8v2H77.5c-.8 0-1.5-.4-1.5-1 0-.5.7-1 1.6-1zm-130 1c0 .6-.8 1-1.6 1H0v-2h68.4c.8 0 1.5.5 1.5 1zm130-18.5v1.7s-115.2-.9-153.6-.9c-11.6 0-46.4.9-46.4.9v-1.7l45.9-1c38.5-.2 154.1 1 154.1 1zm0-29.8v1H0v-1h200zm-49.2 14c-36.4.3-83.3.5-105.2.5-11.4 0-45.6-.8-45.6-.8V105s58.7 1.5 78.2 1.5c15.3 0 45.7-.4 72.4-.8zm9.4-1.9l39.8-.6v2.3l-39.5.2z"/>
    </pattern>
    <pattern id="ltLineDeg5" xlink:href="#ltLine" patternTransform="rotate(5)">
    </pattern>
    <pattern id="line" width="200" height="195" patternUnits="userSpaceOnUse" viewBox="0 0 200 195">
      <path d="M0 112v-2l150-1 50 1v2zm0 10v-3l107-1 93 1v3l-93-1-107 1zm0 6h41a1 1 0 0 1 1 1 1 1 0 0 1-1 1H0zm46 1a1 1 0 0 1 1-1l70-1 83 1v2l-83-1-70 1a1 1 0 0 1-1-1zm-46 7h200v3H0zm0 13v-4a15262 15262 0 0 0 200 0v4zm0 10v-3a3435 3435 0 0 0 167-1l33 1v3l-33-1-116 1H0zm0 17h200v2H0zm0-7v-4l68 1 105-1a2 2 0 0 1 2 2 2 2 0 0 1-2 2l-97-1-76 1zm180-2a2 2 0 0 1 2-2h18v4h-18a2 2 0 0 1-2-2zM0 184h200v4H0zm0 9h200v2H0zM0 0h200v2H0zm0 5h200v4H0zm0 26h200v2H0zm91-15a1 1 0 0 1 1-1h108v2H92a1 1 0 0 1-1-1zM0 15h85a1 1 0 0 1 1 1 1 1 0 0 1-1 1H0zm0 12v-3l133-1 67 1v3l-95-2-65 3-40-1zm0 16v-4l64 1 136-1v4zm0 11v-3h122a2 2 0 0 1 1 1 2 2 0 0 1-1 2zm124-2a2 2 0 0 1 2-1h74v3h-74a2 2 0 0 1-2-2zM0 62v-2a30360 30360 0 0 0 200 0v2l-46 1L0 62zm0 6h200v3H0zm0 10h200v2H0zm0 19v-2h200v2L98 98 0 97zm0 7v-1h200v1H0zm0-14v-3l154-1 46 1v3z"/>
    </pattern>
    <pattern id="lineSolid" width="200" height="195" patternUnits="userSpaceOnUse" viewBox="0 0 200 195">
      <rect class="cls-2" width="200" height="195"/>
      <rect class="cls-100" width="200" height="195"/>
    </pattern>
    <pattern id="lineSolidSm" xlink:href="#lineSolid" patternTransform="scale(.4)">
    </pattern>
    <pattern id="lineSolidHz" xlink:href="#lineSolid" patternTransform="rotate(90)">
    </pattern>
    <pattern id="lineSolidDeg5" xlink:href="#lineSolid" patternTransform="rotate(5)">
    </pattern>
    <pattern id="lineSolidDeg49" xlink:href="#lineSolid" patternTransform="rotate(-49)">
    </pattern>
    <pattern id="drkCross" width="200.5" height="200.5" patternTransform="matrix(.79 0 0 .51 75.3 266.3)" patternUnits="userSpaceOnUse">
      <rect class="cls-2" width="200.5" height="200.5"/>
      <path d="M114 200h-2l-1-150 1-50h2zm9 0h-3l-1-107 1-93h3l-1 93 1 107zm7 0v-43a1 1 0 0 1 1-1 1 1 0 0 1 1 1v43zm1-46a1 1 0 0 1-1-1l-1-70 1-83h2l-1 83 1 70a1 1 0 0 1-1 1zm6-154h3v200h-3zm10 0h4v200h-4zm13 200h-3l1-52-2-115 1-33h3l-1 33 2 116-1 51zM178 0h2v200h-2zm-7 201h-4V26a2 2 0 0 1 2-2 2 2 0 0 1 2 2zm-2-180a2 2 0 0 1-2-2V0h4v19a2 2 0 0 1-2 2zm17-21h4v200h-4zm9 0h2v200h-2zM2 0h2v200H2zm5 0h4v200H7zm26 0h2v200h-2zM18 109a1 1 0 0 1-1-1V0h2v108a1 1 0 0 1-1 1zm-1 91v-79a1 1 0 0 1 1-1 1 1 0 0 1 1 1v79zm11 0h-3L24 67l1-67h3l1 160-1 40zm17 0h-4l1-64L41 0h4zm10 0h-3V78a2 2 0 0 1 2-2 2 2 0 0 1 1 2zM54 70a2 2 0 0 1-2-1V0h3v69a2 2 0 0 1-1 1zm10 130h-2l1-154-1-46h2l1 46-1 154zM69 0h3v200h-3zm11 0h2v200h-2zm19 200h-2V0h2l1 102-1 98zm6 0h-1V0h1v200zm-14 0h-3L87 46l1-46h3l-2 78 2 122z"/>
      <path d="M1 115v-2l149-1 50 1v2zm0 10v-3l107-1 93 1v3l-93-1-107 1zm0 6h41a1 1 0 0 1 1 1 1 1 0 0 1-1 1H1zm46 1a1 1 0 0 1 1-1l70-1 83 1v2l-83-1-70 1a1 1 0 0 1-1-1zm-46 6h200v3H1zm0 14v-4a15262 15262 0 0 0 200 0v4zm0 9v-3a3435 3435 0 0 0 167-1l32 1v3l-32-1-117 2-50-1zm0 18h200v2H1zm-1-7v-4l69 1 104-1a2 2 0 0 1 2 2 2 2 0 0 1-2 2l-97-1-76 1zm181-2a2 2 0 0 1 2-2h18v4h-18a2 2 0 0 1-2-2zM1 187h200v3H1zm0 9h200v2H1zM1 3h200v2H1zm0 6h200v3H1zm0 25h200v2H1zm91-15a1 1 0 0 1 1-1h108v2H93a1 1 0 0 1-1-1zM1 18h85a1 1 0 0 1 1 1 1 1 0 0 1-1 1H1zm0 11v-3l133-1 66 1v3l-94-1-65 2-40-1zm0 17v-4l63 1 137-1v4zm0 10v-3h121a2 2 0 0 1 2 2 2 2 0 0 1-2 1zm124-1a2 2 0 0 1 1-2h75v3h-75a2 2 0 0 1-1-1zM1 65v-2a30360 30360 0 0 0 200 0v2l-46 1L1 65zm0 5h200v3H1zm0 11h200v2H1zm0 19v-2h200v2l-103 1-97-1zm0 6v-1h200v1H1zm0-13v-3l154-1 45 1v2z"/>
    </pattern>
    <pattern id="drkCrossSm" xlink:href="#drkCross" patternTransform="scale(.4)">
    </pattern>
    <symbol id="curve-1" data-name="curve-1" viewBox="0 0 29.1 31">
      <path class="cls-10" d="M1.6 18.5c-.2-.6-2.9-7.6 1-13 4.8-6.6 16.2-6 19-2 2 3-1.6 6.4-1 13 .6 6 4.5 10.8 8 14"/>
    </symbol>
    <symbol id="curve-4" data-name="curve-4" viewBox="0 0 22.8 19">
      <path class="cls-10" d="M1.6 18.5c-.2-.6-2.9-7.6 1-13 4.8-6.6 16.2-6 19-2 2 3-1.6 6.4-1 13"/>
    </symbol>
    <symbol id="curve-2" data-name="curve-2" viewBox="0 0 38.3 29.7">
      <path class="cls-10" d="M.8 16.1C-.6 9.5 3.1 3 8.8 1.1s12.2.9 14 5c2.5 5.8-5.9 11.7-3 18a9.4 9.4 0 0 0 7 5c4.1.6 8.5-1.7 11-6"/>
    </symbol>
    <symbol id="curve-5" data-name="curve-5" viewBox="0 0 33 54.2">
      <path class="cls-10" d="M.5.7c15-1 19.5 2.2 21 5 3.8 7.2-9 16.7-7 29 1.6 9.3 11 15.5 18 19"/>
    </symbol>
    <symbol id="curve-3" data-name="curve-3" viewBox="0 0 31 13.1">
      <path class="cls-10" d="M.5 11.5c3.3-9 6-11 8-11 4.6 0 6.3 11 13 12 3.5.5 6.7-1.9 9-4"/>
    </symbol>
    <pattern id="feathers" width="200" height="200" viewBox="0 0 200 200" patternUnits="userSpaceOnUse">
      <rect class="cls-2" width="200" height="200"/>
      <g clip-path="url(#clip-path-pattern)">
        <use width="29.1" height="31" transform="translate(5.9 4)" xlink:href="#curve-1"/>
        <use width="22.8" height="19" transform="translate(103.9 69)" xlink:href="#curve-4"/>
        <use width="38.3" height="29.7" transform="matrix(1.5 0 0 1.5 54.7 134.4)" xlink:href="#curve-2"/>
        <use width="33" height="54.2" transform="translate(47 26.8)" xlink:href="#curve-5"/>
        <path class="cls-10" d="M53.4 106.4c.7-.4 8.4-4.6 19.3-.9a30.5 30.5 0 0 1 14.2 10.1"/>
        <use width="31" height="13.1" transform="translate(21 62)" xlink:href="#curve-3"/>
        <use width="31" height="13.1" transform="rotate(55.4 48.2 91.7) scale(1.52)" xlink:href="#curve-3"/>
        <use width="33" height="54.2" transform="translate(13 100.8)" xlink:href="#curve-5"/>
        <use width="33" height="54.2" transform="rotate(13.1 -124.5 634)" xlink:href="#curve-5"/>
        <use width="29.1" height="31" transform="matrix(1.85 .25 -.25 1.85 116 106.6)" xlink:href="#curve-1"/>
        <use width="31" height="13.1" transform="matrix(2.11 .85 -.73 1.81 23.6 162.6)" xlink:href="#curve-3"/>
        <path class="cls-10" d="M169.2 22.2c1.2-.2 14.4-1.3 20.4 6.6 4.8 6.5 1.5 14.3.8 15.8M187.2 71.4c.6-.3 7-3.6 13.6-.2A15 15 0 0 1 208 80"/>
        <use width="33" height="54.2" transform="matrix(-.7 .71 .71 .7 134.7 169.2)" xlink:href="#curve-5"/>
        <use width="31" height="13.1" transform="matrix(2.11 .85 -.73 1.81 23.6 -37.5)" xlink:href="#curve-3"/>
        <use width="33" height="54.2" transform="matrix(-.7 .71 .71 .7 134.7 -30.9)" xlink:href="#curve-5"/>
        <use width="22.8" height="19" transform="matrix(1.49 .95 -.54 .84 180.8 113.4)" xlink:href="#curve-4"/>
        <path class="cls-10" d="M-12.8 71.4c.6-.3 7-3.6 13.6-.2A15 15 0 0 1 8 80"/>
        <use width="22.8" height="19" transform="matrix(1.49 .95 -.54 .84 -19.2 113.4)" xlink:href="#curve-4"/>
        <use width="31" height="13.1" transform="rotate(-26.2 470.9 -256.7)" xlink:href="#curve-3"/>
      </g>
    </pattern>
    <pattern id="dots" width="16" height="16" patternTransform="matrix(2.36 0 0 2.07 560.9 822.8)" patternUnits="userSpaceOnUse">
      <rect class="cls-2" width="16" height="16"/>
      <circle cx="15.4" cy="7.1" r=".5"/>
      <circle cx="5.7" cy="9.8" r=".5"/>
      <circle cx="1.5" cy="1.9" r=".1"/>
      <circle cx="6.4" cy="7.9" r=".4"/>
      <circle cx="14" cy="5.8" r=".4"/>
      <circle cx="5.2" cy=".4" r=".4"/>
      <path d="M1 1C1 .6.7.3.3.3a.6.6 0 0 0-.3.1v1.1l.3.1c.4 0 .7-.3.7-.6zm-.4 9.8c0-.4-.3-.6-.6-.7v1.4a.7.7 0 0 0 .6-.7z"/>
      <circle cx="7" cy="13.3" r=".8"/>
      <circle cx="3.1" cy="11.8" r=".5"/>
      <circle cx="6.2" cy="3.7" r=".8"/>
      <circle cx="2.1" cy="13.3" r=".5"/>
      <path d="M.6 4.2a.7.7 0 0 0 .6-.7.7.7 0 0 0-.6-.6c-.3 0-.5.1-.6.4v.5c.1.3.3.4.6.4z"/>
      <circle cx="8.8" cy="7.1" r=".3"/>
      <circle cx="14.1" cy="1.2" r=".5"/>
      <circle cx="6.2" cy="1.5" r=".5"/>
      <path d="M.7 12.6a.5.5 0 0 0-.7-.4v.8h.2c.3 0 .5-.1.5-.4zM15.7 1c0 .2 0 .5.3.6V.4a.6.6 0 0 0-.3.6zm-.6 9.8c0 .4.3.7.7.7a.8.8 0 0 0 .2 0V10a.8.8 0 0 0-.2 0c-.4 0-.7.3-.7.7zm.6 1.8c0 .2.1.3.3.4v-.9a.5.5 0 0 0-.3.5zM1.7.6A.4.4 0 0 0 2 .2.3.3 0 0 0 2 0h-.7a.5.5 0 0 0 0 .2c0 .2.2.3.4.4z"/>
      <circle cx="9" cy=".7" r=".2"/>
      <circle cx="12" cy="15.7" r=".2"/>
      <circle cx="9" cy="13" r=".2"/>
      <circle cx="12" cy="13" r=".2"/>
      <circle cx="6" cy="15" r=".2"/>
      <circle cx="4" cy="12" r=".2"/>
      <circle cx="7" cy="11" r=".2"/>
      <circle cx="4.9" cy="7.5" r=".2"/>
      <circle cx="8" cy="10.5" r=".2"/>
      <circle cx="2" cy="15" r=".2"/>
      <circle cx="9.8" cy="11.5" r=".2"/>
      <circle cx="11.8" cy="9.5" r=".3"/>
      <circle cx="13.8" cy="12.5" r=".2"/>
      <path d="M7.4.7c.3 0 .6-.3.6-.6V0H6.7c0 .4.3.7.7.7z"/>
      <circle cx="13.7" cy="4" r=".3"/>
      <circle cx="11.8" cy="3.4" r=".2"/>
      <circle cx="10.7" cy="4.8" r=".1"/>
      <circle cx="12.4" cy="4.5" r=".4"/>
      <circle cx="10.9" cy="5.7" r=".4"/>
      <ellipse cx="13.3" cy="7.5" rx=".7" ry=".6"/>
      <ellipse cx="10.2" cy="3.9" rx=".2" ry=".2"/>
      <circle cx="11.9" cy="5.5" r=".2"/>
      <ellipse cx="14.3" cy="15.4" rx=".4" ry=".4"/>
      <ellipse cx=".7" cy="15.4" rx=".6" ry=".6"/>
      <circle cx="13.1" cy="14.1" r=".6"/>
      <ellipse cx="9.1" cy="5.5" rx=".7" ry=".7"/>
      <path d="M1.7 15.8a.4.4 0 0 0-.4.2H2a.4.4 0 0 0-.3-.2zm5.7-.4a.7.7 0 0 0-.7.6H8a.6.6 0 0 0-.6-.6z"/>
      <ellipse cx=".6" cy="14.2" rx=".3" ry=".3"/>
      <circle cx="14.8" cy="9.5" r=".2"/>
      <circle cx="3" cy="1.7" r=".2"/>
      <circle cx="1" cy="10.7" r=".2"/>
      <circle cx="2" cy="11.7" r=".2"/>
      <circle cx="3.8" cy="10.5" r=".2"/>
      <circle cx=".8" cy="9.5" r=".2"/>
      <circle cx="12.8" cy=".5" r=".2"/>
      <circle cx="1.5" cy="7.6" r=".2"/>
      <circle cx="4.7" cy=".7" r=".3"/>
      <circle cx="14.6" cy="5.5" r=".6"/>
      <circle cx="10" cy="10.3" r=".4"/>
      <circle cx="14.3" cy=".2" r=".2"/>
      <circle cx="3.3" cy="6.8" r=".2"/>
      <circle cx="4.5" cy="6.8" r=".2"/>
      <circle cx="7" cy="7.3" r=".6"/>
      <circle cx="6.1" cy="5.4" r=".4"/>
      <circle cx="1.9" cy="2.3" r=".4"/>
      <circle cx="3.6" cy=".6" r=".5"/>
      <circle cx="9.6" cy="14.5" r=".4"/>
      <circle cx="6.3" cy="9.9" r=".4"/>
      <circle cx="7.9" cy="4.3" r=".4"/>
      <circle cx="10.9" cy="1.9" r=".4"/>
      <circle cx="4.1" cy="8.5" r=".6"/>
      <circle cx=".5" cy="7.7" r=".4"/>
      <circle cx="15.2" cy=".5" r=".4"/>
      <circle cx="15.2" cy="8.5" r=".4"/>
      <circle cx="2.2" cy="8.5" r=".4"/>
      <circle cx="2.2" cy="6.5" r=".4"/>
      <circle cx=".5" cy="6.9" r=".1"/>
      <circle cx="8.3" cy="14.9" r=".3"/>
      <circle cx="14.3" cy="12.9" r=".3"/>
      <circle cx="11.3" cy="14.9" r=".3"/>
      <circle cx="3.3" cy="13.9" r=".3"/>
      <circle cx="3.3" cy="3.9" r=".3"/>
      <circle cx="11.4" cy="11.1" r=".5"/>
      <circle cx="8.4" cy="9.1" r=".5"/>
      <circle cx="12.2" cy="11.8" r=".4"/>
      <circle cx="15.2" cy="14.8" r=".4"/>
      <circle cx="8.2" cy="11.8" r=".3"/>
      <circle cx=".5" cy="5.5" r=".4"/>
      <circle cx="10.4" cy="13.1" r=".5"/>
      <circle cx="9.4" cy="3.1" r=".5"/>
      <circle cx="8" cy="2.1" r=".3"/>
      <circle cx="5.3" cy="12.6" r=".5"/>
      <circle cx="13.5" cy="9.8" r=".7"/>
      <circle cx="5.6" cy="11.8" r=".4"/>
      <circle cx="4" cy="5.8" r=".4"/>
      <circle cx="2.2" cy="5.1" r=".7"/>
      <circle cx="2.7" cy="9.8" r=".4"/>
      <circle cx="10.8" cy="8.6" r=".3"/>
      <circle cx="14.1" cy="12" r=".5"/>
      <circle cx="3.9" cy="14.9" r=".6"/>
      <circle cx="4" cy="2.9" r=".6"/>
      <circle cx="10.7" cy="7.8" r=".5"/>
      <circle cx="15" cy="3.1" r=".7"/>
      <circle cx="10.7" cy=".5" r=".4"/>
      <circle cx="12.7" cy="2.5" r=".4"/>
    </pattern>
    <symbol id="wave" viewBox="0 0 100 18">
      <path d="M61.82 18c3.47-1.45 6.86-3.78 11.3-7.34C78 6.76 80.34 5.1 83.87 3.42 88.56 1.16 93.75 0 100 0v6.16C98.76 6.05 97.43 6 96 6c-9.59 0-14.23 2.23-23.13 9.34-1.28 1.03-2.39 1.9-3.4 2.66h-7.65zm-23.64 0H22.52c-1-.76-2.1-1.63-3.4-2.66C11.57 9.3 7.08 6.78 0 6.16V0c6.25 0 11.44 1.16 16.14 3.42 3.53 1.7 5.87 3.35 10.73 7.24 4.45 3.56 7.84 5.9 11.31 7.34zM61.82 0h7.66a39.57 39.57 0 0 1-7.34 4.58C57.44 6.84 52.25 8 46 8S34.56 6.84 29.86 4.58A39.57 39.57 0 0 1 22.52 0h15.66C41.65 1.44 45.21 2 50 2c4.8 0 8.35-.56 11.82-2z"/>
    </symbol>
    <pattern id="wave-lt" width="100" height="18" patternUnits="userSpaceOnUse" viewBox="0 0 100 18">
      <rect class="cls-2" width="100" height="18"/>
      <use  class="cls-30" width="100" height="18" xlink:href="#wave"/>
    </pattern>
    <pattern id="wave-drk" width="100" height="18" patternUnits="userSpaceOnUse" viewBox="0 0 100 18" patternTransform="rotate(40) scale(0.3)">
      <rect class="cls-2" width="100" height="18"/>
      <use  width="100" height="18" xlink:href="#wave" />
    </pattern>
    <linearGradient id="linear-gradient" x1="18.48" y1="958.61" x2="1774.87" y2="958.61" gradientUnits="userSpaceOnUse">
      <stop offset="0" stop-opacity="0.4"/>
      <stop offset="0.03" stop-opacity="0.37"/>
      <stop offset="1" stop-opacity="0"/>
    </linearGradient>
    <linearGradient id="linear-gradient-2" x1="4.76" y1="323.76" x2="2025.59" y2="323.76" xlink:href="#linear-gradient"/>
    <clipPath id="clip-path-2">
      <rect class="cls-1" width="2840.73" height="2040"/>
    </clipPath>
    <radialGradient id="radial-gradient" cx="2143.87" cy="605.02" r="312.65" gradientUnits="userSpaceOnUse">
      <stop offset="0" stop-color="#fff"/>
      <stop offset="0.37" stop-color="#fff" stop-opacity="0.99"/>
      <stop offset="0.51" stop-color="#fff" stop-opacity="0.97"/>
      <stop offset="0.6" stop-color="#fff" stop-opacity="0.92"/>
      <stop offset="0.68" stop-color="#fff" stop-opacity="0.85"/>
      <stop offset="0.75" stop-color="#fff" stop-opacity="0.77"/>
      <stop offset="0.8" stop-color="#fff" stop-opacity="0.66"/>
      <stop offset="0.86" stop-color="#fff" stop-opacity="0.53"/>
      <stop offset="0.91" stop-color="#fff" stop-opacity="0.39"/>
      <stop offset="0.95" stop-color="#fff" stop-opacity="0.22"/>
      <stop offset="0.99" stop-color="#fff" stop-opacity="0.04"/>
      <stop offset="1" stop-color="#fff" stop-opacity="0"/>
    </radialGradient>
    <pattern id="crowd-pattern" width="200" height="200" patternTransform="scale(2.46)" patternUnits="userSpaceOnUse" viewBox="0 0 200 200">
      <rect class="cls-1" width="199.2" height="199.44"/>
      <g class="pt-16">
        <use width="50.4" height="97.9" transform="translate(.7 -78.1)" xlink:href="#male-2"/>
        <use width="50.5" height="98" transform="matrix(.95 0 0 .95 41.7 -79.4)" xlink:href="#male"/>
        <use width="50.4" height="97.9" transform="translate(87.5 -84.8)" xlink:href="#male-2"/>
        <use width="50.7" height="105.6" transform="matrix(.81 0 0 .81 130.8 -61.1)" xlink:href="#female"/>
        <use width="50.7" height="105.6" transform="translate(159.7 -67.9)" xlink:href="#female"/>
        <use width="50.5" height="98" transform="translate(155.5 -4.7)" xlink:href="#male"/>
        <use width="50.7" height="105.6" transform="matrix(.81 0 0 .81 121.8 10.3)" xlink:href="#female"/>
        <use width="50.5" height="98" transform="matrix(1.04 0 0 1.04 81.5 -4.6)" xlink:href="#male"/>
        <use width="50.4" height="97.9" transform="translate(40 6.2)" xlink:href="#male-2"/>
        <use width="50.7" height="105.6" transform="translate(.2 -7.4)" xlink:href="#female"/>
        <use width="50.5" height="98" transform="translate(1 53.1)" xlink:href="#male"/>
        <use width="50.7" height="105.6" transform="matrix(.81 0 0 .81 81.3 70.2)" xlink:href="#female"/>
        <use width="50.5" height="98" transform="matrix(.95 0 0 .95 117.3 59.4)" xlink:href="#male"/>
        <use width="50.4" height="97.9" transform="translate(158.8 64.1)" xlink:href="#male-2"/>
        <use width="50.7" height="105.6" transform="translate(36.2 55.5)" xlink:href="#female"/>
        <use width="50.4" height="97.9" transform="translate(.7 121.9)" xlink:href="#male-2"/>
        <use width="50.5" height="98" transform="matrix(.95 0 0 .95 41.7 120.6)" xlink:href="#male"/>
        <use width="50.4" height="97.9" transform="translate(87.5 115.2)" xlink:href="#male-2"/>
        <use width="50.7" height="105.6" transform="matrix(.81 0 0 .81 130.8 138.9)" xlink:href="#female"/>
        <use width="50.7" height="105.6" transform="translate(159.7 132.1)" xlink:href="#female"/>
        <use width="50.7" height="105.6" transform="translate(-40.3 -67.9)" xlink:href="#female"/>
        <use width="50.5" height="98" transform="translate(-44.5 -4.7)" xlink:href="#male"/>
        <use width="50.4" height="97.9" transform="translate(-41.2 64.1)" xlink:href="#male-2"/>
        <use width="50.7" height="105.6" transform="translate(-40.3 132.1)" xlink:href="#female"/>
        <use width="50.5" height="98" transform="translate(155.5 195.3)" xlink:href="#male"/>
        <use width="50.5" height="98" transform="matrix(1.04 0 0 1.04 81.5 195.4)" xlink:href="#male"/>
        <use width="50.7" height="105.6" transform="translate(.2 192.6)" xlink:href="#female"/>
      </g>
    </pattern>
    <linearGradient id="linear-gradient-3" x1="1349.09" y1="1998.54" x2="1475.62" y2="908.04" gradientUnits="userSpaceOnUse">
      <stop offset="0"/>
      <stop offset="0.7" stop-color="#3f3f3f" stop-opacity="0.75"/>
      <stop offset="1" stop-color="#fff" stop-opacity="0"/>
    </linearGradient>
    <linearGradient id="linear-gradient-4" x1="329.12" y1="971.91" x2="473.12" y2="971.91" gradientUnits="userSpaceOnUse">
      <stop offset="0" stop-opacity="0.6"/>
      <stop offset="0.03" stop-opacity="0.58"/>
      <stop offset="1" stop-opacity="0.3"/>
    </linearGradient>
    <radialGradient id="radial-gradient-2" cx="401.12" cy="1002.77" r="222.27" gradientUnits="userSpaceOnUse">
      <stop offset="0" stop-color="#fff"/>
      <stop offset="0.65" stop-color="#fff"/>
      <stop offset="0.75" stop-color="#fff"/>
      <stop offset="0.77" stop-color="#fff" stop-opacity="0.98"/>
      <stop offset="0.81" stop-color="#fff" stop-opacity="0.93"/>
      <stop offset="0.84" stop-color="#fff" stop-opacity="0.84"/>
      <stop offset="0.87" stop-color="#fff" stop-opacity="0.72"/>
      <stop offset="0.91" stop-color="#fff" stop-opacity="0.56"/>
      <stop offset="0.94" stop-color="#fff" stop-opacity="0.37"/>
      <stop offset="0.98" stop-color="#fff" stop-opacity="0.14"/>
      <stop offset="1" stop-color="#fff" stop-opacity="0"/>
    </radialGradient>
    <symbol id="face" data-name="face" viewBox="0 0 31.1 38.6">
      <path d="M6 36.5c-.8-.5.1-3.3-.4-5.3-.8-3-2.9-5.5-4.3-8.5s-1-11.4.3-14.4a12 12 0 0 1 6.2-6.8 27 27 0 0 1 13.3-.4c3.3 1.3 5.1 3.4 5.4 5.5.5 3 1.1 5.3 3 7.6a5.2 5.2 0 0 1 1 3c.1 1.6-1.4.5-2 2-1 2.6.2 5.5-1 8-.9 2-3.1 2-4 4-.6 1.6.2 3.1 0 4.2 0 .3-5.1 2.7-10 2.6A20.8 20.8 0 0 1 6 36.5z" class="pt-3"/>
      <ellipse cx="27.3" cy="12.2" rx=".8" ry=".7"/>
      <path d="M25.1 12.3a3 3 0 0 1 1.3-1.3 1.8 1.8 0 0 1 1.4-.1" class="pt-4"/>
    </symbol>
    <symbol id="male-2" data-name="male-2" viewBox="0 0 50.4 97.9">
      <use width="31.1" height="38.6" transform="translate(11.7 1.4)" xlink:href="#face"/>
      <path d="M.7 85.6c.4-5.8 1-24.8 1.1-30.5C2 52 3.1 44.5 8.6 44c1 0 5.7-.3 7.3-1.4s-.1-4.2.8-4.3c3.1-.6 5.4 1.5 10 1.3 3.8 0 6-2.2 9.8-2.2 1.2 0 .3 3.8 2 4.2a24.2 24.2 0 0 1 8 3.6c3 2 3.6 11.7 3.4 14.3-.6 6-.6 19.6-.7 24.3C49 102.3 0 97.4.7 85.6z" class="pt-13"/>
      <path id="hair-male" d="M28.3 3.5c-.3-1.4 3.2-2 1.8-2.4a13.5 13.5 0 0 0-5.4-.5c-2 .2-6 1-7.5 2.1a15.9 15.9 0 0 0-4 5 27 27 0 0 0-2.1 7.7 29.7 29.7 0 0 0 4 15.9c.7 1 0 2.1.2 3 .2 1.7 2.6 2.2 3.2 2.3a7.4 7.4 0 0 0 4-.3c1.6-.6 3 1.3 4 1.3.7 0 2.4-1.4 3.1-1.3 1.6 0 3.6-5.5 5.1-5.9 1.8-.4 5.5 4 6.5 1 .5-1.8-.4-3.2-2.4-3.6-3.6-.5 2.2-4.4 1.7-6.3-.2-.8-3.4.4-3.8.3-2.3-.7.2-4.1-1-4.8-.5-.3-1.6-.2-2-.5-1-.7-1-3.2-.5-4.4.4-.8 1 .2 1.6-.6s-6.1-2.2-5.4-4.3c.2-.8-1-3-1.1-3.7z" class="pt-14"/>
      <path d="M0 73.7h50.1v24.2H0z" class="pt-15"/>
    </symbol>
    <symbol id="male" data-name="male" viewBox="0 0 50.5 98">
      <use width="31.1" height="38.6" transform="translate(11.8 1.5)" xlink:href="#face"/>
      <path d="M.8 85.7c.4-5.8 1-24.8 1.2-30.5 0-3.1 1.3-10.6 6.7-11 1-.1 5.7-.3 7.3-1.4s-.1-4.2.8-4.3c3.1-.6 5.5 1.4 10.1 1.3 3.7 0 6-2.3 9.8-2.3 1.1 0 .2 4 1.9 4.3a23.8 23.8 0 0 1 8 3.6c3 2 3.7 11.7 3.4 14.2-.6 6-.6 19.7-.7 24.3C49.1 102.4 0 97.5.8 85.7z" class="pt-10"/>
      <path id="hair-male-2" d="M38.6 4.7c-.4-1.4-4.4-3.5-5.8-3.8a29 29 0 0 0-8-.2c-2 .2-5.9 1-7.5 2.1a15.8 15.8 0 0 0-3.9 5 27 27 0 0 0-2.2 7.8 29.8 29.8 0 0 0 4 15.8c.7 1 0 2.1.2 3 .3 1.7 2.6 2.2 3.2 2.3a7.3 7.3 0 0 0 4-.3c1.6-.6 3 1.3 4 1.3.7 0 2.4-1.4 3.2-1.3 1.5 0 3.2.5 4.3-.6.9-.8-.9-6.3 1.7-8.8 1-1 1-3.6 1-5 .1-1.4.5-4.8-.6-5.5-.6-.3-2 .5-2.4.1-1-.7-1-3.2-.4-4.3.4-1 2.3 0 2.8-.8s-.1-3 .2-3.8 2.4-2.2 2.2-3z" class="pt-11" data-name="hair-male"/>
      <path d="M0 73.8h50V98H0z" class="pt-12"/>
    </symbol>
    <symbol id="female" data-name="female" viewBox="0 0 50.7 105.6">
      <path d="M.8 99.2c-.5-5.7.8-34.2 1-40 0-3 1.2-10.6 6.7-11 1 0 5.7-.2 7.3-1.4s-.1-4.1.8-4.3c3.1-.6 5.5 1.5 10.1 1.4 3.7-.1 6-2.3 9.8-2.3 1.1 0 .3 3.9 1.9 4.3a24 24 0 0 1 8 3.5c3 2 3.7 11.7 3.4 14.3-.6 6 .7 31 0 35.5-1.2 7.6-48.5 7.4-49 0z" class="pt-5"/>
      <use width="31.1" height="38.6" transform="translate(12.8 6.3)" xlink:href="#face"/>
      <path d="M38.6 9.8a1.5 1.5 0 0 0-.3-.6c-3 2.2-8 4.6-14 6.5a63.2 63.2 0 0 1-12.7 2.9 14.9 14.9 0 0 0-.3 2c-.5 7 3.2 14.8 4.5 16.8.8 1.1-3.4 4.7-3 9.4.2 1.8 3.6 2.7 5.1 1.1 1-1 3 2.2 4 1.4 2.5-2.2 3.7.6 4.7.6.8 0 2.5-1.4 3.3-1.4 1.5.1 3.8 1 4.3-.6 1.4-4.6-2.3-5.1-2-9.4.1-2.6 2.8-5.5 3.8-6.4s.9-3.6 1-5.1c0-1.3.4-4.7-.7-5.4-.5-.3-1.9.5-2.4.1-1-.7-1-3.2-.4-4.4.4-.8 2.4.2 2.9-.7s-.2-3 .1-3.8 2.3-2.2 2.1-3z" class="pt-6"/>
      <ellipse cx="22.9" cy="11.5" class="pt-7" rx="19" ry="4.4" transform="rotate(-17.9 23 11.5)"/>
      <path d="M11 14.3c-1.2-1.5-.2-6.5.5-7.8C14 1.8 23.7-.3 28 .7c2.4.6 5.5 3.6 5.6 5.2.3 3.5-20.7 10.6-22.6 8.4z" class="pt-8"/>
      <path d="M0 81.4h50.7v24.2H0z" class="pt-9"/>
    </symbol>
    <symbol id="pillar" viewBox="0 0 302.69 1196.93">
      <rect class="cls-64" x="4.4" y="344.65" width="40" height="850.29"/>
      <polygon class="cls-65" points="4.4 344.64 300.69 5.33 300.69 45.33 44.4 344.64 4.4 344.64"/>
    </symbol>
    <symbol id="light" viewBox="0 0 261.17 579.49">
      <line class="cls-50" x1="140.36" y1="0.02" x2="137.61" y2="545.85"/>
      <ellipse class="cls-51" cx="83.79" cy="559.11" rx="22.63" ry="16.46"/>
      <ellipse class="cls-51" cx="185.61" cy="548.14" rx="22.63" ry="16.46"/>
      <line class="cls-52" x1="24.47" y1="544.82" x2="245.96" y2="552.71"/>
      <line class="cls-52" x1="87.56" y1="574.99" x2="174.3" y2="530.42"/>
      <line class="cls-52" x1="186.64" y1="567.11" x2="80.36" y2="533.51"/>
      <ellipse class="cls-51" cx="79.21" cy="516.37" rx="22.63" ry="16.46"/>
      <ellipse class="cls-51" cx="24.13" cy="529.62" rx="22.63" ry="16.46"/>
      <ellipse class="cls-51" cx="237.04" cy="531.68" rx="22.63" ry="16.46"/>
      <ellipse class="cls-51" cx="170.19" cy="514.05" rx="22.63" ry="16.46"/>
    </symbol>
    <symbol id="side_wall" viewBox="0 0 2029.97 1593.63">
      <polygon class="cls-66" points="1774.38 1443.44 17.98 1593.63 17.98 385.99 1774.38 508.04 1774.38 1443.44"/>
      <polygon class="cls-67" points="1774.87 1412.24 18.48 1562.43 18.48 354.79 1774.87 476.84 1774.87 1412.24"/>
      <use width="302.69" height="1196.93" transform="translate(1724.91 153.8)" xlink:href="#pillar"/>
      <polygon class="cls-70" points="22.59 149.07 2025.59 159.13 1729.31 498.44 4.76 352.04 22.59 149.07"/>
      <polygon class="cls-68" points="22.59 149.07 2025.59 159.13 1729.31 498.44 5.65 329.83 22.59 149.07"/>
      <use width="302.69" height="1196.93" transform="translate(1408.73 114.31) scale(1.06)" xlink:href="#pillar"/>
      <use width="302.69" height="1196.93" transform="translate(1026.96 82.31) scale(1.06)" xlink:href="#pillar"/>
      <use width="302.69" height="1196.93" transform="translate(619.82 45.29) scale(1.06)" xlink:href="#pillar"/>
      <use width="302.69" height="1196.93" transform="translate(121.84) scale(1.06)" xlink:href="#pillar"/>
      <polygon class="cls-69" points="1778 483.78 1773 523.63 2.17 369.68 5.65 329.83 1765.35 483.78"/>
      <use width="261.17" height="579.49" transform="translate(184.61 127.39)" xlink:href="#light"/>
      <use width="261.17" height="579.49" transform="translate(736.29 109.82) scale(0.94)" xlink:href="#light"/>
      <use width="261.17" height="579.49" transform="translate(1183.54 131.72) scale(0.83)" xlink:href="#light"/>
      <use width="261.17" height="579.49" transform="translate(1587.43 132.5) scale(0.77)" xlink:href="#light"/>
    </symbol>
    <symbol id="head-male" viewBox="0 0 288.4 289.57">
      <path class="cls-5" d="M187.77,288.13S162.84,235,156.19,234.4c-9.33-.78-13.56,9.1-21.67,13.77-3.59,2.07-19,3.11-23.09,3.31s-9.69.24-12.61-3.67c-3.51-4.69-3.2-7.9-3.58-13.41S88,222.49,87.3,219.75c-.87-3.24,14.28-3.14,11.06-4.09,0,0-13.34.57-15.77-1.37-4.92-3.94,6.59-15.75,2.82-20.8-1.85-2.48-14.77,2.24-17.18.3-2.73-2.19-3.4-7.33-2.63-10.74,2.06-9.14,2.91-26.48,2.63-34.52-.14-3.93-1.48-11.83-3.09-15.42s-8.52-8.56-9.25-12.35,3.59-11.47,4.11-15.43c1.34-10.19.59-30.1,3.39-40C66.6,54,79.81,34.17,88.08,25.79c8.76-8.89,19.77-14.27,31.73-17.85,15-4.49,42.54-9.32,57.79-5.63,14.82,3.58,31.81,10.43,40.57,22.17,7.13,9.54,20.57,31.39,22.48,45.25,2.57,18.76,1.79,28,.7,36.31-2,15-1.71,22.9-3,32.5-.85,6.11,1,12.3,2.72,18.22,2.54,8.77,45.94,70,45.94,70Z"/>
      <path class="cls-10" d="M74.29,190.45a12.66,12.66,0,0,1,16.45-2.74"/>
      <path class="cls-10" d="M60,126.25c2-1,4.27-2.58,8.43-2.92a24.69,24.69,0,0,1,14.29,3.36"/>
      <path class="cls-29" d="M57.81,124a27.52,27.52,0,0,1,10.26-3.33,28.23,28.23,0,0,1,16.19,3.11"/>
      <path class="cls-10" d="M57.52,123.83a27.52,27.52,0,0,1,9.79-4.5,28.15,28.15,0,0,1,16.44,1.19"/>
      <ellipse cx="72.71" cy="139.59" rx="3.17" ry="5.65" transform="translate(-24.07 15.47) rotate(-10.43)"/>
      <path class="cls-41" d="M92.55,136.48c-1.46.49-4.56,1.86-7.4,1.62-4.66-.39-6.07-3.87-9.49-4.5-2.71-.5-5.57.55-6.17,2.28-1,2.73-2,3-2,3s1.79,7.59,7.53,7.1c4.12-.35,8.28-2.32,9.91-6.66"/>
      <path class="cls-42" d="M85.07,136c-2.44-1.41-3.3-3.28-5.26-4.53-2.32-1.49-3.77-2.06-6.29-1.26-3.13,1-3.08,2.67-5.37,4.88"/>
      <path class="cls-46" d="M89.6,147.39c-2.07.66,1.5,17.64,1.83,19.2,1.81,8.53,2.88,9.47,4.11,16.92,1.5,9.05,8.82,19.54,9.76,19.65,1.34.16-1-15-1.36-25.14-.31-8.76-5.48-12.39-8.4-18.49C94.23,156.78,91,147,89.6,147.39Z"/>
      <path class="cls-47" d="M0,228.76"/>
      <polygon class="cls-48" points="59.86 125.73 68.15 135.09 73.52 130.21 99.09 133.79 77.71 121.79 59.86 125.73"/>
      <path id="ear-male" class="cls-43" d="M146.18,155.64s14.79-39.34-3.43-41.95c-10.4-1.48-12.63,15-14.1,16.69s-3,2-3.65-1.34c-.6-2.94.49-9,1.18-10.55,2.7-6.1,9.92-11.65,15.08-11.78s14.09,8.8,15.5,13.79c3.47,12.31-2.14,47.32-14.83,49-3.27.43-5.94-15.69-8.09-18.19"/>
      <path class="cls-49" d="M132.69,128.16c-1.87,4,5.63,6.6,6.28,8.83s-2.78,4.37-2.17,8.09c1.49,9,9.83-4.09,8.69-10.72C144.57,129.05,134.4,124.53,132.69,128.16Z"/>
    </symbol>
    <symbol id="body-male" viewBox="0 0 417.01 503.65">
      <path class="cls-8" d="M355.59,502.34A495.56,495.56,0,0,0,372,440c3.7-19.63,3.79-44,6.86-64.08,4.16-27.16,17.83-44,23-71.24,7.88-41.37,14.06-88.34,14.17-112.3.14-30.87-4.86-96.14-22.63-121.37C381,53.5,338.25,37.89,319.33,27.83c-14.62-7.78-43.27-26-59.81-26.75C214.26-.82,144.08,29.9,95.78,53.43c-10.46,5.1-25,8.62-30.85,13.56-17,14.4-31.49,32.65-44.8,45C7.93,123.21.55,128,.55,128s22-12.81,60,8.53C97,157.05,88.7,198,93.12,215c5.22,20.13,12.41,69.71,12.26,90.51-.21,31.79-15.47,94.11-20.57,125.49C82.22,447,72.7,502.65,72.7,502.65Z"/>
    </symbol>
    <symbol id="arm-male" viewBox="0 0 197.54 427.01">
      <path id="arm-male-3" class="cls-6" d="M1.11,387.73c-3-13.87,60.85-115.52,58.28-174.17-.57-13-4.59-70.72-3.88-83.09.63-11-2.23-36.39,0-57.26A115.07,115.07,0,0,1,66.82,35c5.49-11,12.41-22.64,22.74-29.26,24.54-15.69,68.22,11.11,81.37,24.69,12.23,12.62,8.85,52.93,13.26,69.94,5.22,20.14,12.48,61.49,12.34,82.29-.3,47.94-40.22,237.71-40.22,237.71S13.91,446,1.11,387.73Z"/>
    </symbol>
    <symbol id="collar-male" viewBox="0 0 203.81 109.6">
      <path class="cls-27" d="M201.17,46.36s-25.48-37.46-35-42.2c-15.23-7.62-28.06.63-40.68,3.12-14.71,2.89-33.26,7.32-42.67,12.49-8.94,4.92-37.53,30.94-44.49,38.4C25.48,72,5.21,91.7,1.1,106.78c-1.25,4.59,9.67-.61,16.91-3.5C30,98.48,42.62,90.4,52.22,85.6c19.59-9.79,61-25.35,82.21-30.78,7.68-2,32.11-8,53.11-10.59C193.68,43.46,201.17,46.36,201.17,46.36Z"/>
    </symbol>
    <symbol id="body-shading-male" viewBox="0 0 452.52 545.02">
      <g id="body-male-shading">
        <path class="cls-11" d="M429.89,113.4c-12.34-17.52-55.13-33.13-74.06-43.2-14.62-7.78-43.26-26-59.81-26.74-45.25-1.9-115.43,28.82-163.73,52.34-10.47,5.1-25,8.62-30.86,13.56-17,14.4-31.48,32.66-44.8,45-12.19,11.27-19.58,16.07-19.58,16.07s8.37-4.87,23.7-3.59c9.52.79,41.6-24.9,55.31-46.08,22.75-35.14,97.68-48.92,127.85-58.36,7-2.2,46.21-23.59,71.64-5.76,56.2,39.41,115.37,59,115.37,59S431.56,115.77,429.89,113.4Z"/>
        <path class="cls-12" d="M352.4,500.83s49.88,14.46,56.08-18.44c3.7-19.63,3.78-44,6.86-64.07,4.16-27.16,17.83-44,23-71.24,7.87-41.37,14.06-88.35,14.17-112.31s-2.89-68.83-12.59-99.44c-2.77-8.74-51.92,55.79-55.87,50.19-12.34-17.53-30.22-31.08-49.14-41.15-14.62-7.77-29.37-27.65-29.37-27.65S282.92,116,254.8,130c-10.43,5.18,45.72,53.46,39.89,58.4-17,14.4-8.63,32.85-21.94,45.15-12.2,11.27-18.75,21.6-56.23,27.43C196,264.13,125.26,219,125.26,219s2.14,29.77,4.36,38.36c5.23,20.14,12.41,69.72,12.27,90.52-.22,31.79-15.47,94.1-20.57,125.48C118.73,489.34,109.2,545,109.2,545l132.23-114.3,54.06,92.74Z"/>
        <path class="cls-13" d="M305.24,45.36s-25.49-37.46-35-42.2c-15.24-7.62-28.06.63-40.68,3.12-14.71,2.89-33.26,7.32-42.67,12.49-8.95,4.92-37.53,30.94-44.5,38.4C129.55,71,109.28,90.7,105.17,105.78c-1.25,4.59,9.63-8.83,14.21-14.43,8.16-10,62.62-62.29,72.22-67.09C211.19,14.47,254.23,0,262,4c3.11,1.6,13.8,12.15,19.55,20.57C288.82,35.27,291.38,44,296,43.46,302.17,42.7,305.24,45.36,305.24,45.36Z"/>
        <path class="cls-14" d="M156.29,63s21-18.54,28.19-23.2c4.43-2.87,18-7.31,18-7.31l-18.74-4.12s29.59-13.89,40.38-16.76c8-2.13,38.7-2.74,38.7-2.74L256,15.12,272.4,16l-11.27,6.55L282,29.29s-44.94,10.38-59,15.39c-16,5.73-61.25,27.58-61.25,27.58l11.42-11Z"/>
        <path id="arm-male-4" class="cls-15" d="M.86,295.69c.63-11-2.22-36.39,0-57.26a115,115,0,0,1,11.32-38.17c5.48-11,12.4-22.65,22.74-29.26,8.61-5.51,15-4.53,25.83-4.2,3.5.1,9,1.9-6.55,10.15-12.35,6.55-23.7,16.56-37.49,42.66C1,249.43.48,302.28.86,295.69Z"/>
        <polygon class="cls-16" points="23.61 221.4 26.69 272.83 45.2 363.35 12.29 438.43 22.58 469.29 71.95 429.17 102.81 385.97 101.78 306.77 23.61 221.4"/>
      </g>
    </symbol>
    <symbol id="hair_curl" viewBox="0 0 33.78 23.51">
      <path class="cls-30" d="M2.5,8.51C5.3,15.55,11.66,20.8,18,21c.56,0,7.92.15,11-5s3.08-7.89-.5-11.5c-4.49-4.55-10.33,0-12,0"/>
    </symbol>
    <symbol id="hair-male-old" viewBox="0 0 259.79 305.09">
      <g id="hair-male-balding">
        <path class="cls-32" d="M42,88c5.81-7.85,29.19-4.79,38-9,9.47-4.54,22.91-22.31,27.51-31.75,2.22-4.54,7.12-14.19,6.4-19.2-.47-3.3-5.45-8.66-8.23-10.51-5.8-3.88-26.89-7.47-26.89-7.47S89.71,1.57,111.63.19a83.93,83.93,0,0,1,29.26,3.2c16.54,4.42,27.28,10,53.94,29.25,6.69,4.81,7.78,32,7.78,32s9,7.23,12.34,9.15c8.84,5.1,21.13,25.92,22.4,36.57.48,4-2.74,16-2.74,16l3.65,16.91s5.51,11.43,5.49,15.55c-.08,14.62-15.48,33.07-24.46,40.91-7,6.09-21.27,19.21-30.28,21.29-9.91,2.28-46.33-10.62-56.12-13.37C107.6,200.57,95.36,166.24,96.17,156c4.57-57.83-35.22-12.18-43.51-21S34.83,97.7,42,88Z"/>
        <use width="33.78" height="23.51" transform="translate(233.88 131.42) scale(0.6)" xlink:href="#hair_curl"/>
        <use width="33.78" height="23.51" transform="translate(221.01 149.01)" xlink:href="#hair_curl"/>
        <use width="33.78" height="23.51" transform="translate(226.01 104.01)" xlink:href="#hair_curl"/>
        <use width="33.78" height="23.51" transform="translate(225.01 176.02) scale(0.57)" xlink:href="#hair_curl"/>
        <use width="33.78" height="23.51" transform="translate(199.01 187.01)" xlink:href="#hair_curl"/>
        <use width="33.78" height="23.51" transform="translate(171.01 200.01)" xlink:href="#hair_curl"/>
        <use width="33.78" height="23.51" transform="translate(221.01 79.01)" xlink:href="#hair_curl"/>
        <use width="33.78" height="23.51" transform="translate(190.61 28.96) scale(0.79)" xlink:href="#hair_curl"/>
        <use width="33.78" height="23.51" transform="translate(152.01 205.01)" xlink:href="#hair_curl"/>
        <path class="cls-33" d="M54,132s19.12,31.16,22.88,49.42c2.28,11.09,26.21-12,26.21-12s8.13,20.14,10.52,27.65c1.29,4.07,8.75,21.7,8.39,26-.79,9.22-14,24-17.83,32.45-2.9,6.46-7.26,20.45-12.17,25.55-5.14,5.32-19.76,10.31-25.55,14.91-2.47,2-6.66,7.07-9.6,8.23C52,306.08,40.41,304.86,36,302c-4.61-3-10-13.62-11-19-.83-4.29,1.88-13.19,4-17,3.37-6.08,15.17-15.3,17-22,1.18-4.35-1.7-13.55-1-18,.28-1.8,2-5.18,2-7s-1.44-5.29-1-7c1.12-4.42,8.2-11,9.62-15.49,1.91-5.95,1.82-20.29,2.38-26.51C58.86,160.5,54,132,54,132Z"/>
        <path class="cls-23" d="M1,100c2.39-.06,7.31,1,13,3,5.92,2.11,10.18,5.5,11.5,7.5"/>
        <path class="cls-23" d="M0,106a33.42,33.42,0,0,1,16.24,3.75A33.53,33.53,0,0,1,28.75,121"/>
        <polyline class="cls-23" points="18.61 168.87 19.98 180.07 27.75 188.3 44.89 207.27 41.92 215.73 45.35 221.9"/>
      </g>
    </symbol>
    <symbol id="chair_leg" viewBox="0 0 27.8 171.36">
      <polygon class="cls-21" points="19.27 170.85 4.64 170.63 6.87 23.33 21.49 23.55 19.27 170.85"/>
      <path class="cls-22" d="M24.64,20.8c0,3.1-4.38,4.8-10.34,4.8S3.76,23.92,3.76,20.83a4.45,4.45,0,0,1,2.73-4c2-1,13.32-1,15.28,0S24.64,19.26,24.64,20.8Z"/>
      <path class="cls-22" d="M27.3,11.86c0,3.35-5.6,7.46-13.43,7.46S.5,15.64.5,12.29c0-2,.52-3.88,4-4.86C7.1,6.69,21.16,7.06,24,7.8,27,8.62,27.3,10,27.3,11.86Z"/>
      <path class="cls-22" d="M23.8,4.42c0,3.09-3.71,4.95-9.67,4.95S4.7,7.67,4.7,4.57C4.7,3,5.18,1.39,6.59.73,8.58-.21,9.64,2.08,14,2S19.72,0,21.77.81A3.72,3.72,0,0,1,23.8,4.42Z"/>
      <path class="cls-23" d="M27.43,10.77c0,2.82-5.95,5.12-13.29,5.12S.84,13.59.84,10.77"/>
      <path class="cls-23" d="M27.43,9.77c0,2.82-5.95,5.12-13.29,5.12S.84,12.59.84,9.77"/>
      <path class="cls-24" d="M1.64,8.71c0,1.39,1.45,2.66,3.8,3.58A21.18,21.18,0,0,0,9.7,13.42"/>
      <path class="cls-24" d="M.56,12c0,1.39,1.45,2.66,3.8,3.58"/>
      <path class="cls-24" d="M3.45,7.71c.19,1.39,1.79,2.45,4.24,3.06"/>
      <path class="cls-24" d="M5.33,15.89c.47.19,1,.36,1.53.52"/>
      <path class="cls-24" d="M21.1,13.22a22.37,22.37,0,0,1-3.09.71"/>
      <path class="cls-24" d="M26.07,9.22c0,1.4-1.45,2.66-3.8,3.59"/>
      <path class="cls-24" d="M24.26,8.23c-.18,1.38-1.78,2.45-4.23,3.06"/>
      <path class="cls-24" d="M27,11.88c0,1.4-1.44,2.66-3.79,3.59a18.93,18.93,0,0,1-1.84.6"/>
      <path class="cls-24" d="M5.74,1.4c.15,1.15,1.48,2,3.52,2.55"/>
      <path class="cls-24" d="M5,2.57c0,1,1,1.87,2.68,2.53a15.51,15.51,0,0,0,3,.79"/>
      <path class="cls-24" d="M4.93,4.39c0,1,1,1.81,2.58,2.44"/>
      <path class="cls-24" d="M23.38,2.62c0,1-1,1.88-2.68,2.53a14.8,14.8,0,0,1-3,.8"/>
      <path class="cls-24" d="M22.83,1.86c-.08,1-1.13,1.73-2.77,2.23"/>
      <path class="cls-24" d="M23.46,18.17c-.15,1.15-1.49,2-3.52,2.55"/>
      <path class="cls-24" d="M24.24,19.34c0,1-1,1.87-2.68,2.53a15.51,15.51,0,0,1-3,.79"/>
      <path class="cls-24" d="M24.27,20.17c0,.94-1,1.8-2.58,2.43"/>
      <path class="cls-24" d="M3.81,19.39c0,1,1,1.88,2.68,2.53a14.9,14.9,0,0,0,3,.8"/>
      <path class="cls-24" d="M4.37,18.63c.08.95,1.13,1.73,2.77,2.23"/>
    </symbol>
    <symbol id="chair" viewBox="0 0 344.94 396.8">
      <path class="cls-17" d="M103.07,144.38s-6.64-18-13-18.4c-17.52-1.22-31,8.76-43.48,18.93-4.12,3.35-19.22,7.07-24.23,5.18-7.74-2.92-15.84-13.81-18.63-21.6C-.4,116.91,1.06,99.5,2.27,92c.94-5.86,4.12-17.13,7.08-22.28C13.81,62,26.22,52.35,33.12,51c12.5-2.43,28.75,1,38.63-.11,6.29-.69,23.67-4.26,29.56-6.55,14.75-5.73,35.19-24.88,50-30.48,9.6-3.63,30-9.36,40.23-8.23,13.72,1.53,27.23,8,36.57,7.77s26.56-7.79,35.66-9.14c10.64-1.57,32.8-5.3,43-1.83,9.72,3.32,21.49,14.29,25.15,22C335,31,339,48,338.38,57.06c-.62,9.83-4.11,23.32-12.91,32.23-7.74,7.84-18.76,10.73-25.6,12.8-4.41,1.34-13.74,3-18.29,2.29-7.52-1.24-10.69-16.09-18.29-16.61-3.71-.26-18,1.06-23.31,7.92-3.33,4.28-4.51,25.94-4.51,25.94l-10.63.12s-.77-13-4.23-16.35c-7.2-6.85-30.34-8.8-36.86-1.48-4.49,5-8.74,28.34-8.74,28.34l-10.52.57s-.87-14.82-10.62-16.34c-6.81-1.06-24.09-4.06-30,1.91-4.31,4.34-11.78,24.83-11.78,24.83Z"/>
      <path class="cls-18" d="M109.07,148.38s-9.13-23.72-15.47-24.16c-17.53-1.22-28.51,14.52-41,24.69-4.12,3.35-19.22,7.07-24.23,5.18-7.74-2.92-15.84-13.81-18.63-21.6C5.6,120.91,7.06,103.5,8.27,96c.94-5.86,4.12-17.13,7.08-22.28C19.81,66,32.22,56.35,39.12,55c12.5-2.43,28.75,1,38.63-.11,6.29-.69,23.67-4.26,29.56-6.55,14.75-5.73,35.19-24.88,50-30.48,9.6-3.63,30-9.36,40.23-8.23,13.72,1.53,27.23,8,36.57,7.77s26.56-7.79,35.66-9.14c10.64-1.57,32.8-5.3,43-1.83,9.72,3.32,21.49,14.29,25.15,22C341,35,345,52,344.38,61.06c-.62,9.83-4.11,23.32-12.91,32.23-7.74,7.84-18.76,10.73-25.6,12.8-4.41,1.34-13.74,3-18.29,2.29-7.52-1.24-10.69-16.09-18.29-16.61-3.71-.26-18,1.06-23.31,7.92C242.65,104,240,123.35,240,123.35l-10.86-.23s-.43-14.76-3.89-18.06c-7.2-6.86-29-4.46-35.54,2.86-4.49,5-11.31,23.88-11.31,23.88l-9.6-.11s-1.11-15-10.86-16.57c-6.8-1.06-22.2,1.31-28.11,7.28-4.31,4.34-11.78,24.83-11.78,24.83Z"/>
      <path class="cls-19" d="M276.07,131l2.15-77.95s-.07-3,1.53-2.69c2.31.44,5,4.43,5.77,5.89,1.76,3.3,4.34,15.55,4.36,19.57,0,8,.07,54.71.07,54.71Z"/>
      <path class="cls-20" d="M49.45,179.57l2.4-87.11s-.08-3.35,1.7-3c2.58.5,5.57,5,6.45,6.59,2,3.69,4.85,17.37,4.87,21.87,0,8.92.08,61.12.08,61.12Z"/>
      <use width="27.8" height="171.36" transform="translate(92.17 142.5) scale(1.32)" xlink:href="#chair_leg"/>
      <use width="27.8" height="171.36" transform="translate(37.33 162.95) scale(1.37)" xlink:href="#chair_leg"/>
      <use width="27.8" height="171.36" transform="translate(152.28 125.38) scale(1.4)" xlink:href="#chair_leg"/>
      <use width="27.8" height="171.36" transform="translate(214.94 119.43) scale(1.29)" xlink:href="#chair_leg"/>
      <use width="27.8" height="171.36" transform="translate(266.79 126.97) scale(1.18)" xlink:href="#chair_leg"/>
    </symbol>
    <symbol id="head-female" viewBox="0 0 178.6 227.24">
      <g id="head-female-3" >
        <path id="head" class="cls-5" d="M71,226s3.25-33.5-2.66-36.59c-8.29-4.34-15.77-3.07-25.06-1.9-4.11.52-14.54.21-18.44-1.22s-7.51-6.31-8.68-11c-1.42-5.69.37-12.11,1-17.6.68-6.1-2.75-5.5-2.36-8.31.45-3.32,3-4.05.38-6.17a8.8,8.8,0,0,1-3.89-3.73c-3-5.54,5.56-6,4-12.12-.35-1.38-2.06-5.79-2.06-5.79s-9.9,1.53-11.66-2c-2.47-5.06,3.08-10.18,5.11-13C12.17,98.81,17.65,83.7,20.5,76.18c1.4-3.67,2-4.28,1.92-8.21s-3.09-9.81-1.6-18.51C22.27,41,30,24.9,33.7,21.34,52.21,3.51,61.05,5.43,71.87,2.91,93.61-2.14,131.32,3.4,144,12.7c12.28,9,23.88,22.36,28.83,36.15,10.58,29.49,1.07,47.57-3.14,54.78-7.62,13-13.79,32.53-16,47-1.37,9,9.62,57.11,9.62,57.11Z"/>
        <path class="cls-40" d="M22.27,68.08,19,81.91l-3.55,6.8a58.22,58.22,0,0,1,2.12,7c1.26,5.66-2.1,9.69-3.72,15.43-1.65,5.9-2.8,10-2.8,10l2.69-.86a45.9,45.9,0,0,1,2.74-9.77,55.55,55.55,0,0,1,5.75-10.32c3.16-.25,7.26-5.21,8.2-8.14.66-2.07,1.16-10,.45-12.06C29.29,75.4,22.27,68.08,22.27,68.08Z"/>
        <path class="cls-29" d="M23.93,69.39a11.82,11.82,0,0,1,3.73,2.77,12.17,12.17,0,0,1,3,6.47"/>
        <ellipse cx="20.54" cy="87.98" rx="5.65" ry="3.17" transform="translate(-69.79 89.24) rotate(-77.65)"/>
        <path class="cls-41" d="M33.9,91.52c-1.08-.06-3.46.14-5.18-1.07-2.82-2-2.63-5.71-4.6-7.49-1.55-1.4-3.68-1.42-4.6,0-1.44,2.22-2.16,2.14-2.16,2.14s-1.22,7.69,2.55,9.23c2.71,1.1,5.95.71,8.32-2.77"/>
        <path class="cls-42" d="M29.93,87.77c-1.22-2.17-1.21-4.22-2.15-6.08-1.11-2.21-1.92-3.26-3.91-3.4-2.48-.19-3,1.38-5.27,2.63"/>
        <path id="ear-male-2" class="cls-43" d="M85,111.93s19.22-31.58,3.9-36.75C80.13,72.23,75.5,86.11,74,87.32S71.06,88.59,71,85.58c0-2.64,1.9-7.68,2.75-8.91,3.33-4.84,10.48-8.47,15-7.76S99.46,78.77,99.86,83.3c1,11.19-9.6,40.49-20.83,39.89-2.9-.16-2.57-14.49-4-17"/>
        <path id="ear-inner" class="cls-44" d="M81.63,88.72c-2.59,2.49,1.82,6.76,1.55,8.67S79.81,99.94,79,103c-1.88,7.43,8.24-.26,9.58-5.72C89.69,92.91,84,86.42,81.63,88.72Z"/>
        <path id="neck-shading" class="cls-45" d="M77.3,122.66s1.52,30.09-4.51,37.58C57.3,179.46,31.7,187.11,31.7,187.11a131.28,131.28,0,0,0,20.8-1.65c5.54-1,17.57,1.61,19.07,7.39,1.62,6.26.91,32.3.91,32.3s57.62-12,57.75-12c3.17-.25-.11-55.31-10.82-70.09C109,128.66,77.3,122.66,77.3,122.66Z"/>
        <path class="cls-41" d="M62.67,182.71c4.12-1.2,14.12-7.83,18.52-13.14a34.73,34.73,0,0,0,7.48-16.63"/>
      </g>
    </symbol>
    <symbol id="arm-female" viewBox="0 0 333.35 429.79">
      <path class="cls-5" d="M226.74,18.35c-4.73,3.58-25,20.59-28.42,36.27-1.4,6.43-.66,8.84-4.27,17.9-3.27,8.23-6.55,13.94-12.65,23.24-9.54,14.56-4,16.51-7,36-1,6.48-6.43,10.11-12.34,20-3.94,6.62-7.3,14.39-14.17,18.82-6.23,4-11.1,5.2-13.71,11-3,6.68.13,12.56-4.8,19.89a20.42,20.42,0,0,1-5.49,5.48c-5.73,3.84-11.22,3.19-13.64,3.28-4.19.15-19.57-9.76-24.76-6.71-2.17,1.28-1.17,2.91-4.11,6.17-4.28,4.75-8.71,3.86-14.4,6.86-3.9,2-1,5-11,17.07-8.59,10.24-12.7,9.25-13.64,13.79-1.2,5.81,1.74,6.82.69,13-1.37,8-6.57,7.93-9.6,16.45-3.09,8.68,1.52,10.94-2.06,21.26-2,5.65-3.84,6.4-4.12,11-.39,6.57,3.28,8.56,2.75,13.72-.6,5.78-5.74,8.2-10.29,13-5.45,5.79-7.13,12.85-10.28,26.74-7.5,33.06-10.95,49.66-6.18,56.91,23.67,36,211.64-41.54,227.13-76.57,1.17-2.65,4.36-9.74,16.91-19.12,7.15-5.34,9.51-17.39,15.77-21.11,17.48-10.37,12.82-25,15.85-36.8,7.14-27.87-3-34.26,6.17-51.43,7.63-14.34,16.42-13.12,26.75-28.11,12-17.4,20.4-24.89,20.57-35.66.68-44-46.63-113.08-75.35-136.53C245.79,5,232.25,2,227.88,1.05,222.89,0,230.24,15.7,226.74,18.35Z"/>
    </symbol>
    <symbol id="body-female" viewBox="0 0 412.11 519.28">
      <path class="cls-5" d="M21.36,99.07S41.18,81.43,65,61.59c15.32-12.75,30.42-27.13,40.23-32.23C128.65,17.19,188.14,1.74,214.51,1,239.45.33,280.6,20.41,303.42,30.5s73.87,35.63,88.23,56.23c11.16,16,18.91,47.92,19.43,67.43.73,27.5-11.59,81.91-19.2,108.34-6.28,21.82-21.49,65.14-23.32,87.77-3.34,41.56,16.46,166,16.46,166l-384,2,.92-42.74S76.15,407.72,81.63,368c12.5-63.25,17.07-58.06,31.16-83.05,3.71-6.57,11.43-19.2,13-36.11,1.86-19.66-13-51.31-22.17-68.8-7.77-14.83-32-48.11-43.66-60.12C44,103.42,21.36,99.07,21.36,99.07Z"/>
    </symbol>
    <symbol id="body-shading-female" viewBox="0 0 410.09 471.24">
      <g id="body-shading-female-3" >
        <path class="cls-9" d="M206.74,194.9c11.59-2.27,21.77,7.5,45.6-12.34,15.32-12.75,74.53,5.1,84.35,0,23.4-12.17,17.14-60,23-84.34S316.61-9.24,339.43.84s36.84,18.26,51.2,38.86c11.16,16,18.91,47.92,19.43,67.43.73,27.5-11.6,81.91-19.2,108.34-6.28,21.82-21.49,65.14-23.32,87.77-3.34,41.56,16.46,166,16.46,166L0,471.24.91,428.5s74.21-67.81,79.7-107.58c12.5-63.25,17.07-58.06,31.16-83.05,3.71-6.57,11.43-19.2,13-36.11,1.86-19.66-13-51.31-22.17-68.8-7.77-14.83,47.86,14.09,49.6,30.74C159.77,236,191.33,197.93,206.74,194.9Z"/>
        <path class="cls-10" d="M123.89,215.36c4.59-5.72,27.37-33.71,32.11-42.4a147.07,147.07,0,0,0,11.31-26.74"/>
        <path class="cls-10" d="M117.94,226.44a272.54,272.54,0,0,0,26.75-12.34c16.33-8.64,51.49-32.51,62.62-41.26"/>
        <path class="cls-10" d="M117.83,228.27c8.48-.68,42.87-5.2,54.63-9a135,135,0,0,0,38-19.54"/>
      </g>
    </symbol>
    <symbol id="collar-female" viewBox="0 0 251.98 151.2">
      <g id="collar-female-3" >
        <path class="cls-25" d="M7.12,119.22s14.54-7.48,48,3c21,6.61,20.91,10.55,43,17.83a197.52,197.52,0,0,0,59.43,10.05c13.25.13,26.7.35,43-4.57,19.15-5.79,49.83-32.15,49.83-32.15S192.23,75.7,147,72.9C66.93,67.93,7.12,119.22,7.12,119.22Z"/>
        <path class="cls-2" d="M169,7.87l-3.66,28.45s-35.15,2-52.8,8.92c-6.81,2.69-25.44,14.67-34.17,19.08C64.86,71.13,38.09,80.67,38.09,80.67L66.43,45.81,108,23.87Z"/>
        <path class="cls-25" d="M32.26,101.54s45.37-22.36,79-26.93c18.81-2.56,54.17.91,54.17.91L165.29,35s-37.6,4.43-50.63,8.46C98.3,48.47,89.19,56.82,74.09,64.9c-3.35,1.79-34.94,14.53-37.6,17.25C31.92,86.84,32.26,101.54,32.26,101.54Z"/>
        <path class="cls-26" d="M35.46,79.87C32.61,78.76,30.74,65.24,33,61.58s6-2.07,9.6-6.17c3.42-3.92,1.71-7.38,4.8-9.26,3.62-2.2,7.9,1.42,9.94-.68,2.21-2.27-1.47-7.81.69-9.6,1.61-1.34,4.17,1.31,6.85,0,2.93-1.44,1.6-5.43,4.46-7.55,3.3-2.44,6.78,1.61,11.66-.34,4.65-1.86,3.92-6.51,8.91-8.23,3.25-1.11,4,.71,7.89-.34,4.72-1.27,4.81-4.24,9.25-5.49,4.18-1.17,5.09,1.17,9.26.35,6.07-1.21,6.09-6.56,11.32-7.89,6.32-1.6,9.06,5.54,15.77,4.46,6.48-1.05,6.77-8.19,14.05-9.6,4.5-.87,10.53.65,12,4.46s-2.07,8.92-5.82,11.31c-4.91,3.13-7.73.12-16.12,2.06-8.68,2-8.44,5.86-16.11,6.85-7.83,1-9.39-2.84-15.09-.68S109.74,32,104.6,32.1c-3,0-3.9-1.58-7.2-1-2.64.44-4.48,1.87-6.85,3.77-4,3.19-3.76,4.31-6.17,6.17-5.74,4.41-10.35.6-15.43,4.8-1.22,1-2.53,3.41-5.15,8.23-3.74,6.88-5.55,5.15-7.54,7.08C52.91,64.39,54.2,72.55,46.2,73,39.05,73.42,42.55,82.61,35.46,79.87Z"/>
      </g>
    </symbol>
    <symbol id="female-hair" viewBox="0 0 174.97 296.05">
      <path class="cls-29" d="M3.86,17.58C-6,.81,18.22-1.55,22.43,4.59c3.05,4.45-1.51,7.23-.52,10.09,2.46,7.08,15.24,3,19.89,10.29,4.07,6.38-2.32,13.12,2.06,18.51,3.39,4.18,8.59,1.81,17.14,4.8A36.53,36.53,0,0,1,79.51,63.37c8.22,13.91-4.11,23.52,2.06,37.71,6.7,15.41,24.06,10.58,32.23,26.74,6.64,13.13-3.3,19.32,2.74,37.72,5.55,16.9,15.53,16.49,17.83,30.85,2.58,16.09-9.09,21.85-4.8,33.6,4.6,12.59,18.24,20.92,26.59,24.31,8.81,3.57,28.42,11.81,9.07,36.91-2.25,2.92-9,3.64-11,3.24-4.08-.84-7.36-10.89,1.48-9.86"/>
    </symbol>
    <symbol id="hair-female" viewBox="0 0 241.83 388.23">
      <g id="hair">
        <path id="hair-2" class="cls-31" d="M41.46,150.92c-2-.52-.35-7.21-1.74-18.45-1.83-14.7-3.37-26.08-10.29-29.49-3.82-1.89-5.12.72-11-.69-8.33-2-16.64-9.9-17.83-18.51-1-7.63,4.45-8.75,7.54-21.94,3-12.75-1.23-15.62,2.75-22.63,5-8.88,12.89-6.16,18.51-15.09,3.12-4.95-.54-9.91,2.17-14.74s11.82-9.55,15-8.8c10.52,2.51,2.85,7.56,18.86,9.49C81,11.94,82.57,15.36,91.15,20.35,97.39,24,92.55,32,101.77,38c6.16,3.95,39.78,7.89,41.26,26.29,1.37,16.91,13.81,9.43,31.32,23.2,17.33,13.63,22.92,35.37,23.77,41.6,3.51,25.87-3.3,30.52-4.35,54.63-1.33,30.56,37.15,47.42,43.09,81.48,2.11,12.07-8.48,30.85-4.23,39.94,1,2,9.09,8.29,8.69,12.52-.75,7.89-4.92,1.6-11,17.83-3.44,9.19,1.18,12.89-.69,23.31-1.35,7.52-8.78,14.36-14.91,19.83s-11.25,9.7-17.55,9.09c-8.62-.84-10.77-8.67-24.57-15.15-14.41-6.76-19.28-2.36-23.2-9-2-3.38-3-9.74-1.48-13.31,2.17-5.26,6.11-1.15,3.42-7.83-2-5-6.18-6.7-14.34-16.86C124.3,309.7,119.36,300,118.57,293.61c-1.61-13.2,7.55-13.66,5.78-19.43-1.44-4.69-13.65-5.21-16.12-12.06s-2.49-15.33-1-22.11c3.54-15.77,0-19.43-1.37-20.29-5.36-3.22-6.15-3.71-6.23-5-.49-8.46-2.86-10.13-8.29-10.28-11.88-.34-3.6-4.74-12.4-5.14-7-.32-22.62,7.36-20-1.62,1.93-6.79,6.47-8,11.54-15.47,7.21-10.68,8.46-15.71,12.91-30.7,2.18-7.32-6.43-20.23-12.57-20.35a19.36,19.36,0,0,0-15.65,8.57C48.09,150.73,44.37,151.69,41.46,150.92Z"/>
        <use width="174.97" height="296.05" transform="translate(10.26 67.04)" xlink:href="#female-hair"/>
        <use width="174.97" height="296.05" transform="matrix(1.07, -0.03, 0.03, 1.12, 23.05, 40.29)" xlink:href="#female-hair"/>
        <use width="174.97" height="296.05" transform="translate(53.81 14.26) scale(0.96 1.03)" xlink:href="#female-hair"/>
      </g>
    </symbol>
    <symbol id="feather" viewBox="0 0 202.68 228.21">
      <path id="feather-3" class="cls-28" d="M27.39,79.48c-5.18,1.7-12.58-2.11-14.17-6.86-1.29-3.87,1.79-6.82,0-9.14C11,60.63,5.59,64,2.71,61.19-.68,58,1.28,48,5.91,46.11,9.51,44.61,12.15,49,16,47.48s2.62-6.84,8.23-11.43c2.73-2.24,3.64-1.49,5.49-3.66,3.5-4.09,1.8-8.53,4.11-9.6,2.85-1.31,6.13,5.08,10.52,4.12,3.49-.77,3.4-5.25,8.23-6.86,2.75-.92,3.27.38,5.94-.46,5.27-1.66,5.24-7.37,9.14-8.23,4.2-.92,6.54,5.18,10.52,4.57,5.27-.8,4.09-12,9.6-14.62,4-1.89,7.57,5.2,13.94,14.62,2.86,4.23,11.86-.36,20.8,5.26,3.31,2.08,4.07,12.77,10.74,11.89,9.91-1.32,8.69,6.74,19.43,5.71.78-.07,4.34-.13,5.49,1.83,1.29,2.21-1.67,5-.46,6.86,1.5,2.28,6.91-.8,9.6,1.83,2.14,2.08-.16,5.14,2.28,8.68,1.83,2.65,3.72,1.8,5.49,4.12,2.93,3.81-.84,7.89.91,13.25,2,6.12,8.31,5.13,10.06,10.06,2.95,8.31-12.49,17.92-9.6,23.77,2.12,4.29,11,.41,16,6.4,4.4,5.31,2.28,14.27,1.83,16-1.51,5.77-5,9.72-4.57,10.06.64.47,6.06-8.32,9.14-7.32,2.85.93,4.25,10.42.92,18.29-5.1,12-18.49,13.75-17.83,19.66.55,5,10,4.09,14.17,12.34,2.94,5.86,2.16,14.25-1.83,19.2-3,3.68-5.48,2.71-10.06,7.77-4.26,4.71-3.24,6.85-6.4,8.69-3.93,2.29-6.36-.51-15.08,0-7.53.44-18,9.13-18.75,6.4-3.5-12.19-21,2-26.21-5.18-3.7-5-8.93-7.44-10.13-12-.94-3.55,32.43-22.05,32.69-27.65.28-6.08-4.15-7.32-3.66-12.8.53-5.91,5.87-6.82,5.49-11.43-.36-4.18-4.81-4.15-9.15-11.43-1-1.61-2-4.43-4.11-10.06-3.24-8.66-2.78-9-4.12-10.51-4.55-5.15-11.24-2.74-12.8-6.4-1.81-4.26,6.36-9.6,4.58-13.26s-10.46,0-14.18-4.57c-1.39-1.72-1.09-6-.45-14.63.61-8.24,1.27-10.63-.46-13.26-.47-.71-1.55-2.09-7.77-4.57-8.81-3.5-10.61-2.3-16.92-5-7.46-3.22-7.71-6.1-11.88-5.94-4.75.19-5.15,4-11.89,6.4-7.1,2.58-9.15-.71-14.17,1.83C31.77,69.79,33.35,77.52,27.39,79.48Z"/>
    </symbol>
    <symbol id="hair-male-young" viewBox="0 0 124.02 131.53">
      <path id="hair-male" class="cls-34" d="M.5,22.07c.35-5.72,16-14.17,20.27-16C28.65,2.69,41.42.35,49.49.51,59.27.69,67.79,4.09,76.77,8c5.21,2.26,28.57,9.91,34.29,16.31,6.16,6.91,10.12,16.14,12,25.22,1.52,7.54-.88,12.64-1.07,20-.31,12.21-7.21,15.93-10.36,27.73-.61,2.29-13.06,32.29-16.76,33.22-6.7,1.69-6.46-.4-13-2.74-2.17-.78-4.31.46-6.62.53s-7.41,2.91-9.3,1.68c-2.3-1.5-1.29-10.9-2.82-13.18C62,115,57.47,112,55.59,111.06c-3.81-1.9-14.86-7.62-14.86-7.62s7.82-10.7,9.14-15.69c.68-2.55,1.47-9.76.46-12.2a13.13,13.13,0,0,0-4.57-5.4c-2.64-1.41-6.9-1.38-9.75-.46-2.64.85-7.15,6.16-9.91,6.32-3.55.21-8.84-6.71-10-10.06-.91-2.47.8-7.87.91-10.51.09-2.17.47-6.56,0-8.69-.35-1.59-2.21-4.39-2.74-5.94-1-2.77-1.06-9-2.75-11.43C9.59,26.68.31,25.36.5,22.07Z"/>
    </symbol>
    <symbol id="beard-young" viewBox="0 0 79.43 76.35">
      <path id="beard" class="cls-34" d="M63.66.61S57.12,7.38,53.57,7.47c-2.88.07-8.25-1.24-10.94-2.28-1.72-.68-7.17-4.27-8.87-3.55C30.85,2.87,28.42,12,25.64,13.49,22.56,15.14,20.76,7.1,17.45,6c-1.75-.61-8,0-8,0s-1.57,2.32-2,2.89a25.82,25.82,0,0,1-2.7,2.59s8.62,3.27,10.21,6.25c1.13,2.13,3.39,6.87,1.64,8.53S3.51,24.42,3.51,24.42s.34,8.35-.69,11.24C1.52,39.34.16,45.94.58,49.45,1.1,53.87,2.79,65.3,5.3,68.88c2.65,3.78,12,5.46,16.38,6.78,3.7,1.11,14-2.88,16.84-7.77,5.14-9,8.91-10.67,12.3-13.37,4.88-3.89,10.4-9.11,11.47-13.22,1.33-5.12,3.28-12.8,5-17.14,1-2.57,3.57-8.14,5.22-10.36,1.35-1.82,6-5.57,6-5.57Z"/>
    </symbol>
    <symbol id="people-2" viewBox="0 0 2050.11 1169.67">
      <g id="jed">
        <use width="288.4" height="289.57" transform="matrix(-1, 0, 0, 1, 829.56, 99.06)" xlink:href="#head-male"/>
        <use width="417.02" height="503.65" transform="matrix(-1, 0, 0, 1, 771.06, 330.85)" xlink:href="#body-male"/>
        <use width="197.54" height="427.01" transform="matrix(-1, 0, 0, 1, 862.21, 453.69)" xlink:href="#arm-male"/>
        <use width="203.81" height="109.6" transform="matrix(-1, 0, 0, 1, 703.5, 287.48)" xlink:href="#collar-male"/>
        <use width="452.52" height="545.02" transform="matrix(-1, 0, 0, 1, 807.57, 288.48)" xlink:href="#body-shading-male"/>
        <use width="259.79" height="305.09" transform="matrix(-1, 0, 0, 1, 768.85, 87.18)" xlink:href="#hair-male-old"/>
        <use width="344.94" height="396.8" transform="matrix(-1, 0, 0, 1, 604.23, 539.9)" xlink:href="#chair"/>
      </g>
      <g id="louise">
        <use width="178.6" height="227.24" transform="matrix(-1, 0, 0, 1, 1141.01, 148.42)" xlink:href="#head-female"/>
        <g id="female">
          <use width="333.35" height="429.79" transform="matrix(-1, 0, 0, 1, 1427.08, 479.64)" xlink:href="#arm-female"/>
          <use width="412.11" height="519.28" transform="matrix(-1, 0, 0, 1, 1220.56, 381.55)" xlink:href="#body-female"/>
          <use width="410.09" height="471.24" transform="matrix(-1, 0, 0, 1, 1219.54, 428.58)" xlink:href="#body-shading-female"/>
          <use width="251.98" height="151.2" transform="matrix(-1, 0, 0, 1, 1146.2, 307.84)" xlink:href="#collar-female"/>
        </g>
        <use width="241.83" height="388.23" transform="matrix(-1, 0, 0, 1, 1123.49, 85.07)" xlink:href="#hair-female"/>
        <g id="hat-1">
          <path id="hat-rim" class="cls-57" d="M1020.23,87.82c-1.14-11.74-11.09-25.94-11.09-25.94s6.35-1.49,9.56-1.45,8.69,9.9,8.69,9.9,7.31-7.28,11.43-6.55c8.38,1.48,15.11,21.68,14.47,30.17-1,13.18-16.07,19.2-16.07,19.2s17.67-11.35,21.71-2.05c4.16,9.57-12.42,52.41-12.42,52.41l-20.11-15.84s23.62,18.64,23.69,20c.58,10.51-21.71,29.5-30,36.16-1.88,1.51-4.78-1.12-4.78-1.12L1001.83,186s18,24.94,23.85,33.4c.79,1.15,1.75,4.54-.2,5.92-3.22,2.27-14.72,9-20.41,12.29a3.64,3.64,0,0,1-5-1.42l-11.59-21.39,1.6,20.8a3,3,0,0,1-1.78,2.73l-13.22,6.79a3.07,3.07,0,0,1-4.27-1.64l-10.1-26.62,1,33.88a3.31,3.31,0,0,1-1.83,3.06L952,257.68a2.33,2.33,0,0,1-3.32-1.58L941.14,222s26.18-14.87,38.86-27.43c12-11.88,28.51-36.41,34.4-51.54C1018.63,132.16,1021.48,100.85,1020.23,87.82Z"/>
          <path id="hat-side" class="cls-57" d="M957.75,40.62s36.23,9.33,45,15.66c7.3,5.26,11.77,12.68,16.34,25.25,3.53,9.7-.34,41.49-1.94,51.32-1.82,11.17-7.59,21.22-13.14,31.08-5.4,9.6-22,30.32-32.23,38.06-9.72,7.32-30.06,19.89-30.06,19.89l-22.67-11s12-.19,25.53-11c6.56-5.24,18.37-21.27,22.51-28.57,9.41-16.57,15.77-39,15.77-62.4,0-22.55-4.79-39.14-8.22-47.77C970.69,51.19,957.75,40.62,957.75,40.62Z"/>
          <ellipse id="hat-top" class="cls-57" cx="930.06" cy="123.7" rx="88.16" ry="50.76" transform="translate(615.38 1007.6) rotate(-77.98)"/>
          <path id="bow" class="cls-58" d="M902.2,218.48l29.4-18.55a5.66,5.66,0,0,1,8.16,3.46l20.85,75.05a5.12,5.12,0,0,1-7.08,6L921.4,269.56s18.27,15.55,21.6,22.63c9.46,20.15,10.28,88.46,10.28,88.46l-20.57-19.54s-4.6-25.55-6.66-33.4-9.8-29.35-9.8-29.35-2.82,18.53-2.31,26.95,6.43,40.94,6.43,40.94l-15.43,13.37s-11.26-58.59-9.26-78.17c.83-8.09,10.29-30.86,10.29-30.86L885.22,296a4.85,4.85,0,0,1-8.56-2.4l-10.29-73.73a7.19,7.19,0,0,1,8.26-8.09Z"/>
          <use width="202.68" height="228.21" transform="matrix(-1, 0, 0, 1, 1021.56, 0)" xlink:href="#feather"/>
          <path class="cls-59" d="M898,227c2.43-.76,7.15-4.42,12.39-6.44a84.84,84.84,0,0,1,15.16-4s-10.05,5.7-13.18,7.58c-5.15,3.09-6.21,6.21-6.21,6.21s9.54-.06,12.72.46c4.07.66,16.27,4.27,16.27,4.27s-15.77.7-19.42,1c-4.84.38-5.95,2.78-5.95,2.78s10.45,4.08,13.63,6.09c4,2.54,15.17,12.08,15.17,12.08s-16.16-4.74-21.6-5.75c-2.36-.44-9.6-.08-9.6-.08s5.8,3,7.81,3.85c4.76,2,10.62,9.3,10.62,9.3S915,259.05,912,257.69c-5.41-2.52-6,7.73-6,7.73s-2.94-7.58-7.36-3.2A61.47,61.47,0,0,1,891,268s2.8-7.75,4-9.9a55,55,0,0,1,5.22-6.21,17.72,17.72,0,0,0-6.78,1.86c-3.65,2.15-13.34,9-13.34,9s4.94-10.91,8.57-13.61c3.09-2.28,11.55-7.2,11.55-7.2s-6.58-2-11.81.16c-3.89,1.64-13.95,7.12-13.95,7.12s8.32-11.24,12.12-13.33A98.43,98.43,0,0,1,897,231.67a15.54,15.54,0,0,0-7.47-2.33,70.61,70.61,0,0,0-7.16.57,20.48,20.48,0,0,1,7-2.74C892.38,226.67,895.83,227.72,898,227Z"/>
          <path class="cls-60" d="M903.65,224.33a38.21,38.21,0,0,0,2.12,20.06c2.47,7.1,4,11.7,5.47,15.22,1.27,3.1,6.81,6.69.38,6.46-2.38-.09-4.43-.92-5.28-2.48-2-3.69-3.14-7-5.31-15.94-3.88-15.9-5.43-23.77-2.52-25.6C900.7,220.68,904.07,221.08,903.65,224.33Z"/>
          <path class="cls-61" d="M911.24,264.85c1.52-1.13,11.11,10.51,16.87,17.83a74.5,74.5,0,0,1,12.23,22.63c.26.8,2.1,6.41,1.37,6.74-1.29.57-8.84-16-10.74-15.32-2.08.78,5,21.53,3.31,22.18s-7.85-18.33-20.11-44.46C913,272,910.36,265.5,911.24,264.85Z"/>
          <path class="cls-61" d="M914.47,283.44c.52-3-2.29-18.33-3.23-18.59-1.35-.37-4.58,19.4-6.79,26.06-1.89,5.71-4.08,12.35-4.34,20.57-.49,15.77,6.43,28.88,7.66,28.57,1.4-.36-8.21-17.47-1.83-35C907.2,301.63,912.45,295.25,914.47,283.44Z"/>
        </g>
        <g id="amr-shading-female">
          <path class="cls-62" d="M1163,708.51c.87,1.29,0,35.31,8.57,43.88,38.55,38.55,40.71,105.2,25.22,70.17-1.17-2.65-4.36-9.74-16.92-19.12-7.14-5.34-9.5-17.39-15.77-21.11-17.47-10.37-12.81-25-15.84-36.8-7.14-27.86,3-34.26-6.18-51.42-7.63-14.35-16.41-13.13-26.74-28.12-12-17.4-20.4-24.89-20.57-35.66-.22-14.35,12.36-48.64,12.36-48.64s1.31,64.17,25.35,70.93C1163,661.19,1158,701.18,1163,708.51Z"/>
          <path class="cls-63" d="M1316.84,689.84c4.19.15,19.57-9.76,24.76-6.71,2.17,1.29,1.17,2.91,4.11,6.18,4.28,4.74,8.71,3.85,14.4,6.85,3.9,2.05,1,5,11.05,17.07,8.59,10.24,12.7,9.25,13.64,13.79,1.2,5.81-1.74,6.82-.69,13,1.37,8,6.57,7.93,9.6,16.46s-1.52,10.93,2.06,21.25c2,5.65,3.84,6.4,4.11,11,.39,6.57-3.28,8.57-2.74,13.72.6,5.78,5.74,8.2,10.29,13,5.45,5.79,7.13,12.85,10.28,26.74,7.5,33.06,11,49.66,6.17,56.91-23.66,36-211.63-41.54-227.12-76.57-.46-1,7.86-2,29.94-26.59,6.27-7,24.92-7,31.54-14.32,4.24-4.66,14-9.34,20.88-10.67,9.73-1.87,16-.91,11.58-17.22-3-11,15.64-8.08,16.31-20.42.76-14.17,10.35-23.17,8.23-30.93-1.38-5-14,2.44-14,2.44S1316.6,689.83,1316.84,689.84Z"/>
          <path class="cls-10" d="M1274.19,664.57A60.41,60.41,0,0,1,1258,677.26c-23.11,12.35-47.17,5.24-53.43,3.18"/>
          <path class="cls-10" d="M1284.42,670.1a60.41,60.41,0,0,1-16.19,12.69c-23.11,12.35-47.17,5.25-53.43,3.18"/>
          <path class="cls-10" d="M1247.65,623.82c-3.79,4.18-40.45-10.29-55.88-15.77-24.69-8.78-44.48-20.91-50.74-23"/>
          <path class="cls-10" d="M1207.54,716.73a87.53,87.53,0,0,1-50.4-5.14"/>
          <path class="cls-10" d="M1300.11,706.45c10.72-5.12,13.51-4.12,14.4-3.09,1.52,1.77-1.15,5.21-5.14,15.43-5.13,13.13-3.45,14.47-7.2,19.54-5.51,7.45-10.51,6.43-12.34,12.35-2.12,6.84,3.68,11.08,1,15.43-2.45,4-8.25,1.75-17.48,5.14-7.55,2.77-9,6.22-16.46,11.31a67.27,67.27,0,0,1-25.71,10.29"/>
          <path class="cls-55" d="M1338.17,742.45c2.24,5.63,4.68,14.53,1,22.63-3.93,8.71-12.9,12-20.57,15.43-11.42,5-27.07,13.36-45.26,27.77"/>
          <path class="cls-55" d="M1354.63,756.85c.82,6.72.92,16.51-4.12,25.71-6.63,12.13-18.67,16.85-26.74,20.57-13.85,6.4-33,17.67-54.52,39.09"/>
        </g>
        <use width="344.94" height="396.8" transform="matrix(-1.01, 0, 0, 1.01, 1145.58, 617.22)" xlink:href="#chair"/>
      </g>
      <g id="david">
        <use width="288.4" height="289.57" transform="matrix(-1.04, 0.46, 0.46, 1.04, 1603.44, 107.01)" xlink:href="#head-male"/>
        <use width="417.02" height="503.65" transform="matrix(-1, 0, 0, 1, 1645.95, 438.32)" xlink:href="#body-male"/>
        <use width="197.54" height="427.01" transform="matrix(-1, 0, 0, 1, 1737.1, 561.16)" xlink:href="#arm-male"/>
        <use width="203.81" height="109.6" transform="matrix(-1, 0, 0, 1, 1578.39, 394.94)" xlink:href="#collar-male"/>
        <use width="452.52" height="545.02" transform="matrix(-1, 0, 0, 1, 1682.45, 395.94)" xlink:href="#body-shading-male"/>
        <use width="124.02" height="131.53" transform="matrix(-1.7, 0, 0, 1.7, 1582.03, 163.36)" xlink:href="#hair-male-young"/>
        <use width="79.43" height="76.35" transform="matrix(-1.7, 0, 0, 1.7, 1620.97, 337.95)" xlink:href="#beard-young"/>
        <use width="344.94" height="396.8" transform="matrix(-1, 0, 0, 1, 1479.11, 647.37)" xlink:href="#chair"/>
      </g>
    </symbol>
    <symbol id="hat-2" viewBox="0 0 257.92 271.29">
      <g id="hat-2-3" >
        <use width="202.68" height="228.21" transform="matrix(-0.99, 0.48, 0.49, 1.02, 154.1, -38.26)" xlink:href="#feather"/>
        <use width="202.68" height="228.21" transform="matrix(-0.78, 0.43, 0.39, 0.7, 185.02, 8.86)" xlink:href="#feather"/>
        <path class="cls-35" d="M162.8,191.5c-7.39,4.16-28.81-22.78-74.67-78.08C11.64,21.18-1.91,7.92,1.47,4.05c6.35-7.3,62.6,30.43,103,69,19.56,18.64,43,44.74,54.78,83.17C161.82,164.49,169,188,162.8,191.5Z"/>
        <path class="cls-36" d="M1.93,4.22C29.37,18.27,62.52,50.52,106.47,97c44.24,46.81,49.77,81.11,62,110.52"/>
        <path class="cls-37" d="M147.29,186.6c-6.91,1-17.86,34.29-30.78,37.79-5.78,1.56-9.21-2.93-11.59,1.83-3.35,6.7,8.08,13.71,15.7,15.24,2.84.56,23.26,2.35,31.85-5.34C162.93,226.76,157.32,185.2,147.29,186.6Z"/>
        <path class="cls-38" d="M147.29,186.6c-6.91,1-17.86,34.29-30.78,37.79-5.78,1.56-9.21-2.93-11.59,1.83-3.35,6.7,8.08,13.71,15.7,15.24,2.84.56,23.26,2.35,31.85-5.34C162.93,226.76,157.32,185.2,147.29,186.6Z"/>
        <path class="cls-37" d="M132.58,242.45c-.5-2.95,7.19-8.54,13.94-12.35,3-1.67-1-22.7-3.2-42.66-2.36-21-7.29-48.32-5.48-78.71C141.19,52.35,157,10.79,167.71,10.9c5.67.06,9.6,11.28,19.8,13,6.59,1.08,11.62-3.83,15.7-1.22,2.88,1.84,2.77,7.94,3.2,8.23,1.43.94,5.68-1.48,8.23-.31s2,11.83,3.73,13c1.91,1.22,14.4-1.69,20.65,2,2.59,1.53,8.46,14.48,7.92,17.45-1.32,7.36,8.59,5.63,9.83,8.15,3,6.14-40.18,26.84-57.52,64.46-17.54,38-6.63,49.07-19.89,82.29-2.49,6.23-17.22,19.62-23.24,21.94C146.45,243.51,133.15,245.79,132.58,242.45Z"/>
        <path class="cls-38" d="M169.38,22.79c-1.85.9,3.13,9.69,3.2,21.49.11,17.72-11,27.2-8.23,29.71,3.41,3.11,24.68-7.57,25.15-21,.18-5.2-3.54-10.33-11-20.57C175.51,28.24,171,22,169.38,22.79Z"/>
        <path class="cls-38" d="M176.7,77.65c.31-.36,3.55-4,5.48-3.2,3,1.3.41,12.49-1.37,24.23-2.95,19.42-.3,18.26-2.74,38.4-4.3,35.52-12.09,35.42-9.6,53.94,1.66,12.43,6.08,19.23,1.83,28.34-3.73,8-12.54,14.35-16.92,12.34-6.72-3.08-2.55-25.62-1.37-32,.81-4.4,1.79-8.2,6.86-23.31,10-30,10.71-28.48,12.34-36.57,1.68-8.37,4.08-20.29,2.74-35.66C173.09,94.23,170.8,84.44,176.7,77.65Z"/>
        <path class="cls-39" d="M206.41,30.9c-9.14,22-12.32,40-15.43,63.2s3,52.8-2.28,73.15"/>
        <path class="cls-39" d="M208.62,41.68c-1.91,6.1-1.14,16.77-2,29.95C206,82.26,202,85.49,200.39,93c-1.73,8,1.22,8.84-4,19.43"/>
        <path class="cls-39" d="M214.64,100.58s2.74-9.9,8.26-12.85c14-7.47,13.54-24.75,9.11-31.57-2.72-4.19-7.6-8-11.43-6-2.67,1.38-5.48,5.1-5.48,5.11-.61.3,1.9,3.43,3.58-11"/>
        <path class="cls-39" d="M150.18,187.36a236.79,236.79,0,0,1-5.94-62.63C146,80.4,159.91,45.36,161.15,45.65c.82.19-3.72,15.68-5.94,42.51-2.06,24.9-2,58,2.29,58.52,3.06.37,7.8-15.94,9.6-27.43a96.79,96.79,0,0,0-1.83-38.4"/>
      </g>
    </symbol>
    <symbol id="people-1" viewBox="0 0 1819.78 1236.38">
      <g id="helen">
        <use width="178.6" height="227.24" transform="matrix(-1, 0.03, 0.03, 1, 326.69, 146.39)" xlink:href="#head-female"/>
        <g id="female-2" >
          <use width="333.35" height="429.79" transform="matrix(-1, 0.03, 0.03, 1, 623.55, 467.97)" xlink:href="#arm-female"/>
          <use width="412.11" height="519.28" transform="matrix(-1, 0.03, 0.03, 1, 413.91, 376.75)" xlink:href="#body-female"/>
          <use width="410.09" height="471.24" transform="matrix(-1, 0.03, 0.03, 1, 414.44, 423.79)" xlink:href="#body-shading-female"/>
          <use width="251.98" height="151.2" transform="matrix(-1, 0.03, 0.03, 1, 337.15, 305.54)" xlink:href="#collar-female"/>
        </g>
        <use width="241.83" height="388.23" transform="matrix(-1, 0.03, 0.03, 1, 307.08, 83.65)" xlink:href="#hair-female"/>
        <g id="amr-shading-female-2" >
          <path class="cls-53" d="M367.15,705.44c.92,1.27,1.17,35.29,10,43.58,39.8,37.25,44.16,103.79,27.53,69.3-1.26-2.62-4.68-9.59-17.54-18.56-7.32-5.1-10.08-17.06-16.46-20.57-17.81-9.79-13.64-24.53-17.06-36.26-8.05-27.61,1.83-34.34-7.87-51.19-8.1-14.09-16.83-12.58-27.65-27.22-12.56-17-21.22-24.2-21.74-35-.7-14.33,10.74-49,10.74-49s3.43,64.1,27.69,70.05C365.59,658.15,362,698.28,367.15,705.44Z"/>
          <path class="cls-54" d="M520.32,681.7c4.19,0,19.24-10.41,24.53-7.52,2.21,1.2,1.26,2.86,4.31,6,4.44,4.6,8.83,3.57,14.62,6.38,4,1.92,1.12,5,11.61,16.69,8.92,10,13,8.82,14.08,13.33,1.39,5.76-1.51,6.88-.25,13,1.63,8,6.82,7.71,10.14,16.13,3.37,8.57-1.17,11,2.76,21.18,2.14,5.59,4,6.27,4.47,10.83.61,6.55-3,8.67-2.29,13.8.8,5.76,6,8,10.71,12.68,5.64,5.61,7.56,12.61,11.17,26.39,8.58,32.79,12.58,49.27,8.05,56.68-22.46,36.71-212.9-34.53-229.53-69-.5-1,7.79-2.26,29-27.57,6-7.19,24.67-7.85,31.06-15.36,4.07-4.79,13.65-9.8,20.51-11.35,9.66-2.19,15.91-1.43,11-17.59-3.32-10.94,15.37-8.59,15.62-21,.3-14.19,9.58-23.51,7.21-31.19-1.55-5-13.94,2.9-13.94,2.9S520.08,681.69,520.32,681.7Z"/>
          <path class="cls-10" d="M476.86,657.85a60.43,60.43,0,0,1-15.76,13.22c-22.69,13.11-47,6.8-53.3,4.94"/>
          <path class="cls-10" d="M487.27,663a60.32,60.32,0,0,1-15.77,13.22c-22.69,13.11-47,6.8-53.29,5"/>
          <path class="cls-10" d="M449,618c-3.65,4.3-40.77-8.94-56.37-13.92-25-8-45.15-19.42-51.48-21.28"/>
          <path class="cls-10" d="M412,712.19a87.5,87.5,0,0,1-50.54-3.48"/>
          <path class="cls-10" d="M504.15,698.85c10.55-5.47,13.37-4.57,14.29-3.56,1.58,1.72-1,5.24-4.63,15.59-4.69,13.29-3,14.58-6.55,19.77-5.26,7.62-10.29,6.77-11.92,12.74-1.9,6.91,4,11,1.53,15.39-2.32,4.1-8.18,2-17.3,5.72-7.45,3-8.77,6.52-16.08,11.85a67.2,67.2,0,0,1-25.36,11.13"/>
          <path class="cls-55" d="M543.38,733.57c2.43,5.55,5.16,14.37,1.78,22.58-3.64,8.84-12.49,12.46-20,16.1a207.76,207.76,0,0,0-44.32,29.26"/>
          <path class="cls-55" d="M560.3,747.42c1.05,6.69,1.47,16.47-3.26,25.84-6.23,12.33-18.1,17.45-26,21.44-13.63,6.85-32.35,18.75-53.19,40.87"/>
        </g>
        <use width="257.92" height="271.29" transform="translate(80.4 -2.41) rotate(11.01) scale(0.91)" xlink:href="#hat-2"/>
        <use width="344.94" height="396.8" transform="matrix(-1.01, 0.03, 0.03, 1.01, 346.76, 614.78)" xlink:href="#chair"/>
      </g>
      <g id="moriarty">
        <use width="197.54" height="427.01" transform="matrix(-1, 0.09, 0.09, 1, 987.88, 536.65)" xlink:href="#arm-male"/>
        <use width="288.4" height="289.57" transform="matrix(-0.77, 0.63, 0.63, 0.77, 766.93, 128.72)" xlink:href="#head-male"/>
        <use width="417.02" height="503.65" transform="matrix(-1, 0.09, 0.09, 1, 885.98, 422.57)" xlink:href="#body-male"/>
        <use width="203.81" height="109.6" transform="matrix(-1, 0.09, 0.09, 1, 814.77, 385.49)" xlink:href="#collar-male"/>
        <use width="452.52" height="545.02" transform="matrix(-1, 0.09, 0.09, 1, 918.5, 377.06)" xlink:href="#body-shading-male"/>
        <use width="259.79" height="305.09" transform="matrix(-0.77, 0.63, 0.63, 0.77, 709.38, 162.88)" xlink:href="#hair-male-old"/>
        <use width="344.94" height="396.8" transform="matrix(-1, 0.09, 0.09, 1, 738.77, 645.87)" xlink:href="#chair"/>
        <path class="cls-55" d="M749.34,305.71c17-9.32,25.31-11.12,30.69-18,3.26-4.18-1.09-14.8,19-8.75,2.22.67,5.74,4,3.54-3.71-1.43-5,3.6-4.29,2.8-.57"/>
        <path class="cls-56" d="M807.61,281.55c3.38,9.75,3.61,18.52.51,19.6s-8.36-6-11.75-15.7-3.6-18.52-.5-19.6S804.23,271.8,807.61,281.55Z"/>
      </g>
      <g id="ben">
        <use width="288.4" height="289.57" transform="matrix(-0.91, 0.69, 0.69, 0.91, 1254.72, 115.58)" xlink:href="#head-male"/>
        <use width="417.02" height="503.65" transform="matrix(-0.97, 0.23, 0.23, 0.97, 1371.08, 428.68)" xlink:href="#body-male"/>
        <use width="197.54" height="427.01" transform="matrix(-0.97, 0.23, 0.23, 0.97, 1487.65, 527.72)" xlink:href="#arm-male"/>
        <use width="203.81" height="109.6" transform="matrix(-0.97, 0.23, 0.23, 0.97, 1295.45, 401.71)" xlink:href="#collar-male"/>
        <use width="452.52" height="545.02" transform="matrix(-0.97, 0.23, 0.23, 0.97, 1397.05, 379.14)" xlink:href="#body-shading-male"/>
        <use width="124.02" height="131.53" transform="matrix(-1.65, 0.38, 0.38, 1.65, 1246.62, 175.31)" xlink:href="#hair-male-young"/>
        <use width="344.94" height="396.8" transform="matrix(-0.97, 0.23, 0.23, 0.97, 1255.86, 632.05)" xlink:href="#chair"/>
      </g>
    </symbol>
  </defs>
  <title>moody-tabernacle-artboard</title>
  <g id="Foreground_People" >
    <g class="cls-71">
      <rect class="cls-72" x="1729.87" width="1113.6" height="784.46"/>
      <polygon class="cls-73" points="2611.73 1.83 2611.73 41.83 2007.61 41.83 2007.61 1.83 2611.73 1.83"/>
      <path class="cls-74" d="M2384.3,782.17c43.79-10.94,82.92-76.56,74-131.66-14.7-91.34-92.82-101.52-92.34-176.45.33-51.41,4.86-81.77-6.4-111.55-12.79-33.81-91.94,9.93-192.91-38.4-61.48-29.42-65.65-31.49-98.29-26.51-41.79,6.37-40.09,38.57-103.77,106.06-41.13,43.59-70.18,6.42-100.11,43-69.32,84.64-27.76,272.59,26,288.91,22.49,6.82,16.15,23.09,32,32.92,30.82,19.1-2.27,30.27,30.63,85,38.21,63.59,203.46,87.21,261.94,23.31,49.15-53.7,42.47-66.44,83.2-84.11C2335.09,776.75,2333,795,2384.3,782.17Z"/>
      <use width="2029.97" height="1593.63" transform="translate(-17.98 -157.3)" xlink:href="#side_wall"/>
      <use width="2029.97" height="1593.63" transform="matrix(-1, 0, 0, 1, 4538.85, -157.3)" xlink:href="#side_wall"/>
      <g id="m">
        <path id="body" class="cls-75" d="M2176.86,509.08c-1.58,0-.68,5.13-1.33,7.41-3.84,13.47-12.77,30.87-20.13,31.1-5.5.18-12.54-16.34-17.61-20.39-1.37-1.09-7.65,5.24-7.65,5.24s5.85,9.27,5.68,14c-.37,10.56-6.19,20.47-5.75,22,10.59,36.83,2.72,117.47,2.72,117.47l94.65,1.5s4.57-63.72-5.8-82.26c-2.43-4.35-2-8.27-2.34-15.86-.3-6.54-1.15-8.6-1.59-12.3-1.68-14.12,2.2-24.17.42-28.29-5.78-13.39-6.64-21.6-14.22-23.94-6.85-2.12-4-1.74-11.13-4.59C2183.85,516.69,2181.2,509.08,2176.86,509.08Z"/>
        <g>
          <path id="cuff-right" class="cls-22" d="M2073.07,531.75c.14.19,2.27.69,2.94,1.66a6,6,0,0,1,.65,2.41c.45,1.74,0,5.66-.18,8a28.67,28.67,0,0,1-1.82,7.07c-.28.77-1,2.17-1.92,2.12a2,2,0,0,1-1.91-1.33c-.61-2.19-.16-4.45-.45-4.42a9,9,0,0,0-1.13,3.47c-.05,1.69,1.6,5.89,3,6.24,2.9.72,6.28-6.7,7.93-10.92s1.05-7.8.07-12.49c-.11-.5-.15-.23-.89-.72C2077.54,531.61,2072.7,531.27,2073.07,531.75Z"/>
          <path class="cls-22" d="M2084.48,555.87a72,72,0,0,1-15-10.56c-2.39-2.24-3.59-1.69-7.12-3.43-3-1.5-2-3.11-5.67-5-2.68-1.33-2.75-3-7.17-1.93a10.85,10.85,0,0,1-5,.11c-2.19-.88-4.17-4.07-2.77-4.63.84-.34.2-1.46.15-2.34A2.94,2.94,0,0,1,2043,526a19.39,19.39,0,0,1,2.12-1.58c.9-.74-.13-1.23.83-2.21.5-.51.91-.21,2.1-.84.85-.45,1.8-1.22,1.69-1.48-.28-.62-3.36-2-7.37.07-.83.43-1.87-1.1-1.47-2,1.27-2.78,8.42-3.3,11.57-2.7a41.16,41.16,0,0,1,5.26,1.47,37.24,37.24,0,0,1,5.74,2.42c4,2.16,5.7,6.6,7.19,9.86,3.66,8,17.59,10.41,17.59,10.41Z"/>
          <path class="cls-43" d="M2044.84,534.94c.85.19,1.45.21,2.34-1.24.68-1.1,0-1.35-.3-1.63-1.44-1.33-4.62-2.75-4.4-3s5,3.66,6.41,2.29-3.12-6-2.67-6.25,4.34,4.48,5.47,4c1.38-.57,1.73-1.37.7-3.74a7,7,0,0,1-.16-4.42"/>
          <path class="cls-43" d="M2067,535.6c-3.62-2-5.05-4.21-5.68-5.9-.87-2.34-.4-4.23-1.9-5.26s-3.49.12-4.63-1.05c-.9-.93-1.38-2.33-.69-2.95,1.7-1.52,9.11,3.58,9.11,3.58s-3.25-3-9.65-4.28a7.26,7.26,0,0,0-3.68.24"/>
          <path id="arm-right" class="cls-75" d="M2068.45,550.64c.54.09,1.93,5.15,4.1,5.23,3.25.12,5.86-8.21,6.32-9.68a20.54,20.54,0,0,0,.56-11.08c-1.22-5.34-5.31-3.83-5.09-4.55s4.83-.89,8,.52a24,24,0,0,0,7.45,2.2c5.73.89,10.15,0,13.59,1.1,1,.32,1.42-1.21,3.48-1.68,1.68-.39,4.77,0,6,1.17.79.75.55.69,1.24,1,1,.38,2.44-1.18,3-1.69,1.61-1.64,9.91.7,17.39-.28,6.5-.85,5.89-4.43,14.73-6.59,3.92-1,7.77-1.9,11.79-.42,6.45,2.37,11.19,10.19,10.66,17-1,12.56-19.81,18.85-23.85,20.2-5.28,1.77-13.63,2.6-29.88,2.67-7.72,0-11.57.12-16-.7-7-1.31-7.06-2.73-13.46-3.37a114.14,114.14,0,0,1-13-2,8.59,8.59,0,0,1-4.49-2.11C2068.72,555.51,2067.61,550.5,2068.45,550.64Z"/>
        </g>
        <g id="m-arm-l">
          <path class="cls-22" d="M2132.32,580.77s-9.44-.52-11.3-1.86c-3.68-2.64-6.66-1-8.13-1.47a11.83,11.83,0,0,0-6.25.6c-2.14.85-3,1.76-4.7,3.5-1.05,1.09-5.23,5.44-1.26,7,.35.14,1.89-1.23,3.48-3.23,1.74-2.18,4.45-1.43,5.81-.85a.23.23,0,0,1-.06.44A7.84,7.84,0,0,0,2107,586c-1.84,1.11-2.87,3-2.17,4.63,1,2.24.87.86,2.45-.27a21.31,21.31,0,0,1,5.13-2.44,17.68,17.68,0,0,0-5.38,2.75c-1.57,1.2-2.36,4.81.3,6.11,1.07.52,1.28-3.38,3.74-4.41,1.58-.66,2.86-1.06,2.86-1.06a11.84,11.84,0,0,0-3.27,1.28c-2.06,1.09-5.05,8.44,2.21,6.46a1,1,0,0,0,.39-1.67A1.77,1.77,0,0,0,2112,597s2.16-1.22,3.65-.09c.5.38,3.65.22,5.33-.56,4.63-2.14,14.49,4.5,14.49,4.5Z"/>
          <path id="cuff-left" class="cls-22" d="M2124.2,579.16c.45-.35,2.42.31,2.93.61,2.28,1.37,3.33,6.05,4.43,11.82.16.83,1.07,12.62-.63,13.19-1.25.42-4.71-8.56-5.17-8.3s2.62,11.94,5.49,12.14c2.69.19,4.82-5.46,5.26-6.63,2.08-5.53,2.63-14.53-2.84-19.83a14.62,14.62,0,0,0-9.65-4.07C2122.71,578.07,2123.74,579.51,2124.2,579.16Z"/>
          <path id="arm-left" class="cls-75" d="M2204.64,533.7c-8.87.26-15.43,18.58-29.11,32.74-1.15,1.19-1.79,1-3.09,2s-1.07,2.71-3.55,3.32c-2.94.72-4.78,2.53-7.53,2.62-1.25,0-5.48-.58-7.23-.23-4.36.85-1.79,2.75-5.58,3.93-9.91,3.06-21.49.49-21.49.49a11.18,11.18,0,0,1,5.12,6.63c.42,1.54,2,18.2-.07,20.94-1.79,2.4-4.88-2-4.88-2s2.4,5.11,4.49,5.08c1.76,0,4.25-.6,7.06-.75a165,165,0,0,0,20-2.24c12.25-2.21,25.72,1.09,33.2-5,3.23-2.62,30.26-32.82,25.26-52.14C2215.24,541.48,2210.86,533.52,2204.64,533.7Z"/>
        </g>
        <path id="m-head" class="cls-22" d="M2175.67,511.47c-1.36-2.08-.21-1.48-2.53-20.31-.77-6.3-3.67-8.11-4.8-9.44-5.28-6.16-14.87-7.08-21.68-4-4.68,2.12-9.58,2.12-12.2,6.06a12.9,12.9,0,0,0-2.63,6.67c-.84,5.68.61,5.76-.32,10.94-.33,1.85-.83,3.58.11,5.26.68,1.24,2.63,1.62,2.66,2.82.1,4,2.09,3.91,1.86,10.44-.34,9.67-1.23,10-.32,11.89,2,4.14,8.39,6.52,13.89,5.26,6.4-1.46,5.89-11.39,10.63-11.89,3.42-.36.51,17,3.82,16.66C2168.75,541.44,2178.47,515.75,2175.67,511.47Z"/>
        <path id="m-collar" class="cls-10" d="M2162.69,527.6c1.36-1.61,5.91-7.84,7.3-10.17a63.21,63.21,0,0,0,4.56-9.26"/>
        <path id="m-hair-l" class="cls-76" d="M2131.05,492.88c1.1,1.13,3,.26,5,0,3.44-.5,8.22-4.35,9.25-7.57a13.36,13.36,0,0,1,3.41-6c3.94-4,7-3.75,6.74-4.76s-5.95-.8-10.95,1.79c-3.5,1.82-9.64,1.7-13.13,7.75C2129.76,486.86,2128.83,490.56,2131.05,492.88Z"/>
        <path id="m-ear" class="cls-41" d="M2162.6,504.08c.12-.06,1.3-.66,1.9-.21s.62,3-.06,4.22c-1,1.75-1.48.75-2.29,1.67a1.23,1.23,0,0,0,.39,2c.87.39,1.84,0,3.05-1.11.24-.22,1.24-1.17,1.94-1.9a12.31,12.31,0,0,0,2.36-8.32c-.2-2.56-3.17-4.75-4.35-5.1-2-.58-4,1.44-4.72,3.42-1,2.73,1,3.29,2.62,1.42"/>
        <path id="m-beard" class="cls-76" d="M2175.11,502a25.45,25.45,0,0,0-.94-10.25c-1.63-4.81-.75-7.36-4.67-11.36-.75-.76-7.52-5.15-12.56-4.21a12.64,12.64,0,0,0-8.56,5.94,26.41,26.41,0,0,0-1.73,3.94,1.61,1.61,0,0,0,.87,2.08c3.39,1.45,6.63,3.79,7.39,5.16,1.46,2.64.92,4.29,1.3,6.36a2.35,2.35,0,0,0,.17.51c-.48,2.05.95,4.94.21,7.72-.81,3-2.88,2.78-3.37,5.33-.7,3.71,3.37,5.92,2.25,8.42-.24.53,0,1.46-4.82,3.93-3.66,1.87-4.3,1.28-4.72,1.12-2.62-1-4.07-3-7.3-2.81a4.37,4.37,0,0,0-2.81,1.12c-1.15,1.18-.76,2.63-1.4,5.06-.46,1.75-1.58,1.9-1.35,4.53.37,4.42-4.34,6.59-4.82,12-.12,1.41.75,3.81,3.46,7.25,1.79,2.27-.61,7.22,2.29,8.16s5-.54,9.4-.54c4.94,0,6.29,3.26,9.54,2.25,2.12-.66,1.81-2.13,5.61-5.62s4.91-2.68,6.18-4.77c2-3.32-.74-5.34,0-12.9.44-4.57,1.6-5.46.84-8.42-.86-3.3-2.6-3.31-3.09-6.45-.45-2.88.93-3.37.84-8.14a13.92,13.92,0,0,0-.84-5c-.93-2.29-1.84-2.29-2.52-3.93-1.39-3.32.81-6.82,1-8.55a1.57,1.57,0,0,0,.39-.62,5.18,5.18,0,0,1,3.14-3.18c1.56-.31,4.09,2.08,4.48,4.77.45,3-3,7.63-.53,7.14,4.77-1,2.79,3.46,4.74,2.68,1.52-.6,1.71-3.74,1.92-4.56C2175.61,504,2174.94,503.76,2175.11,502Z"/>
        <path id="m-moustace" class="cls-76" d="M2129.09,525.5c0-.71,2.6-.48,4-2.46,1-1.41.19-2.27,1.19-4.07a6.19,6.19,0,0,1,4-3,6,6,0,0,1,4.56,1,7.76,7.76,0,0,1,2.31,3.22c2.57,4.94,6,6.62,5.62,7.23s-5.54-.6-8.91-4.21c-1.34-1.43-2.31-3.12-3.3-2.88-.65.16-.65,1-1.61,2.6-.7,1.18-1.72,2.89-3.37,3.51C2131.58,527.22,2129.11,526.18,2129.09,525.5Z"/>
        <path class="cls-41" d="M2131.28,505.5a4.56,4.56,0,0,0,5.58.21"/>
        <path id="m-nose" class="cls-77" d="M2141.4,512.54c1.11,1.31.11,2.87-1.42,3.63a5.73,5.73,0,0,1-5.33-.09,2.7,2.7,0,0,1-1.12-1.88c-.11-1.73,1.73-3.49,2.12-4.86.84-2.95.92-5.41.07-6.68"/>
        <path id="m-eyebrow" class="cls-10" d="M2139.93,502.72a8.84,8.84,0,0,1,3.05-1.53,9.69,9.69,0,0,1,3.1-.32,7.51,7.51,0,0,1,2.63.53,6.6,6.6,0,0,1,2.9,2.53"/>
        <circle id="m-eye" cx="2143.49" cy="503.61" r="1.53"/>
        <circle id="m-eye-2" cx="2133.23" cy="504.43" r="1.53"/>
        <path class="cls-41" d="M2141.19,502.47c-.79.86-.81,1.39-.74,1.68.37,1.41,2.79,2.49,5.56,2a10.93,10.93,0,0,0,3.63-1.36"/>
        <path id="m-eyebrow-2" class="cls-10" d="M2130.42,502.88a4.23,4.23,0,0,1,1.45-1,3.38,3.38,0,0,1,1.47-.21,2.62,2.62,0,0,1,1.25.35,3.91,3.91,0,0,1,1.38,1.71"/>
      </g>
      <g id="bible-stand">
        <path class="cls-22" d="M2071,596.46c-2.19-1.82-3.6-8.46-3.6-8.46a31.15,31.15,0,0,1,7-1.27c9.59-.89,12-3.35,16.78-1.82a5.74,5.74,0,0,1,4.05,3.25c1.59,3,1.26,7.83,1.26,7.83s-.33-7.13.49-8.25c1.73-2.37,6.62-4,8.42-3.3,2.85,1.08,3.92,2,6.45,2.54a25.74,25.74,0,0,0,9.68-.46s7.07,6.83,9.31,9.5,8.37,11.55,8.37,11.55-7.44,5.87-11.57,6.94C2103.1,620.88,2077.3,601.66,2071,596.46Z"/>
        <polygon points="2140.45 617.46 2086.58 616.2 2062.17 593.05 2118.85 594.31 2140.45 617.46"/>
        <rect x="2101.31" y="607.36" width="6.31" height="64.82"/>
        <line class="cls-22" x1="2117.8" y1="596.98" x2="2121.51" y2="586.52"/>
      </g>
      <g id="pulpit-side">
        <polygon class="cls-78" points="2320.4 641.63 2320.4 795.77 2209.13 787.65 2209.13 633.51 2320.4 641.63"/>
        <rect class="cls-79" x="2207.95" y="638.15" width="112.48" height="16.95" transform="translate(64.97 -194.88) rotate(5)"/>
        <rect class="cls-79" x="2207.95" y="774.35" width="112.48" height="16.95" transform="translate(76.84 -194.36) rotate(5)"/>
        <rect class="cls-79" x="2234.86" y="710.23" width="154.14" height="16.95" transform="translate(1593.22 3030.63) rotate(-90)"/>
      </g>
      <g id="pulpit-front">
        <rect class="cls-78" x="1976.44" y="632.49" width="232.46" height="148.11"/>
        <rect class="cls-79" x="1979.47" y="634.71" width="228.05" height="16.95"/>
        <rect class="cls-79" x="1979.47" y="768.09" width="228.05" height="16.95"/>
        <rect class="cls-79" x="1912.77" y="702.11" width="154.14" height="16.95" transform="translate(1279.26 2700.42) rotate(-90)"/>
        <rect class="cls-79" x="2123.58" y="702.11" width="154.14" height="16.95" transform="translate(1490.07 2911.24) rotate(-90)"/>
      </g>
      <g id="pulpit-side-2" >
        <polygon class="cls-80" points="1868.46 641.63 1868.46 795.77 1979.74 787.65 1979.74 633.51 1868.46 641.63"/>
        <rect class="cls-79" x="1868.43" y="638.15" width="112.48" height="16.95" transform="matrix(-1, 0.09, -0.08, -1, 3898.37, 1123.03)"/>
        <rect class="cls-79" x="1868.43" y="774.35" width="112.48" height="16.95" transform="matrix(-1, 0.09, -0.08, -1, 3910.24, 1394.91)"/>
        <rect class="cls-79" x="1799.87" y="710.23" width="154.14" height="16.95" transform="translate(1158.23 2595.64) rotate(-90)"/>
      </g>
      <rect class="cls-81" x="1401.75" y="783.05" width="1449.95" height="498.39"/>
      <rect class="cls-82" x="1401.75" y="783.05" width="1449.95" height="498.39"/>
      <path class="cls-83" d="M122.67,890.86c23.31-3.43,34.72,24.38,65.14,24.34,15.28,0,23.94-40.91,46.63-38.4,62.06,6.86,30,61.86,49.37,64.11,60.39,7,90.86-19.2,126.86-19.54,92.14-.88,66.17-24.68,102.86-26.06,42.23-1.57,30.11-10.8,120.34-2,45.64,4.42,57.65-19.16,105.6-13.72,36.16,4.11,45.75,49,79.88,53.15,10,1.2,70.27-14.22,79.89-13,19.36,2.38,86-30.68,103.54-28.46,47.49,6,72.31-5.28,99.09-1.71,22.91,3,90.7-9.19,116.91-13.38,55.89-8.91,38.07,55.46,53.83,59.66,13.8,3.68,31.81-8.14,45.6-4.46,13.14,3.51,80.8-15.84,93.94-12.34,12.54,3.34,39.24,136.54,51.78,139.89,14.06,3.75,54.5,2.51,62.4,14.74,24.34,37.71,75.45,30.44,109.37,26.29,22.63-2.78,44.53-29.78,73.37-25.6,38.25,5.53,16.43,24.7,83.31,32.22,19.12,2.15,63.21-34.35,82.63-32.22,28,3.06,105.61-9.67,132-6.86,7.26.77,19.34,22.8,34.17,29.26,23.45,10.19,51.58,6.35,61.83,7.42,22.91,2.4,66.07-33.24,89-30.28,27.54,3.54,49.83,34.58,78.17,35.2,21.18.46,49.74-12.78,73.6-31.09,39.32-30.17,48.46,36.88,79.09,9.15,23.18-21,85.53-33.15,95.08-2.29,4.58,14.77,103.32,32.46,123.43,10.06,17.59-19.59,66-23.71,75.89-3.2,23.31,48.45,106.06,3.15,114.28-8.23,3.66-5.06,9.15-1.83,9.15-1.83l-5.49,958.17L1,2045.26v-1141S75.63,897.77,122.67,890.86Z"/>
      <use width="2050.11" height="1169.67" transform="translate(1102.68 1256.63) scale(0.74)" xlink:href="#people-2"/>
      <use width="1819.78" height="1236.38" transform="translate(440.17 1157.24) scale(0.73)" xlink:href="#people-1"/>
      <use width="2050.11" height="1169.67" transform="translate(-790.79 1074.5) scale(0.74)" xlink:href="#people-2"/>
      <use width="1819.78" height="1236.38" transform="translate(2344.97 1360.28) scale(0.73)" xlink:href="#people-1"/>
      <polygon id="shadow" class="cls-84" points="-10.02 880.46 306.33 882.62 860.38 1058.04 1546.1 1087.54 2165.98 1116.51 2725.53 1064.54 2844.38 1092.69 2835.24 2039.11 0.95 2039.11 -10.02 880.46"/>
      <g id="sign">
        <rect class="cls-85" x="329.12" y="-132.77" width="144" height="2209.37"/>
        <rect class="cls-86" x="329.12" y="-132.77" width="144" height="2209.37"/>
        <rect class="cls-87" x="211.86" y="751.8" width="378.51" height="501.94"/>
        <rect class="cls-88" x="211.86" y="751.8" width="378.51" height="501.94"/>
        <text class="cls-89" transform="translate(334.04 1030.61)">ON THE<tspan class="cls-90" x="134.16" y="0"> </tspan><tspan class="cls-91"><tspan class="cls-92" x="-110.01" y="72">F</tspan><tspan class="cls-93" x="-85.41" y="72">L</tspan><tspan x="-60.75" y="72">OO</tspan><tspan class="cls-94" x="6.81" y="72">R</tspan><tspan x="40.35" y="72" xml:space="preserve"> O</tspan><tspan class="cls-92" x="88.71" y="72">F</tspan><tspan x="113.31" y="72" xml:space="preserve"> H</tspan><tspan class="cls-95" x="163.05" y="72">ALL</tspan></tspan></text>
        <text class="cls-96" transform="translate(254.52 971.09)">NO <tspan class="cls-97" x="108.08" y="0">S</tspan><tspan x="146.96" y="0">E</tspan><tspan class="cls-98" x="181.2" y="0">A</tspan><tspan x="219.92" y="0">T</tspan><tspan class="cls-97" x="254.32" y="0">S</tspan></text>
        <circle cx="428.67" cy="769.37" r="10"/>
        <line class="cls-99" x1="413.98" y1="777.71" x2="425.3" y2="770.86"/>
      </g>
      <use width="2050.11" height="1169.67" transform="translate(-402.55 1220)" xlink:href="#people-2"/>
      <use width="1819.78" height="1236.38" transform="translate(1243.14 1282.66)" xlink:href="#people-1"/>
    </g>
  </g>
</svg>
