<svg xmlns="http://www.w3.org/2000/svg" xmlns:xlink="http://www.w3.org/1999/xlink" viewBox="0 0 2839 2039">
  <defs>
    <symbol id="curve-1" viewBox="0 0 29 31">
      <path d="M2 19c-1-1-3-8 1-13 4-7 16-6 19-2 2 3-2 6-1 13 0 6 4 10 8 14" class="cls-10"/>
    </symbol>
    <symbol id="curve-4" viewBox="0 0 23 19">
      <path d="M2 19c-1-1-3-8 1-13 4-7 16-6 19-2 2 3-2 6-1 13" class="cls-10"/>
    </symbol>
    <symbol id="curve-2" viewBox="0 0 38 30">
      <path d="M1 16C-1 10 3 3 9 1s12 1 14 5c2 6-6 12-3 18a9 9 0 007 5c4 1 8-2 11-6" class="cls-10"/>
    </symbol>
    <symbol id="curve-5" viewBox="0 0 33 54">
      <path d="M1 1c15-1 19 2 21 5 3 7-9 16-7 29 1 9 11 15 18 19" class="cls-10"/>
    </symbol>
    <symbol id="curve-3" viewBox="0 0 31 13">
      <path d="M1 12C4 3 7 1 9 1c4 0 6 11 13 12 3 0 6-2 9-4" class="cls-10"/>
    </symbol>
    <symbol id="wave" viewBox="0 0 100 18">
      <path d="M62 18l11-7 11-8c5-2 10-3 16-3v6h-4c-10 0-14 2-23 9l-4 3h-7zm-24 0H23l-4-3C12 9 7 7 0 6V0c6 0 11 1 16 3l11 8 11 7zM62 0h7a40 40 0 01-7 5c-5 2-10 3-16 3S35 7 30 5a40 40 0 01-7-5h15l12 2 12-2z"/>
    </symbol>
    <symbol id="face" viewBox="0 0 31 39">
      <path d="M6 37v-6l-5-8c-2-3-1-12 1-15a12 12 0 016-7 27 27 0 0113 0c3 1 5 3 6 6 0 3 1 5 3 7a5 5 0 011 3c0 2-2 1-2 2l-1 8c-1 2-4 2-4 4v4c0 1-6 3-10 3a21 21 0 01-8-1z" class="pt-3"/>
      <ellipse cx="27.3" cy="12.2" rx=".8" ry=".7"/>
      <path d="M25 12a3 3 0 011-1 2 2 0 012 0" class="pt-4"/>
    </symbol>
    <symbol id="male-2" viewBox="0 0 50 98">
      <use width="31.1" height="38.6" transform="translate(12 1)" xlink:href="#face"/>
      <path d="M1 86l1-31c0-3 1-10 7-11l7-1c2-1 0-5 1-5l10 2c3 0 6-3 10-3 1 0 0 4 2 5a24 24 0 018 3c3 2 3 12 3 15l-1 24c0 18-49 13-48 2z" class="pt-13"/>
      <path id="hair-male" d="M28 4c0-2 4-2 2-3a14 14 0 00-5 0l-8 2a16 16 0 00-4 5 27 27 0 00-2 7 30 30 0 004 16v3l4 3a7 7 0 004-1l4 2 3-2 5-6c2 0 5 4 6 1 1-1 0-3-2-3-4-1 2-5 2-7l-4 1c-3-1 0-4-1-5l-2-1-1-4 2-1c1-1-6-2-6-4 1-1-1-3-1-4z" class="cls-60"/>
      <path d="M0 74h50v24H0z" class="pt-15"/>
    </symbol>
    <symbol id="male" viewBox="0 0 51 98">
      <use width="31.1" height="38.6" transform="translate(12 2)" xlink:href="#face"/>
      <path d="M1 86l1-31c0-3 1-10 7-11l7-1c2-1 0-4 1-4 3-1 5 1 10 1l10-2c1 0 0 4 2 4a24 24 0 018 3c3 2 3 12 3 15l-1 24c0 18-49 14-48 2z" class="pt-10"/>
      <path id="hair-male-2" d="M39 5c-1-2-5-4-6-4a29 29 0 00-8 0l-8 2a16 16 0 00-4 5 27 27 0 00-2 8 30 30 0 004 15v3l4 3a7 7 0 004-1l4 2 3-2h4c1-1-1-6 2-9l1-5-1-5h-2l-1-5h3V8l3-3z" class="pt-10"/>
      <path d="M0 74h50v24H0z" class="pt-12"/>
    </symbol>
    <symbol id="female" viewBox="0 0 51 106">
      <path d="M1 99c-1-5 1-34 1-40 0-3 1-10 7-11l7-1c2-1 0-4 1-4 3-1 5 1 10 1l10-2 1 4a24 24 0 018 3c3 2 4 12 4 15v35c-1 8-49 8-49 0z" class="cls-60"/>
      <use width="31.1" height="38.6" transform="translate(13 6)" xlink:href="#face"/>
      <path d="M39 10a2 2 0 00-1-1l-14 7a63 63 0 01-12 3 15 15 0 00-1 2c0 7 4 14 5 16s-4 5-3 10c0 2 3 3 5 1 1-1 3 2 4 1 2-2 4 1 5 1l3-1c1 0 4 1 4-1 2-5-2-5-2-9 0-3 3-6 4-7l1-5-1-5h-2l-1-5h3v-4l3-3z" class="pt-6"/>
      <ellipse cx="22.9" cy="11.5" class="cls-60" rx="19" ry="4.4" transform="rotate(-18 23 12)"/>
      <path d="M11 14c-1-1 0-6 1-7 2-5 12-7 16-6 2 0 6 3 6 5 0 3-21 11-23 8z" class="cls-60"/>
      <path d="M0 81h51v25H0z" class="pt-9"/>
    </symbol>
    <symbol id="pillar" viewBox="0 0 303 1197">
      <path d="M4 345h40v850H4z" class="cls-64"/>
      <path d="M4 345L301 5v40L44 345H4z" class="cls-65"/>
    </symbol>
    <symbol id="light" viewBox="0 0 261 580">
      <path d="M140 0l-2 546" class="cls-50"/>
      <ellipse cx="83.8" cy="559.1" class="cls-51" rx="22.6" ry="16.5"/>
      <ellipse cx="185.6" cy="548.1" class="cls-51" rx="22.6" ry="16.5"/>
      <path d="M25 545l221 8M88 575l86-45M187 567L80 534" class="cls-52"/>
      <ellipse cx="79.2" cy="516.4" class="cls-51" rx="22.6" ry="16.5"/>
      <ellipse cx="24.1" cy="529.6" class="cls-51" rx="22.6" ry="16.5"/>
      <ellipse cx="237" cy="531.7" class="cls-51" rx="22.6" ry="16.5"/>
      <ellipse cx="170.2" cy="514" class="cls-51" rx="22.6" ry="16.5"/>
    </symbol>
    <symbol id="wall" viewBox="0 0 2030 1594">
      <path d="M1774 1443L18 1594V386l1756 122v935z" class="cls-40"/>
      <path d="M1775 1412L18 1562V355l1757 122v935z" class="cls-67"/>
      <use width="302.7" height="1196.9" transform="translate(1725 154)" xlink:href="#pillar"/>
      <path d="M23 149l2003 10-297 339L5 352l18-203z" class="cls-70"/>
      <path d="M23 149l2003 10-297 339L6 330l17-181z" class="cls-68"/>
      <use width="302.7" height="1196.9" transform="matrix(1.06 0 0 1.06 1409 114)" xlink:href="#pillar"/>
      <use width="302.7" height="1196.9" transform="matrix(1.06 0 0 1.06 1027 82)" xlink:href="#pillar"/>
      <use width="302.7" height="1196.9" transform="matrix(1.06 0 0 1.06 620 45)" xlink:href="#pillar"/>
      <use width="302.7" height="1196.9" transform="translate(122) scale(1.06)" xlink:href="#pillar"/>
      <path d="M1778 484l-5 40L2 370l4-40 1759 154z" class="cls-69"/>
      <use width="261.2" height="579.5" transform="translate(185 127)" xlink:href="#light"/>
      <use width="261.2" height="579.5" transform="matrix(.94 0 0 .94 736 110)" xlink:href="#light"/>
      <use width="261.2" height="579.5" transform="matrix(.83 0 0 .83 1184 132)" xlink:href="#light"/>
      <use width="261.2" height="579.5" transform="matrix(.77 0 0 .77 1587 133)" xlink:href="#light"/>
    </symbol>
    <symbol id="head-male" viewBox="0 0 288 290">
      <path d="M188 288s-25-53-32-54c-9 0-13 10-21 14-4 2-19 3-24 3s-9 1-12-3c-4-5-3-8-4-14s-7-12-8-14c-1-3 15-3 11-4 0 0-13 0-15-2-5-4 6-15 2-21-1-2-14 3-17 1s-3-8-2-11c2-9 3-26 2-34 0-4-1-12-3-16s-8-8-9-12 3-12 4-16c1-10 1-30 3-40 4-11 17-31 25-39 9-9 20-14 32-18 15-5 42-9 58-6 14 4 31 11 40 22 7 10 21 32 23 46 2 18 1 28 0 36-2 15-1 23-3 33-1 6 1 12 3 18 3 9 46 70 46 70z" class="cls-5"/>
      <path d="M74 190a13 13 0 0117-2M60 126l8-3a25 25 0 0115 4" class="cls-10"/>
      <path d="M58 124a28 28 0 0110-3 28 28 0 0116 3" class="cls-29"/>
      <path d="M58 124a28 28 0 019-5 28 28 0 0117 2" class="cls-10"/>
      <ellipse cx="72.7" cy="139.6" rx="3.2" ry="5.7" transform="rotate(-10 73 140)"/>
      <path d="M93 136l-8 2c-5 0-6-4-9-4-3-1-6 0-7 2l-2 3s2 7 8 7c4 0 8-2 10-7" class="cls-41"/>
      <path d="M85 136l-5-5c-3-1-4-2-6-1-4 1-4 3-6 5" class="cls-42"/>
      <path d="M90 147c-2 1 1 18 1 20l5 17c1 9 8 19 9 19 2 0-1-15-1-25 0-9-6-12-8-18l-6-13z" class="cls-40"/>
      <path d="M60 126l8 9 6-5 25 4-21-12-18 4z" class="cls-40"/>
      <path id="ear-male" d="M146 156s15-40-3-42c-11-2-13 15-14 16s-3 2-4-1 0-9 1-11c3-6 10-11 15-11s14 9 16 13c3 13-2 48-15 50-3 0-6-16-8-19" class="cls-43"/>
      <path d="M133 128c-2 4 5 7 6 9s-3 4-2 8c1 9 10-4 8-11 0-5-11-9-12-6z" class="cls-40"/>
    </symbol>
    <symbol id="body-male" viewBox="0 0 417 504">
      <path d="M356 502a496 496 0 0016-62c4-20 4-44 7-64 4-27 18-44 23-71 8-42 14-89 14-113 0-30-5-96-23-121-12-17-55-33-74-43-14-8-43-26-59-27-46-2-116 29-164 52-11 6-25 9-31 14-17 14-32 33-45 45L1 128s22-13 60 9c36 20 28 61 32 78 5 20 13 70 12 91 0 31-15 94-20 125l-12 72z" class="cls-8"/>
    </symbol>
    <symbol id="arm-male" viewBox="0 0 198 427">
      <path id="arm-male-3" d="M1 388c-3-14 61-116 58-174 0-13-4-71-3-84 0-11-3-36 0-57a115 115 0 0111-38c5-11 12-23 23-29 24-16 68 11 81 24 12 13 9 53 13 70 5 21 13 62 13 83-1 48-41 237-41 237S14 446 1 388z" class="cls-6"/>
    </symbol>
    <symbol id="collar-male" viewBox="0 0 204 110">
      <path d="M201 46S176 9 166 4c-15-7-28 1-41 3-14 3-33 8-42 13S45 51 38 58C25 72 5 92 1 107c-1 4 10-1 17-4l34-17a553 553 0 01136-42c6-1 13 2 13 2z" class="cls-6"/>
    </symbol>
    <symbol id="body-shading-male" viewBox="0 0 453 545">
      <g id="body-male-shading">
        <path d="M430 113c-12-17-55-33-74-43-15-8-43-26-60-27-45-1-115 29-164 53-10 5-25 8-31 13-17 15-31 33-44 45s-20 16-20 16 8-4 24-3c9 1 41-25 55-46 23-35 98-49 128-59 7-2 46-23 72-5 56 39 115 59 115 59l-1-3z" class="cls-11"/>
        <path d="M352 501s50 14 56-19c4-19 4-44 7-64 4-27 18-44 23-71 8-41 14-88 15-112s-3-69-13-100c-3-8-52 56-56 51-12-18-30-32-49-42-15-7-29-27-29-27s-23-1-51 13c-11 5 46 53 40 58-17 15-9 33-22 46-12 11-19 21-56 27-21 3-92-42-92-42s2 30 5 38c5 21 12 70 12 91 0 32-16 94-21 125l-12 72 132-114 54 92z" class="cls-12"/>
        <path d="M305 45S280 8 270 3c-15-7-28 1-40 3-15 3-34 8-43 13s-38 31-45 38c-12 14-33 34-37 49a677 677 0 0186-82c20-10 63-24 71-20 3 2 14 12 20 21 7 10 9 19 14 18 6 0 9 2 9 2z" class="cls-11"/>
        <path d="M156 63l28-23 18-8-18-4s29-14 40-16c8-3 39-3 39-3l-7 6 16 1-11 7 21 6s-45 11-59 16c-16 5-61 27-61 27l11-11z" class="cls-12"/>
        <path id="arm-male-4" d="M1 296c0-11-2-37 0-58a115 115 0 0111-38c6-11 13-22 23-29 9-6 15-5 26-4 3 0 9 2-7 10-12 7-23 17-37 43-16 29-17 82-16 76z" class="cls-11"/>
        <path d="M24 221l3 52 18 90-33 75 11 31 49-40 31-43-1-79-78-86z" class="cls-12"/>
      </g>
    </symbol>
    <symbol id="hair_curl" viewBox="0 0 34 24">
      <path d="M3 9c2 7 9 12 15 12 1 0 8 0 11-5s3-8 0-11c-5-5-11 0-12 0" class="cls-30"/>
    </symbol>
    <symbol id="hair-male-old" viewBox="0 0 260 305">
      <g id="hair-male-balding">
        <path d="M42 88c6-8 29-5 38-9 9-5 23-22 28-32 2-4 7-14 6-19-1-3-6-9-8-10-6-4-27-8-27-8s11-8 33-10a84 84 0 0129 3c16 5 27 10 54 30 7 4 8 32 8 32l12 9c9 5 21 26 22 36 1 4-2 16-2 16l3 17s6 12 6 16c0 14-16 33-25 41-7 6-21 19-30 21-10 2-46-11-56-13-25-7-38-42-37-52 5-58-35-12-43-21S35 98 42 88z" class="cls-32"/>
        <use width="33.8" height="23.5" transform="matrix(.6 0 0 .6 234 131)" xlink:href="#hair_curl"/>
        <use width="33.8" height="23.5" transform="translate(221 149)" xlink:href="#hair_curl"/>
        <use width="33.8" height="23.5" transform="translate(226 104)" xlink:href="#hair_curl"/>
        <use width="33.8" height="23.5" transform="matrix(.57 0 0 .57 225 176)" xlink:href="#hair_curl"/>
        <use width="33.8" height="23.5" transform="translate(199 187)" xlink:href="#hair_curl"/>
        <use width="33.8" height="23.5" transform="translate(171 200)" xlink:href="#hair_curl"/>
        <use width="33.8" height="23.5" transform="translate(221 79)" xlink:href="#hair_curl"/>
        <use width="33.8" height="23.5" transform="matrix(.79 0 0 .79 191 29)" xlink:href="#hair_curl"/>
        <use width="33.8" height="23.5" transform="translate(152 205)" xlink:href="#hair_curl"/>
        <path d="M54 132s19 31 23 49c2 12 26-12 26-12l11 28c1 4 8 22 8 26-1 9-14 24-18 33-3 6-7 20-12 25s-20 10-26 15c-2 2-6 7-9 8-5 2-17 1-21-2-5-3-10-14-11-19-1-4 2-13 4-17 3-6 15-15 17-22 1-4-2-14-1-18l2-7-1-7c1-4 8-11 10-15 2-6 1-21 2-27 1-9-4-38-4-38z" class="cls-33"/>
        <path d="M1 100l13 3c6 2 10 6 12 8M0 106a33 33 0 0116 4 34 34 0 0113 11M19 169l1 11 8 8 17 19-3 9 3 6" class="cls-23"/>
      </g>
    </symbol>
    <symbol id="leg" viewBox="0 0 28 171">
      <path d="M19 171H5L7 23l14 1-2 147z" class="cls-18"/>
      <path d="M25 21c0 3-5 5-11 5S4 24 4 21a4 4 0 012-4h16c2 1 3 2 3 4z" class="cls-22"/>
      <path d="M27 12c0 3-5 7-13 7S1 16 1 12c0-2 0-4 4-5l19 1c3 1 3 2 3 4z" class="cls-22"/>
      <path d="M24 4c0 4-4 5-10 5S5 8 5 5c0-2 0-4 2-4 2-1 3 1 7 1s6-2 8-1a4 4 0 012 3z" class="cls-22"/>
      <path d="M27 11c0 3-6 5-13 5S1 14 1 11" class="cls-23"/>
      <path d="M27 10c0 3-6 5-13 5S1 13 1 10" class="cls-23"/>
      <path d="M2 9l3 3a21 21 0 005 1M1 12l3 4M3 8l5 3M5 16h2M21 13a22 22 0 01-3 1M26 9c0 2-1 3-4 4M24 8c0 2-2 3-4 3M27 12c0 1-1 3-4 3a19 19 0 01-2 1M6 1c0 2 1 2 3 3M5 3l3 2a16 16 0 003 1M5 4l3 3M23 3l-2 2a15 15 0 01-3 1M23 2c0 1-1 2-3 2M23 18l-3 3M24 19l-2 3a16 16 0 01-3 1M24 20l-2 3M4 19l2 3a15 15 0 003 1M4 19l3 2" class="cls-24"/>
    </symbol>
    <symbol id="chair" viewBox="0 0 345 397">
      <path d="M103 144s-7-18-13-18c-17-1-31 9-43 19-5 3-20 7-25 5-7-3-15-14-18-22a86 86 0 015-58c5-8 17-18 24-19 13-2 29 1 39 0 6-1 23-4 29-7 15-5 36-25 50-30 10-4 30-9 41-8 13 1 27 8 36 7s27-7 36-9c10-1 33-5 43-2 9 4 21 15 25 22 3 7 7 24 6 33 0 10-4 23-13 32-7 8-18 11-25 13-5 1-14 3-18 2-8-1-11-16-19-16-3 0-18 1-23 8-3 4-5 26-5 26h-10s-1-13-4-17c-8-6-31-8-37-1-5 5-9 28-9 28l-11 1s0-15-10-17c-7-1-24-4-30 2-4 5-12 25-12 25z" class="cls-17"/>
      <path d="M109 148s-9-23-15-24c-18-1-29 15-41 25-5 3-20 7-25 5-7-3-15-14-18-22a86 86 0 015-58c5-8 17-18 24-19 13-2 29 1 39 0 6-1 23-4 29-7 15-5 36-25 50-30 10-4 30-9 41-8 13 1 27 8 36 7s27-7 36-9c10-1 33-5 43-2 9 4 21 15 25 22 3 7 7 24 6 33 0 10-4 23-13 32-7 8-18 11-25 13-5 1-14 3-18 2-8-1-11-16-19-16-3 0-18 1-23 8-3 4-6 23-6 23h-11s0-15-4-18c-7-7-29-4-35 3-5 5-12 24-12 24h-9s-1-15-11-17c-7-1-22 1-28 7-4 5-12 25-12 25z" class="cls-18"/>
      <path d="M276 131l2-78s0-3 2-3l6 6 4 20v55z" class="cls-18"/>
      <path d="M49 180l3-88s0-3 2-3l6 7c2 4 5 17 5 22v61z" class="cls-18"/>
      <use width="27.8" height="171.4" transform="matrix(1.32 0 0 1.32 92 143)" xlink:href="#leg"/>
      <use width="27.8" height="171.4" transform="matrix(1.37 0 0 1.37 37 163)" xlink:href="#leg"/>
      <use width="27.8" height="171.4" transform="matrix(1.4 0 0 1.4 152 125)" xlink:href="#leg"/>
      <use width="27.8" height="171.4" transform="matrix(1.29 0 0 1.29 215 119)" xlink:href="#leg"/>
      <use width="27.8" height="171.4" transform="matrix(1.18 0 0 1.18 267 127)" xlink:href="#leg"/>
    </symbol>
    <symbol id="head-female" viewBox="0 0 179 227">
      <path id="head" d="M71 226s3-33-3-37c-8-4-15-3-25-1-4 0-14 0-18-2s-8-6-9-11 1-12 1-17c1-6-3-6-2-9 0-3 3-4 0-6a9 9 0 01-4-4c-3-5 6-6 4-12l-2-5s-10 1-11-2c-3-5 3-11 5-13 5-8 11-23 14-31 1-3 2-4 1-8s-3-10-1-19c1-8 9-24 13-28C52 4 61 5 72 3c22-5 59 0 72 10 12 9 24 22 29 36 10 29 1 47-3 55-8 13-14 32-16 47-2 9 9 57 9 57z" class="cls-5"/>
      <path d="M22 68l-3 14-4 7a58 58 0 013 7c1 5-3 9-4 15l-3 10 3-1a46 46 0 012-9 56 56 0 016-11c3 0 7-5 8-8 1-2 2-10 1-12-2-5-9-12-9-12z" class="cls-40"/>
      <path d="M24 69a12 12 0 014 3 12 12 0 013 7" class="cls-29"/>
      <ellipse cx="20.5" cy="88" rx="5.7" ry="3.2" transform="rotate(-78 21 88)"/>
      <path d="M34 92c-1-1-4 0-5-2-3-2-3-5-5-7h-4l-3 2s-1 8 3 9c3 1 6 1 8-2" class="cls-41"/>
      <path d="M30 88l-2-6c-1-3-2-4-4-4-3 0-3 2-5 3" class="cls-42"/>
      <path id="ear-male-2" d="M85 112s19-32 4-37c-9-3-13 11-15 12s-3 2-3-1l3-9c3-5 10-9 15-8s10 10 11 14c1 11-10 41-21 40-3 0-3-14-4-17" class="cls-43"/>
      <path id="ear-inner" d="M82 89c-3 2 1 6 1 8s-3 3-4 6c-2 7 8 0 10-6 1-4-5-11-7-8z" class="cls-40"/>
      <path id="neck-shading" d="M77 123s2 30-4 37a94 94 0 01-41 27 131 131 0 0021-2c5-1 17 2 19 8v32l58-12c3 0 0-55-11-70-10-14-42-20-42-20z" class="cls-40"/>
      <path d="M63 183c4-1 14-8 18-13a35 35 0 008-17" class="cls-41"/>
    </symbol>
    <symbol id="arm-female" viewBox="0 0 333 430">
      <path d="M227 18c-5 4-25 21-29 37-1 6 0 8-4 18-3 8-7 13-13 23-9 14-4 16-7 36-1 6-6 10-12 20-4 6-7 14-14 19-6 4-11 5-14 11s0 12-5 19a20 20 0 01-5 6c-6 4-11 3-14 3-4 0-19-10-25-6-2 1-1 2-4 6-4 4-8 4-14 7-4 2-1 5-11 17-9 10-13 9-14 13-1 6 2 7 1 13-1 8-7 8-10 17s2 11-2 21l-4 11c0 7 4 9 3 14-1 6-6 8-10 13-6 6-7 13-11 27-7 33-11 49-6 56 24 36 212-41 227-76 2-3 5-10 17-19 7-6 10-18 16-21 18-11 13-25 16-37 7-28-3-34 6-52 8-14 16-13 27-28 12-17 20-25 20-35 1-44-46-113-75-137-11-9-25-12-29-13-5-1 2 15-1 17z" class="cls-5"/>
    </symbol>
    <symbol id="body-female" viewBox="0 0 412 519">
      <path d="M21 99l44-37c15-13 30-28 40-33 24-12 83-27 110-28 24-1 66 19 88 30s74 35 89 56c11 16 19 48 19 67 1 28-12 82-19 109-6 21-22 65-23 87-4 42 16 166 16 166L1 518l1-42s74-68 80-108c12-63 17-58 31-83 3-7 11-19 13-36 2-20-13-51-22-69-8-15-32-48-44-60-16-17-39-21-39-21z" class="cls-5"/>
    </symbol>
    <symbol id="body-shading-female" viewBox="0 0 410 471">
      <g id="body-shading-female-3">
        <path d="M207 195c11-2 22 7 45-12 16-13 75 5 85 0 23-13 17-60 23-85S317-9 339 1s37 18 52 39c11 16 19 48 19 67 1 28-12 82-19 108-6 22-22 66-23 88-4 42 16 166 16 166L0 471l1-42s74-68 80-108c12-63 17-58 31-83 3-7 11-19 13-36 2-20-13-52-22-69-8-15 47 14 49 31 8 72 39 34 55 31z" class="cls-12"/>
        <path d="M124 215c4-5 27-33 32-42a147 147 0 0011-27M118 226a273 273 0 0027-12c16-9 51-32 62-41M118 228c8 0 43-5 54-9a135 135 0 0038-19" class="cls-10"/>
      </g>
    </symbol>
    <symbol id="collar-female" viewBox="0 0 252 151">
      <g id="collar-female-3">
        <path d="M7 119s15-7 48 3c21 7 21 11 43 18a198 198 0 0060 10c13 0 26 0 43-4 19-6 49-33 49-33s-58-37-103-40C67 68 7 119 7 119z" class="cls-25"/>
        <path d="M169 8l-4 28s-35 2-52 9L78 64c-13 7-40 17-40 17l28-35 42-22z" class="cls-2"/>
        <path d="M32 102s46-23 79-27c19-3 54 1 54 1V35s-37 4-50 8c-17 5-26 14-41 22-3 2-35 14-38 17-4 5-4 20-4 20z" class="cls-25"/>
        <path d="M35 80c-2-1-4-15-2-18s6-2 10-7c3-4 1-7 4-9 4-2 8 2 10-1 3-2-1-7 1-9h7c3-2 1-6 4-8 4-2 7 2 12 0s4-7 9-8l8-1c5-1 5-4 9-5h9c6-1 6-6 12-8 6-1 9 6 15 5 7-1 7-8 14-10 5-1 11 1 12 5s-2 9-5 11c-5 3-8 0-16 2-9 2-9 6-17 7-7 1-9-3-15-1s-6 7-11 7l-8-1-6 4-7 6c-5 4-10 1-15 5l-5 8c-4 7-6 5-8 7-3 3-2 12-10 12-7 0-3 10-11 7z" class="cls-26"/>
      </g>
    </symbol>
    <symbol id="female-hair" viewBox="0 0 175 296">
      <path d="M4 18C-6 1 18-2 22 5c3 4-1 7 0 10 2 7 15 3 20 10 4 6-3 13 2 18 3 5 8 2 17 5a37 37 0 0119 15c8 14-5 24 2 38 6 15 24 11 32 27 6 13-3 19 3 38 5 16 15 16 17 30 3 16-9 22-4 34 4 13 18 21 26 24 9 4 29 12 9 37-2 3-9 4-11 3-4 0-7-10 2-9" class="cls-29"/>
    </symbol>
    <symbol id="hair-female" viewBox="0 0 242 388">
      <g id="hair">
        <path id="hair-2" d="M41 151c-2-1 0-7-1-19-2-14-4-26-11-29-3-2-5 1-11-1-8-2-16-10-17-18s4-9 7-22-1-16 3-23c5-9 13-6 18-15 4-5 0-10 3-15s11-9 15-8c10 2 2 7 18 9s18 5 26 10c6 4 2 12 11 18 6 4 40 8 41 26 1 17 14 10 31 23 18 14 23 36 24 42 4 26-3 31-4 55-2 30 37 47 43 81 2 12-9 31-4 40 1 2 9 8 8 13 0 8-5 1-11 17-3 10 2 13 0 24-2 7-9 14-15 20s-12 9-18 9c-8-1-11-9-24-15-15-7-20-3-24-9-2-4-3-10-1-14 2-5 6-1 3-8-2-5-6-6-14-16-13-16-18-26-18-32-2-14 7-14 5-20-1-5-13-5-16-12s-2-15-1-22c4-16 0-19-1-20l-6-5c-1-9-3-10-9-11-12 0-3-4-12-5-7 0-23 8-20-1 2-7 6-8 11-16 8-10 9-15 13-30 3-8-6-21-12-21a19 19 0 00-16 9c-7 11-11 12-14 11z" class="cls-31"/>
        <use width="175" height="296.1" transform="translate(10 67)" xlink:href="#female-hair"/>
        <use width="175" height="296.1" transform="matrix(1.07 -.03 .03 1.12 23 40)" xlink:href="#female-hair"/>
        <use width="175" height="296.1" transform="matrix(.96 0 0 1.03 54 14)" xlink:href="#female-hair"/>
      </g>
    </symbol>
    <symbol id="feather" viewBox="0 0 203 228">
      <path id="feather-3" d="M27 79c-5 2-12-2-14-6-1-4 2-7 0-10-2-2-7 1-10-2-4-3-2-13 3-15 4-1 6 3 10 1s3-6 8-11c3-2 4-1 6-4 3-4 2-8 4-9 3-2 6 5 10 4s4-5 9-7h6c5-2 5-8 9-9s6 6 10 5c5-1 4-12 10-15 4-2 7 6 14 15 3 4 12 0 21 5 3 2 4 13 10 12 10-1 9 7 20 6 0 0 4 0 5 2v6c1 3 7 0 9 2s0 5 3 9c1 3 3 2 5 4 3 4-1 8 1 13 2 6 8 5 10 10 3 9-12 18-10 24 3 4 11 1 16 7 5 5 3 14 2 16-1 5-5 9-4 10 0 0 6-9 9-8s4 11 1 19c-5 12-19 13-18 19 0 5 10 4 14 13 3 5 2 14-2 19l-10 8c-4 4-3 6-6 8-4 3-7 0-15 0-8 1-18 9-19 7-4-13-21 2-26-6-4-5-9-7-10-12-1-3 32-22 32-27 1-6-4-7-3-13 0-6 6-7 5-11 0-5-5-5-9-12l-4-10-4-10c-5-6-11-3-13-7s6-9 5-13-11 0-15-5V87c1-8 1-11-1-14 0 0-1-2-7-4-9-4-11-2-17-5-8-3-8-6-12-6-5 0-5 4-12 6-7 3-9 0-14 2-7 4-6 12-12 13z" class="cls-28"/>
    </symbol>
    <symbol id="hair-male-young" viewBox="0 0 124 132">
      <path id="hair-male" d="M1 22C1 16 17 8 21 6c8-3 20-6 28-5 10 0 19 3 28 7 5 2 28 10 34 16 6 7 10 16 12 26 2 7-1 12-1 20 0 12-7 15-10 27-1 3-13 33-17 33-7 2-7 0-13-2h-7c-3 0-7 3-9 2-2-2-1-11-3-13l-7-6-15-8s8-10 9-15V76a13 13 0 00-4-6H36c-3 1-7 6-10 6s-9-7-10-10 1-8 1-11v-8l-3-6-2-12c-2-2-12-4-11-7z" class="cls-34"/>
    </symbol>
    <symbol id="beard-young" viewBox="0 0 79 76">
      <path id="beard" d="M64 1s-7 6-10 6c-3 1-9-1-11-2-2 0-8-4-9-3-3 1-6 10-8 11-3 2-5-6-9-7H9L7 9a26 26 0 01-2 2s8 4 10 7c1 2 3 7 2 8S4 24 4 24L3 36c-1 3-3 10-2 13 0 5 2 16 4 20 3 4 12 5 17 7 3 1 14-3 17-8 5-9 8-11 12-13 5-4 10-10 11-14l5-17 6-10 6-6z" class="cls-34"/>
    </symbol>
    <symbol id="people-2" viewBox="0 0 2050 1170">
      <g id="jed">
        <use width="288.4" height="289.6" transform="matrix(-1 0 0 1 830 99)" xlink:href="#head-male"/>
        <use width="417" height="503.6" transform="matrix(-1 0 0 1 771 331)" xlink:href="#body-male"/>
        <use width="197.5" height="427" transform="matrix(-1 0 0 1 862 454)" xlink:href="#arm-male"/>
        <use width="203.8" height="109.6" transform="matrix(-1 0 0 1 704 287)" xlink:href="#collar-male"/>
        <use width="452.5" height="545" transform="matrix(-1 0 0 1 808 288)" xlink:href="#body-shading-male"/>
        <use width="259.8" height="305.1" transform="matrix(-1 0 0 1 769 87)" xlink:href="#hair-male-old"/>
        <use width="344.9" height="396.8" transform="matrix(-1 0 0 1 604 540)" xlink:href="#chair"/>
      </g>
      <g id="louise">
        <use width="178.6" height="227.2" transform="matrix(-1 0 0 1 1141 148)" xlink:href="#head-female"/>
        <g id="female">
          <use width="333.4" height="429.8" transform="matrix(-1 0 0 1 1427 480)" xlink:href="#arm-female"/>
          <use width="412.1" height="519.3" transform="matrix(-1 0 0 1 1221 382)" xlink:href="#body-female"/>
          <use width="410.1" height="471.2" transform="matrix(-1 0 0 1 1220 429)" xlink:href="#body-shading-female"/>
          <use width="252" height="151.2" transform="matrix(-1 0 0 1 1146 308)" xlink:href="#collar-female"/>
        </g>
        <use width="241.8" height="388.2" transform="matrix(-1 0 0 1 1123 85)" xlink:href="#hair-female"/>
        <g id="hat-1">
          <path id="hat-rim" d="M1020 88c-1-12-11-26-11-26l10-2c4 0 8 10 8 10s8-7 12-6c8 1 15 21 14 30-1 13-16 19-16 19s18-11 22-2c4 10-12 53-12 53l-21-16 24 20c1 10-22 29-30 36-2 1-5-1-5-1l-13-17 24 33c0 2 1 5-1 6l-20 13a4 4 0 01-5-2l-12-21 2 21a3 3 0 01-2 2l-13 7a3 3 0 01-4-2l-10-26 1 34a3 3 0 01-2 3l-8 4a2 2 0 01-3-2l-8-34s26-15 39-27c12-12 29-37 34-52 5-11 7-42 6-55z" class="cls-11"/>
          <path id="hat-side" d="M958 41s36 9 45 15c7 6 12 13 16 26 4 9 0 41-2 51-2 11-7 21-13 31-5 10-22 30-32 38l-30 20-23-11s12 0 26-11a130 130 0 0038-91c0-23-5-39-8-48-4-10-17-20-17-20z" class="cls-11"/>
          <ellipse id="hat-top" cx="930.1" cy="123.7" class="cls-11" rx="88.2" ry="50.8" transform="rotate(-78 930 124)"/>
          <path id="bow" d="M902 218l30-18a6 6 0 018 3l21 75a5 5 0 01-7 6l-33-14s19 15 22 22c9 20 10 89 10 89l-20-20-7-33-10-30s-3 19-2 27l6 41-15 14s-11-59-9-79c1-8 10-30 10-30l-21 25a5 5 0 01-8-2l-11-74a7 7 0 019-8z" class="cls-37"/>
          <use width="202.7" height="228.2" transform="matrix(-1 0 0 1 1022 0)" xlink:href="#feather"/>
          <path d="M898 227l12-6a85 85 0 0116-4l-14 7c-5 3-6 6-6 6l13 1 16 4-19 1c-5 0-6 3-6 3l13 6 16 12-22-6h-10l8 4c5 2 11 9 11 9l-14-6c-5-3-6 7-6 7s-3-7-7-3a61 61 0 01-8 6l4-10a55 55 0 015-6 18 18 0 00-7 2l-13 9s5-11 9-14l11-7s-6-2-12 0l-14 7s9-11 13-13a98 98 0 0110-4 16 16 0 00-7-3 71 71 0 00-8 1 20 20 0 017-3h9z" class="cls-59"/>
          <path d="M904 224a38 38 0 002 20l5 16c2 3 7 6 1 6l-6-2-5-16c-4-16-5-24-2-26 2-1 5-1 5 2z" class="cls-60"/>
          <path d="M911 265c2-1 11 10 17 18a75 75 0 0112 22l2 7c-2 1-9-16-11-15s5 21 3 22-8-18-20-45c-1-2-4-8-3-9z" class="cls-61"/>
          <path d="M914 283c1-3-2-18-3-18-1-1-4 19-7 26-1 6-4 12-4 20 0 16 7 29 8 29s-8-17-2-35c1-3 6-10 8-22z" class="cls-61"/>
        </g>
        <g id="amr-shading-female">
          <path d="M1163 709c1 1 0 35 9 43 38 39 40 106 25 71-1-3-5-10-17-20-7-5-10-17-16-21-17-10-13-25-16-36-7-28 3-35-6-52-8-14-16-13-27-28-12-17-20-25-20-36 0-14 12-48 12-48s1 64 25 71c31 8 26 48 31 56z" class="cls-12"/>
          <path d="M1317 690c4 0 19-10 25-7 2 1 1 3 4 6 4 5 8 4 14 7 4 2 1 5 11 17 9 10 13 9 14 14 1 6-2 7-1 13 1 8 7 8 10 16s-2 11 2 22c2 5 4 6 4 11 0 6-3 8-3 13 1 6 6 9 10 13 6 6 8 13 11 27 7 33 11 50 6 57-24 36-212-41-227-76-1-1 8-2 30-27 6-7 25-7 31-14 4-5 14-10 21-11 10-2 16-1 12-17-3-11 15-8 16-21 1-14 10-23 8-31-1-5-14 3-14 3l16-15z" class="cls-12"/>
          <path d="M1274 665a60 60 0 01-16 12c-23 13-47 5-53 3" class="cls-10"/>
          <path d="M1284 670a60 60 0 01-16 13c-23 12-47 5-53 3M1248 624c-4 4-41-10-56-16-25-9-45-21-51-23M1208 717a88 88 0 01-51-5M1300 706c11-5 14-4 15-3 1 2-2 6-6 16-5 13-3 14-7 19-5 8-10 7-12 13-2 7 4 11 1 15s-8 2-18 5c-7 3-9 6-16 12a67 67 0 01-26 10" class="cls-10"/>
          <path d="M1338 742c2 6 5 15 1 23-4 9-13 12-20 16-12 5-27 13-46 27M1355 757c0 7 1 16-4 26-7 12-19 16-27 20-14 7-33 18-55 39" class="cls-55"/>
        </g>
        <use width="344.9" height="396.8" transform="matrix(-1.01 0 0 1.01 1146 617)" xlink:href="#chair"/>
      </g>
      <g id="david">
        <use width="288.4" height="289.6" transform="matrix(-1.04 .46 .46 1.04 1603 107)" xlink:href="#head-male"/>
        <use width="417" height="503.6" transform="matrix(-1 0 0 1 1646 438)" xlink:href="#body-male"/>
        <use width="197.5" height="427" transform="matrix(-1 0 0 1 1737 561)" xlink:href="#arm-male"/>
        <use width="203.8" height="109.6" transform="matrix(-1 0 0 1 1578 395)" xlink:href="#collar-male"/>
        <use width="452.5" height="545" transform="matrix(-1 0 0 1 1682 396)" xlink:href="#body-shading-male"/>
        <use width="124" height="131.5" transform="matrix(-1.7 0 0 1.7 1582 163)" xlink:href="#hair-male-young"/>
        <use width="79.4" height="76.3" transform="matrix(-1.7 0 0 1.7 1621 338)" xlink:href="#beard-young"/>
        <use width="344.9" height="396.8" transform="matrix(-1 0 0 1 1479 647)" xlink:href="#chair"/>
      </g>
    </symbol>
    <symbol id="hat-2" viewBox="0 0 258 271">
      <g id="hat-2-3">
        <use width="202.7" height="228.2" transform="matrix(-.99 .48 .49 1.02 154 -38)" xlink:href="#feather"/>
        <use width="202.7" height="228.2" transform="matrix(-.78 .43 .39 .7 185 9)" xlink:href="#feather"/>
        <path d="M163 192c-8 4-29-23-75-79C12 21-2 8 1 4c7-7 63 30 103 69 20 19 43 45 55 83 3 8 10 32 4 36z" class="cls-6"/>
        <path d="M2 4c27 14 61 47 104 93 45 47 50 81 62 111" class="cls-36"/>
        <path d="M147 187c-7 1-18 34-30 37-6 2-10-3-12 2-3 7 8 14 16 15 2 1 23 3 31-5 11-9 5-51-5-49z" class="cls-37"/>
        <path d="M147 187c-7 1-18 34-30 37-6 2-10-3-12 2-3 7 8 14 16 15 2 1 23 3 31-5 11-9 5-51-5-49z" class="cls-38"/>
        <path d="M133 242c-1-3 7-8 14-12 3-2-1-23-4-43-2-21-7-48-5-78 3-57 19-98 30-98 5 0 9 11 20 13 6 1 11-4 15-1 3 2 3 8 3 8 2 1 6-2 9 0s2 11 3 13c2 1 15-2 21 2 3 1 8 14 8 17-1 7 9 6 10 8 3 6-40 27-58 65-17 38-6 49-20 82-2 6-17 20-23 22-10 4-23 6-23 2z" class="cls-37"/>
        <path d="M169 23c-1 1 4 9 4 21 0 18-11 27-9 30 4 3 25-8 25-21 1-5-3-10-10-21-3-4-8-10-10-9zM177 78c0-1 3-4 5-4 3 2 1 13-1 25-3 19 0 18-3 38-4 36-12 36-10 54 2 12 7 19 2 28-3 8-12 15-17 13-6-3-2-26-1-32l7-24c10-30 11-28 12-36 2-9 4-20 3-36-1-10-3-20 3-26z" class="cls-38"/>
        <path d="M206 31c-9 22-12 40-15 63s3 53-2 73" class="cls-39"/>
        <path d="M209 42c-2 6-2 16-2 30-1 10-5 13-7 21-1 8 2 9-4 19M215 101s2-10 8-13c14-8 13-25 9-32-3-4-8-8-11-6l-6 5c-1 1 2 4 4-11M150 187a237 237 0 01-6-62c2-45 16-80 17-79 1 0-4 15-6 42-2 25-2 58 3 59 3 0 7-16 9-28a97 97 0 00-2-38" class="cls-39"/>
      </g>
    </symbol>
    <symbol id="people-1" viewBox="0 0 1820 1236">
      <g id="helen">
        <use width="178.6" height="227.2" transform="matrix(-1 .03 .03 1 327 146)" xlink:href="#head-female"/>
        <g id="female-2">
          <use width="333.4" height="429.8" transform="matrix(-1 .03 .03 1 624 468)" xlink:href="#arm-female"/>
          <use width="412.1" height="519.3" transform="matrix(-1 .03 .03 1 414 377)" xlink:href="#body-female"/>
          <use width="410.1" height="471.2" transform="matrix(-1 .03 .03 1 414 424)" xlink:href="#body-shading-female"/>
          <use width="252" height="151.2" transform="matrix(-1 .03 .03 1 337 306)" xlink:href="#collar-female"/>
        </g>
        <use width="241.8" height="388.2" transform="matrix(-1 .03 .03 1 307 84)" xlink:href="#hair-female"/>
        <g id="amr-shading-female-2">
          <path d="M367 705c1 2 1 36 10 44 40 37 44 104 28 69-2-2-5-9-18-18-7-5-10-17-16-21-18-10-14-24-17-36-8-28 1-34-8-51-8-14-17-13-28-27-12-17-21-25-22-35 0-15 11-49 11-49s4 64 28 70c31 7 27 47 32 54z" class="cls-12"/>
          <path d="M520 682c5 0 20-11 25-8 2 1 1 3 4 6 5 5 9 4 15 7 4 1 1 5 11 16 9 10 13 9 14 14 2 5-1 6 0 13 2 8 7 7 10 16 4 8-1 11 3 21 2 5 4 6 5 11 0 6-3 8-3 14 1 5 6 8 11 12 6 6 8 13 11 27 9 32 13 49 8 56-22 37-213-34-229-69-1-1 7-2 29-27 6-7 24-8 31-16 4-4 13-9 20-11 10-2 16-1 11-18-3-11 16-8 16-21 0-14 9-23 7-31-1-5-14 3-14 3l15-15z" class="cls-12"/>
          <path d="M477 658a60 60 0 01-16 13c-23 13-47 7-53 5" class="cls-10"/>
          <path d="M487 663a60 60 0 01-16 13c-22 13-46 7-53 5M449 618c-4 4-41-9-56-14-25-8-46-19-52-21M412 712a88 88 0 01-51-3M504 699c11-6 14-5 14-4 2 2-1 6-4 16-5 13-3 14-7 20-5 7-10 6-12 12-2 7 4 11 2 16-2 4-8 2-17 6-8 3-9 6-17 11a67 67 0 01-25 11" class="cls-10"/>
          <path d="M543 734c3 5 6 14 2 22-3 9-12 13-20 16a208 208 0 00-44 30M560 747c1 7 2 17-3 26-6 13-18 18-26 22-14 7-32 18-53 41" class="cls-55"/>
        </g>
        <use width="257.9" height="271.3" transform="rotate(11 53 416) scale(.91)" xlink:href="#hat-2"/>
        <use width="344.9" height="396.8" transform="matrix(-1.01 .03 .03 1.01 347 615)" xlink:href="#chair"/>
      </g>
      <g id="moriarty">
        <use width="197.5" height="427" transform="matrix(-1 .09 .09 1 988 537)" xlink:href="#arm-male"/>
        <use width="288.4" height="289.6" transform="matrix(-.77 .63 .63 .77 767 129)" xlink:href="#head-male"/>
        <use width="417" height="503.6" transform="matrix(-1 .09 .09 1 886 423)" xlink:href="#body-male"/>
        <use width="203.8" height="109.6" transform="matrix(-1 .09 .09 1 815 385)" xlink:href="#collar-male"/>
        <use width="452.5" height="545" transform="matrix(-1 .09 .09 1 919 377)" xlink:href="#body-shading-male"/>
        <use width="259.8" height="305.1" transform="scale(-1 1) rotate(39 -586 -917)" xlink:href="#hair-male-old"/>
        <use width="344.9" height="396.8" transform="matrix(-1 .09 .09 1 739 646)" xlink:href="#chair"/>
        <path d="M749 306c17-10 26-11 31-18 3-4-1-15 19-9 2 1 6 4 4-4-2-5 3-4 2 0" class="cls-55"/>
        <path d="M808 282c3 9 3 18 0 19s-8-6-12-16-3-18 0-19 8 6 12 16z" class="cls-56"/>
      </g>
      <g id="ben">
        <use width="288.4" height="289.6" transform="matrix(-.91 .69 .69 .91 1255 116)" xlink:href="#head-male"/>
        <use width="417" height="503.6" transform="matrix(-.97 .23 .23 .97 1371 429)" xlink:href="#body-male"/>
        <use width="197.5" height="427" transform="matrix(-.97 .23 .23 .97 1488 528)" xlink:href="#arm-male"/>
        <use width="203.8" height="109.6" transform="matrix(-.97 .23 .23 .97 1295 402)" xlink:href="#collar-male"/>
        <use width="452.5" height="545" transform="matrix(-.97 .23 .23 .97 1397 379)" xlink:href="#body-shading-male"/>
        <use width="124" height="131.5" transform="matrix(-1.65 .38 .38 1.65 1247 175)" xlink:href="#hair-male-young"/>
        <use width="344.9" height="396.8" transform="matrix(-.97 .23 .23 .97 1256 632)" xlink:href="#chair"/>
      </g>
    </symbol>
    <pattern id="ltLine" width="200" height="187.5" patternTransform="matrix(0 -1 .79 0 2201 810)" patternUnits="userSpaceOnUse" viewBox="0 0 200 188">
      <path d="M0 0h200v188H0z" class="cls-2"/>
      <path d="M71 81H50L0 80h72l-1 1zm13 0l116-1H84h-1l1 1zm116-19h-43a1 1 0 01-1-1 1 1 0 011-1h43zm0-17v2H96a1 1 0 01-1-1 1 1 0 011-1zm-46 16a1 1 0 01-1 1l-70 1-83-1v-2l83 1 70-1a1 1 0 011 1zM90 46a1 1 0 01-1 1H0v-2h89a1 1 0 011 1zM75 17H0v-1h75v1zm6-1h119v1H82v-1zm119 14v2H26l-2-1 2-1zM21 31l-2 1H0v-2h19l2 1zM0 187h200v1H0zm109-13a1 1 0 01-1 1H0v-2h108a1 1 0 011 1zm58 0a1 1 0 01-1 1h-45a1 1 0 01-1-1 1 1 0 011-1h45a1 1 0 011 1zm20-1h13v2h-13a1 1 0 01-1-1 1 1 0 011-1zm-70-14a1 1 0 01-1 1l-18-1-40 1a1 1 0 01-1-1 1 1 0 011-1h58a1 1 0 011 1zm83-1v2l-19-1-40 1a1 1 0 01-1-1 1 1 0 011-1zm-150 1a1 1 0 01-1 1l-15-1-34 1v-2h49a1 1 0 011 1zm150-18v2H78l-2-1 2-1zm-130 1l-2 1H0v-2h68l2 1zm130-19v2l-154-1-46 1v-2l46-1 154 1zm0-29v1H0v-1h200zm-49 14H46l-46-1v-2a5262 5262 0 00151 1zm9-2l40-1v2l-39 1z"/>
    </pattern>
    <pattern id="ltLineDeg5" patternTransform="rotate(5)" xlink:href="#ltLine"/>
    <pattern id="line" width="200" height="195" patternUnits="userSpaceOnUse">
      <path d="M0 112v-2l150-1 50 1v2zm0 10v-3l107-1 93 1v3l-93-1-107 1zm0 6h41a1 1 0 011 1 1 1 0 01-1 1H0zm46 1a1 1 0 011-1l70-1 83 1v2l-83-1-70 1a1 1 0 01-1-1zm-46 7h200v3H0zm0 13v-4a15262 15262 0 00200 0v4zm0 10v-3a3435 3435 0 00167-1l33 1v3l-33-1-116 1H0zm0 17h200v2H0zm0-7v-4l68 1 105-1a2 2 0 012 2 2 2 0 01-2 2l-97-1-76 1zm180-2a2 2 0 012-2h18v4h-18a2 2 0 01-2-2zM0 184h200v4H0zm0 9h200v2H0zM0 0h200v2H0zm0 5h200v4H0zm0 26h200v2H0zm91-15a1 1 0 011-1h108v2H92a1 1 0 01-1-1zM0 15h85a1 1 0 011 1 1 1 0 01-1 1H0zm0 12v-3l133-1 67 1v3l-95-2-65 3-40-1zm0 16v-4l64 1 136-1v4zm0 11v-3h122a2 2 0 011 1 2 2 0 01-1 2zm124-2a2 2 0 012-1h74v3h-74a2 2 0 01-2-2zM0 62v-2a30360 30360 0 00200 0v2l-46 1L0 62zm0 6h200v3H0zm0 10h200v2H0zm0 19v-2h200v2L98 98 0 97zm0 7v-1h200v1H0zm0-14v-3l154-1 46 1v3z"/>
    </pattern>
    <pattern id="lineSolid" width="200" height="195" patternUnits="userSpaceOnUse">
      <path d="M0 0h200v195H0z" class="cls-2"/>
      <path d="M0 0h200v195H0z" class="cls-100"/>
    </pattern>
    <pattern id="lineSolidSm" patternTransform="scale(.4)" xlink:href="#lineSolid"/>
    <pattern id="lineSolidHz" patternTransform="rotate(90)" xlink:href="#lineSolid"/>
    <pattern id="lineSolidDeg5" patternTransform="rotate(5)" xlink:href="#lineSolid"/>
    <pattern id="lineSolidDeg49" patternTransform="rotate(-49)" xlink:href="#lineSolid"/>
    <pattern id="drkCross" width="200.5" height="200.5" patternTransform="matrix(.79 0 0 .51 75 266)" patternUnits="userSpaceOnUse">
      <path d="M0 0h201v201H0z" class="cls-2"/>
      <path d="M114 200h-2l-1-150 1-50h2zm9 0h-3l-1-107 1-93h3l-1 93 1 107zm7 0v-43a1 1 0 011-1 1 1 0 011 1v43zm1-46a1 1 0 01-1-1l-1-70 1-83h2l-1 83 1 70a1 1 0 01-1 1zm6-154h3v200h-3zm10 0h4v200h-4zm13 200h-3l1-52-2-115 1-33h3l-1 33 2 116-1 51zM178 0h2v200h-2zm-7 201h-4V26a2 2 0 012-2 2 2 0 012 2zm-2-180a2 2 0 01-2-2V0h4v19a2 2 0 01-2 2zm17-21h4v200h-4zm9 0h2v200h-2zM2 0h2v200H2zm5 0h4v200H7zm26 0h2v200h-2zM18 109a1 1 0 01-1-1V0h2v108a1 1 0 01-1 1zm-1 91v-79a1 1 0 011-1 1 1 0 011 1v79zm11 0h-3L24 67l1-67h3l1 160-1 40zm17 0h-4l1-64L41 0h4zm10 0h-3V78a2 2 0 012-2 2 2 0 011 2zM54 70a2 2 0 01-2-1V0h3v69a2 2 0 01-1 1zm10 130h-2l1-154-1-46h2l1 46-1 154zM69 0h3v200h-3zm11 0h2v200h-2zm19 200h-2V0h2l1 102-1 98zm6 0h-1V0h1v200zm-14 0h-3L87 46l1-46h3l-2 78 2 122z"/>
      <path d="M1 115v-2l149-1 50 1v2zm0 10v-3l107-1 93 1v3l-93-1-107 1zm0 6h41a1 1 0 011 1 1 1 0 01-1 1H1zm46 1a1 1 0 011-1l70-1 83 1v2l-83-1-70 1a1 1 0 01-1-1zm-46 6h200v3H1zm0 14v-4a15262 15262 0 00200 0v4zm0 9v-3a3435 3435 0 00167-1l32 1v3l-32-1-117 2-50-1zm0 18h200v2H1zm-1-7v-4l69 1 104-1a2 2 0 012 2 2 2 0 01-2 2l-97-1-76 1zm181-2a2 2 0 012-2h18v4h-18a2 2 0 01-2-2zM1 187h200v3H1zm0 9h200v2H1zM1 3h200v2H1zm0 6h200v3H1zm0 25h200v2H1zm91-15a1 1 0 011-1h108v2H93a1 1 0 01-1-1zM1 18h85a1 1 0 011 1 1 1 0 01-1 1H1zm0 11v-3l133-1 66 1v3l-94-1-65 2-40-1zm0 17v-4l63 1 137-1v4zm0 10v-3h121a2 2 0 012 2 2 2 0 01-2 1zm124-1a2 2 0 011-2h75v3h-75a2 2 0 01-1-1zM1 65v-2a30360 30360 0 00200 0v2l-46 1L1 65zm0 5h200v3H1zm0 11h200v2H1zm0 19v-2h200v2l-103 1-97-1zm0 6v-1h200v1H1zm0-13v-3l154-1 45 1v2z"/>
    </pattern>
    <pattern id="drkCrossSm" patternTransform="scale(.4)" xlink:href="#drkCross"/>
    <pattern id="feathers" width="200" height="200" patternUnits="userSpaceOnUse">
      <path d="M0 0h200v200H0z" class="cls-2"/>
      <g clip-path="url(#clip-path-pattern)">
        <use width="29.1" height="31" transform="translate(6 4)" xlink:href="#curve-1"/>
        <use width="22.8" height="19" transform="translate(104 69)" xlink:href="#curve-4"/>
        <use width="38.3" height="29.7" transform="matrix(1.5 0 0 1.5 55 134)" xlink:href="#curve-2"/>
        <use width="33" height="54.2" transform="translate(47 27)" xlink:href="#curve-5"/>
        <path d="M53 106c1 0 9-4 20 0a31 31 0 0114 10" class="cls-10"/>
        <use width="31" height="13.1" transform="translate(21 62)" xlink:href="#curve-3"/>
        <use width="31" height="13.1" transform="rotate(55 48 92) scale(1.52)" xlink:href="#curve-3"/>
        <use width="33" height="54.2" transform="translate(13 101)" xlink:href="#curve-5"/>
        <use width="33" height="54.2" transform="rotate(13 -124 634)" xlink:href="#curve-5"/>
        <use width="29.1" height="31" transform="matrix(1.85 .25 -.25 1.85 116 107)" xlink:href="#curve-1"/>
        <use width="31" height="13.1" transform="matrix(2.11 .85 -.73 1.81 24 163)" xlink:href="#curve-3"/>
        <path d="M169 22c1 0 15-1 21 7 4 6 1 14 0 16m-3 26c1 0 7-3 14 0a15 15 0 017 9" class="cls-10"/>
        <use width="33" height="54.2" transform="matrix(-.7 .71 .71 .7 135 169)" xlink:href="#curve-5"/>
        <use width="31" height="13.1" transform="matrix(2.11 .85 -.73 1.81 24 -37)" xlink:href="#curve-3"/>
        <use width="33" height="54.2" transform="matrix(-.7 .71 .71 .7 135 -31)" xlink:href="#curve-5"/>
        <use width="22.8" height="19" transform="matrix(1.49 .95 -.54 .84 181 113)" xlink:href="#curve-4"/>
        <path d="M-13 71c1 0 7-3 14 0a15 15 0 017 9" class="cls-10"/>
        <use width="22.8" height="19" transform="matrix(1.49 .95 -.54 .84 -19 113)" xlink:href="#curve-4"/>
        <use width="31" height="13.1" transform="rotate(-26 471 -257)" xlink:href="#curve-3"/>
      </g>
    </pattern>
    <pattern id="dots" width="16" height="16" patternTransform="matrix(2.36 0 0 2.07 561 823)" patternUnits="userSpaceOnUse">
      <path d="M0 0h16v16H0z" class="cls-2"/>
      <circle cx="15.4" cy="7.1" r=".5"/>
      <circle cx="5.7" cy="9.8" r=".5"/>
      <circle cx="1.5" cy="1.9" r=".1"/>
      <circle cx="6.4" cy="7.9" r=".4"/>
      <circle cx="14" cy="5.8" r=".4"/>
      <circle cx="5.2" cy=".4" r=".4"/>
      <path d="M1 1L0 0v2l1-1zm0 10l-1-1v2a1 1 0 001-1z"/>
      <circle cx="7" cy="13.3" r=".8"/>
      <circle cx="3.1" cy="11.8" r=".5"/>
      <circle cx="6.2" cy="3.7" r=".8"/>
      <circle cx="2.1" cy="13.3" r=".5"/>
      <path d="M1 4a1 1 0 000-1H0v1h1z"/>
      <circle cx="8.8" cy="7.1" r=".3"/>
      <circle cx="14.1" cy="1.2" r=".5"/>
      <circle cx="6.2" cy="1.5" r=".5"/>
      <path d="M1 13a1 1 0 00-1-1v1h1zM16 1v1-2a1 1 0 000 1zm-1 10l1 1v-2l-1 1zm1 2v-1a1 1 0 000 1zM2 1V0H1l1 1z"/>
      <circle cx="9" cy=".7" r=".2"/>
      <circle cx="12" cy="15.7" r=".2"/>
      <circle cx="9" cy="13" r=".2"/>
      <circle cx="12" cy="13" r=".2"/>
      <circle cx="6" cy="15" r=".2"/>
      <circle cx="4" cy="12" r=".2"/>
      <circle cx="7" cy="11" r=".2"/>
      <circle cx="4.9" cy="7.5" r=".2"/>
      <circle cx="8" cy="10.5" r=".2"/>
      <circle cx="2" cy="15" r=".2"/>
      <circle cx="9.8" cy="11.5" r=".2"/>
      <circle cx="11.8" cy="9.5" r=".3"/>
      <circle cx="13.8" cy="12.5" r=".2"/>
      <path d="M7 1l1-1H7v1z"/>
      <circle cx="13.7" cy="4" r=".3"/>
      <circle cx="11.8" cy="3.4" r=".2"/>
      <circle cx="10.7" cy="4.8" r=".1"/>
      <circle cx="12.4" cy="4.5" r=".4"/>
      <circle cx="10.9" cy="5.7" r=".4"/>
      <ellipse cx="13.3" cy="7.5" rx=".7" ry=".6"/>
      <circle cx="10.2" cy="3.9" r=".2"/>
      <circle cx="11.9" cy="5.5" r=".2"/>
      <circle cx="14.3" cy="15.4" r=".4"/>
      <circle cx=".7" cy="15.4" r=".6"/>
      <circle cx="13.1" cy="14.1" r=".6"/>
      <circle cx="9.1" cy="5.5" r=".7"/>
      <path d="M2 16H1h1zm5-1a1 1 0 000 1h1a1 1 0 00-1-1z"/>
      <circle cx=".6" cy="14.2" r=".3"/>
      <circle cx="14.8" cy="9.5" r=".2"/>
      <circle cx="3" cy="1.7" r=".2"/>
      <circle cx="1" cy="10.7" r=".2"/>
      <circle cx="2" cy="11.7" r=".2"/>
      <circle cx="3.8" cy="10.5" r=".2"/>
      <circle cx=".8" cy="9.5" r=".2"/>
      <circle cx="12.8" cy=".5" r=".2"/>
      <circle cx="1.5" cy="7.6" r=".2"/>
      <circle cx="4.7" cy=".7" r=".3"/>
      <circle cx="14.6" cy="5.5" r=".6"/>
      <circle cx="10" cy="10.3" r=".4"/>
      <circle cx="14.3" cy=".2" r=".2"/>
      <circle cx="3.3" cy="6.8" r=".2"/>
      <circle cx="4.5" cy="6.8" r=".2"/>
      <circle cx="7" cy="7.3" r=".6"/>
      <circle cx="6.1" cy="5.4" r=".4"/>
      <circle cx="1.9" cy="2.3" r=".4"/>
      <circle cx="3.6" cy=".6" r=".5"/>
      <circle cx="9.6" cy="14.5" r=".4"/>
      <circle cx="6.3" cy="9.9" r=".4"/>
      <circle cx="7.9" cy="4.3" r=".4"/>
      <circle cx="10.9" cy="1.9" r=".4"/>
      <circle cx="4.1" cy="8.5" r=".6"/>
      <circle cx=".5" cy="7.7" r=".4"/>
      <circle cx="15.2" cy=".5" r=".4"/>
      <circle cx="15.2" cy="8.5" r=".4"/>
      <circle cx="2.2" cy="8.5" r=".4"/>
      <circle cx="2.2" cy="6.5" r=".4"/>
      <circle cx=".5" cy="6.9" r=".1"/>
      <circle cx="8.3" cy="14.9" r=".3"/>
      <circle cx="14.3" cy="12.9" r=".3"/>
      <circle cx="11.3" cy="14.9" r=".3"/>
      <circle cx="3.3" cy="13.9" r=".3"/>
      <circle cx="3.3" cy="3.9" r=".3"/>
      <circle cx="11.4" cy="11.1" r=".5"/>
      <circle cx="8.4" cy="9.1" r=".5"/>
      <circle cx="12.2" cy="11.8" r=".4"/>
      <circle cx="15.2" cy="14.8" r=".4"/>
      <circle cx="8.2" cy="11.8" r=".3"/>
      <circle cx=".5" cy="5.5" r=".4"/>
      <circle cx="10.4" cy="13.1" r=".5"/>
      <circle cx="9.4" cy="3.1" r=".5"/>
      <circle cx="8" cy="2.1" r=".3"/>
      <circle cx="5.3" cy="12.6" r=".5"/>
      <circle cx="13.5" cy="9.8" r=".7"/>
      <circle cx="5.6" cy="11.8" r=".4"/>
      <circle cx="4" cy="5.8" r=".4"/>
      <circle cx="2.2" cy="5.1" r=".7"/>
      <circle cx="2.7" cy="9.8" r=".4"/>
      <circle cx="10.8" cy="8.6" r=".3"/>
      <circle cx="14.1" cy="12" r=".5"/>
      <circle cx="3.9" cy="14.9" r=".6"/>
      <circle cx="4" cy="2.9" r=".6"/>
      <circle cx="10.7" cy="7.8" r=".5"/>
      <circle cx="15" cy="3.1" r=".7"/>
      <circle cx="10.7" cy=".5" r=".4"/>
      <circle cx="12.7" cy="2.5" r=".4"/>
    </pattern>
    <pattern id="wave-lt" width="100" height="18" patternUnits="userSpaceOnUse">
      <path d="M0 0h100v18H0z" class="cls-2"/>
      <use width="100" height="18" class="cls-30" xlink:href="#wave"/>
    </pattern>
    <pattern id="wave-drk" width="100" height="18" patternTransform="rotate(40) scale(.3)" patternUnits="userSpaceOnUse">
      <path d="M0 0h100v18H0z" class="cls-2"/>
      <use width="100" height="18" xlink:href="#wave"/>
    </pattern>
    <pattern id="crowd-pattern" width="200" height="200" patternTransform="matrix(2.45 0 0 2.45 453 110)" patternUnits="userSpaceOnUse">
      <path d="M0 0h199v199H0z" class="cls-1"/>
      <g class="pt-16">
        <use width="50.4" height="97.9" transform="translate(1 -78)" xlink:href="#male-2"/>
        <use width="50.5" height="98" transform="matrix(.95 0 0 .95 42 -79)" xlink:href="#male"/>
        <use width="50.4" height="97.9" transform="translate(88 -85)" xlink:href="#male-2"/>
        <use width="50.7" height="105.6" transform="matrix(.81 0 0 .81 131 -61)" xlink:href="#female"/>
        <use width="50.7" height="105.6" transform="translate(160 -68)" xlink:href="#female"/>
        <use width="50.5" height="98" transform="translate(156 -5)" xlink:href="#male"/>
        <use width="50.7" height="105.6" transform="matrix(.81 0 0 .81 122 10)" xlink:href="#female"/>
        <use width="50.5" height="98" transform="matrix(1.04 0 0 1.04 82 -5)" xlink:href="#male"/>
        <use width="50.4" height="97.9" transform="translate(40 6)" xlink:href="#male-2"/>
        <use width="50.7" height="105.6" transform="translate(0 -7)" xlink:href="#female"/>
        <use width="50.5" height="98" transform="translate(1 53)" xlink:href="#male"/>
        <use width="50.7" height="105.6" transform="matrix(.81 0 0 .81 81 70)" xlink:href="#female"/>
        <use width="50.5" height="98" transform="matrix(.95 0 0 .95 117 59)" xlink:href="#male"/>
        <use width="50.4" height="97.9" transform="translate(159 64)" xlink:href="#male-2"/>
        <use width="50.7" height="105.6" transform="translate(36 56)" xlink:href="#female"/>
        <use width="50.4" height="97.9" transform="translate(1 122)" xlink:href="#male-2"/>
        <use width="50.5" height="98" transform="matrix(.95 0 0 .95 42 121)" xlink:href="#male"/>
        <use width="50.4" height="97.9" transform="translate(88 115)" xlink:href="#male-2"/>
        <use width="50.7" height="105.6" transform="matrix(.81 0 0 .81 131 139)" xlink:href="#female"/>
        <use width="50.7" height="105.6" transform="translate(160 132)" xlink:href="#female"/>
        <use width="50.7" height="105.6" transform="translate(-40 -68)" xlink:href="#female"/>
        <use width="50.5" height="98" transform="translate(-44 -5)" xlink:href="#male"/>
        <use width="50.4" height="97.9" transform="translate(-41 64)" xlink:href="#male-2"/>
        <use width="50.7" height="105.6" transform="translate(-40 132)" xlink:href="#female"/>
        <use width="50.5" height="98" transform="translate(156 195)" xlink:href="#male"/>
        <use width="50.5" height="98" transform="matrix(1.04 0 0 1.04 82 195)" xlink:href="#male"/>
        <use width="50.7" height="105.6" transform="translate(0 193)" xlink:href="#female"/>
      </g>
    </pattern>
    <linearGradient id="linear-gradient-crowd" x1="25.3" x2="25.3" y1="105.6" y2="81.4" gradientUnits="userSpaceOnUse">
      <stop offset="0" stop-color="#fff"/>
      <stop offset=".3" stop-color="#fff"/>
      <stop offset=".6" stop-color="#fff" stop-opacity=".7"/>
      <stop offset="1" stop-color="#fff" stop-opacity="0"/>
    </linearGradient>
    <linearGradient id="linear-gradient" x1="18.5" x2="1774.9" y1="958.6" y2="958.6" gradientUnits="userSpaceOnUse">
      <stop offset="0" stop-opacity=".4"/>
      <stop offset="0" stop-opacity=".4"/>
      <stop offset="1" stop-opacity="0"/>
    </linearGradient>
    <linearGradient id="linear-gradient-2" x1="4.8" x2="2025.6" y1="323.8" y2="323.8" xlink:href="#linear-gradient"/>
    <linearGradient xmlns="http://www.w3.org/2000/svg" id="linear-gradient-3" x1="1349.1" x2="1475.6" y1="1998.5" y2="1000" gradientUnits="userSpaceOnUse">
      <stop offset="0"/>
      <stop offset=".5" stop-opacity=".8"/>
      <stop offset="1" stop-opacity="0"/>
    </linearGradient>
    <linearGradient id="linear-gradient-4" x1="329.1" x2="473.1" y1="971.9" y2="971.9" gradientUnits="userSpaceOnUse">
      <stop offset="0" stop-opacity=".6"/>
      <stop offset="0" stop-opacity=".6"/>
      <stop offset="1" stop-opacity=".3"/>
    </linearGradient>
    <clipPath id="clip-path">
      <path d="M69 18l4-3c9-7 13-9 23-9h4V0a36 36 0 00-16 3l-11 8-11 7zm-42-7L16 3A36 36 0 000 0v6c7 1 12 3 19 9l4 3h15l-11-7zm23-9a29 29 0 01-12-2H23a39 39 0 007 5 36 36 0 0016 3 36 36 0 0016-3 39 39 0 007-5h-7a29 29 0 01-12 2z" class="cls-1"/>
    </clipPath>
    <clipPath id="clip-path-pattern">
      <path d="M0 0h200v200H0z" class="pt-1"/>
    </clipPath>
    <clipPath id="clip-path-2">
      <path d="M0 0h2841v2040H0z" class="cls-1"/>
    </clipPath>
    <radialGradient id="radial-gradient" cx="2143.9" cy="605" r="312.6" gradientUnits="userSpaceOnUse">
      <stop offset="0" stop-color="#fff"/>
      <stop offset=".4" stop-color="#fff"/>
      <stop offset=".5" stop-color="#fff"/>
      <stop offset=".6" stop-color="#fff" stop-opacity=".9"/>
      <stop offset=".7" stop-color="#fff" stop-opacity=".8"/>
      <stop offset=".8" stop-color="#fff" stop-opacity=".8"/>
      <stop offset=".8" stop-color="#fff" stop-opacity=".7"/>
      <stop offset=".9" stop-color="#fff" stop-opacity=".5"/>
      <stop offset=".9" stop-color="#fff" stop-opacity=".4"/>
      <stop offset=".9" stop-color="#fff" stop-opacity=".2"/>
      <stop offset="1" stop-color="#fff" stop-opacity="0"/>
      <stop offset="1" stop-color="#fff" stop-opacity="0"/>
    </radialGradient>
    <radialGradient id="radial-gradient-2" cx="401.1" cy="1002.8" r="222.3" gradientUnits="userSpaceOnUse">
      <stop offset="0" stop-color="#fff"/>
      <stop offset=".7" stop-color="#fff"/>
      <stop offset=".8" stop-color="#fff"/>
      <stop offset=".8" stop-color="#fff"/>
      <stop offset=".8" stop-color="#fff" stop-opacity=".9"/>
      <stop offset=".8" stop-color="#fff" stop-opacity=".8"/>
      <stop offset=".9" stop-color="#fff" stop-opacity=".7"/>
      <stop offset=".9" stop-color="#fff" stop-opacity=".6"/>
      <stop offset=".9" stop-color="#fff" stop-opacity=".4"/>
      <stop offset="1" stop-color="#fff" stop-opacity=".1"/>
      <stop offset="1" stop-color="#fff" stop-opacity="0"/>
    </radialGradient>
    <style>
      * {
        stroke-miterlimit:10
      }
      .pt-16{
        clip-path:url(#clip-path-pattern)
      }
      .cls-10,.cls-17,.cls-18,.cls-22,.cls-23,.cls-24,.cls-25,.cls-26,.cls-6,.cls-28,.cls-29,.cls-31,.cls-34,.cls-36,.cls-37,.cls-39,.cls-41,.cls-42,.cls-43,.cls-5,.cls-50,.cls-51,.cls-52,.cls-55,.cls-56,.cls-60,.cls-64,.cls-65,.cls-68,.cls-69,.cls-73,.cls-77,.cls-78,.cls-79,.cls-8,.cls-81,.cls-86.cls-88,.cls-99,.pt-10,.pt-13,.pt-3,.pt-4,.pt-6{
        stroke:#000
      }
      .cls-23{
        stroke-width:.5px
      }
      .cls-24{
        stroke-width:.25px
      }
      .cls-10,.cls-17,.cls-25,.cls-26,.cls-28,.cls-36,.cls-37,.cls-5,.cls-6,.cls-8,.cls-88{
        stroke-width:2px
      }
      .cls-29,.cls-51{
        stroke-width:3px
      }
      .cls-39,.cls-55,.cls-56,.cls-64,.cls-65,.cls-68,.cls-69,.cls-73,.cls-78,.cls-79,.cls-81,.cls-86,.cls-99{
        stroke-width:4px
      }
      .cls-50,.cls-52{
        stroke-width:9px
      }
      .cls-30{
        stroke-width:5px;
        stroke:url(#dots)
      }
      .cls-38,.cls-39,.cls-59,.cls-61{
        opacity:.5
      }
      

      .cls-1,.cls-10,.cls-23,.cls-24,.cls-29,.cls-30,.cls-36,.cls-39,.cls-41,.cls-42,.cls-43,.cls-50,.cls-52,.cls-55,.cls-79,.pt-1,.pt-4{
        fill:none
      }
      .cls-2,.cls-22,.cls-5,.cls-51,.cls-77,.pt-3{
        fill:#fff
      }
      .cls-81{
        fill:gray
      }
      .pt-12,.pt-15,.pt-9{
        fill:url(#linear-gradient-crowd)
      }
      .cls-67{
        fill:url(#linear-gradient)
      }
      .cls-68{
        fill:url(#linear-gradient-2)
      }
      .cls-71{
        clip-path:url(#clip-path-2)
      }
      .cls-74{
        fill:url(#radial-gradient)
      }
      .cls-83{
        fill:url(#crowd-pattern)
      }
      .cls-84{
        opacity:.81;
        fill:url(#linear-gradient-3)
      }
      .cls-86{
        fill:url(#linear-gradient-4)
      }
      .cls-88{
        fill:url(#radial-gradient-2)
      }
      .cls-18,.cls-40,.cls-6,.cls-78,.cls-8{
        fill:url(#ltLine)
      }
      .cls-70{
        fill:url(#ltLineDeg5)
      }
      .cls-12,.cls-64{
        fill:url(#lineSolidHz)
      }
      .pt-13{
        fill:url(#lineSolidSm)
      }
      .cls-73{
        fill:url(#lineSolid)
      }
      .cls-69{
        fill:url(#lineSolidDeg5)
      }
      .cls-65{
        fill:url(#lineSolidDeg49)
      }
      .cls-10,.cls-24,.cls-29,.cls-30,.cls-39,.cls-41,.cls-42,.cls-52,.cls-55,.cls-77,.cls-99,.pt-4{
        stroke-linecap:round
      }
      .cls-11,.cls-25{
        fill:url(#drkCross)
      }
      .pt-10,.pt-6{
        fill:url(#drkCrossSm)
      }
      .cls-100,.cls-17{
        fill:url(#line)
      }
      .cls-26,.cls-28{
        fill:url(#feathers)
      }
      .cls-31,.cls-34{
        fill:url(#wave-drk)
      }
      .cls-32,.cls-33{
        fill:url(#wave-lt)
      }
      .cls-37,.cls-56,.cls-60{
        fill:url(#dots)
      }
      .cls-89{
        font-size:48px
      }
      .cls-89,.cls-96{
        font-family:Oswald-Medium,Oswald;
        font-weight:500
      }
      .cls-90{
        font-size:72px
      }
      .cls-91{
        font-size:60px
      }
      .cls-93{
        letter-spacing:-.01em
      }
      .cls-94,.cls-95,.cls-92{
        letter-spacing:0
      }
      .cls-96{
        font-size:80px
      }
    </style>
  </defs>
  <title>
    Dwight Moody Preaching in Tabernacle
  </title>
  <g id="Foreground_People" class="cls-71">
    <path d="M1730 0h1114v785H1730z" class="cls-40"/>
    <path d="M2612 2v40h-604V2h604z" class="cls-73"/>
    <path d="M2384 782c44-11 83-76 74-131-14-92-93-102-92-177 0-51 5-82-6-111-13-34-92 9-193-39-62-29-66-31-99-26-41 6-40 38-103 106-42 43-71 6-101 43-69 84-27 272 26 289 23 6 17 23 32 32 31 20-2 31 31 85 38 64 204 88 262 24 49-54 43-67 83-84 37-16 35 2 86-11z" class="cls-74"/>
    <use width="2030" height="1593.6" transform="translate(-18 -157)" xlink:href="#wall"/>
    <use width="2030" height="1593.6" transform="matrix(-1 0 0 1 4539 -157)" xlink:href="#wall"/>
    <g id="m">
      <path id="body" d="M2177 509c-2 0-1 5-1 7-4 14-13 31-21 32-5 0-12-17-17-21-2-1-8 5-8 5s6 10 6 14c-1 11-6 21-6 22 11 37 3 118 3 118l94 1s5-63-5-82c-3-4-2-8-3-16l-1-12c-2-14 2-24 0-28-6-14-7-22-14-24s-4-2-11-5c-9-3-12-11-16-11z" class="cls-25"/>
      <path id="cuff-right" d="M2073 532l3 1a6 6 0 011 3l-1 8a29 29 0 01-1 7l-2 2a2 2 0 01-2-1l-1-5a9 9 0 00-1 4l3 6c3 1 7-7 8-11s1-8 0-12l-1-1-6-1z" class="cls-22"/>
      <path d="M2084 556a72 72 0 01-15-11c-2-2-3-1-7-3l-5-5c-3-1-3-3-7-2a11 11 0 01-5 0c-3-1-5-4-3-5v-2a3 3 0 011-2 19 19 0 012-2l1-2 2-1 2-1c-1-1-4-2-8 0 0 0-2-1-1-2 1-3 8-3 11-3a41 41 0 016 2 37 37 0 015 2c4 2 6 7 8 10 3 8 17 10 17 10z" class="cls-22"/>
      <path d="M2045 535l2-1v-2l-5-3s5 4 7 2-3-6-3-6 5 5 6 4v-4a7 7 0 010-4" class="cls-43"/>
      <path d="M2067 536c-4-2-5-5-6-6-1-3 0-5-2-6l-4-1c-1-1-2-2-1-3 2-1 9 4 9 4s-3-3-9-4a7 7 0 00-4 0" class="cls-43"/>
      <path id="arm-right" d="M2068 551c1 0 2 5 5 5s5-8 6-10a21 21 0 000-11c-1-5-5-4-5-4s5-1 8 0a24 24 0 008 2l13 1c1 1 2-1 4-1 2-1 5 0 6 1l1 1 3-2h17c7-1 6-5 15-7 4-1 8-2 12 0 6 2 11 10 11 17-1 12-20 19-24 20-5 2-14 3-30 3l-16-1c-7-1-7-3-14-3a114 114 0 01-13-2 9 9 0 01-4-2c-2-2-3-7-3-7z" class="cls-25"/>
      <g id="m-arm-l">
        <path d="M2132 581s-9-1-11-2c-4-3-7-1-8-2a12 12 0 00-6 1c-3 1-3 2-5 4-1 1-5 5-1 7l3-4c2-2 5-1 6-1v1a8 8 0 00-3 1c-2 1-3 3-2 5s1 0 2-1a21 21 0 015-2 18 18 0 00-5 3c-2 1-2 4 0 6l4-5 3-1a12 12 0 00-3 2c-2 1-5 8 2 6a1 1 0 000-2 2 2 0 00-1 0s2-1 4 0l5-1c5-2 14 5 14 5z" class="cls-22"/>
        <path id="cuff-left" d="M2124 579l3 1c2 1 3 6 5 12 0 0 1 12-1 13l-5-9s2 12 5 13c3 0 5-6 6-7 2-6 2-15-3-20a15 15 0 00-10-4v1z" class="cls-22"/>
        <path id="arm-left" d="M2205 534c-9 0-16 18-29 32l-4 2-3 4-8 2h-7c-4 1-2 3-5 4-10 3-22 1-22 1a11 11 0 015 6c1 2 2 18 0 21s-5-2-5-2 3 5 5 5l7-1a165 165 0 0020-2c12-2 25 1 33-5 3-2 30-33 25-52-2-8-6-15-12-15z" class="cls-25"/>
      </g>
      <path id="m-head" d="M2176 511c-2-2-1-1-3-20-1-6-4-8-5-9-5-6-15-7-21-4-5 2-10 2-13 6a13 13 0 00-2 6v11 6l2 2c0 4 2 4 2 11v12c2 4 8 6 14 5s6-11 10-12c4 0 1 17 4 17 5-1 14-26 12-31z" class="cls-22"/>
      <path id="m-collar" d="M2163 528l7-11a63 63 0 005-9" class="cls-10"/>
      <path id="m-hair-l" d="M2131 493h5c3-1 8-4 9-8a13 13 0 014-6c4-4 7-3 6-4s-6-1-11 1c-3 2-9 2-13 8-1 3-2 7 0 9z" class="cls-60"/>
      <path id="m-ear" d="M2163 504h1v4l-2 2a1 1 0 001 2l3-1 2-2a12 12 0 002-9c0-2-3-4-4-5-2 0-4 2-5 4s1 3 2 1" class="cls-41"/>
      <path id="m-beard" d="M2175 502a25 25 0 00-1-10c-1-5-1-8-4-12-1 0-8-5-13-4a13 13 0 00-9 6 26 26 0 00-1 4 2 2 0 001 2l7 5 1 7 1 8c-1 3-3 3-4 5 0 4 4 6 2 9l-4 4-5 1c-3-1-4-3-7-3a4 4 0 00-3 1l-2 5-1 5c0 4-4 6-5 12l4 7c2 2-1 7 2 8s5-1 9-1c5 0 7 4 10 3l6-6 6-5c2-3-1-5 0-13l1-8-4-6 1-9a14 14 0 00-1-5l-2-4c-1-3 1-6 1-8a2 2 0 000-1 5 5 0 013-3c2 0 5 2 5 5s-3 8-1 7c5-1 3 3 5 3 2-1 2-4 2-5v-4z" class="cls-60"/>
      <path id="m-moustace" d="M2129 526l4-3 1-4a6 6 0 014-3 6 6 0 015 1 8 8 0 012 3l6 7s-6 0-9-4l-3-3-2 3-3 3h-5z" class="cls-60"/>
      <path d="M2131 506a5 5 0 006 0" class="cls-41"/>
      <path id="m-nose" d="M2141 513c2 1 1 2-1 3a6 6 0 01-5 0 3 3 0 01-1-2c-1-2 1-3 2-5v-6" class="cls-77"/>
      <path id="m-eyebrow" d="M2140 503a9 9 0 013-2 10 10 0 013 0 8 8 0 013 0 7 7 0 013 3" class="cls-10"/>
      <circle id="m-eye" cx="2143.5" cy="503.6" r="1.5"/>
      <circle id="m-eye-2" cx="2133.2" cy="504.4" r="1.5"/>
      <path d="M2141 502l-1 2c1 2 3 3 6 2a11 11 0 004-1" class="cls-41"/>
      <path id="m-eyebrow-2" d="M2130 503a4 4 0 012-1 3 3 0 011 0 3 3 0 012 0 4 4 0 011 2" class="cls-10"/>
    </g>
    <g id="bible-stand">
      <path d="M2071 596c-2-1-4-8-4-8a31 31 0 017-1c10-1 12-4 17-2a6 6 0 014 3c2 3 1 8 1 8l1-8c2-3 7-4 8-4l7 3a26 26 0 0010 0l9 9 8 12-11 7c-25 6-51-13-57-19z" class="cls-22"/>
      <path d="M2140 617l-53-1-25-23 57 1 21 23z"/>
      <path d="M2101 607h6v65h-6z"/>
      <path d="M2118 597l4-10" class="cls-22"/>
    </g>
    <g id="pulpit-side">
      <path d="M2320 642v154l-111-8V634l111 8z" class="cls-78"/>
      <path d="M2208 638h113v17h-113z" class="cls-79" transform="rotate(5 2264 647)"/>
      <path d="M2208 774h113v17h-113z" class="cls-79" transform="rotate(5 2264 783)"/>
      <path d="M2235 710h154v17h-154z" class="cls-79" transform="rotate(-90 2312 719)"/>
    </g>
    <g id="pulpit-front">
      <path d="M1976 633h233v148h-233z" class="cls-78"/>
      <path d="M1980 635h228v17h-228zM1980 768h228v17h-228z" class="cls-79"/>
      <path d="M1913 702h154v17h-154z" class="cls-79" transform="rotate(-90 1990 711)"/>
      <path d="M2124 702h154v17h-154z" class="cls-79" transform="rotate(-90 2201 711)"/>
    </g>
    <g id="pulpit-side-2">
      <path d="M1868 642v154l112-8V634l-112 8z" class="cls-78"/>
      <path d="M1868 638h113v17h-113z" class="cls-79" transform="matrix(-1 .09 -.08 -1 3898 1123)"/>
      <path d="M1868 774h113v17h-113z" class="cls-79" transform="matrix(-1 .09 -.08 -1 3910 1395)"/>
      <path d="M1800 710h154v17h-154z" class="cls-79" transform="rotate(-90 1877 719)"/>
    </g>
    <path d="M1402 783h1450v498H1402z" class="cls-81"/>
    <path d="M1402 783h1450v498H1402z" class="cls-64"/>
    <path d="M123 891c23-4 34 24 65 24 15 0 24-41 46-38 63 7 30 62 50 64 60 7 91-19 127-20 92-1 66-24 103-26 42-1 30-10 120-2 46 5 58-19 105-13 37 4 46 49 80 53 10 1 71-14 80-13 20 2 86-31 104-29 47 6 72-5 99-1 23 3 91-10 117-14 56-9 38 56 54 60 13 4 31-8 45-5 13 4 81-15 94-12s39 137 52 140c14 4 54 2 62 15 25 37 76 30 110 26 22-3 44-30 73-26 38 6 16 25 83 33 19 2 64-35 83-33 28 3 106-9 132-6 7 0 19 22 34 29 24 10 52 6 62 7 23 3 66-33 89-30 28 3 50 34 78 35 21 1 50-13 74-31 39-30 48 37 79 9 23-21 85-33 95-2 5 15 103 32 123 10 18-20 66-24 76-3 24 48 106 3 115-8 3-6 9-2 9-2l-6 958-2834 5V904s75-6 122-13z" class="cls-83"/>
    <use width="2050.1" height="1169.7" transform="matrix(.74 0 0 .74 1103 1257)" xlink:href="#people-2"/>
    <use width="1819.8" height="1236.4" transform="matrix(.73 0 0 .73 440 1157)" xlink:href="#people-1"/>
    <use width="2050.1" height="1169.7" transform="matrix(.74 0 0 .74 -791 1075)" xlink:href="#people-2"/>
    <use width="1819.8" height="1236.4" transform="matrix(.73 0 0 .73 2345 1360)" xlink:href="#people-1"/>
    <path id="shadow" d="M-10 880l316 3 554 175 686 30 620 29 560-52 118 28-9 946H1L-10 880z" class="cls-84"/>
    <g id="sign">
      <path d="M329-133h144v2209H329z" class="cls-78"/>
      <path d="M329-133h144v2209H329z" class="cls-86"/>
      <path d="M212 752h379v502H212z" class="cls-6"/>
      <path d="M212 752h379v502H212z" class="cls-88"/>
      <text class="cls-89" transform="translate(334 1031)">
        ON THE<tspan x="134" y="0" class="cls-90"> </tspan><tspan class="cls-91"><tspan x="-110" y="72" class="cls-92">F</tspan><tspan x="-85" y="72" class="cls-93">L</tspan><tspan x="-61" y="72">OO</tspan><tspan x="7" y="72" class="cls-94">R</tspan><tspan x="40" y="72"> O</tspan><tspan x="89" y="72" class="cls-92">F</tspan><tspan x="113" y="72"> H</tspan><tspan x="163" y="72" class="cls-95">ALL</tspan></tspan>
      </text>
      <text class="cls-96" transform="translate(255 971)">
        NO <tspan x="108" y="0" class="cls-97">S</tspan><tspan x="147" y="0">E</tspan><tspan x="181" y="0" class="cls-98">A</tspan><tspan x="220" y="0">T</tspan><tspan x="254" y="0" class="cls-97">S</tspan>
      </text>
      <circle cx="428.7" cy="769.4" r="10"/>
      <path d="M414 778l11-7" class="cls-99"/>
    </g>
    <use width="2050.1" height="1169.7" transform="translate(-403 1220)" xlink:href="#people-2"/>
    <use width="1819.8" height="1236.4" transform="translate(1243 1283)" xlink:href="#people-1"/>
  </g>
</svg>