<?xml version="1.0" encoding="UTF-8" standalone="no"?>
<svg
   xmlns:dc="http://purl.org/dc/elements/1.1/"
   xmlns:cc="http://creativecommons.org/ns#"
   xmlns:rdf="http://www.w3.org/1999/02/22-rdf-syntax-ns#"
   xmlns:svg="http://www.w3.org/2000/svg"
   xmlns="http://www.w3.org/2000/svg"
   xmlns:xlink="http://www.w3.org/1999/xlink"
   xmlns:sodipodi="http://sodipodi.sourceforge.net/DTD/sodipodi-0.dtd"
   xmlns:inkscape="http://www.inkscape.org/namespaces/inkscape"
   inkscape:version="1.0 (4035a4fb49, 2020-05-01)"
   sodipodi:docname="prodigal-son.svg"
   id="svg666"
   version="1.1"
   preserveAspectRatio="xMidYMid slice"
   viewBox="0 0 2925.7 1947.1">
  <metadata
     id="metadata670">
    <rdf:RDF>
      <cc:Work
         rdf:about="">
        <dc:format>image/svg+xml</dc:format>
        <dc:type
           rdf:resource="http://purl.org/dc/dcmitype/StillImage" />
      </cc:Work>
    </rdf:RDF>
  </metadata>
  <sodipodi:namedview
     inkscape:current-layer="svg666"
     inkscape:window-maximized="1"
     inkscape:window-y="-6"
     inkscape:window-x="-6"
     inkscape:cy="974.86298"
     inkscape:cx="1552.7049"
     inkscape:zoom="0.25"
     showgrid="false"
     id="namedview668"
     inkscape:window-height="698"
     inkscape:window-width="1280"
     inkscape:pageshadow="2"
     inkscape:pageopacity="0"
     guidetolerance="10"
     gridtolerance="10"
     objecttolerance="10"
     borderopacity="1"
     bordercolor="#666666"
     pagecolor="#ffffff" />
  <defs
     id="defs409">
    <style
       id="style2">
      .cls-1,.cls-3,.cls-41,.cls-42,.cls-43,.cls-51,.cls-72{
        fill:none 
      }
      .cls-2,.cls-6{
        fill:#fff 
      }
      .cls-15,.cls-2,.cls-39,.cls-41,.cls-42,.cls-43,.cls-48,.cls-49,.cls-51,.cls-72 {
        stroke:#000;
        stroke-miterlimit:10
      }
      .cls-2,.cls-3,.cls-42,.cls-49,.cls-72 {
        stroke-width:2px
      }
      .cls-3 {
        stroke:#fff;
        stroke-miterlimit:10 
      }
      .cls-3,.cls-72{
        stroke-linecap:round 
      }
      .cls-15,.cls-48{
        fill:url(#drkCross) 
      }
      .cls-24{
        fill:url(#ltLine) 
      }
      .cls-25 {
        fill:url(#line) 
      }
      .cls-41,.cls-48{
        stroke-width:4px 
      }
      .cls-43{
        stroke-width:5px 
      }
      .cls-49{
        fill:url(#wave) 
      }
      .cls-13,.cls-39 {
        fill:url(#dots) 
      }
       @media (max-aspect-ratio:3/4){
          #sign-and-creep{
              transform:scale(.7) translate(10%,5%)
          }
          #prodigal{
              transform:scale(.8) translate(25%,20%)
          }
          #skyline{
              transform:scale(.6) translateX(40%)
          }
      }
    </style>
    <pattern
       patternUnits="userSpaceOnUse"
       patternTransform="rotate(-45 233 -96.4) scale(.6)"
       height="200.5"
       width="200.3"
       id="ltCross">
      <path
         id="path4"
         d="M117 200h-1.4S115 87.6 115 50.2c0-12.6.6-50.2.6-50.2h1.4zm12.3 0v-43a1 1 0 0 1 1-1 1 1 0 0 1 1 1v43zm1-46a1 1 0 0 1-1-1l-1-70.2 1-82.8h2l-1 82.8 1 70.2a1 1 0 0 1-1 1zM145.7 0h1.6v200h-1.6zm32.6 0h2v200h-2zm-13.8 200.5h-1.8V26c0-1.1.4-2 1-2 .4 0 .8.9.8 2zM163.6 21c-.5 0-1-1-1-2.1V0h2v18.9c0 1.2-.5 2.1-1 2.1zm28.7-21h2v200h-2zM6.3 0h2v200h-2zm14 109a1 1 0 0 1-1-1V0h2v108a1 1 0 0 1-1 1zm-1 91v-79a1 1 0 0 1 1-1 1 1 0 0 1 1 1v79zm16.7 0h-1.6s.4-37.2.4-63.6L34.4 0H36zm17.6 0h-2.4V77.5a1.4 1.4 0 0 1 1.2-1.5 1.4 1.4 0 0 1 1.2 1.6zM52.4 70a1.4 1.4 0 0 1-1.2-1.5V0h2.4v68.5a1.4 1.4 0 0 1-1.2 1.5zm18 130h-1s.5-115.2.5-153.6c0-11.6-.5-46.4-.5-46.4h1l.5 45.9c.1 38.5-.5 154.1-.5 154.1zm30.4 0h-1V0h1v200zm-11.5 0H87s-.8-115.8-.8-154.4L87 0h2.3s-1.5 58.6-1.5 78.2c0 30.4 1.5 121.8 1.5 121.8z" />
      <path
         id="path6"
         d="M72 86.8H50.4L.3 86.5v-.7H72s.9.2.9.5c0 .4-.9.5-.9.5zm12.5 0c47.8 0 115.8-.3 115.8-.3V86H84.5s-.7 0-.7.4.7.5.7.5zm115.8-18.6h-43a1 1 0 0 1-1-.9 1 1 0 0 1 1-.8h43zm0-16.6v2h-104a1 1 0 0 1-1-1 1 1 0 0 1 1-1zM154 67.3a1 1 0 0 1-1 .9l-70.2.8L0 68.2v-1.7l82.8.8 70.2-.8a1 1 0 0 1 1 .8zM90 52.6a1 1 0 0 1-1 1H0v-2h89a1 1 0 0 1 1 1zM75.2 23.4H.3v-1h75l-.1 1zm6.6-1h118.5v1H81.9l-.1-1zM200.3 36v1.9H25.8c-1.1 0-2-.5-2-1s1-.9 2-.9zM21 36.9c0 .5-1 1-2.1 1H0V36h18.9c1.2 0 2.1.4 2.1.9zM.3 6.3h200v2H.3zm0 186.5h200v1H.3zM109 180.3a1 1 0 0 1-1 1H0v-2h108a1 1 0 0 1 1 1zm58-.3a1 1 0 0 1-1 1h-44.8a1 1 0 0 1-1-1 1 1 0 0 1 1-1H166a1 1 0 0 1 1 1zm20.3-1h13v2h-13a1 1 0 0 1-1-1 1 1 0 0 1 1-1zM117 165.3a.8.8 0 0 1-.8.8c-2.8-.1-11.7-.4-18.3-.4l-40 .4a.8.8 0 0 1-.9-.8.8.8 0 0 1 .8-.8h58.4a.8.8 0 0 1 .8.8zm83.3-.8v1.6s-11.2-.4-19.1-.4l-40.1.4a.8.8 0 0 1-.8-.8.8.8 0 0 1 .8-.8zm-150 .8a.8.8 0 0 1-.9.8c-2.4-.1-9.6-.4-15-.4l-34.2.4v-1.6h49.2a.8.8 0 0 1 .9.8zm150-18.2v2H77.8c-.9 0-1.6-.5-1.6-1 0-.6.7-1 1.6-1zm-130.3 1c0 .6-.7 1-1.5 1H0v-2h68.5c.8 0 1.5.5 1.5 1zm130.3-18.6v1.7s-115.3-.8-153.7-.8c-11.6 0-46.4.8-46.4.8v-1.7s34.5-.8 46-.9c38.5-.2 154 1 154 1zm0-29.7v1H.3v-1h200zm-49.3 14c-36.4.2-83.2.5-105.1.5-11.4 0-45.6-.8-45.6-.8v-2.3s58.6 1.5 78.2 1.5c15.2 0 45.6-.3 72.3-.7zm9.4-1.9l39.8-.7v2.3l-39.4.2z" />
    </pattern>
    <pattern
       patternUnits="userSpaceOnUse"
       patternTransform="matrix(.79 0 0 .51 75.3 266.3)"
       height="200.5"
       width="200.5"
       id="drkCross">
      <path
         id="path9"
         d="M114 200h-2l-1-150 1-50h2zm9 0h-3l-1-107 1-93h3l-1 93 1 107zm7 0v-43a1 1 0 0 1 1-1 1 1 0 0 1 1 1v43zm1-46a1 1 0 0 1-1-1l-1-70 1-83h2l-1 83 1 70a1 1 0 0 1-1 1zm6-154h3v200h-3zm10 0h4v200h-4zm13 200h-3l1-52-2-115 1-33h3l-1 33 2 116-1 51zM178 0h2v200h-2zm-7 201h-4V26a2 2 0 0 1 2-2 2 2 0 0 1 2 2zm-2-180a2 2 0 0 1-2-2V0h4v19a2 2 0 0 1-2 2zm17-21h4v200h-4zm9 0h2v200h-2zM2 0h2v200H2zm5 0h4v200H7zm26 0h2v200h-2zM18 109a1 1 0 0 1-1-1V0h2v108a1 1 0 0 1-1 1zm-1 91v-79a1 1 0 0 1 1-1 1 1 0 0 1 1 1v79zm11 0h-3L24 67l1-67h3l1 160-1 40zm17 0h-4l1-64L41 0h4zm10 0h-3V78a2 2 0 0 1 2-2 2 2 0 0 1 1 2zM54 70a2 2 0 0 1-2-1V0h3v69a2 2 0 0 1-1 1zm10 130h-2l1-154-1-46h2l1 46-1 154zM69 0h3v200h-3zm11 0h2v200h-2zm19 200h-2V0h2l1 102-1 98zm6 0h-1V0h1v200zm-14 0h-3L87 46l1-46h3l-2 78 2 122z" />
      <path
         id="path11"
         d="M1 115v-2l149-1 50 1v2zm0 10v-3l107-1 93 1v3l-93-1-107 1zm0 6h41a1 1 0 0 1 1 1 1 1 0 0 1-1 1H1zm46 1a1 1 0 0 1 1-1l70-1 83 1v2l-83-1-70 1a1 1 0 0 1-1-1zm-46 6h200v3H1zm0 14v-4a15262 15262 0 0 0 200 0v4zm0 9v-3a3435 3435 0 0 0 167-1l32 1v3l-32-1-117 2-50-1zm0 18h200v2H1zm-1-7v-4l69 1 104-1a2 2 0 0 1 2 2 2 2 0 0 1-2 2l-97-1-76 1zm181-2a2 2 0 0 1 2-2h18v4h-18a2 2 0 0 1-2-2zM1 187h200v3H1zm0 9h200v2H1zM1 3h200v2H1zm0 6h200v3H1zm0 25h200v2H1zm91-15a1 1 0 0 1 1-1h108v2H93a1 1 0 0 1-1-1zM1 18h85a1 1 0 0 1 1 1 1 1 0 0 1-1 1H1zm0 11v-3l133-1 66 1v3l-94-1-65 2-40-1zm0 17v-4l63 1 137-1v4zm0 10v-3h121a2 2 0 0 1 2 2 2 2 0 0 1-2 1zm124-1a2 2 0 0 1 1-2h75v3h-75a2 2 0 0 1-1-1zM1 65v-2a30360 30360 0 0 0 200 0v2l-46 1L1 65zm0 5h200v3H1zm0 11h200v2H1zm0 19v-2h200v2l-103 1-97-1zm0 6v-1h200v1H1zm0-13v-3l154-1 45 1v2z" />
    </pattern>
    <linearGradient
       gradientUnits="userSpaceOnUse"
       y2="3.4"
       x2="39.8"
       y1="35.2"
       x1="1.9"
       id="grad1">
      <stop
         id="stop14"
         stop-opacity=".6"
         stop-color="#4d4d4d"
         offset="0" />
      <stop
         id="stop16"
         stop-opacity=".7"
         stop-color="#373737"
         offset=".2" />
      <stop
         id="stop18"
         stop-opacity=".9"
         stop-color="#0f0f0f"
         offset=".7" />
      <stop
         id="stop20"
         offset="1" />
    </linearGradient>
    <linearGradient
       gradientUnits="userSpaceOnUse"
       y2="5.2"
       x2="24.6"
       y1="5.2"
       id="grad2">
      <stop
         id="stop23"
         offset="0" />
      <stop
         id="stop25"
         stop-opacity=".9"
         stop-color="#0f0f0f"
         offset=".3" />
      <stop
         id="stop27"
         stop-opacity=".7"
         stop-color="#373737"
         offset=".8" />
      <stop
         id="stop29"
         stop-opacity=".6"
         stop-color="#4d4d4d"
         offset="1" />
    </linearGradient>
    <radialGradient
       gradientUnits="userSpaceOnUse"
       gradientTransform="matrix(1 0 0 .56 0 545.6)"
       r="1441.2"
       cy="1416.4"
       cx="1363.5"
       id="grad3">
      <stop
         id="stop32"
         stop-opacity=".3"
         offset="0" />
      <stop
         id="stop34"
         stop-opacity="0"
         offset="1" />
    </radialGradient>
    <radialGradient
       xlink:href="#grad3"
       gradientTransform="matrix(1.05,0,0,0.22,-4.6,189.2)"
       r="1367.2"
       cy="518.4"
       cx="1383.4"
       id="grad4" />
    <pattern
       patternUnits="userSpaceOnUse"
       patternTransform="matrix(2.36 0 0 2.07 560.9 822.8)"
       height="16"
       width="16"
       id="dots">
      <circle
         id="circle38"
         r=".5"
         cy="7.1"
         cx="15.4" />
      <circle
         id="circle40"
         r=".5"
         cy="9.8"
         cx="5.7" />
      <circle
         id="circle42"
         r=".1"
         cy="1.9"
         cx="1.5" />
      <circle
         id="circle44"
         r=".4"
         cy="7.9"
         cx="6.4" />
      <circle
         id="circle46"
         r=".4"
         cy="5.8"
         cx="14" />
      <circle
         id="circle48"
         r=".4"
         cy=".4"
         cx="5.2" />
      <path
         id="path50"
         d="M1 1C1 .6.7.3.3.3a.6.6 0 0 0-.3.1v1.1l.3.1c.4 0 .7-.3.7-.6zm-.4 9.8c0-.4-.3-.6-.6-.7v1.4a.7.7 0 0 0 .6-.7z" />
      <circle
         id="circle52"
         r=".8"
         cy="13.3"
         cx="7" />
      <circle
         id="circle54"
         r=".5"
         cy="11.8"
         cx="3.1" />
      <circle
         id="circle56"
         r=".8"
         cy="3.7"
         cx="6.2" />
      <circle
         id="circle58"
         r=".5"
         cy="13.3"
         cx="2.1" />
      <path
         id="path60"
         d="M.6 4.2a.7.7 0 0 0 .6-.7.7.7 0 0 0-.6-.6c-.3 0-.5.1-.6.4v.5c.1.3.3.4.6.4z" />
      <circle
         id="circle62"
         r=".3"
         cy="7.1"
         cx="8.8" />
      <circle
         id="circle64"
         r=".5"
         cy="1.2"
         cx="14.1" />
      <circle
         id="circle66"
         r=".5"
         cy="1.5"
         cx="6.2" />
      <path
         id="path68"
         d="M.7 12.6a.5.5 0 0 0-.7-.4v.8h.2c.3 0 .5-.1.5-.4zM15.7 1c0 .2 0 .5.3.6V.4a.6.6 0 0 0-.3.6zm-.6 9.8c0 .4.3.7.7.7a.8.8 0 0 0 .2 0V10a.8.8 0 0 0-.2 0c-.4 0-.7.3-.7.7zm.6 1.8c0 .2.1.3.3.4v-.9a.5.5 0 0 0-.3.5zM1.7.6A.4.4 0 0 0 2 .2.3.3 0 0 0 2 0h-.7a.5.5 0 0 0 0 .2c0 .2.2.3.4.4z" />
      <circle
         id="circle70"
         r=".2"
         cy=".7"
         cx="9" />
      <circle
         id="circle72"
         r=".2"
         cy="15.7"
         cx="12" />
      <circle
         id="circle74"
         r=".2"
         cy="13"
         cx="9" />
      <circle
         id="circle76"
         r=".2"
         cy="13"
         cx="12" />
      <circle
         id="circle78"
         r=".2"
         cy="15"
         cx="6" />
      <circle
         id="circle80"
         r=".2"
         cy="12"
         cx="4" />
      <circle
         id="circle82"
         r=".2"
         cy="11"
         cx="7" />
      <circle
         id="circle84"
         r=".2"
         cy="7.5"
         cx="4.9" />
      <circle
         id="circle86"
         r=".2"
         cy="10.5"
         cx="8" />
      <circle
         id="circle88"
         r=".2"
         cy="15"
         cx="2" />
      <circle
         id="circle90"
         r=".2"
         cy="11.5"
         cx="9.8" />
      <circle
         id="circle92"
         r=".3"
         cy="9.5"
         cx="11.8" />
      <circle
         id="circle94"
         r=".2"
         cy="12.5"
         cx="13.8" />
      <path
         id="path96"
         d="M7.4.7c.3 0 .6-.3.6-.6V0H6.7c0 .4.3.7.7.7z" />
      <circle
         id="circle98"
         r=".3"
         cy="4"
         cx="13.7" />
      <circle
         id="circle100"
         r=".2"
         cy="3.4"
         cx="11.8" />
      <circle
         id="circle102"
         r=".1"
         cy="4.8"
         cx="10.7" />
      <circle
         id="circle104"
         r=".4"
         cy="4.5"
         cx="12.4" />
      <circle
         id="circle106"
         r=".4"
         cy="5.7"
         cx="10.9" />
      <ellipse
         id="ellipse108"
         ry=".6"
         rx=".7"
         cy="7.5"
         cx="13.3" />
      <ellipse
         id="ellipse110"
         ry=".2"
         rx=".2"
         cy="3.9"
         cx="10.2" />
      <circle
         id="circle112"
         r=".2"
         cy="5.5"
         cx="11.9" />
      <ellipse
         id="ellipse114"
         ry=".4"
         rx=".4"
         cy="15.4"
         cx="14.3" />
      <ellipse
         id="ellipse116"
         ry=".6"
         rx=".6"
         cy="15.4"
         cx=".7" />
      <circle
         id="circle118"
         r=".6"
         cy="14.1"
         cx="13.1" />
      <ellipse
         id="ellipse120"
         ry=".7"
         rx=".7"
         cy="5.5"
         cx="9.1" />
      <path
         id="path122"
         d="M1.7 15.8a.4.4 0 0 0-.4.2H2a.4.4 0 0 0-.3-.2zm5.7-.4a.7.7 0 0 0-.7.6H8a.6.6 0 0 0-.6-.6z" />
      <ellipse
         id="ellipse124"
         ry=".3"
         rx=".3"
         cy="14.2"
         cx=".6" />
      <circle
         id="circle126"
         r=".2"
         cy="9.5"
         cx="14.8" />
      <circle
         id="circle128"
         r=".2"
         cy="1.7"
         cx="3" />
      <circle
         id="circle130"
         r=".2"
         cy="10.7"
         cx="1" />
      <circle
         id="circle132"
         r=".2"
         cy="11.7"
         cx="2" />
      <circle
         id="circle134"
         r=".2"
         cy="10.5"
         cx="3.8" />
      <circle
         id="circle136"
         r=".2"
         cy="9.5"
         cx=".8" />
      <circle
         id="circle138"
         r=".2"
         cy=".5"
         cx="12.8" />
      <circle
         id="circle140"
         r=".2"
         cy="7.6"
         cx="1.5" />
      <circle
         id="circle142"
         r=".3"
         cy=".7"
         cx="4.7" />
      <circle
         id="circle144"
         r=".6"
         cy="5.5"
         cx="14.6" />
      <circle
         id="circle146"
         r=".4"
         cy="10.3"
         cx="10" />
      <circle
         id="circle148"
         r=".2"
         cy=".2"
         cx="14.3" />
      <circle
         id="circle150"
         r=".2"
         cy="6.8"
         cx="3.3" />
      <circle
         id="circle152"
         r=".2"
         cy="6.8"
         cx="4.5" />
      <circle
         id="circle154"
         r=".6"
         cy="7.3"
         cx="7" />
      <circle
         id="circle156"
         r=".4"
         cy="5.4"
         cx="6.1" />
      <circle
         id="circle158"
         r=".4"
         cy="2.3"
         cx="1.9" />
      <circle
         id="circle160"
         r=".5"
         cy=".6"
         cx="3.6" />
      <circle
         id="circle162"
         r=".4"
         cy="14.5"
         cx="9.6" />
      <circle
         id="circle164"
         r=".4"
         cy="9.9"
         cx="6.3" />
      <circle
         id="circle166"
         r=".4"
         cy="4.3"
         cx="7.9" />
      <circle
         id="circle168"
         r=".4"
         cy="1.9"
         cx="10.9" />
      <circle
         id="circle170"
         r=".6"
         cy="8.5"
         cx="4.1" />
      <circle
         id="circle172"
         r=".4"
         cy="7.7"
         cx=".5" />
      <circle
         id="circle174"
         r=".4"
         cy=".5"
         cx="15.2" />
      <circle
         id="circle176"
         r=".4"
         cy="8.5"
         cx="15.2" />
      <circle
         id="circle178"
         r=".4"
         cy="8.5"
         cx="2.2" />
      <circle
         id="circle180"
         r=".4"
         cy="6.5"
         cx="2.2" />
      <circle
         id="circle182"
         r=".1"
         cy="6.9"
         cx=".5" />
      <circle
         id="circle184"
         r=".3"
         cy="14.9"
         cx="8.3" />
      <circle
         id="circle186"
         r=".3"
         cy="12.9"
         cx="14.3" />
      <circle
         id="circle188"
         r=".3"
         cy="14.9"
         cx="11.3" />
      <circle
         id="circle190"
         r=".3"
         cy="13.9"
         cx="3.3" />
      <circle
         id="circle192"
         r=".3"
         cy="3.9"
         cx="3.3" />
      <circle
         id="circle194"
         r=".5"
         cy="11.1"
         cx="11.4" />
      <circle
         id="circle196"
         r=".5"
         cy="9.1"
         cx="8.4" />
      <circle
         id="circle198"
         r=".4"
         cy="11.8"
         cx="12.2" />
      <circle
         id="circle200"
         r=".4"
         cy="14.8"
         cx="15.2" />
      <circle
         id="circle202"
         r=".3"
         cy="11.8"
         cx="8.2" />
      <circle
         id="circle204"
         r=".4"
         cy="5.5"
         cx=".5" />
      <circle
         id="circle206"
         r=".5"
         cy="13.1"
         cx="10.4" />
      <circle
         id="circle208"
         r=".5"
         cy="3.1"
         cx="9.4" />
      <circle
         id="circle210"
         r=".3"
         cy="2.1"
         cx="8" />
      <circle
         id="circle212"
         r=".5"
         cy="12.6"
         cx="5.3" />
      <circle
         id="circle214"
         r=".7"
         cy="9.8"
         cx="13.5" />
      <circle
         id="circle216"
         r=".4"
         cy="11.8"
         cx="5.6" />
      <circle
         id="circle218"
         r=".4"
         cy="5.8"
         cx="4" />
      <circle
         id="circle220"
         r=".7"
         cy="5.1"
         cx="2.2" />
      <circle
         id="circle222"
         r=".4"
         cy="9.8"
         cx="2.7" />
      <circle
         id="circle224"
         r=".3"
         cy="8.6"
         cx="10.8" />
      <circle
         id="circle226"
         r=".5"
         cy="12"
         cx="14.1" />
      <circle
         id="circle228"
         r=".6"
         cy="14.9"
         cx="3.9" />
      <circle
         id="circle230"
         r=".6"
         cy="2.9"
         cx="4" />
      <circle
         id="circle232"
         r=".5"
         cy="7.8"
         cx="10.7" />
      <circle
         id="circle234"
         r=".7"
         cy="3.1"
         cx="15" />
      <circle
         id="circle236"
         r=".4"
         cy=".5"
         cx="10.7" />
      <circle
         id="circle238"
         r=".4"
         cy="2.5"
         cx="12.7" />
    </pattern>
    <pattern
       patternUnits="userSpaceOnUse"
       patternTransform="matrix(.99 0 0 .97 110.5 60.8)"
       height="187.5"
       width="200"
       id="ltLine">
      <path
         id="path241"
         d="M71 80.6H49.5L0 80.2v-.6h71s.8.1.8.4c0 .4-.9.6-.9.6zm13.2 0l115.8-.3v-.7H84.3s-.7 0-.8.4.7.6.7.6zM200 62h-43a1 1 0 0 1-1-1 1 1 0 0 1 1-.8h43zm0-16.6v2H96a1 1 0 0 1-1-1 1 1 0 0 1 1-1zM153.8 61a1 1 0 0 1-1 1l-70 .8L0 61.9v-1.6l82.7.8 70.1-.9a1 1 0 0 1 1 .9zM89.9 46.4a1 1 0 0 1-1 1H0v-2h88.8a1 1 0 0 1 1 1zM75.1 17.1H0v-1h75.2l-.1 1zm6.4-1H200v1H81.7l-.2-1zM200 29.7v1.9H25.6c-1.2 0-2-.4-2-1 0-.5.9-.9 2-.9zm-179 .9c0 .5-1 1-2 1H0v-1.9h18.9c1.1 0 2.1.4 2.1 1zM0 186.5h200v1H0zM108.9 174a1 1 0 0 1-1 1H0v-2h107.9a1 1 0 0 1 1 1zm57.9-.3a1 1 0 0 1-1 1H121a1 1 0 0 1-1-1 1 1 0 0 1 1-1h44.8a1 1 0 0 1 1 1zm20.2-.9h13v2h-13a1 1 0 0 1-1-1 1 1 0 0 1 1-1zM116.8 159a.8.8 0 0 1-.9.8c-2.7 0-11.6-.4-18.2-.4l-40.1.4a.8.8 0 0 1-.8-.8.8.8 0 0 1 .8-.8h58.3a.8.8 0 0 1 .8.8zm83.2-.8v1.7s-11.2-.5-19-.5l-40.2.4a.8.8 0 0 1-.8-.8.8.8 0 0 1 .8-.8zm-149.8.8a.8.8 0 0 1-.9.8c-2.4 0-9.6-.4-15-.4l-34.3.4v-1.6h49.4a.8.8 0 0 1 .8.8zM200 140.8v2H77.5c-.8 0-1.5-.4-1.5-1 0-.5.7-1 1.6-1zm-130 1c0 .6-.8 1-1.6 1H0v-2h68.4c.8 0 1.5.5 1.5 1zm130-18.5v1.7s-115.2-.9-153.6-.9c-11.6 0-46.4.9-46.4.9v-1.7l45.9-1c38.5-.2 154.1 1 154.1 1zm0-29.8v1H0v-1h200zm-49.2 14c-36.4.3-83.3.5-105.2.5-11.4 0-45.6-.8-45.6-.8V105s58.7 1.5 78.2 1.5c15.3 0 45.7-.4 72.4-.8zm9.4-1.9l39.8-.6v2.3l-39.5.2z" />
    </pattern>
    <pattern
       patternUnits="userSpaceOnUse"
       patternTransform="translate(0 63)"
       height="195"
       width="200"
       id="line">
      <path
         id="path244"
         d="M0 112v-2l150-1 50 1v2zm0 10v-3l107-1 93 1v3l-93-1-107 1zm0 6h41a1 1 0 0 1 1 1 1 1 0 0 1-1 1H0zm46 1a1 1 0 0 1 1-1l70-1 83 1v2l-83-1-70 1a1 1 0 0 1-1-1zm-46 7h200v3H0zm0 13v-4a15262 15262 0 0 0 200 0v4zm0 10v-3a3435 3435 0 0 0 167-1l33 1v3l-33-1-116 1H0zm0 17h200v2H0zm0-7v-4l68 1 105-1a2 2 0 0 1 2 2 2 2 0 0 1-2 2l-97-1-76 1zm180-2a2 2 0 0 1 2-2h18v4h-18a2 2 0 0 1-2-2zM0 184h200v4H0zm0 9h200v2H0zM0 0h200v2H0zm0 5h200v4H0zm0 26h200v2H0zm91-15a1 1 0 0 1 1-1h108v2H92a1 1 0 0 1-1-1zM0 15h85a1 1 0 0 1 1 1 1 1 0 0 1-1 1H0zm0 12v-3l133-1 67 1v3l-95-2-65 3-40-1zm0 16v-4l64 1 136-1v4zm0 11v-3h122a2 2 0 0 1 1 1 2 2 0 0 1-1 2zm124-2a2 2 0 0 1 2-1h74v3h-74a2 2 0 0 1-2-2zM0 62v-2a30360 30360 0 0 0 200 0v2l-46 1L0 62zm0 6h200v3H0zm0 10h200v2H0zm0 19v-2h200v2L98 98 0 97zm0 7v-1h200v1H0zm0-14v-3l154-1 46 1v3z" />
    </pattern>
    <pattern
       patternUnits="userSpaceOnUse"
       patternTransform="translate(-24.4 2.7)"
       height="50"
       width="40"
       id="wave">
      <path
         id="path247"
         d="M0 0h40v50H0z"
         class="cls-1" />
      <path
         id="path249"
         d="M44.7 16.3C43.7 11.5 39.9 0 39.9 0h-1.4s4.2 10.9 5 16a41 41 0 0 1-.2 12.6A178 178 0 0 1 38.5 50h1.4s3.4-11.5 4.5-19.9c1-6.8.9-11 .3-13.8z"
         class="cls-1" />
      <path
         id="path251"
         d="M40.1 16.3C39.1 11.5 35.8 0 35.8 0h-3s5 11.3 5.7 16.5c.6 3.2.9 6.4 0 13.2C37.4 38 32.9 50 32.9 50h2.9a170.2 170.2 0 0 0 4-19.9c.9-6.8.9-11 .3-13.8z"
         class="cls-1" />
      <path
         id="path253"
         d="M34.7 16.3c-1-4.3-4-13.9-4.7-16V6a80.8 80.8 0 0 1 3 10.7c.5 3.3 1 5 .2 11.9A114.2 114.2 0 0 1 30 42.9v6.7A150.7 150.7 0 0 0 34.4 30c1-6.8.9-11 .3-13.8z"
         class="cls-1" />
      <path
         id="path255"
         d="M30 18.4v6.2a37.6 37.6 0 0 0 0-6.2z"
         class="cls-1" />
      <path
         id="path257"
         d="M43.5 16c-.8-5.1-5-16-5-16h-2.7S39 11.5 40 16.3c.5 2.8.5 7-.3 13.8a170.2 170.2 0 0 1-4 19.9h2.7s3.8-13.2 4.8-21.4c.8-6.8.6-9.3.2-12.6z" />
      <path
         id="path259"
         d="M48 16.8C47.2 11.6 42.9 0 42.9 0h-3s3.7 11.5 4.8 16.3c.6 2.8.6 7-.3 13.8C43.4 38.5 40 50 40 50h3s4.5-11.5 5.6-19.8a37.9 37.9 0 0 0-.5-13.4zm-9.5-.3C37.7 11.3 33 0 33 0h-3v.4c.7 2 3.7 11.6 4.7 16 .6 2.7.6 7-.3 13.7A150.7 150.7 0 0 1 30 49.6v.4h2.9s4.5-12 5.6-20.3c.9-6.8.6-10 0-13.2z" />
      <path
         id="path261"
         d="M33 16.8A80.8 80.8 0 0 0 30 6v12.4a37.6 37.6 0 0 1 0 6.1V43a114.2 114.2 0 0 0 3.2-14.3c1-6.8.4-8.6-.2-11.9z" />
      <path
         id="path263"
         d="M30 24.6v-6.2a16 16 0 0 0-.3-2c-1-5-4.8-16.4-4.8-16.4h-2s4.3 11.6 5.1 16.8a37.9 37.9 0 0 1 .5 13.4c-1 8.3-5.6 19.8-5.6 19.8h2s3.4-11.5 4.5-19.9l.6-5.6z"
         class="cls-1" />
      <path
         id="path265"
         d="M24.7 16.3C23.7 11.5 19.9 0 19.9 0h-1.4s4.2 10.9 5 16a41 41 0 0 1-.2 12.6c-1 8.3-4.8 21.4-4.8 21.4h1.4s3.4-11.5 4.5-19.9c1-6.8.9-11 .3-13.8z"
         class="cls-1" />
      <path
         id="path267"
         d="M20.1 16.3C19.1 11.5 15.8 0 15.8 0h-3s5 11.3 5.7 16.5a40 40 0 0 1 0 13.2C17.4 38 12.9 50 12.9 50h2.9a170.2 170.2 0 0 0 4-19.9c.9-6.8.9-11 .3-13.8z"
         class="cls-1" />
      <path
         id="path269"
         d="M14.7 16.3c-1-4.3-4-13.9-4.7-16V6a80.8 80.8 0 0 1 3 10.7c.5 3.3 1 5 .2 11.9A114.2 114.2 0 0 1 10 42.9v6.7A150.7 150.7 0 0 0 14.4 30c1-6.8.9-11 .3-13.8zM27.9 50H30v-7l-2.1 7z"
         class="cls-1" />
      <path
         id="path271"
         d="M10 18.4v6.2a37.6 37.6 0 0 0 0-6.2zM30 0h-2.1L30 6z"
         class="cls-1" />
      <path
         id="path273"
         d="M23.4 16c-.7-5.1-5-16-5-16h-2.6S19 11.5 20 16.3c.5 2.8.5 7-.3 13.8a170.2 170.2 0 0 1-4 19.9h2.7s3.8-13.2 4.8-21.4c.8-6.8.6-9.3.1-12.6z" />
      <path
         id="path275"
         d="M28 16.8C27.2 11.6 22.9 0 22.9 0h-3s3.7 11.5 4.8 16.3c.6 2.8.6 7-.3 13.8C23.4 38.5 20 50 20 50h3s4.5-11.5 5.6-19.8a37.9 37.9 0 0 0-.5-13.4zm-9.5-.3C17.7 11.3 13 0 13 0h-3v.4c.7 2 3.7 11.6 4.7 16 .6 2.7.6 7-.3 13.7A150.7 150.7 0 0 1 10 49.6v.4h2.9s4.5-12 5.6-20.3c.9-6.8.6-10 0-13.2z" />
      <path
         id="path277"
         d="M13 16.8A80.8 80.8 0 0 0 10 6v12.4a37.6 37.6 0 0 1 0 6.1V43a114.2 114.2 0 0 0 3.2-14.3c1-6.8.4-8.6-.2-11.9zm17 1.6V6l-2.1-6h-3s3.7 11.5 4.8 16.3a16 16 0 0 1 .3 2.1zm0 6.2l-.6 5.5C28.4 38.5 25 50 25 50h3l2.1-7z" />
      <g
         id="g289">
        <path
           id="path279"
           d="M10 24.6v-6.2a16 16 0 0 0-.3-2C8.7 11.4 4.9 0 4.9 0h-2S7.2 11.6 8 16.8a37.9 37.9 0 0 1 .5 13.4C7.5 38.5 2.9 50 2.9 50h2s3.4-11.5 4.5-19.9l.6-5.6z"
           class="cls-1" />
        <path
           id="path281"
           d="M4.7 16.3C3.7 11.5-.1 0-.1 0h-1.4s4.2 10.9 5 16a41 41 0 0 1-.2 12.6C2.3 36.9-1.5 50-1.5 50h1.4s3.4-11.5 4.5-19.9c1-6.8.9-11 .3-13.8z"
           class="cls-1" />
        <path
           id="path283"
           d="M.1 16.3C-.9 11.5-4.2 0-4.2 0h-3s5 11.3 5.7 16.5c.6 3.2.9 6.4 0 13.2C-2.6 38-7.1 50-7.1 50h2.9a170.2 170.2 0 0 0 4-19.9c.9-6.8.9-11 .3-13.8zM7.9 50H10v-7l-2.1 7zM10 0H7.9L10 6z"
           class="cls-1" />
        <path
           id="path285"
           d="M3.5 16c-.8-5.1-5-16-5-16h-2.8S-.8 11.5.2 16.3c.6 2.8.6 7-.2 13.8A170.2 170.2 0 0 1-4.2 50h2.7s3.8-13.1 4.8-21.4c.8-6.8.6-9.3.2-12.6z" />
        <path
           id="path287"
           d="M8 16.8C7.2 11.6 2.9 0 2.9 0h-3s3.7 11.5 4.8 16.3c.6 2.8.6 7-.3 13.8C3.4 38.5 0 50 0 50h3s4.5-11.5 5.6-19.8A37.9 37.9 0 0 0 8 16.8zm2 1.6V6L7.9 0h-3s3.7 11.5 4.8 16.3a16 16 0 0 1 .3 2.1zm0 6.2L9.4 30C8.4 38.5 5 50 5 50h3l2.1-7z" />
      </g>
    </pattern>
    <symbol
       viewBox="0 0 43.9 228"
       id="Smoke_Stack">
      <path
         id="Smoke_Stack-3"
         d="M.5 155h42.9v72.5H.5z"
         stroke-miterlimit="10"
         stroke="#000"
         fill="url(#drkCross)" />
      <path
         id="path293"
         fill="url(#dots)"
         d="M21 150.7A12.5 12.5 0 0 0 33 135c-3-11-5.8-25.8-3.9-38.3 4.7-30.2 14.2-29.4 11.1-47.2C36.5 28 11 3.8 2 12.8c-5.4 5.4 13.8 27.3 9.1 47.9-3.1 13.8-9 15.6-9 27 .1 12.8 7.8 14.2 9 27a53.9 53.9 0 0 1-2.1 20 12.5 12.5 0 0 0 12 16z" />
      <path
         id="path295"
         d="M20.3 145.3a8.7 8.7 0 0 1-8.7-10.2c2.2-12.3 5-33.6 3.6-50.7-2.8-34.1-12.8-30.8-11-50.9C6.6 9.3 20.8-7 26.3 3.1c3.2 6-2.9 17.4 0 40.6 1.8 15.6 5.4 17.7 5.4 30.5 0 14.4-4.7 16-5.5 30.5a117.6 117.6 0 0 0 2.7 30 8.7 8.7 0 0 1-8.5 10.6z"
         class="cls-13" />
    </symbol>
    <symbol
       viewBox="0 0 102.8 183.6"
       id="blade">
      <path
         id="path298"
         d="M81.3 108.7C98 140 95 183.6 95 183.6h7.8s-.3-46-12-73.5C62.1 42.3 0 0 0 0s38.8 23.4 81.3 108.7z" />
    </symbol>
    <symbol
       viewBox="0 0 85.7 127.7"
       id="Creep_Leg">
      <path
         id="path301"
         stroke-miterlimit="10"
         stroke="#000"
         fill="url(#ltCross)"
         d="M85.2 2.1c-.6 15-2 30.7-3.6 45.4-2.1 18.6-9.4 26.2-11.4 38.1-1.8 11 5 21.2 1.6 27-2 3.7-6.7 6.8-12.7 9.2-14.3 5.7-32.8 5.8-46.2 5.1-7.3-.4-12.5-2-12.4-6.2a25 25 0 0 1 9.5-19c9.8-7.5 23.4-8.2 25.1-13.5 2-6 .2-43.7 3.8-69.6L41.4 0" />
    </symbol>
    <symbol
       viewBox="0 0 160.3 66.3"
       id="Hat_Ring">
      <path
         id="path304"
         d="M24.4 66.2c-6.7.2-13.8.3-17.5-1.5a14 14 0 0 1-6.5-8.2c-4.8-14.7 36.3-34 63.8-43.3 38-13 89.6-18.6 95.1-6.6a11.2 11.2 0 0 1-.2 9.9c-5.5 11.4-31.9 24-68.8 35.4-30.4 9.3-51.7 14-65.9 14.3zM131.8 1.8a242 242 0 0 0-67 11.9C39 22.3-.2 41.8 4 54.9 5 57.6 7 60.6 9.8 62c10.9 5.3 35.5 2.6 79.9-10.8 36.5-11 59.4-25 64.7-35.8a9.2 9.2 0 0 0 .2-8.2c-1.8-4-10.5-5.6-22.8-5.4z" />
    </symbol>
    <symbol
       viewBox="0 0 41.8 17.7"
       id="Shoe_highlight">
      <path
         id="path307"
         fill="#fff"
         stroke-miterlimit="10"
         stroke="#fff"
         stroke-width=".3"
         d="M.2.9S2.1 5.7 5.4 8a20.4 20.4 0 0 0 8.5 3.3 23.2 23.2 0 0 0 15.2-2.6c5.1-2.7 12.6-3.1 12.6-3.1s-6.6.5-11.3 3.8c-4.9 3.5-7.7 7.2-13.7 8-3.4.5-11-1.8-13-3.6C1 11.7.7 7.8.6 5.3L.2.9z" />
    </symbol>
    <symbol
       viewBox="0 0 37.9 33"
       id="shadow-right">
      <path
         id="path310"
         fill="url(#grad1)"
         d="M37 0s-3 12-10 18S0 33 0 33s21.7-8.6 28-14C42 7 37 0 37 0z" />
    </symbol>
    <symbol
       viewBox="0 0 24.6 10.4"
       id="shadow-left">
      <path
         id="path313"
         fill="url(#grad2)"
         d="M.6 0s2 7 6 8c6 1.5 18-1 18-1s-12 4.8-19 3c-8-2-5-10-5-10z" />
    </symbol>
    <symbol
       viewBox="0 0 152.9 144.4"
       id="Boot">
      <path
         d="M25.6 2.3a6.9 6.9 0 0 0-4 5c-2.5 10-1.5 33-5 44-4.7 15.2-18.7 42.5-15 58 .8 3.3 2 9.5 6 14.6s11 9.7 23 8.4c54-6 45 4 71 6 12.8 1 42 0 45-2 4.3-2.9 4.2-6 5-10 1-5-.5-15.7-7-20-9-6-22.5-5.5-30-8-12.6-4.2-12.2-9-21-19-7.8-8.9-8-16.2-8-28 0-9 3.5-33 5-39 1-4-3-7-3-7s2 6.2-.2 7.6c-5.8 3.4-27 3.1-36.8 2.4-8.5-.7-27-2-27-8a7.7 7.7 0 0 1 2-5z"
         class="cls-2"
         id="boot-top" />
      <path
         d="M11.3 67.4l-2.2 4s-9.9 28-7.5 37.9c.8 3.3 2 9.5 6 14.5s11 9.8 23 8.5c54-6 45 4 71 6 12.8 1 42 0 45-2 4.3-2.9 4.2-6 5-10 1-5-.5-15.7-7-20-9-6-22.5-5.5-30-8a25.4 25.4 0 0 1-16-15s-6.2 5.7-11 4C79.6 84.3 54 73 42 76.6c-13.4 3.9-18.3 5-25.5 2-7.7-3.2-5-11.2-5-11.2z"
         id="boot-main" />
      <path
         id="path318"
         d="M7.6 124.3l42 4v12.1a3 3 0 0 1-2.9 3c-5.8 0-12.3.3-18.1-.3-4.1-.5-12.3-1.8-16.6-3.2-3.6-1.2-6.8-3.2-6.2-7z" />
      <path
         id="path320"
         fill="none"
         stroke-width="2"
         stroke-miterlimit="10"
         stroke="#fff"
         stroke-linecap="round"
         stroke-dasharray="2.94 3.93"
         d="M117.2 98.3c5.4 7.5 1.1 36.2-3.7 44.4" />
      <path
         id="path322"
         d="M112.2 96c6.3 5.3 3.5 32.3-2.2 42.6"
         class="cls-3" />
      <use
         id="use324"
         xlink:href="#Shoe_highlight"
         transform="translate(6.6 79.3)"
         height="17.7"
         width="41.8" />
      <use
         id="use326"
         xlink:href="#Shoe_highlight"
         transform="translate(4 84.3)"
         height="17.7"
         width="41.8" />
      <path
         id="path328"
         d="M62 133.2a76 76 0 0 1 21.4 4.5 86.5 86.5 0 0 0 16.2 3.5c17.7 1.7 46.1.3 49-2.9l.3 1.6a1.6 1.6 0 0 1-1.3 1.7 155.8 155.8 0 0 1-19.9 2.5 247.5 247.5 0 0 1-30.2-.6 89.3 89.3 0 0 1-16.6-4.7c-8.2-4-18.9-5.6-18.9-5.6z" />
      <use
         id="use330"
         xlink:href="#Shoe_highlight"
         transform="translate(2.9 91.6)"
         height="17.7"
         width="41.8" />
      <use
         id="use332"
         xlink:href="#Shoe_highlight"
         transform="matrix(.87 0 0 .87 1.9 99.6)"
         height="17.7"
         width="41.8" />
      <use
         id="use334"
         xlink:href="#Shoe_highlight"
         transform="rotate(-9.7 694.5 47) scale(.7)"
         height="17.7"
         width="41.8" />
      <use
         id="use336"
         xlink:href="#Shoe_highlight"
         transform="matrix(.43 -.18 .18 .43 5.6 118.9)"
         height="17.7"
         width="41.8" />
      <use
         id="use338"
         xlink:href="#shadow-right"
         transform="matrix(.49 .27 -.29 .52 71.6 3.5)"
         height="33"
         width="37.9" />
      <use
         id="use340"
         xlink:href="#shadow-right"
         transform="matrix(.49 .27 -.29 .52 69.6 18.5)"
         height="33"
         width="37.9" />
      <use
         id="use342"
         xlink:href="#shadow-right"
         transform="matrix(.35 .19 -.23 .42 77 13.4)"
         height="33"
         width="37.9" />
      <use
         id="use344"
         xlink:href="#shadow-right"
         transform="matrix(.35 .19 -.23 .42 77 10.4)"
         height="33"
         width="37.9" />
      <use
         id="use346"
         xlink:href="#shadow-right"
         transform="matrix(.37 .2 -.25 .46 75 16.9)"
         height="33"
         width="37.9" />
      <use
         id="use348"
         xlink:href="#shadow-right"
         transform="matrix(.49 .27 -.29 .52 68.6 22.5)"
         height="33"
         width="37.9" />
      <use
         id="use350"
         xlink:href="#shadow-right"
         transform="matrix(.49 .27 -.29 .52 68.6 33.5)"
         height="33"
         width="37.9" />
      <use
         id="use352"
         xlink:href="#shadow-right"
         transform="matrix(.35 .19 -.23 .42 74 29.4)"
         height="33"
         width="37.9" />
      <use
         id="use354"
         xlink:href="#shadow-right"
         transform="matrix(.37 .2 -.25 .46 72 32.9)"
         height="33"
         width="37.9" />
      <use
         id="use356"
         xlink:href="#shadow-right"
         transform="matrix(.49 .27 -.29 .52 68.6 37.5)"
         height="33"
         width="37.9" />
      <use
         id="use358"
         xlink:href="#shadow-right"
         transform="matrix(.49 .27 -.29 .52 68.6 48.5)"
         height="33"
         width="37.9" />
      <use
         id="use360"
         xlink:href="#shadow-right"
         transform="matrix(.49 .27 -.29 .52 68.6 53.5)"
         height="33"
         width="37.9" />
      <use
         id="use362"
         xlink:href="#shadow-right"
         transform="matrix(.33 .09 -.1 .36 74.5 63.6)"
         height="33"
         width="37.9" />
      <use
         id="use364"
         xlink:href="#shadow-right"
         transform="matrix(.33 .05 -.05 .31 76.3 67.4)"
         height="33"
         width="37.9" />
      <use
         id="use366"
         xlink:href="#shadow-right"
         transform="matrix(.23 .04 -.04 .24 80.6 70.7)"
         height="33"
         width="37.9" />
      <use
         id="use368"
         xlink:href="#shadow-right"
         transform="matrix(.23 .04 -.04 .24 82.6 73.7)"
         height="33"
         width="37.9" />
      <use
         id="use370"
         xlink:href="#shadow-right"
         transform="matrix(.22 0 0 .18 84.7 78.4)"
         height="33"
         width="37.9" />
      <use
         id="use372"
         xlink:href="#shadow-right"
         transform="matrix(.35 .19 -.23 .42 74 44.4)"
         height="33"
         width="37.9" />
      <use
         id="use374"
         xlink:href="#shadow-right"
         transform="matrix(.37 .2 -.25 .46 72 47.9)"
         height="33"
         width="37.9" />
      <use
         id="use376"
         xlink:href="#shadow-left"
         transform="matrix(.46 .2 -.34 .77 22 6.7)"
         height="10.4"
         width="24.6" />
      <use
         id="use378"
         xlink:href="#shadow-left"
         transform="matrix(.3 .13 -.22 .49 20.8 16.6)"
         height="10.4"
         width="24.6" />
      <use
         id="use380"
         xlink:href="#shadow-left"
         transform="matrix(.3 .13 -.22 .49 19.8 30.6)"
         height="10.4"
         width="24.6" />
      <use
         id="use382"
         xlink:href="#shadow-left"
         transform="matrix(.46 .2 -.27 .62 19.3 35.3)"
         height="10.4"
         width="24.6" />
      <use
         id="use384"
         xlink:href="#shadow-left"
         transform="matrix(.28 .12 -.27 .62 17.3 51.3)"
         height="10.4"
         width="24.6" />
      <use
         id="use386"
         xlink:href="#shadow-left"
         transform="matrix(.26 .18 -.26 .36 14.4 58.5)"
         height="10.4"
         width="24.6" />
      <use
         id="use388"
         xlink:href="#shadow-left"
         transform="matrix(.31 .1 -.16 .51 18.3 44.9)"
         height="10.4"
         width="24.6" />
      <use
         id="use390"
         xlink:href="#shadow-left"
         transform="matrix(.26 .19 -.32 .43 12.7 63.1)"
         height="10.4"
         width="24.6" />
      <use
         id="use392"
         xlink:href="#shadow-left"
         transform="matrix(.47 .17 -.21 .61 19.9 22)"
         height="10.4"
         width="24.6" />
      <path
         id="path394"
         d="M8.6 127.4c.5 6.1 13.5 5 16.3 4.6M7.8 130.2c.7 4.5 10.1 5.5 16.6 5.1M7.2 132.9c2 5.6 13.1 5.9 17.3 5.4"
         class="cls-3" />
      <path
         id="path396"
         d="M56.8 85.2A59.8 59.8 0 0 1 70.4 90c7.3 3.7 15 9.6 18.5 10.8a101.3 101.3 0 0 0 10.2 2.6c2.9.6 11.9-1.1 11.9-1.1l-7 1.9 6.2.6a45.7 45.7 0 0 1-16.1-.7c-9.1-2.3-10.7-4.2-13.5-5.8-4.2-2.3-8.2-5-12-7.5a60.8 60.8 0 0 0-11.8-5.6zM124.8 103s7.9.3 9.9.6c6.5 1 12.7 7.7 12.7 7.7s-8.4-5-10.9-5.6l-11.7-2.7z"
         class="cls-6" />
    </symbol>
    <symbol
       viewBox="0 0 290.8 108.3"
       id="sign">
      <path
         id="path399"
         d="M226 107.3H1V1h225l63.3 49.7-63.4 56.6z" />
    </symbol>
    <symbol
       viewBox="0 0 297.5 115.5"
       id="sign-layers">
      <use
         xlink:href="#sign"
         transform="matrix(1.02 0 0 1.02 0 4.8)"
         height="108.3"
         width="290.8"
         id="sign-diagnal"
         class="cls-13" />
      <use
         xlink:href="#sign"
         height="108.3"
         width="290.8"
         id="sign-solid"
         class="cls-6" />
      <use
         xlink:href="#sign"
         height="108.3"
         width="290.8"
         id="sign-lines"
         class="cls-13" />
    </symbol>
    <symbol
       viewBox="0 0 143.8 65.7"
       id="Hat_Hightlight">
      <path
         id="path406"
         d="M0 46.4C2 40.8 35.2 46.2 75 35S140.1-2.8 143.4.2c2.8 2.6-12.7 15.2-19.7 24.4-15 19.8-23.5 34.8-35.6 38.4C68.4 69 54.5 64.3 36 57 21.5 51.5-1.3 50.6 0 46.4z"
         class="cls-6" />
    </symbol>
    <radialGradient
       id="grad3-3"
       cx="1363.5"
       cy="1416.4"
       r="1441.2"
       gradientTransform="matrix(1,0,0,0.56,767.2,362.7)"
       gradientUnits="userSpaceOnUse">
      <stop
         offset="0"
         stop-opacity=".3"
         id="stop32-3" />
      <stop
         offset="1"
         stop-opacity="0"
         id="stop34-4" />
    </radialGradient>
    <pattern
       patternTransform="matrix(0.90953294,0,0,0.87597386,248.83935,124.65103)"
       id="pattern2578"
       xlink:href="#ltLine-0"
       inkscape:collect="always" />
    <pattern
       id="ltLine-0"
       width="200"
       height="187.5"
       patternTransform="matrix(.99 0 0 .97 110.5 60.8)"
       patternUnits="userSpaceOnUse">
      <path
         d="M71 80.6H49.5L0 80.2v-.6h71s.8.1.8.4c0 .4-.9.6-.9.6zm13.2 0l115.8-.3v-.7H84.3s-.7 0-.8.4.7.6.7.6zM200 62h-43a1 1 0 0 1-1-1 1 1 0 0 1 1-.8h43zm0-16.6v2H96a1 1 0 0 1-1-1 1 1 0 0 1 1-1zM153.8 61a1 1 0 0 1-1 1l-70 .8L0 61.9v-1.6l82.7.8 70.1-.9a1 1 0 0 1 1 .9zM89.9 46.4a1 1 0 0 1-1 1H0v-2h88.8a1 1 0 0 1 1 1zM75.1 17.1H0v-1h75.2l-.1 1zm6.4-1H200v1H81.7l-.2-1zM200 29.7v1.9H25.6c-1.2 0-2-.4-2-1 0-.5.9-.9 2-.9zm-179 .9c0 .5-1 1-2 1H0v-1.9h18.9c1.1 0 2.1.4 2.1 1zM0 186.5h200v1H0zM108.9 174a1 1 0 0 1-1 1H0v-2h107.9a1 1 0 0 1 1 1zm57.9-.3a1 1 0 0 1-1 1H121a1 1 0 0 1-1-1 1 1 0 0 1 1-1h44.8a1 1 0 0 1 1 1zm20.2-.9h13v2h-13a1 1 0 0 1-1-1 1 1 0 0 1 1-1zM116.8 159a.8.8 0 0 1-.9.8c-2.7 0-11.6-.4-18.2-.4l-40.1.4a.8.8 0 0 1-.8-.8.8.8 0 0 1 .8-.8h58.3a.8.8 0 0 1 .8.8zm83.2-.8v1.7s-11.2-.5-19-.5l-40.2.4a.8.8 0 0 1-.8-.8.8.8 0 0 1 .8-.8zm-149.8.8a.8.8 0 0 1-.9.8c-2.4 0-9.6-.4-15-.4l-34.3.4v-1.6h49.4a.8.8 0 0 1 .8.8zM200 140.8v2H77.5c-.8 0-1.5-.4-1.5-1 0-.5.7-1 1.6-1zm-130 1c0 .6-.8 1-1.6 1H0v-2h68.4c.8 0 1.5.5 1.5 1zm130-18.5v1.7s-115.2-.9-153.6-.9c-11.6 0-46.4.9-46.4.9v-1.7l45.9-1c38.5-.2 154.1 1 154.1 1zm0-29.8v1H0v-1h200zm-49.2 14c-36.4.3-83.3.5-105.2.5-11.4 0-45.6-.8-45.6-.8V105s58.7 1.5 78.2 1.5c15.3 0 45.7-.4 72.4-.8zm9.4-1.9l39.8-.6v2.3l-39.5.2z"
         id="path241-0" />
    </pattern>
    <radialGradient
       r="1441.2"
       cy="1416.4"
       cx="1363.5"
       gradientTransform="matrix(1,0,0,0.56,0,545.6)"
       gradientUnits="userSpaceOnUse"
       id="radialGradient2596"
       xlink:href="#grad3"
       inkscape:collect="always" />
  </defs>
  <rect
     style="display:inline;opacity:0.2;fill:url(#pattern2578);fill-opacity:1;stroke-width:0.910859"
     id="rect2564"
     width="2931.1453"
     height="1476.36"
     x="7.0000005"
     y="463.10001" />
  <g
     transform="matrix(1.0977828,0,0,1,-149.91678,0)"
     id="splotches">
    <path
       style="fill:url(#radialGradient2596)"
       id="path411"
       fill="url(#grad3)"
       transform="translate(86.2,-38.8)"
       d="m 95.2,760.9 c 47.2,-56.1 203.3,-15.3 270.6,-25.3 165.8,-24.6 480.7,81.6 647.5,69.1 239.3,-17.9 683.5,-41.3 922.9,-57 163.4,-10.8 361,259.2 495,367.2 69.6,56.2 234,129.4 238.9,227.1 8.8,179.1 -62.3,161.6 -158.5,302.8 -153.2,224.8 -574.8,230.5 -821.9,260 -244.3,29 -760.8,86.8 -982,-35.7 -138,-76.4 -287.9,-412.9 -397,-536.5 -53,-60.2 -200,-140 -230.1,-218.5 C 49.5,1033.3 41.7,824.4 95.2,760.9 Z" />
    <path
       style="fill:url(#grad4)"
       id="path413"
       fill="url(#grad4)"
       transform="translate(86.2,-38.8)"
       d="m 413,42 c 173.6,-29.4 652.7,150.8 817.7,89.7 244,-90.6 481,71.4 721.3,-41.2 156,-73 410.3,-14.8 551.3,93.3 73.4,56.2 299.5,130 304.5,227.6 9.3,179.1 30,123.7 30,123.7 L 65,570.5 c 0,0 46.6,-477.2 348,-528.4 z" />
  </g>
  <g
     transform="matrix(1.0295806,0,0,1.0295806,-86.54393,53.198302)"
     opacity="0.4"
     id="skyline">
    <path
       id="path416"
       d="M 89.6,33.1 H 290 V 498.3 H 89.6 Z m 2635.2,192.1 h 200.4 V 527 H 2724.8 Z M 294.2,128.4 H 440.1 V 498.3 H 294.2 Z M 1818,306.1 h 317.6 V 505.5 H 1818 Z m 331.2,-175.3 h 145.9 V 500.7 H 2149.2 Z M 470.3,229.5 H 1018 V 498.3 H 470.3 Z M 2318,185 h 389.5 V 505.5 H 2318 Z M 1045.2,100 h 223.3 v 400.8 h -223.3 z m 459.8,59.4 h 186.7 V 495.2 H 1505 Z m -216.3,43.3 h 190.9 v 276.9 h -190.9 z"
       class="cls-15" />
    <path
       id="path418"
       d="m 1816,462 h -90 V 237 h -9 l 0.4,-81.4 h 9 l -0.5,-35.5 18,-9 9,-18 0.5,-36.5 18,-54 17,54 0.5,36.5 9,18 18,9 v 36 l 9.5,0.5 -0.5,80.5 h -9 v 225 z"
       class="cls-15" />
    <circle
       id="circle420"
       fill="#ffffff"
       stroke="#000000"
       stroke-miterlimit="10"
       r="32"
       cy="197.10001"
       cx="1771.2" />
    <use
       y="0"
       x="0"
       id="use422"
       xlink:href="#Smoke_Stack"
       transform="translate(504.3,1)"
       height="228"
       width="43.900002" />
    <use
       y="0"
       x="0"
       id="use424"
       xlink:href="#Smoke_Stack"
       transform="translate(577,1.2)"
       height="228"
       width="43.900002" />
    <use
       y="0"
       x="0"
       id="use426"
       xlink:href="#Smoke_Stack"
       transform="translate(649,1.2)"
       height="228"
       width="43.900002" />
    <use
       y="0"
       x="0"
       id="use428"
       xlink:href="#Smoke_Stack"
       transform="translate(2767.3)"
       height="228"
       width="43.900002" />
    <use
       y="0"
       x="0"
       id="use430"
       xlink:href="#Smoke_Stack"
       transform="translate(2841.3)"
       height="228"
       width="43.900002" />
    <path
       id="path432"
       transform="translate(86.2,-92)"
       d="m 0.8,555.1 c 0,0 162,-34 304.7,-18.7 83,9 134.6,12.9 167.6,17.4 257.4,35.4 488.6,-39.7 895.1,-24.3 217.8,8.2 309,35.8 521.8,24.3 88,-4.7 107.2,-11.3 196.3,-17.4 230.9,-15.8 325,26 536.1,14 a 8261.3,8261.3 0 0 0 215.4,-15.3 v 86 L 1.2,634 Z"
       class="cls-6" />
    <path
       id="path434"
       fill="url(#ltLine)"
       transform="translate(86.2,-92)"
       d="m 0.8,555.1 c 0,0 162,-34 304.7,-18.7 83,9 134.6,12.9 167.6,17.4 158.8,21.9 298.6,-2.6 484.7,-17.7 a 3514.8,3514.8 0 0 1 410.4,-6.6 c 217.8,8.2 309,35.8 521.8,24.3 88,-4.7 107.2,-11.3 196.3,-17.4 230.9,-15.8 325,26 536.1,14 a 8261.3,8261.3 0 0 0 215.4,-15.3 l 1,88 c 1.3,9.2 -370.3,-5.4 -630,-24 -126,-9 -292,84.1 -468,45 -243,-54 -614.8,-47.6 -711,-36 -332.5,40.3 -648,36 -819,0 -71,-15 -211,34 -211,34 z" />
    <path
       id="path436"
       fill="url(#line)"
       transform="translate(86.2,-92)"
       d="m 0.8,555.1 c 0,0 162,-34 304.7,-18.7 83,9 134.6,12.9 167.6,17.4 158.8,21.9 298.6,-2.6 484.7,-17.7 a 3514.8,3514.8 0 0 1 410.4,-6.6 c 217.8,8.2 309,35.8 521.8,24.3 88,-4.7 107.2,-11.3 196.3,-17.4 230.9,-15.8 325,26 536.1,14 a 8261.3,8261.3 0 0 0 215.4,-15.3 l 1,43 c 1.3,9.2 -370.3,-5.4 -630,-24 -126,-9 -292,84.1 -468,45 -243,-54 -614.8,-47.6 -711,-36 -332.5,40.3 -648,36 -819,0 -71,-15 -211,34 -211,34 z" />
  </g>
  <g
     transform="matrix(1.0295879,0,0,1.0295879,-86.544557,-57.60432)"
     fill="url(#ltLine)"
     id="Path">
    <path
       id="path439"
       transform="translate(86,-92)"
       d="m 2839,1366 c 0,0 -335,213 -443,239 -146,34 -444,-7 -586,40 -172,57 -498,335 -666,393 -5,2 -1144,0 -1144,0 v -428 c 0,0 134,-74 334,-103 195,-28 602,64 789,36 156,-24 425,-159 580,-195 163,-36 515,-11 680,-36 107,-16 456,-182 456,-182 z" />
    <path
       id="path441"
       transform="translate(86,-92)"
       d="m 328,1749 c -98,9 -98,20 -109,61 -8,30 104,8 109,27 5,19 -60,47 -56,67 2,13 187,48 255,46 79,-1 74,-24 219,-31 154,-7 251,101 380,54 23,-8 97,-74 99,-122 2,-32 56,-61 29,-98 -36,-49 -349,11 -536,29 -89,8 -217,-48 -390,-33 z" />
  </g>
  <g
     style="fill:url(#ltLine);fill-opacity:1"
     id="ground">
    <g
       style="fill:url(#ltLine);fill-opacity:1"
       id="ground-1">
      <path
         style="fill:url(#ltLine);fill-opacity:1"
         id="path444"
         transform="translate(86.2,-92)"
         d="m -86.2,1083.1 c 3,-20.6 171,-36.5 321.4,-59 90.8,-13.6 152.5,-42.1 232.2,-40 276.3,7.4 293,65.3 589.2,72 190.2,4.3 218.7,-39.7 321.4,4 48.7,20.7 216.8,21.8 198.4,51 -22,35 -81.8,33.3 -308,17 -125,-9 -496,-48.6 -646.2,-63 -375,-36 -714,57.8 -708.4,18 z"
         class="cls-24" />
      <path
         style="fill:url(#ltLine);fill-opacity:1"
         transform="translate(86.2,-92)"
         id="path446"
         d="m -86.2,1083.1 c 3,-20.6 171,-36.5 321.4,-59 90.8,-13.6 152.5,-42.1 232.2,-40 276.3,7.4 293,65.3 589.2,72 190.2,4.3 218.7,-39.7 321.4,4 48.7,20.7 216.8,20.8 198.4,50 -22,35 -131.3,-41.9 -357.6,-27 -136.7,9 -458.7,-48.6 -609,-63 -375,-36 -701.6,102.8 -696,63 z"
         class="cls-25" />
    </g>
    <g
       style="fill:url(#ltLine);fill-opacity:1"
       id="ground-2">
      <path
         style="fill:url(#ltLine);fill-opacity:1"
         id="path449"
         transform="translate(86.2,-92)"
         d="m 2838.8,1848.1 c -2,-20.6 -110,-36.5 -206.9,-59 -58.4,-13.6 -98.1,-42.1 -149.4,-40 -177.8,7.4 -188.6,65.3 -379.2,72 -122.4,4.3 -140.8,-39.7 -206.9,4 -31.3,20.7 -139.5,21.8 -127.7,51 14.2,35 52.7,33.3 198.2,17 80.4,-9 319.2,-48.6 416,-63 241.3,-36 459.5,57.8 455.9,18 z"
         class="cls-24" />
      <path
         style="fill:url(#ltLine);fill-opacity:1"
         id="path451"
         transform="translate(86.2,-92)"
         d="m 2838.8,1848.1 c -2,-20.6 -110,-36.5 -206.9,-59 -58.4,-13.6 -98.1,-42.1 -149.4,-40 -177.8,7.4 -188.6,65.3 -379.2,72 -122.4,4.3 -140.8,-39.7 -206.9,4 -31.3,20.7 -139.5,20.8 -127.7,50 14.2,35 84.6,-41.9 230.2,-27 88,9 295.2,-48.6 392,-63 241.3,-36 451.5,102.8 447.9,63 z"
         class="cls-25" />
    </g>
    <g
       style="fill:url(#ltLine);fill-opacity:1"
       id="ground-3">
      <path
         style="fill:url(#ltLine);fill-opacity:1"
         id="path454"
         fill="url(#ltLine)"
         transform="translate(86.2,-92)"
         d="m 1156.5,729.2 c 3.2,-20.4 92.2,-29.2 172.6,-45.4 48.5,-9.7 83,-35.6 124.5,-30.1 143.7,19 147.8,77.4 302,96.5 99,12.2 117.4,-30.5 167.5,17.4 23.8,22.7 111.5,30.8 99.6,59.1 -14.3,34 -45.4,29.8 -162.2,4 -64.5,-14.1 -255.2,-69.1 -332.5,-89.8 -193,-51.6 -377.6,27.7 -371.5,-11.7 z" />
      <path
         style="fill:url(#ltLine);fill-opacity:1"
         id="path456"
         fill="url(#line)"
         transform="translate(86.2,-92)"
         d="m 1156.5,729.2 c 3.2,-20.4 92.2,-29.2 172.6,-45.4 48.5,-9.7 83,-35.6 124.5,-30.1 143.7,19 147.8,77.4 302,96.5 99,12.2 117.4,-30.5 167.5,17.4 23.8,22.7 111.6,29.8 99.7,58.1 -14.4,34 -65.3,-47.2 -184.7,-41.8 -72.1,3.2 -235.7,-67.7 -313,-88.3 -193,-51.6 -374.7,73 -368.6,33.6 z" />
    </g>
    <g
       style="fill:url(#ltLine);fill-opacity:1"
       id="tuft-1">
      <use
         style="fill:#000000;fill-opacity:1"
         y="0"
         x="0"
         id="use459"
         xlink:href="#blade"
         transform="translate(206.4,1211.5)"
         height="183.60001"
         width="102.8" />
      <use
         style="fill:#000000;fill-opacity:1"
         y="0"
         x="0"
         id="use461"
         xlink:href="#blade"
         transform="matrix(-1,0,0,0.93,407,1223.5)"
         height="183.60001"
         width="102.8" />
      <use
         style="fill:#000000;fill-opacity:1"
         y="0"
         x="0"
         id="use463"
         xlink:href="#blade"
         transform="matrix(1,0,0,1.51,208.8,1118.2)"
         height="183.60001"
         width="102.8" />
    </g>
    <g
       style="fill:#000000;fill-opacity:1"
       id="tuft-2">
      <use
         style="fill:#000000;fill-opacity:1"
         y="0"
         x="0"
         id="use466"
         xlink:href="#blade"
         transform="matrix(0.82,0,0,0.85,2065.7,1469.5)"
         height="183.60001"
         width="102.8" />
      <use
         style="fill:#000000;fill-opacity:1"
         y="0"
         x="0"
         id="use468"
         xlink:href="#blade"
         transform="matrix(-1,0,0,1,2245.2,1442.7)"
         height="183.60001"
         width="102.8" />
    </g>
  </g>
  <g
     id="sign-and-creep">
    <g
       id="Signpost">
      <use
         id="use472"
         xlink:href="#sign-layers"
         transform="matrix(-.72 0 0 .81 2469 260)"
         height="116"
         width="298" />
      <use
         id="use474"
         xlink:href="#sign-layers"
         transform="translate(2536 300)"
         height="116"
         width="298" />
      <path
         id="path476"
         fill="url(#ltLine)"
         transform="translate(86 -92)"
         d="M2058 1000c-69 9-69 20-77 62-5 29 74 7 77 26s-42 47-39 67c1 13 132 48 179 46 56-1 53-24 155-31 109-6 153 8 244-39 16-8 52-12 54-60 1-32 59-78 40-115-26-50-248 20-381 38-62 8-130-9-252 6z" />
      <path
         id="path478"
         d="M2482 119h38a16 16 0 0 1 17 16v876h-71V136a16 16 0 0 1 16-17z"
         class="cls-2" />
      <path
         id="path480"
         stroke="#000"
         stroke-miterlimit="10"
         stroke-width="2"
         fill="url(#ltLine)"
         d="M2482 119h38a16 16 0 0 1 17 16v876h-71V136a16 16 0 0 1 16-17z" />
      <path
         id="path482"
         stroke="#000"
         stroke-miterlimit="10"
         stroke-width="2"
         fill="url(#line)"
         transform="translate(86 -92)"
         d="M2451 1103h-16l-1-892a16 16 0 0 1 17 17z" />
      <path
         id="path484"
         stroke="#000"
         stroke-miterlimit="10"
         stroke-width="2"
         fill="url(#ltLine)"
         transform="translate(86 -92)"
         d="M2382 1103h16l1-892a16 16 0 0 0-17 17z" />
      <rect
         id="rect486"
         rx="24"
         height="55"
         width="123"
         y="276"
         x="2313"
         class="cls-6" />
      <path
         id="path488"
         transform="translate(86 -92)"
         d="M2240 413h-1v-38h7v15h8v-15h7v38h-6-1v-17h-8v17zm36 1a10 10 0 0 1-6-2 12 12 0 0 1-4-4 11 11 0 0 1-1-5v-18a11 11 0 0 1 1-5 11 11 0 0 1 4-4 10 10 0 0 1 6-2 10 10 0 0 1 5 2 11 11 0 0 1 4 4 11 11 0 0 1 2 5v17a11 11 0 0 1-2 6 11 11 0 0 1-4 4 10 10 0 0 1-5 2zm0-7a4 4 0 0 0 3-1 4 4 0 0 0 1-3v-18a4 4 0 0 0-1-3 4 4 0 0 0-3-1 4 4 0 0 0-3 1 4 4 0 0 0-1 3v17a4 4 0 0 0 1 4 4 4 0 0 0 3 1zm15 6v-38h7l5 7 5-7h7l1 38h-7v-28l-6 8-6-8v28zm29 0v-38h18v6h-11v9h11v6h-11v10h12v7h-1z" />
      <path
         id="path490"
         d="M2542 315h237v58h-237z"
         class="cls-6" />
      <path
         id="path492"
         d="M2583 357h156v46h-156z"
         class="cls-6" />
      <path
         id="path494"
         transform="translate(86 -92)"
         d="M2476 453a11 11 0 0 1-6-2 11 11 0 0 1-4-4 12 12 0 0 1-1-5v-3h6v3a5 5 0 0 0 2 3 4 4 0 0 0 3 1 4 4 0 0 0 2-1 5 5 0 0 0 2-3v-28h6v28a11 11 0 0 1-1 5 12 12 0 0 1-4 4 10 10 0 0 1-5 2zm15-1v-38h18v6l-1 1h-11v8h12v7h-12v10h12v6h-1zm23 0v-38h11a11 11 0 0 1 6 1 11 11 0 0 1 4 4 11 11 0 0 1 0 10 12 12 0 0 1-1 2 10 10 0 0 1-1 2 11 11 0 0 1 3 8v11h-7v-11a5 5 0 0 0-1-4 5 5 0 0 0-4-1h-4v16zm6-23h5a4 4 0 0 0 3-1 4 4 0 0 0 0-6 4 4 0 0 0-3-1h-5zm30 24a10 10 0 0 1-5-2 11 11 0 0 1-4-4 11 11 0 0 1-2-5l1-28h6v28a5 5 0 0 0 1 3 4 4 0 0 0 3 1 4 4 0 0 0 3-1 5 5 0 0 0 1-3v-28h7v28a11 11 0 0 1-5 9 10 10 0 0 1-6 2zm25 0a10 10 0 0 1-6-2 12 12 0 0 1-4-4 11 11 0 0 1-1-5v-3h7v3a4 4 0 0 0 1 3 4 4 0 0 0 6 0 4 4 0 0 0 1-3q0-2-3-4l-2-1-4-2a12 12 0 0 1-4-5 12 12 0 0 1-2-6 10 10 0 0 1 2-5 11 11 0 0 1 4-4 11 11 0 0 1 10 0 11 11 0 0 1 4 4 11 11 0 0 1 2 5v5h-7v-5a4 4 0 0 0-1-3 4 4 0 0 0-3-1 4 4 0 0 0-3 1 4 4 0 0 0-1 3 5 5 0 0 0 1 3 7 7 0 0 0 2 3h1l2 1 2 1 1 1a13 13 0 0 1 4 3 9 9 0 0 1 2 6 11 11 0 0 1-2 5 11 11 0 0 1-4 4 10 10 0 0 1-5 2zm11-1l7-38h9l6 38h-6l-1-4h-7l-1 4h-6zm9-10h5l-2-15-1-2v2zm17 10v-38h6v32h12v6zm22 0v-38h18v7h-12v8h12v7h-12v10h12v6zm23 0v-38h7l5 8 5-8a1 1 0 0 1 1 0h7v38h-7v-28l-6 8-6-8v28c1 0 0 0 0 0zm-149 9a1 1 0 0 1 1-1l2 1a3 3 0 0 1 0 3l-3 14a37 37 0 0 0-2 6l1 1a38 38 0 0 0 10-1 13 13 0 0 1 2-1 1 1 0 0 1 1 1l-4 3a24 24 0 0 1-9 2 5 5 0 0 1-3-1 3 3 0 0 1-1-3l2-11 3-12a2 2 0 0 1 0-1zm22 28a6 6 0 0 1-5-3 9 9 0 0 1-2-5 22 22 0 0 1 1-8 26 26 0 0 1 4-6 20 20 0 0 1 4-5 8 8 0 0 1 5-2 7 7 0 0 1 5 4 11 11 0 0 1 3 7 18 18 0 0 1-3 8 23 23 0 0 1-5 7 11 11 0 0 1-7 3zm5-6a22 22 0 0 0 4-6 14 14 0 0 0 2-6 10 10 0 0 0-1-5 3 3 0 0 0-3-2l-4 2a25 25 0 0 0-4 7 18 18 0 0 0-2 8 6 6 0 0 0 1 3 3 3 0 0 0 2 2l5-3zm31-21l1-2a2 2 0 0 1 2 1 3 3 0 0 1 1 2 60 60 0 0 1-1 9 77 77 0 0 1-3 12l-3 5a2 2 0 0 1-2-1 4 4 0 0 1 0-1l-7-18-3 11-2 7-1 2-1-1a3 3 0 0 1-1-2l3-11q3-10 2-13l1-1a2 2 0 0 1 1 0 5 5 0 0 1 1 2l8 20a63 63 0 0 0 4-16v-5zm9-1a19 19 0 0 1 8 2 22 22 0 0 1 7 5 11 11 0 0 1 3 7l-3 6a33 33 0 0 1-8 5 17 17 0 0 1-7 3l-2-2a4 4 0 0 1-1-2l2-10a75 75 0 0 0 3-11 5 5 0 0 1-2-1 2 2 0 0 1-1-2l1-1zm14 14q0-3-3-6a18 18 0 0 0-6-4 7 7 0 0 1 0 2 18 18 0 0 1-1 3l-2 9a47 47 0 0 0-2 6 16 16 0 0 0 7-2 27 27 0 0 0 5-5c2-1 2-2 2-3zm13 14a6 6 0 0 1-4-3 9 9 0 0 1-2-5 22 22 0 0 1 1-8 26 26 0 0 1 4-6 20 20 0 0 1 4-5 8 8 0 0 1 5-2 7 7 0 0 1 5 4 11 11 0 0 1 2 7 18 18 0 0 1-2 8 22 22 0 0 1-5 7 11 11 0 0 1-8 3zm5-6a22 22 0 0 0 5-6 14 14 0 0 0 2-6 10 10 0 0 0-1-5 3 3 0 0 0-3-2l-4 2a25 25 0 0 0-5 7 18 18 0 0 0-2 8 6 6 0 0 0 1 3 3 3 0 0 0 3 2l4-3zm32-21l1-2a2 2 0 0 1 2 1 3 3 0 0 1 0 2 60 60 0 0 1-1 9 76 76 0 0 1-2 12q-2 5-4 5a2 2 0 0 1-1-1 4 4 0 0 1-1-1l-7-18-2 11-2 7-1 2-1-1a3 3 0 0 1-1-2l2-11 3-13 1-1a2 2 0 0 1 1 0 5 5 0 0 1 1 2l8 20a62 62 0 0 0 4-16v-5z" />
      <path
         id="path496"
         transform="translate(86 -92)"
         d="M2460 416c2-1 20 6 25 6l18 2c25 2 50 5 74 9l76 11c11 1 33 7 43 3-3 2-15-2-20-3l-23-3c-27-3-53-9-79-13l-72-8-19-1c-5-1-18-5-23-3z"
         class="cls-34" />
      <path
         id="path498"
         transform="translate(86 -92)"
         d="M2460 447c2-4 36-3 44-4 25-2 49-4 74-8l76-12c11-2 34-1 43-6-3 2-16 0-20 1l-24 2q-40 4-79 11c-24 4-49 6-73 9-9 1-36 0-42 7z"
         class="cls-34" />
      <path
         id="path500"
         transform="translate(86 -92)"
         d="M2348 1103c-2-8 14-22 28-24 13-1 17 8 33 8 18 1 22-10 38-10 20-1 42 18 40 27-6 21-133 20-139-1z"
         class="cls-6" />
      <path
         id="path502"
         fill="url(#line)"
         transform="translate(86 -92)"
         d="M2342 1103c-3-8 15-22 31-24 15-1 19 8 37 8 20 1 25-10 43-10 22-1 47 18 45 27-6 21-150 20-156-1z" />
      <path
         id="path504"
         fill="url(#line)"
         transform="translate(86 -92)"
         d="M2342 1093c-3-5 15-13 31-14 15-1 19 5 37 5 20 0 25-6 43-6 22-1 47 10 45 16-6 12-150 11-156-1z" />
    </g>
    <g
       id="Creep">
      <path
         id="path507"
         stroke="#000"
         stroke-miterlimit="10"
         fill="url(#dots)"
         transform="translate(86.2 -92)"
         d="M2294.8 654.3l3.3-6.7s18.7-10.4 32.2-23.3c7.2-7 21.5-9.1 33.3-11.3 12.6-2.3 18.1-3.8 18.1-3.8s1.2 7.1 2.4 15.9a108 108 0 0 1 1.4 30.5c-.5 2-7.7 6.4-10 14.3-.8 2.7 1 8.2 1 8.2s-6.6 12.8-9 15.2c-6.9 6.8-8.2 14.6-19.7 15.8-4 .4-19.8-11.1-19.8-11.1s1.7-9 .3-9c-7-.4-7.8.4-9.2-1.6-1.8-2.3-1.4-7.4-10.3-7.3-18.4.2-20.4 6-23.7 2.4s1.5-10.5 9.7-28.2z" />
      <path
         id="path509"
         stroke="#000"
         stroke-miterlimit="10"
         fill="url(#drkCross)"
         transform="translate(86.2 -92)"
         d="M2383.1 589.3c-5.5-12.9-39.5-17.6-53.5-16.4s-27.7 6.7-37.2 16.8c-5.6 5.9-19.8 28-24.5 34.6-7.5 10.4-12.5 11.5-17.2 25.3-2.6 7.7 16.8 12.2 25 11.8 16-.8 16.2-12.3 30.8-18.9 23.1-10.5 12.7-24.9 72.4-32.2 9.1-1.1 7.8-12.5 4.2-21z" />
      <use
         id="use511"
         xlink:href="#Creep_Leg"
         transform="rotate(7.5 -5764.1 18027.7)"
         height="127.7"
         width="85.7" />
      <use
         id="use513"
         xlink:href="#Creep_Leg"
         transform="translate(2375 919.5)"
         height="127.7"
         width="85.7" />
      <path
         id="path515"
         transform="translate(86.2 -92)"
         d="M2207.3 735.2a81 81 0 0 0 .7-13.8c-.5-2.7-6.3-3.2-6.6-5.9-1-8 5.7-14.3 7.9-14.8 5.3-1.5 6.2 3.8 6.7 2 1-3-9.9-9.1-11-12.2-1-2.4.7-5.4 4-5.6 1.5-.1 6.2 2.6 9.1 7 3.2 5 7.5 17.4 7.5 17.4s-5-14.5-8-19.3-6.8-6.2-6.4-7.9c0-4 4.4-3.8 6.6-2.5 3 1.8 11.2 15.6 13.6 18.2 5 5.2 5 9.2 5.3 11.1 1.6 11.3-3.2 11.9-3.4 20.5 0 2.6 1.5 6.2 1.8 7.7s-10.6 1.4-12.8 1.3-15.2-.8-15-3.2z"
         class="cls-39" />
      <path
         id="path517"
         transform="translate(86.2 -92)"
         d="M2377.3 677.7c-2.1.7-12.5 24.3-25.3 30.8-6.4 3.3-23-12-26.6-10.5-12.6 5.5-20.2 9.2-29.1 12.3-17.2 6-26.3 22.4-38.1 44-9.2 16.6-15.7 16-14.2 8.4 3.2-16.6.6-20.5-2.5-26.8-2-3.8-10-5.6-4.4-.8 3.8 3.2-7.4 4-15.4 3.7-10.8-.3-21-3.2-16-7.1 3.2-2.5-2.2-3.6-5 .6-2.2 3.2-1 14.5.4 37.3 1.1 17.7-9.2 25.2-6.1 35.6 1.7 5.7 4.4 7 8.1 11.3s3.6 6.2 9.4 7.3c17.8 3.4 26.9-7.2 45.4-12.7 6.2-1.8 37.1-8.4 37.6-4.4 2.2 18.5-10.2 54.4-13.3 71.6-2.9 15.8-24.5 76.7-32.6 112.6-6.6 29.7 3.3 40 3 27 0-9 19.3-6.7 62.3-4 20.3 1.3 66.2 2 60 8.3-5.3 5.3 11 5.7 14.1-7.2 4-17 8.2-47.6 7.6-52.3-4.4-34.2 10-61.4 3.9-95.3-2.8-15.3-13.1-43.5-14.2-59-.5-7-5.2-34.5 1.8-34.5 12.5 0 2.8 58.1 2.8 58.1l11 38s21-25.7 25.6-38.9c3.1-9 5.6-49.7 5.6-49.7s-4.5-84.8-34.7-104c-8.5-5.4-11.4-3-21 .3z"
         class="cls-2" />
      <path
         id="path519"
         stroke="#000"
         stroke-miterlimit="10"
         stroke-width="2"
         fill="url(#drkCross)"
         transform="translate(86.2 -92)"
         d="M2377.3 677.7c-2.1.7-12.5 24.3-25.3 30.8-6.4 3.3-23-12-26.6-10.5-12.6 5.5-20.2 9.2-29.1 12.3-17.2 6-26.3 22.4-38.1 44-9.2 16.6-15.7 16-14.2 8.4 3.2-16.6.6-20.5-2.5-26.8-2-3.8-10-5.6-4.4-.8 3.8 3.2-7.4 4-15.4 3.7-10.8-.3-21-3.2-16-7.1 3.2-2.5-2.2-3.6-5 .6-2.2 3.2-1 14.5.4 37.3 1.1 17.7-9.2 25.2-6.1 35.6 1.7 5.7 4.4 7 8.1 11.3s3.6 6.2 9.4 7.3c17.8 3.4 26.9-7.2 45.4-12.7 6.2-1.8 37.1-8.4 37.6-4.4 2.2 18.5-10.2 54.4-13.3 71.6-2.9 15.8-24.5 76.7-32.6 112.6-6.6 29.7 3.3 40 3 27 0-9 19.3-6.7 62.3-4 20.3 1.3 66.2 2 60 8.3-5.3 5.3 11 5.7 14.1-7.2 4-17 8.2-47.6 7.6-52.3-4.4-34.2 10-61.4 3.9-95.3-2.8-15.3-13.1-43.5-14.2-59-.5-7-5.2-34.5 1.8-34.5 12.5 0 2.8 58.1 2.8 58.1l11 38s21-25.7 25.6-38.9c3.1-9 5.6-49.7 5.6-49.7s-4.5-84.8-34.7-104c-8.5-5.4-11.4-3-21 .3z" />
      <path
         id="path521"
         transform="translate(86.2 -92)"
         d="M2346.3 629.1c-2.2-6.2.8-11.2 6.7-6.5 4 3.2 4.3 4.4 5.6 7.7 1.8 4.8 1.4 11-2 12.2-1.8.7-4-.5-5.3-1.4"
         class="cls-41" />
      <path
         id="path523"
         transform="translate(86.2 -92)"
         d="M2352.4 638a5.2 5.2 0 0 0-.5-4.7 8 8 0 0 0-2.5-2.5"
         class="cls-42" />
      <path
         id="path525"
         transform="translate(86.2 -92)"
         d="M2206 702.7c1 .1 6.5 1.3 8.9 6.2.3.5 2.4 4.8.2 7.8-1 1.4-3 2.5-4.3 2s-.6-3-2.1-5.5a8.6 8.6 0 0 0-4-3.2"
         class="cls-39" />
      <rect
         id="rect527"
         transform="rotate(-14.8 1896.2 316.7)"
         rx="2.6"
         height="11.6"
         width="97.9"
         y="689.8"
         x="2159.6"
         class="cls-2" />
      <path
         id="path529"
         fill="#fff"
         stroke="#000"
         stroke-miterlimit="10"
         transform="translate(86.2 -92)"
         d="M2225 727.3c-1 0-10-4.2-13.4-17.5-.2-.6-4.8-8.1-3.3-11.4.7-1.6 3.5-3 4.8-2.6 1.5.4 3 10.2 5 12.3 1.4 1.5 6 1.4 7.5 1.7" />
      <path
         id="path531"
         transform="translate(86.2 -92)"
         d="M2225 727.3c-1 0-10-4.2-13.4-17.5-.2-.6-4.8-8.1-3.3-11.4.7-1.6 3.5-3 4.8-2.6 1.5.4 3 10.2 5 12.3 1.4 1.5 6 1.4 7.5 1.7"
         class="cls-39" />
      <path
         id="path533"
         transform="translate(86.2 -92)"
         d="M2294.7 821.3s-4.5-.4-4 6.1c.5 8.8 42.2 13.4 53.7 12.5 5.7-.5 42.7-3.4 47-16.4 1.6-4.8-3.7-4.1-3.7-4.1"
         class="cls-43" />
      <path
         id="path535"
         transform="translate(86.2 -92)"
         d="M2294.7 814.3s-4.5-.4-4 6.1c.5 8.8 42.2 13.4 53.7 12.5 5.7-.5 42.7-3.4 47-16.4 1.6-4.8-3.7-4.1-3.7-4.1"
         class="cls-43" />
      <path
         id="path537"
         d="M2367.6 919l27.4-94.7m21.4 97.2l15.6-86.6"
         class="cls-41" />
      <path
         id="path539"
         d="M2379.9 713.1l7.9-58.1m86.9 27.7l-7-51"
         stroke="#000"
         stroke-miterlimit="10"
         fill="url(#drkCross)"
         stroke-width="4" />
      <path
         id="path541"
         transform="translate(86.2 -92)"
         d="M2275.5 611.6c-3.6 10.7-2.8 9.8 5.2 17.1 9.3 8.6 25.2 11.6 36.3 4.2"
         class="cls-41" />
      <path
         id="path543"
         transform="translate(86.2 -92)"
         d="M2145.7 699.3c-9-5-20.7-13.3-22.7-25.7-2-12.1 6.9-18.9 8.3-33 .9-9.3-1.3-23.4-17.5-42m50.9 94.7c-9-5-20.7-13.3-22.7-25.7-2-12.1 6.9-18.9 8.3-33 .9-9.3-1.3-23.4-17.5-42"
         class="cls-42" />
    </g>
  </g>
  <g
     id="prodigal">
    <path
       id="path547"
       fill="url(#line)"
       transform="translate(86.2,-92)"
       d="m 396.8,1865.3 c 0.4,-22.2 73.2,-38.9 114.4,-44 64.9,-7.9 151.6,0.8 157,24.8 4.7,21.7 -57.5,55.7 -117.7,63 -73.4,9 -154,-20.4 -153.7,-43.8 z m 660.2,6.4 c 41.1,-36.6 80.5,-53.4 121.6,-47.6 58.5,8.2 -5.7,33 -21,52.1 -18.3,22.9 -48.1,46.4 -108.8,47.6 -46.7,0.9 -9.3,-36.6 8.2,-52.1 z" />
    <path
       transform="translate(86.2,-92)"
       d="m 722.6,603.7 c -0.3,-7.7 -2.7,-22.9 -3.5,-30.6 -2,-18.5 -12.3,-56.2 -7,-74 5.7,-19.8 30.7,-59.3 50.5,-64.8 20.5,-5.6 64.6,9.5 82.3,21.2 8.2,5.4 18,23.7 21.2,33 2.2,6.4 1,20.4 2.4,27 0.9,4.3 3.3,12.4 3.3,16.8 0,4 -4.6,9.3 -4.4,13.4 0.3,6.2 12.7,11.5 14.9,17.8 0.6,1.8 -0.2,13.6 -2.4,14.8 -3.7,2.2 -10.2,-0.3 -11.5,2.7 -1.6,3.5 0.9,5.5 -1.4,10.8 a 92,92 0 0 0 -5.8,23.6 c -0.4,3.8 -0.1,15.9 -2.6,18.8 -7.1,8.4 -32.9,0.9 -41.9,7.2 -4.4,3 -11.7,15 -11.7,15 0,0 -23.8,7.4 -40,22.8 -25.4,24.4 -83.4,-9 -72.6,-15.7 9.1,-5.6 30.7,-48.9 30.2,-59.8 z"
       class="cls-2"
       id="Head" />
    <path
       transform="translate(86.2,-92)"
       d="M 393.7,526.6 C 385,563 317.6,551.4 293,590.8 c -20,31.8 -9,92.2 36.3,120.5 52.2,32.6 125.6,7.8 139.2,-25.9 14.5,-36.2 -15.8,-87.9 -53.5,-133.5 -3.4,-4.2 9.5,-25.6 13.2,-34.8 6.2,-15.5 17.5,-29.7 18,-38.8 0.6,-10.5 -20.3,36 -34.5,32 -15.3,-4.3 -10.7,-50.2 -15.9,-46.1 -11.5,9 4,37.2 -2,62.4 z"
       class="cls-2"
       id="Bag" />
    <path
       transform="translate(86.2,-92)"
       d="m 640.7,709.1 c -61.8,-43 -124.3,-95 -186.2,-138 -9.4,-6.6 -74.5,-42.9 -103.3,-59.8 a 17.8,17.8 0 0 1 -7.7,-21.4 l 3.7,-10.5 a 10,10 0 0 1 15.4,-4.8 c 20.9,15.4 66.1,48.6 87.5,63.6 a 14416,14416 0 0 0 208.2,139.2 z"
       class="cls-2"
       id="Stick" />
    <path
       transform="translate(86.2,-92)"
       d="m 585.6,1152.5 c -2.9,13.2 -11.8,44.1 -10.6,57.6 1.2,13.7 -10.5,136.4 -19.4,166.5 -8,26.9 -31.2,78.3 -43.6,103.5 -7.6,15.5 -28.8,43.6 -34,60 -5.9,18 -6.8,56.4 -8.3,75.3 -3,37 -3.2,102.2 -5.9,125.8 -2,17.7 -15.9,39.4 -15.9,39.4 l 77.7,10.6 a 132.6,132.6 0 0 1 1.1,-55.3 c 11.8,-47.7 42.4,-113 50,-165.2 2,-13.3 4.9,-19.5 8.9,-30 18.9,-50 67.7,-246 121.1,-247.7 60,-1.8 57.6,134.4 84.1,188.3 7,14.1 74.6,82.2 81.8,121.7 12.4,68 48.4,86.9 65.2,128.4 17.9,44.4 10,68 10,68 l 75.4,-49.4 c 0,0 -16.8,-12.7 -22.4,-42.3 a 500.5,500.5 0 0 0 -34.1,-107 c -16.5,-29.4 -18.6,-26 -20,-47 -1.7,-26 -10.6,-33.7 -14.7,-46.6 -3.2,-10 -7.9,-30.9 -10.6,-41.1 -24.8,-93.5 -90.8,-277 -102.3,-373 -3.7,-30.3 -231.8,51.5 -233.5,59.5 z"
       class="cls-2"
       id="Legs" />
    <path
       style="fill:#ffffff"
       transform="translate(86.2,-92)"
       d="m 1048.7,846.3 c 14.5,-7.8 28.4,-9.6 49.7,-24.9 9.4,-6.7 5.3,-16.5 22.5,-42 3.7,-5.5 -8.8,-12.6 -8,-19.4 0.4,-4.8 7.1,-7.9 11,-6.6 11,3.7 17.9,15 18.4,23.5 0.4,5.8 -9.5,17.4 -3,23.4 6.2,5.7 14.1,-1 24,-20.1 0.6,-1.2 -4,-2.2 -4.8,-1.8 -1.8,1.3 -2.7,11.2 -5.8,12.6 -4.8,2.3 -11.9,0.7 -12.5,-3.7 -0.6,-4.8 10,-22.5 14.8,-23.8 4.5,-1.3 16,0 20.1,0.6 4.5,0.6 8.2,5.1 7.6,8.7 -0.5,3.1 1,10.7 -7.7,23.8 a 152.2,152.2 0 0 1 -18.2,20.2 81.6,81.6 0 0 0 19.5,-21.9 c 3.7,-6.3 6.5,-8.3 7,-17.5 0.3,-6.5 6.9,0 8.9,4 2.2,4.3 0.9,7.8 -0.2,11.9 a 38,38 0 0 1 -7,13.4 c -4,5.5 -19,19.4 -19,19.4 0,0 14.3,-12 19,-19.5 4,-6.8 6,-8.7 7.4,-15.2 0.5,-2.2 4,2.2 5.5,5 3.4,6.5 -3.1,14.6 -7.6,21 -4,5.7 -16.3,18.3 -16.3,18.3 0,0 14.4,-12.9 23.4,-29 1.8,-3.3 4,3.4 4,5.4 0.2,1.8 0.2,6.2 -1.7,9.5 a 61.4,61.4 0 0 1 -9.8,14 c -11.4,11.8 -3,8 -27.4,23.7 -9.9,6.3 -28.4,4.8 -37.3,9 -20.4,9.5 -43.7,32.7 -43.7,32.7 z"
       class="cls-42"
       id="Right_Hand" />
    <path
       id="path554"
       opacity="0.5"
       fill="url(#dots)"
       transform="translate(86.2,-92)"
       d="m 474.1,1583.4 c 0,0 17.7,-2 18.3,2.4 0.4,3.1 -6.6,35.6 -6.7,38.8 -0.3,4.4 4.5,12.5 4.8,16.9 0.6,7.4 -5.7,21.6 -6.4,29 -0.6,5.3 4.2,16 2.4,21 -1,2.7 -7.2,22.1 -8,24.2 -0.8,1.7 -11,0 -11,0 0,0 -0.6,-51.2 0.2,-66.7 0.8,-17.3 6.4,-65.6 6.4,-65.6 z" />
    <path
       sodipodi:nodetypes="ccccccccccccccccssszc"
       transform="translate(86.2,-92)"
       d="m 776.2,670 c -12.6,6.4 -27.1,2.4 -36.3,2 -25.1,-1 -39.5,-5.7 -42.3,-13.4 -2.7,-7.1 5.7,-10.2 5.7,-10.2 0,0 1.1,-2.9 -1.6,-1.8 -15.78469,4.80802 -31.89223,8.48401 -48.2,11 -5.2,0.8 -13.8,2.1 -18.3,5 -9.2,5.6 -26.7,13.2 -36.6,13.5 -27.8,1 -58.2,26.4 -63.2,56.3 -7.2,43.9 -82.1,136.1 -91.8,184.1 -5.4,26.7 10.6,45.8 20.8,48.1 34.7,8 64.7,20.7 103.6,26.1 9.2,1.3 22.2,2.7 22.2,2.7 0,0 0.8,-35.3 -1,-46.7 -1.7,-9.4 -5.3,-42 -5.3,-42 l -23.1,-4.2 c 4.9424,-4.99935 30.82674,-31.4875 46.70743,-47.80264 1.51356,-1.55496 186.50867,50.27187 226.43746,27.09384 68.64173,-39.84544 18.57596,-155.68519 17.39827,-177.56422 C 850.20861,681.14952 834.43838,660.15245 818.5,654.9 802.56162,649.64755 776.2,670 776.2,670 Z"
       class="cls-2"
       id="Body" />
    <path
       transform="translate(86.2,-92)"
       d="m 570.4,803.7 c 0.3,30.8 6.6,41.8 9.9,64.7 1.3,9.2 2.4,22.6 3.6,36.3 1.4,15.6 3.6,31.6 5.2,42 1.6,10.4 1.5,29.8 1.1,46.5 -0.2,8.6 -0.3,16.4 0,21.6 1.2,15 -0.8,49 -4.6,63.6 -3.4,13 -13,45.8 -16,66.4 -1.8,13.4 0,40.7 1.3,54.1 1.3,13.4 -1.7,42.3 -3,56 -4.6,47.8 -37.3,109.3 -63.5,184.6 -54.1,155.3 -34.1,148.2 -34.1,148.2 0,0 -8.4,-8.4 14.1,-5.9 51.8,6 75.3,-18.8 115.3,2.4 22,11.6 84.6,-20.8 120,-10.6 61.1,17.6 109.2,-4.6 162.3,-27 30.6,-13 35.3,-13 57.6,-8.3 6.8,1.4 8.3,11.8 8.3,11.8 0,0 4.4,-1.7 4.7,-6 1,-15.8 -29.2,-79 -47,-171.7 -30.6,-158.8 -50.6,-182.3 -85.3,-279.3 -10.3,-28.8 0.7,-91.9 3.5,-122.4 4.2,-45.9 7.5,-49.1 13.9,-94.8"
       class="cls-2"
       id="Body-2" />
    <path
       id="path558"
       opacity="0.5"
       fill="url(#dots)"
       transform="translate(86.2,-92)"
       d="m 529.6,1718.2 c 0,0 -13.3,3.7 -12.7,-0.7 0.2,-1.7 -0.5,-16.8 3.6,-31.2 3.4,-12.5 12.4,-25.6 12.9,-27 1.4,-4.2 -1,-13.3 -0.2,-17.6 1.3,-7.3 11.2,-19.4 13.8,-26.3 2,-5 0.2,-16.6 3.2,-20.9 1.7,-2.3 8.8,-19.4 7.5,-17.5 -0.3,0.5 17,0.5 17,0.5 0,0 -12.7,48.2 -17.5,63 -5.4,16.4 -27.6,77.7 -27.6,77.7 z" />
    <path
       sodipodi:nodetypes="ccccccccccccccsccccccc"
       transform="translate(86.2,-92)"
       d="M 845.9709,691.90778 C 886.6709,728.40778 945.1,811.2 973.1,848.3 c 18.9,24.9 4.3,17.5 29.6,7.8 8,-3 15.5,-6.6 28.2,-12.8 14.6,-7 33.5,-21.9 43.1,-23.7 6,-1.2 10.3,8.3 10.3,8.3 0,0 -4.9,-2 -8.5,-1.8 -12.3,0.7 -1.8,32.6 5,48.2 2.3,5.4 5.5,17.8 9.6,24 2.2,3.4 4.6,3.7 7.3,3 4.3,-1 7.3,-7.5 7.7,-12.4 0.097,-2.4224 -0.4187,-4.83014 -1.5,-7 0,0 2.8,-2.3 5.2,1.3 1.7,2.4 5,18.5 0.9,20.4 -6.6,3 -11.1,20.5 -14.1,24.5 -4.5,6 -3.3,-9.5 -10.7,-2.2 -7.2,7 -6.8,-4.3 -18.5,1.6 -21.2,10.6 -42.3,19 -57.6,28 -12.2,7 -33.5,23 -54,16.8 -22.6,-6.6 -17.2,-4.2 -31,-17 C 912.4,944.8 903.7,938.3 877.6,914 861.4,898.9 840,879.3 819,859"
       class="cls-2"
       id="Right_arm" />
    <path
       id="path561"
       transform="translate(86.2,-92)"
       d="m 716.1,909 c -2.3,82.3 -75.3,136.4 -75.3,136.4 0,0 48.4,-130 49.5,-156.4 2.6,-67 41.1,-167 41.1,-167 0,0 -13.7,132.9 -15.3,187 z"
       class="cls-48" />
    <path
       id="path563"
       transform="translate(86.2,-92)"
       d="m 760.9,1120 c 0,0 37.5,-3.6 59.9,-31 3,-3.8 -3.6,-5.9 -2.4,-8.2 1.2,-2.3 8.3,4.7 8.3,10.6 0,8.2 -4.7,14.4 -8.3,17.6 -20,17.8 -59.2,27.1 -59.2,27.1 z"
       class="cls-49" />
    <path
       id="path565"
       transform="translate(86.2,-92)"
       d="m 760.9,1112.8 c 0,0 41.4,-8.2 58.8,-29.7 3,-3.8 -3.6,-6 -2.4,-8.3 1.2,-2.3 8.2,4.7 8.2,10.6 0,8.3 -4.6,14.4 -8.2,17.7 -18,16 -62.7,24.8 -62.7,24.8 z"
       class="cls-49" />
    <path
       id="path567"
       transform="translate(86.2,-92)"
       d="m 763.6,1106.4 c -29.2,168.4 18.4,270.8 18.4,270.8 0,0 -1.8,2.7 -7,-1.2 -9.6,-7.1 -17.7,-3.5 -27.1,-1.2 -18.8,4.7 -21.8,13.9 -42.4,7 -17.6,-5.8 -39.6,2 -50.5,6 -20,7 -29.4,-14.2 -49.4,-3.6 -7.3,3.9 -6,-3.5 -6,-3.5 0,0 4.5,-105.8 22.4,-182.3 1.6,-6.9 54.1,17.6 83.5,-2.4 40,-27.2 60.4,-102.6 58.1,-89.6 z"
       class="cls-48" />
    <path
       id="path569"
       transform="translate(86.2,-92)"
       d="m 818.5,654.9 c -19.4,-4.1 -73,33 -87,63.5 -14.4,31 -9.5,138.8 -14.2,175.3 -7.8,60.7 -26.2,109 -62.3,143.5 -47.1,45 -69.9,22.3 -67,14.1 0.5,-1.6 -4.8,1.4 -6,5.9 -1.8,7.2 -0.7,9 -2.3,16.5 -2.4,10.5 -7,5.8 -7,16.4 0,17.8 -6,21.2 -8.3,28.3 -7,22.3 4.5,24.2 4.7,24.7 1.2,2.4 -5.9,-16.5 3.5,-7 19,19 38.4,57.6 55.9,61.7 33,7.6 80.3,12.6 99.4,-24.1 10,-19.4 55.6,-79.5 64.7,-183.5 7,-81.2 -11.1,-243.7 -3.5,-258.8 5.8,-11.8 23.5,-34.8 37.6,-41.2 16.2,-7.4 24.7,4.7 24.7,4.7 0,0 3.5,4.7 0,-5.9 -8.5,-25.4 -24.3,-32.3 -33,-34.1 z"
       class="cls-48" />
    <path
       stroke="#000000"
       stroke-miterlimit="10"
       fill="url(#wave)"
       stroke-width="0.8"
       transform="translate(86.2,-92)"
       d="m 710.3,525.4 c 0,0 69.5,-47.3 94.8,-48.7 16.7,-0.9 47.6,-0.8 55.9,14.5 1.9,3.5 2.6,6.3 2,12 -0.6,5.7 -3.9,10.4 -8.6,13.7 -4.5,3 -7.8,19.4 -9.1,26.6 a 4.7,4.7 0 0 1 -4,3.8 l -3,0.4 a 4,4 0 0 1 -4.4,-3 c -1.1,-4 -3,-10.5 -4.7,-13.8 -2.6,-4.9 -5,-10.7 -11,-11.2 -10.5,-1 -16.1,8.7 -18,14.2 -1.8,5.3 0,18.2 -6.3,27.4 -12.5,18.4 -4.9,22 -15.2,31.2 -3,2.7 -12.7,3.3 -17,0.3 -8,-5.5 -15.2,4 -21.7,9 -2.6,2 -17.2,1 -17.2,1 0,0 1,-2.2 -7.5,-38 -4.2,-17.3 -5,-39.4 -5,-39.4 z"
       id="Hair" />
    <path
       id="path572"
       transform="translate(86.2,-92)"
       d="m 343.7,497.6 c 8.6,-4.6 29.7,15 31.1,20.8 1,4.3 17.6,8.4 21.1,10.8 4.4,3 31.4,17.2 33.8,20.4 1.1,1.6 20.9,16.9 20.4,18.5 M 347.2,479.4 c 19.3,-6.5 20.5,20 49,30.3 23.8,8.6 72.8,49.2 76.8,54.7 18.5,25.6 45.8,31 87.1,56.3 11.4,7 38.6,31.2 62,43.7"
       class="cls-51" />
    <path
       id="path574"
       transform="translate(86.2,-92)"
       d="M 627.8,662 C 604.4,649.3 571.5,619.7 560.1,612.7 518.8,587.3 489.3,578.9 470.7,553.3 M 343.2,489.4 c 19.3,-6.5 20.5,20 49,30.3 23.8,8.6 72.8,49.2 76.8,54.7 18.5,25.6 45.8,31 87.1,56.3 11.4,7 28.6,25.2 52,37.8"
       class="cls-51" />
    <path
       id="path576"
       transform="translate(86.2,-92)"
       d="m 705,478.1 c -15.5,5.1 -53.3,29.9 -50.4,45.4 3.6,19.4 37.5,19.6 71.7,14.7 32,-4.7 109.5,-29.2 138.3,-41.8 29.1,-12.7 52.3,-28.9 51,-47 -1.4,-21 -36.7,-21.8 -62.3,-14.8 A 4530.8,4530.8 0 0 0 705,478.1 Z"
       class="cls-2" />
    <use
       y="0"
       x="0"
       id="use578"
       xlink:href="#Hat_Ring"
       transform="matrix(1.62,0,0,1.62,742.5,341.2)"
       height="66.300003"
       width="160.3" />
    <path
       id="path580"
       stroke="#000000"
       stroke-miterlimit="10"
       stroke-width="2"
       d="m 777.4,356.8 c 5.5,19 12.3,49.2 14.5,59 a 5.1,5.1 0 0 0 4.4,4 c 3.9,0.5 11.6,1 27,1 15.7,0 41,-5 65.1,-13.5 a 262.6,262.6 0 0 0 55.3,-26 c 4,-3 5.8,-5.6 6.6,-7.6 a 7,7 0 0 0 0.3,-4.5 c -1.9,-6.5 -9.3,-33.4 -13.7,-50.2 -5.3,-20 -6.4,-55.1 -10,-69.7 -5.3,-21 -66.4,-6.8 -83.8,-3.7 -25.2,4.4 -78,25.7 -85,49.6 -2.7,9.5 13.4,41 19.3,61.6 z" />
    <use
       y="0"
       x="0"
       id="use582"
       xlink:href="#Hat_Ring"
       transform="matrix(1.48,0,0,1.48,752,346.2)"
       height="66.300003"
       width="160.3" />
    <use
       y="0"
       x="0"
       id="use584"
       xlink:href="#Hat_Ring"
       transform="matrix(1.28,0,0,1.28,767,352.2)"
       height="66.300003"
       width="160.3" />
    <path
       id="path586"
       transform="translate(86.2,-92)"
       d="m 673.4,389.2 c 4.9,16.7 36.9,13.2 93.5,-3.7 48.1,-14.3 78.2,-32 71.6,-48.1 -5.3,-13 -57.6,-7.7 -98.1,5.7 -29,9.6 -71.5,30.2 -67,46 z"
       class="cls-2" />
    <use
       y="0"
       x="0"
       id="use588"
       xlink:href="#Hat_Ring"
       transform="translate(761.8,239.6)"
       height="66.300003"
       width="160.3" />
    <path
       id="path590"
       fill="url(#drkCross)"
       transform="translate(86.2,-92)"
       d="m 623.8,1196.6 c 0,0 53,11.8 80,1.2 23.2,-9.1 57.6,-83.5 57.6,-83.5 0,0 -26.2,95 -53.5,107.6 -19.6,9 -84.1,-25.3 -84.1,-25.3 z" />
    <use
       y="0"
       x="0"
       id="use592"
       xlink:href="#Boot"
       transform="matrix(1.1452818,-0.59365772,0.59365772,1.1452818,981.85639,1636.5368)"
       height="144.39999"
       width="152.89999" />
    <use
       y="0"
       x="0"
       id="use594"
       xlink:href="#Boot"
       transform="matrix(1.18,0,0,1.18,519.3,1610.6)"
       height="144.39999"
       width="152.89999" />
    <path
       id="path596"
       opacity="0.5"
       fill="url(#dots)"
       transform="translate(86.2,-92)"
       d="m 574.8,1577.8 -2.2,8.7 c 0,0 -21.2,-3 -24.4,-3 -4.4,0 -25.7,6 -30,6.6 -7.5,1 -11.3,2 -18.7,1.6 -5.3,-0.3 -14,0.7 -19,-0.9 -2.7,-0.9 -4.4,-0.4 -6.5,-1.3 -1.7,-0.6 -0.3,-7.1 -0.3,-7.1 0,0 17.2,1.5 32.8,1.6 5.2,0 30.8,-4.8 48.4,-6.6 11.9,-1.4 19.9,0.4 19.9,0.4 z m 279.9,-18.6 c 0,0 22,-11.6 22.6,-7.3 0.4,3.2 15.1,49.6 15,52.7 -0.2,4.4 4.5,12.6 4.8,17 0.7,7.4 2.8,19.3 2,26.7 -0.5,5.3 17.6,11.6 15.8,16.6 -1,2.7 37.2,51.6 36.3,53.6 -0.8,1.8 -15.4,4.9 -15.4,4.9 0,0 -51.1,-65.2 -50.4,-80.7 0.8,-17.4 -30.7,-83.5 -30.7,-83.5 z m 142,136.4 c 0,0 -12.2,9.6 -11.6,5.2 0.2,-1.7 -12.1,-23.4 -8.1,-37.8 3.5,-12.5 -16.9,-32.8 -15.2,-38.7 1.1,-4.3 -13.7,-10.8 -13.7,-25.3 0,-7.4 -8,-13.5 -7.9,-21 0.2,-11.3 -13.2,-16.1 -10.2,-20.4 1.7,-2.4 -2.1,-19.1 -3.4,-17.2 -0.3,0.5 17,0.5 17,0.5 a 229.6,229.6 0 0 1 2.9,26.3 c 0.4,6.5 14.8,21.3 25.4,46.6 a 549,549 0 0 1 24.8,81.8 z M 1125.1,854 c 37.5,5.4 37.7,-16 63.5,-44.2 16.6,-18 8.3,18.6 12.4,4.1 3.5,-12.5 3,11.7 -12.6,24.2 -25.8,20.9 -18,15.8 -31.3,21.8 -19.4,8.6 -31,5.6 -37.5,9.3 -21.5,12.4 -36,29.5 -32.9,25.2 1.6,-2.4 -3.4,-17.4 -3.4,-17.4 0,0 30,-24.8 41.8,-23 z" />
    <path
       id="path598"
       opacity="0.5"
       fill="url(#dots)"
       transform="translate(86.2,-92)"
       d="m 943,1542.2 c 4.6,4.8 1.2,7.9 1.2,7.9 0,0 -18.4,-4.1 -21.5,-4.1 -4.4,-0.1 -11.2,7.8 -15.6,8.4 -7.4,0.9 -10.3,-0.3 -17.8,-0.7 -5.2,-0.4 -8.7,10.3 -13.8,8.7 -2.7,-0.8 -12.4,9.6 -14.5,8.8 a 57.6,57.6 0 0 1 -7.9,-10.7 253.8,253.8 0 0 1 24.6,-11 c 9.3,-3.5 18.8,-11.9 36.4,-12.7 11.4,-0.5 23.8,0.2 28.8,5.4 z M 813.3,579.7 c -6,1 -11.5,-10.8 -13.2,-17.2 -0.7,-2.7 -1.6,-33 5,-34.2 1.9,-0.4 -4.7,10.6 -1.9,26.4 1.5,8.4 3.1,9.8 8.6,18.4 3,4.7 9.4,0.4 9.4,0.4 0,0 -0.5,5.2 -7.9,6.2 z" />
    <path
       id="path600"
       opacity="0.5"
       fill="url(#dots)"
       transform="translate(86.2,-92)"
       d="m 809.3,546.5 a 52,52 0 0 0 0,-9.1 c -0.3,-2.8 2,-8.7 8.7,-10 1.9,-0.3 2.7,9.3 2.7,9.3 0,0 -3.4,-5.4 -5.8,-4.2 -1.5,0.8 -1.5,6 -2.8,9.6 -1.3,3.6 -2.8,4.4 -2.8,4.4 z m 9.8,12.7 c -2.8,1 -9.3,-2.9 -6.7,-8.6 0.8,-1.7 4.5,-2.3 4.5,-2.3 0,0 -3.2,2.5 -1.8,4.8 1.2,2 4.5,3.7 4.5,3.7 0,0 0.8,2 -0.5,2.4 z" />
    <use
       y="0"
       x="0"
       id="use602"
       xlink:href="#Hat_Hightlight"
       transform="matrix(0.99,-0.1,0.07,0.67,796.1,379.9)"
       height="65.699997"
       width="143.8" />
    <path
       id="path604"
       fill="url(#ltCross)"
       transform="translate(86.2,-92)"
       d="m 585.4,1155.3 a 170.4,170.4 0 0 1 11.6,57 844,844 0 0 1 -21,156.5 c -9,34 -46.8,132.3 -46.8,132.3 l -40.3,66.2 -21.4,15 c 0,0 -1,-9 2.3,-25.8 a 630,630 0 0 1 17.3,-62 1366,1366 0 0 1 40,-113.4 c 14.4,-33.6 38.4,-93 42.3,-129 3,-27.8 1.3,-61.4 0.5,-82.8 -0.3,-6.5 0,-13.5 0,-20.1 0,-2.6 2.3,-11.4 2.3,-11.4 0,0 11,12.7 13.2,17.5 z M 599,875 c -2,35 11.1,62.3 15,91.6 3.2,24.4 -1.4,95.8 -1.4,95.8 0,0 -14.7,0.5 -17.5,-0.8 -1.4,-0.7 -4.5,-6.3 -4.5,-6.3 0,0 -0.6,-78 -1.5,-95.1 -0.7,-13.3 -9.7,-102.4 -16,-130.7 -3.9,-17.4 -1.8,-25.2 -1.8,-25.2 0,0 28.4,56.8 27.6,70.6 z m 224.3,229.8 c 0,0 14,35.4 28.1,70.4 14,34.5 23,69.6 27.1,82 11.6,34.5 13.7,59.7 22.1,95.3 7.6,32 14.4,73 32.9,126.5 9,26.4 15,47.4 18,61.5 1.4,6.1 -3.3,8 -3.3,8 0,0 -0.6,-9.3 -11,-12 a 68.3,68.3 0 0 0 -30,0.2 c -14.7,3.3 4.2,-2.1 4.2,-2.1 0,0 -28.7,-130 -36.4,-177 -4.6,-28.8 -27.5,-83.1 -38.1,-110.3 -12,-30.5 -52.3,-118.8 -52.3,-118.8 0,0 17.1,-7.5 22.3,-10.5 4.6,-2.7 16.4,-13.2 16.4,-13.2 z M 681,1573 c 0,0 -59.8,17.6 -81.7,11.3 -11.8,-3.4 -22,-6.1 -22,-6.1 0,0 27,-56 35.6,-81 6.7,-19.7 37,-93 37,-93 0,0 5.5,70.4 7.7,94.3 1.9,19.1 23.4,74.5 23.4,74.5 z" />
    <path
       id="path606"
       fill="url(#ltCross)"
       transform="translate(86.2,-92)"
       d="m 647,1477.7 c -1,15.2 -4.2,50.7 -6.5,65.8 -2.5,17 7.8,39.1 7.8,39.1 0,0 -14.6,2.9 -33.6,4.6 -7.8,0.7 -14.6,-4.1 -14.6,-4.1 0,0 17.9,-65.6 24.4,-88 5.2,-17.7 23.3,-71.1 23.3,-71.1 0,0 -0.4,46.5 -0.9,53.7 z m -83.3,-148.8 c -3.5,8 -14.2,22.4 -16.8,30.5 -4.1,12.6 -11,51.8 -11,51.8 0,0 -15.8,40.1 -23.6,53.3 -4,6.9 -25,70.4 -31,92.2 -6.6,23.2 -14.4,18.1 -14.4,18.1 a 513.8,513.8 0 0 1 11,-52.4 c 5.8,-21.7 15,-45.7 19.3,-58.4 11.6,-34 31.1,-86.7 45,-120.7 17.4,-43 29,-87.6 30.2,-128.7 0.5,-19.3 -2.7,-38.3 -3.2,-51.3 a 101,101 0 0 1 2.1,-25.8 l 11.7,11.4 c 0,0 -3.5,85.6 -7,112.5 -2.4,18.3 -4.8,50.6 -12.3,67.5 z m 327.8,-22.6 c 2,13 22,107 28.8,134.4 9.4,37.7 33.4,96.4 30.6,104.9 -2.4,7.6 -11.6,-24 -26.3,-35 -16.9,-12.6 -7,-39.1 -18.7,-70.4 -11.2,-30.1 -25.4,-92 -24.2,-133 0.5,-19.3 -78,-182 -78,-182 l 21.3,-16.4 c 0,0 22.2,58 35.9,93 6.7,17.2 26.3,76.3 30.6,104.5 z m -67,261.7 c 0,0 -33.7,12.6 -56.4,11.7 -21.8,-1 -44.8,-2.6 -44.8,-2.6 0,0 12,-34.1 20.5,-59.2 6.8,-19.5 11.2,-104 11.2,-104 0,0 37,71 39.4,94.9 1.8,19.1 30.1,59.2 30.1,59.2 z" />
    <path
       id="path608"
       fill="url(#ltCross)"
       transform="translate(86.2,-92)"
       d="m 803.7,1576 c 0,0 -15.8,0.8 -25.6,2.5 -8.5,1.6 -25.1,0 -25.1,0 0,0 9.5,-33.8 11.4,-50.3 2.1,-18.6 -6,-90.3 -6,-90.3 0,0 11.7,51.8 20.2,72.5 5.2,12.7 25.1,65.6 25.1,65.6 z" />
    <path
       id="path610"
       fill="none"
       stroke="#000000"
       stroke-miterlimit="10"
       stroke-linecap="round"
       stroke-width="4"
       d="m 949.7,440 c 2.7,-4 6.2,-5.4 11,-4.3" />
    <path
       id="path612"
       transform="translate(86.2,-92)"
       d="m 866,538.3 a 15.1,15.1 0 0 1 9.4,-2.6"
       class="cls-72" />
    <path
       id="path614"
       transform="translate(86.2,-92)"
       d="m 870.2,539 c 0,0 0.7,5 0.7,6.5 a 38.3,38.3 0 0 1 -0.5,4.5 c 0,0 -3,-2.7 -3,-4.8 0,-2.1 2.8,-6.2 2.8,-6.2 z" />
    <path
       id="path616"
       transform="translate(86.2,-92)"
       d="m 820,545.3 c 0,0 6.6,-4.8 7.3,-7.3 1,-4.5 -4.5,-15 -9,-16.2 -3.4,-1 -10.6,3.8 -12,7 -3.2,7 -3.7,23 -1.6,30.4 1.4,5 5.5,9.1 6.8,12.2 1,2.3 5,4.5 7.3,3.3 2.4,-1.3 4,-6.7 3.2,-9.3 -0.8,-2.6 -9.3,-3.5 -10.7,-5.8 -2,-3.3 -3,-21.4 -2,-25.2 a 10,10 0 0 1 8.5,-7.8 c 3.2,-0.3 3.6,9.5 3.6,9.5"
       class="cls-72" />
    <path
       id="path618"
       transform="translate(86.2,-92)"
       d="m 816.9,549 c 0,0 -1.8,2.5 -1,4.6 0.4,1.2 3.4,2.4 3.4,2.4"
       class="cls-72" />
    <path
       id="path620"
       fill="url(#ltCross)"
       transform="translate(86.2,-92)"
       d="m 827.7,852.3 c 6.5,1.6 9,25 9,25 0,0 -11.7,63.3 -12.2,78.4 -0.2,6.2 -7,42.9 -8.5,74.3 -0.6,13.4 1.3,53.7 1.3,53.7 0,0 -1.8,5.5 -14.3,12.6 -12.5,7.1 -19,9.7 -19,9.7 0,0 21.1,-145.6 13.5,-192.7 -4.6,-28.8 13.7,-65 30.2,-61 z" />
    <path
       id="path622"
       fill="url(#ltCross)"
       transform="translate(86.2,-92)"
       d="m 817.1,858.5 c 0,0 44.7,15.8 63.4,24.3 14.6,6.7 33.4,32 49.4,47 18.5,17.4 37.8,4.4 61,11.7 12.8,4 61.2,-25.8 82.6,-30.9 7.2,-1.7 29.7,0.5 29.7,0.5 0,0 -7.6,20.4 -9.3,17.5 -1.4,-2.5 -6.3,-6.2 -8.1,-4.4 -3.2,3.2 -6.7,3.8 -9.6,2.7 -5.6,-2.2 -6,-1.4 -9.3,0 -9.8,4 -18,9.1 -30.5,14.6 -31.3,13.6 -55,31.7 -67.4,31.5 -8.6,0 -25.7,-2.1 -32.7,-7.7 A 675.4,675.4 0 0 1 885.2,920.6 C 860.6,895.4 817.1,858.5 817.1,858.5 Z M 820.8,696 c 0,0 9.6,-6.6 18.1,-6.5 5.1,0 9,3.7 14,7.4 7.2,5.4 53.8,59 88.3,107.2 l 44.6,62 a 279.2,279.2 0 0 1 38.4,-19.5 c 12.4,-5.2 34.4,-20.2 49,-25.6 2.2,-0.9 9.6,0 8.6,4.4 -0.5,2 -7.3,-1.3 -9.5,1 -2.9,3 -3,12.4 -3,12.4 0,0 -73.5,40.7 -87.3,37.2 C 959.6,870.4 898.4,774 865,739.8 A 1477.7,1477.7 0 0 0 820.7,696 Z M 583,698 c -18.4,18.7 -28.8,46.3 -29,61 -0.2,39.5 -51,69.5 -61,107.7 -8.8,34 -31.8,56 -22.5,72.7 14,25.5 118.4,27.7 118.4,27.7 l 1.6,25.3 c 0,0 -47.1,-5.1 -63.4,-10.6 A 928,928 0 0 0 465,964.4 c -8.5,-2 -17,-12.6 -18.8,-19 -7.6,-28 -2,-31.2 10.5,-60.4 14.4,-33.6 37.2,-64 54.9,-95.8 7.9,-14.2 21.1,-41.5 23.2,-51.9 a 70.7,70.7 0 0 1 16.1,-33.8 70.2,70.2 0 0 1 40.6,-25.5 c 4.8,-0.9 16.9,-3 24.7,-6 a 279.5,279.5 0 0 0 26,-11.8 l 57.5,-11.9 c 0,0 -26.3,18 -33.7,22.4 -12,7.4 -77.1,21.3 -83,27.2 z" />
    <path
       id="path624"
       fill="url(#ltCross)"
       transform="translate(86.2,-92)"
       d="m 580.5,876.9 -20.8,23.9 24.6,5 1,18.5 c 0,0 -39.3,-1.4 -40.1,-22.8 -0.2,-6.5 12.5,-17.5 16.8,-22.4 5,-5.6 16.5,-21 16.5,-21 z" />
    <path
       id="path626"
       fill="url(#ltCross)"
       transform="translate(86.2,-92)"
       d="m 554.4,726.4 c -3.6,8 -30.5,46.3 -33.2,54.4 -4.1,12.6 -58,106.6 -65.8,119.7 -0.8,1.3 -8.2,31.3 8.4,43 9.1,6.4 37.6,21.7 65.9,31.1 30,10.1 59.6,9.4 59.6,9.4 v 9.6 c 0,0 -21,-2.8 -58.5,-11.4 C 513.2,978 480.5,969 465.7,965 c -14,-3.7 -17,-15.9 -19.5,-21.3 a 49,49 0 0 1 2,-43.7 c 23.9,-42.2 51.9,-98 60.5,-109 23.7,-30.6 25.5,-63.4 32,-75.1 8.2,-15.1 18.2,-19.7 18.2,-19.7 0,0 3,13.3 -4.5,30.2 z" />
    <path
       id="path628"
       fill="url(#ltCross)"
       transform="translate(86.2,-92)"
       d="m 577.7,831.7 c -3.6,8 12.2,39.5 9.6,47.6 -4.2,12.6 19.4,70.7 11.6,83.9 -2.5,4.2 -1.7,44.3 2.3,72.4 a 53,53 0 0 0 13,28 l -23.2,-5.2 c 0,0 -0.1,-41.7 -0.8,-66 -0.6,-22.5 -2.1,-53.4 -3,-66.7 -2,-32 -16.2,-114.5 -16.2,-114.5 0,0 14.2,3.7 6.7,20.5 z m 259.8,44.6 c -3.5,8 -5,35.4 -7.7,43.4 -4.1,12.6 -8,67.3 -11,82.3 -9,46 -0.7,82.5 -0.7,82.5 l -19.9,13.3 c 0,0 7.1,-43.9 6.4,-68.1 -0.6,-22.5 9.3,-53.4 8.5,-66.8 -2,-32 4.5,-69 4.5,-69 0,0 27.5,-34.4 20,-17.6 z m 118.4,83.8 c 33.1,7.4 57.4,-6.8 57.4,-6.8 0.6,0.7 -37.8,26 -61.5,18.4 C 929,964.4 910.5,944 910.5,944 c 0,0 27.4,12.1 45.4,16.1 z" />
    <path
       id="path630"
       opacity="0.5"
       fill="url(#dots)"
       transform="translate(86.2,-92)"
       d="m 750.8,659.6 c 12.5,-4 33.3,-8.6 37.3,-10.4 27.3,-12.2 9.7,-15.3 28.3,-27.5 2.3,-1.5 19.4,8.5 30.4,-2.6 5.8,-6 3.3,-16.6 7,-24.6 0.5,-1.2 4.4,-10 7.2,-17.2 2.6,-6.7 10.5,-2 14.9,-4.5 4.5,-2.7 6,-8.4 6,-8.4 0,0 -0.3,10.6 -2.5,13.8 -1.2,1.8 -8,0.6 -10.1,2.1 -3.2,2.3 -1.2,2.9 -2.2,9.5 -1,7 -5.6,15.6 -6.7,21 -2,10.8 1,18 -2.4,23.8 -2,3.6 -27,2.6 -38.7,4.5 -5.2,0.8 -13.9,15.8 -13.9,15.8 0,0 -33.4,17.6 -39.4,17.7 -18.3,0.3 -26.2,-3 -38.6,-2.6 -22.3,0.5 -30.3,-11.6 -30.3,-11.6 l 20,-33.2 c 7.6,-13 6.8,-24.2 5.5,-22.3 -0.3,0.5 17,0.5 17,0.5 0,0 -15.3,12 -14.5,27.4 0.4,6.5 -18.6,21.9 -3.8,24.4 13.4,2.3 20.9,7.2 29.6,4.4 z" />
    <path
       id="path632"
       transform="translate(86.2,-92)"
       d="m 385.8,534 c 0.8,-2.6 9.4,6.3 28.4,-1 20.2,-7.8 9,-15.8 12.8,-14.2 4.5,2 9.8,13.8 -8.8,24.6 -22.4,13 -33.6,-6 -32.4,-9.5 z"
       class="cls-2" />
    <path
       id="path634"
       stroke="#000000"
       stroke-miterlimit="10"
       stroke-width="2"
       fill="url(#dots)"
       transform="translate(86.2,-92)"
       d="m 385.8,534 c 0.8,-2.6 9.4,6.3 28.4,-1 20.2,-7.8 9,-15.8 12.8,-14.2 4.5,2 9.8,13.8 -8.8,24.6 -22.4,13 -33.6,-6 -32.4,-9.5 z" />
    <path
       id="path636"
       opacity="0.5"
       fill="url(#dots)"
       transform="translate(86.2,-92)"
       d="m 329.9,677 c 12.5,-4 28.8,31.4 51,26 29,-7 60.1,-22.4 65.1,-38.3 5.5,-17.4 -8.6,-80.8 -8.6,-80.8 0,0 15,22.5 20.4,33 a 100.5,100.5 0 0 1 10.8,65.4 c -3.2,15.6 -22.6,31.1 -52.4,39.7 -37.8,10.8 -73.8,-3.8 -87,-10.7 -19.8,-10.2 -42,-41.9 -45.4,-74.3 a 103.5,103.5 0 0 1 9,-46.2 c 7.7,-13 32.4,-25 31.1,-23.1 -0.3,0.5 -16.9,18 -11.8,21.5 2.2,1.6 -8.7,11 -7.8,26.5 0.4,6.5 3,40 17.8,42.5 13.4,2.2 -0.9,21.6 7.8,18.8 z" />
    <path
       id="path638"
       transform="translate(86.2,-92)"
       d="m 405.6,549.4 c -2,-1.8 9.5,-6.4 9.8,-26.8 0.4,-21.6 -11.3,-14.2 -8.3,-17.2 3.5,-3.4 16.4,-3.8 19.5,17.4 3.7,25.7 -18.2,29 -21,26.6 z"
       class="cls-2" />
    <use
       y="0"
       x="0"
       id="use640"
       xlink:href="#Hat_Hightlight"
       transform="translate(775.9,269.3)"
       height="65.699997"
       width="143.8" />
    <use
       y="0"
       x="0"
       id="use642"
       xlink:href="#Hat_Hightlight"
       transform="translate(780,286.8)"
       height="65.699997"
       width="143.8" />
    <use
       y="0"
       x="0"
       id="use644"
       xlink:href="#Hat_Hightlight"
       transform="translate(784.8,305)"
       height="65.699997"
       width="143.8" />
    <use
       y="0"
       x="0"
       id="use646"
       xlink:href="#Hat_Hightlight"
       transform="translate(788.7,322.6)"
       height="65.699997"
       width="143.8" />
    <use
       y="0"
       x="0"
       id="use648"
       xlink:href="#Hat_Hightlight"
       transform="translate(796.5,343.1)"
       height="65.699997"
       width="143.8" />
    <use
       y="0"
       x="0"
       id="use650"
       xlink:href="#Hat_Ring"
       transform="matrix(0.9,0,0,0.9,769,242.3)"
       height="66.300003"
       width="160.3" />
    <use
       y="0"
       x="0"
       id="use652"
       xlink:href="#Hat_Ring"
       transform="matrix(0.79,0,0,0.79,778.8,245)"
       height="66.300003"
       width="160.3" />
    <use
       y="0"
       x="0"
       id="use654"
       xlink:href="#Hat_Ring"
       transform="matrix(0.63,0,0,0.63,792.7,249)"
       height="66.300003"
       width="160.3" />
    <path
       id="path656"
       fill="url(#ltCross)"
       transform="translate(86.2,-92)"
       d="m 605.2,687.7 c -4,2 -12.1,-11.7 -12.1,-11.7 0,0 18.2,-1 23,-3 18.4,-7.7 20.6,-11 20.6,-11 0,0 1.3,5.2 -1,16 -0.9,3.6 -10.8,0.4 -30.5,9.7 z" />
    <g
       id="Coin">
      <path
         id="path658"
         transform="translate(86.2,-92)"
         d="m 1193.6,775.2 c 0,9 -11,13.6 -18.3,15.2 a 42.3,42.3 0 0 1 -32,-4.8 c -6.6,-4.6 -8.8,-12.5 -2.6,-18.6 7.3,-7.2 19.6,-8.8 29.4,-7.8 8.5,0.8 23.5,5.1 23.5,16 z"
         class="cls-6" />
      <path
         id="path660"
         transform="translate(86.2,-92)"
         d="m 1151.8,768.7 c 0,-2.2 3.2,-3.5 4,-1.7 0.3,0.8 -0.8,2.4 0,3.3 0.5,0.7 6.6,2.2 7.7,2.2 1.8,0 1.4,-0.2 2.6,-1.8 1.5,-1.8 3.2,-4 5.7,-4 2.5,0 4,1.6 5.2,3.5 0.7,1.2 1,4.4 1.8,5.7 1,1.8 2.9,1.8 2.8,2.4 -0.1,0.6 -1.4,-0.2 -3,0.9 -0.6,1.3 -2.4,4.7 -3.7,5.3 -2.3,1 -3.4,0.5 -2.2,-1.6 1,-1.7 3.8,-3.3 2,-4.8 -1.1,-0.9 -7.2,-2.9 -8.6,-1.6 -1,1 -2,3.1 -3.1,4 -4.7,3.4 -8.1,-1.7 -9.6,-5.6 -0.8,-2 -0.5,-2 -2,-3.1 -0.7,-0.4 -1.8,-0.4 -2.4,-1 -2.8,-2.5 1.2,-2.2 3,-1.7 z m 8.1,9.5 c 1.2,0 2.6,-2.4 3.1,-3.1 l -6.5,-1.8 c 0.5,1.3 1.7,5 3.5,5 z m 14,-6.5 c -2,-3.3 -4.6,0 -5.9,2 l 7.2,2 a 10.7,10.7 0 0 0 -1.3,-4 z" />
      <path
         id="path662"
         transform="translate(86.2,-92)"
         d="m 1195.8,774.7 c -6.3,-27.1 -69,-25 -61.8,5.9 6.9,29.6 68.3,22.1 61.8,-5.9 z M 1164.4,761 c 7.9,0 18.9,1.7 24.1,8.2 7,8.5 -2.4,16.1 -10.1,18.6 a 46.4,46.4 0 0 1 -24.5,1 c -7.5,-1.7 -19.2,-7 -15.3,-16.9 3.6,-8.9 17.5,-10.9 25.8,-10.9 z" />
    </g>
  </g>
</svg>
