<svg xmlns="http://www.w3.org/2000/svg" xmlns:xlink="http://www.w3.org/1999/xlink" viewBox="0 0 2925.7 1947.1" preserveAspectRatio="xMidYMid slice">
  <defs>
    <style>
      .cls-1,.cls-3,.cls-41,.cls-42,.cls-43,.cls-51,.cls-72{
        fill:none 
      }
      .cls-2,.cls-6{
        fill:#fff 
      }
      .cls-15,.cls-2,.cls-39,.cls-41,.cls-42,.cls-43,.cls-48,.cls-49,.cls-51,.cls-72 {
        stroke:#000;
        stroke-miterlimit:10
      }
      .cls-2,.cls-3,.cls-42,.cls-49,.cls-72 {
        stroke-width:2px
      }
      .cls-3 {
        stroke:#fff;
        stroke-miterlimit:10 
      }
      .cls-3,.cls-72{
        stroke-linecap:round 
      }
      .cls-15,.cls-48{
        fill:url(#drkCross) 
      }
      .cls-24{
        fill:url(#ltLine) 
      }
      .cls-25 {
        fill:url(#line) 
      }
      .cls-41,.cls-48{
        stroke-width:4px 
      }
      .cls-43{
        stroke-width:5px 
      }
      .cls-49{
        fill:url(#wave) 
      }
      .cls-13,.cls-39 {
        fill:url(#dots) 
      }
       @media (max-aspect-ratio:3/4){
          #sign-and-creep{
              transform:scale(.7) translate(10%,5%)
          }
          #prodigal{
              transform:scale(.8) translate(25%,20%)
          }
          #skyline{
              transform:scale(.6) translateX(40%)
          }
      }
    </style>
    <pattern id="ltCross" width="200.3" height="200.5" patternTransform="rotate(-45 233 -96.4) scale(.6)" patternUnits="userSpaceOnUse">
      <path d="M117 200h-1.4S115 87.6 115 50.2c0-12.6.6-50.2.6-50.2h1.4zm12.3 0v-43a1 1 0 0 1 1-1 1 1 0 0 1 1 1v43zm1-46a1 1 0 0 1-1-1l-1-70.2 1-82.8h2l-1 82.8 1 70.2a1 1 0 0 1-1 1zM145.7 0h1.6v200h-1.6zm32.6 0h2v200h-2zm-13.8 200.5h-1.8V26c0-1.1.4-2 1-2 .4 0 .8.9.8 2zM163.6 21c-.5 0-1-1-1-2.1V0h2v18.9c0 1.2-.5 2.1-1 2.1zm28.7-21h2v200h-2zM6.3 0h2v200h-2zm14 109a1 1 0 0 1-1-1V0h2v108a1 1 0 0 1-1 1zm-1 91v-79a1 1 0 0 1 1-1 1 1 0 0 1 1 1v79zm16.7 0h-1.6s.4-37.2.4-63.6L34.4 0H36zm17.6 0h-2.4V77.5a1.4 1.4 0 0 1 1.2-1.5 1.4 1.4 0 0 1 1.2 1.6zM52.4 70a1.4 1.4 0 0 1-1.2-1.5V0h2.4v68.5a1.4 1.4 0 0 1-1.2 1.5zm18 130h-1s.5-115.2.5-153.6c0-11.6-.5-46.4-.5-46.4h1l.5 45.9c.1 38.5-.5 154.1-.5 154.1zm30.4 0h-1V0h1v200zm-11.5 0H87s-.8-115.8-.8-154.4L87 0h2.3s-1.5 58.6-1.5 78.2c0 30.4 1.5 121.8 1.5 121.8z"/>
      <path d="M72 86.8H50.4L.3 86.5v-.7H72s.9.2.9.5c0 .4-.9.5-.9.5zm12.5 0c47.8 0 115.8-.3 115.8-.3V86H84.5s-.7 0-.7.4.7.5.7.5zm115.8-18.6h-43a1 1 0 0 1-1-.9 1 1 0 0 1 1-.8h43zm0-16.6v2h-104a1 1 0 0 1-1-1 1 1 0 0 1 1-1zM154 67.3a1 1 0 0 1-1 .9l-70.2.8L0 68.2v-1.7l82.8.8 70.2-.8a1 1 0 0 1 1 .8zM90 52.6a1 1 0 0 1-1 1H0v-2h89a1 1 0 0 1 1 1zM75.2 23.4H.3v-1h75l-.1 1zm6.6-1h118.5v1H81.9l-.1-1zM200.3 36v1.9H25.8c-1.1 0-2-.5-2-1s1-.9 2-.9zM21 36.9c0 .5-1 1-2.1 1H0V36h18.9c1.2 0 2.1.4 2.1.9zM.3 6.3h200v2H.3zm0 186.5h200v1H.3zM109 180.3a1 1 0 0 1-1 1H0v-2h108a1 1 0 0 1 1 1zm58-.3a1 1 0 0 1-1 1h-44.8a1 1 0 0 1-1-1 1 1 0 0 1 1-1H166a1 1 0 0 1 1 1zm20.3-1h13v2h-13a1 1 0 0 1-1-1 1 1 0 0 1 1-1zM117 165.3a.8.8 0 0 1-.8.8c-2.8-.1-11.7-.4-18.3-.4l-40 .4a.8.8 0 0 1-.9-.8.8.8 0 0 1 .8-.8h58.4a.8.8 0 0 1 .8.8zm83.3-.8v1.6s-11.2-.4-19.1-.4l-40.1.4a.8.8 0 0 1-.8-.8.8.8 0 0 1 .8-.8zm-150 .8a.8.8 0 0 1-.9.8c-2.4-.1-9.6-.4-15-.4l-34.2.4v-1.6h49.2a.8.8 0 0 1 .9.8zm150-18.2v2H77.8c-.9 0-1.6-.5-1.6-1 0-.6.7-1 1.6-1zm-130.3 1c0 .6-.7 1-1.5 1H0v-2h68.5c.8 0 1.5.5 1.5 1zm130.3-18.6v1.7s-115.3-.8-153.7-.8c-11.6 0-46.4.8-46.4.8v-1.7s34.5-.8 46-.9c38.5-.2 154 1 154 1zm0-29.7v1H.3v-1h200zm-49.3 14c-36.4.2-83.2.5-105.1.5-11.4 0-45.6-.8-45.6-.8v-2.3s58.6 1.5 78.2 1.5c15.2 0 45.6-.3 72.3-.7zm9.4-1.9l39.8-.7v2.3l-39.4.2z"/>
    </pattern>
    <pattern id="drkCross" width="200.5" height="200.5" patternTransform="matrix(.79 0 0 .51 75.3 266.3)" patternUnits="userSpaceOnUse">
      <path d="M114 200h-2l-1-150 1-50h2zm9 0h-3l-1-107 1-93h3l-1 93 1 107zm7 0v-43a1 1 0 0 1 1-1 1 1 0 0 1 1 1v43zm1-46a1 1 0 0 1-1-1l-1-70 1-83h2l-1 83 1 70a1 1 0 0 1-1 1zm6-154h3v200h-3zm10 0h4v200h-4zm13 200h-3l1-52-2-115 1-33h3l-1 33 2 116-1 51zM178 0h2v200h-2zm-7 201h-4V26a2 2 0 0 1 2-2 2 2 0 0 1 2 2zm-2-180a2 2 0 0 1-2-2V0h4v19a2 2 0 0 1-2 2zm17-21h4v200h-4zm9 0h2v200h-2zM2 0h2v200H2zm5 0h4v200H7zm26 0h2v200h-2zM18 109a1 1 0 0 1-1-1V0h2v108a1 1 0 0 1-1 1zm-1 91v-79a1 1 0 0 1 1-1 1 1 0 0 1 1 1v79zm11 0h-3L24 67l1-67h3l1 160-1 40zm17 0h-4l1-64L41 0h4zm10 0h-3V78a2 2 0 0 1 2-2 2 2 0 0 1 1 2zM54 70a2 2 0 0 1-2-1V0h3v69a2 2 0 0 1-1 1zm10 130h-2l1-154-1-46h2l1 46-1 154zM69 0h3v200h-3zm11 0h2v200h-2zm19 200h-2V0h2l1 102-1 98zm6 0h-1V0h1v200zm-14 0h-3L87 46l1-46h3l-2 78 2 122z"/>
      <path d="M1 115v-2l149-1 50 1v2zm0 10v-3l107-1 93 1v3l-93-1-107 1zm0 6h41a1 1 0 0 1 1 1 1 1 0 0 1-1 1H1zm46 1a1 1 0 0 1 1-1l70-1 83 1v2l-83-1-70 1a1 1 0 0 1-1-1zm-46 6h200v3H1zm0 14v-4a15262 15262 0 0 0 200 0v4zm0 9v-3a3435 3435 0 0 0 167-1l32 1v3l-32-1-117 2-50-1zm0 18h200v2H1zm-1-7v-4l69 1 104-1a2 2 0 0 1 2 2 2 2 0 0 1-2 2l-97-1-76 1zm181-2a2 2 0 0 1 2-2h18v4h-18a2 2 0 0 1-2-2zM1 187h200v3H1zm0 9h200v2H1zM1 3h200v2H1zm0 6h200v3H1zm0 25h200v2H1zm91-15a1 1 0 0 1 1-1h108v2H93a1 1 0 0 1-1-1zM1 18h85a1 1 0 0 1 1 1 1 1 0 0 1-1 1H1zm0 11v-3l133-1 66 1v3l-94-1-65 2-40-1zm0 17v-4l63 1 137-1v4zm0 10v-3h121a2 2 0 0 1 2 2 2 2 0 0 1-2 1zm124-1a2 2 0 0 1 1-2h75v3h-75a2 2 0 0 1-1-1zM1 65v-2a30360 30360 0 0 0 200 0v2l-46 1L1 65zm0 5h200v3H1zm0 11h200v2H1zm0 19v-2h200v2l-103 1-97-1zm0 6v-1h200v1H1zm0-13v-3l154-1 45 1v2z"/>
    </pattern>
    <linearGradient id="grad1" x1="1.9" y1="35.2" x2="39.8" y2="3.4" gradientUnits="userSpaceOnUse">
      <stop offset="0" stop-color="#4d4d4d" stop-opacity=".6"/>
      <stop offset=".2" stop-color="#373737" stop-opacity=".7"/>
      <stop offset=".7" stop-color="#0f0f0f" stop-opacity=".9"/>
      <stop offset="1"/>
    </linearGradient>
    <linearGradient id="grad2" y1="5.2" x2="24.6" y2="5.2" gradientUnits="userSpaceOnUse">
      <stop offset="0"/>
      <stop offset=".3" stop-color="#0f0f0f" stop-opacity=".9"/>
      <stop offset=".8" stop-color="#373737" stop-opacity=".7"/>
      <stop offset="1" stop-color="#4d4d4d" stop-opacity=".6"/>
    </linearGradient>
    <radialGradient id="grad3" cx="1363.5" cy="1416.4" r="1441.2" gradientTransform="matrix(1 0 0 .56 0 545.6)" gradientUnits="userSpaceOnUse">
      <stop offset="0" stop-opacity=".3"/>
      <stop offset="1" stop-opacity="0"/>
    </radialGradient>
    <radialGradient id="grad4" cx="1383.4" cy="518.4" r="1367.2" gradientTransform="matrix(1.05 0 0 .22 -4.6 189.2)" xlink:href="#grad3"/>
    <pattern id="dots" width="16" height="16" patternTransform="matrix(2.36 0 0 2.07 560.9 822.8)" patternUnits="userSpaceOnUse">
      <circle cx="15.4" cy="7.1" r=".5"/>
      <circle cx="5.7" cy="9.8" r=".5"/>
      <circle cx="1.5" cy="1.9" r=".1"/>
      <circle cx="6.4" cy="7.9" r=".4"/>
      <circle cx="14" cy="5.8" r=".4"/>
      <circle cx="5.2" cy=".4" r=".4"/>
      <path d="M1 1C1 .6.7.3.3.3a.6.6 0 0 0-.3.1v1.1l.3.1c.4 0 .7-.3.7-.6zm-.4 9.8c0-.4-.3-.6-.6-.7v1.4a.7.7 0 0 0 .6-.7z"/>
      <circle cx="7" cy="13.3" r=".8"/>
      <circle cx="3.1" cy="11.8" r=".5"/>
      <circle cx="6.2" cy="3.7" r=".8"/>
      <circle cx="2.1" cy="13.3" r=".5"/>
      <path d="M.6 4.2a.7.7 0 0 0 .6-.7.7.7 0 0 0-.6-.6c-.3 0-.5.1-.6.4v.5c.1.3.3.4.6.4z"/>
      <circle cx="8.8" cy="7.1" r=".3"/>
      <circle cx="14.1" cy="1.2" r=".5"/>
      <circle cx="6.2" cy="1.5" r=".5"/>
      <path d="M.7 12.6a.5.5 0 0 0-.7-.4v.8h.2c.3 0 .5-.1.5-.4zM15.7 1c0 .2 0 .5.3.6V.4a.6.6 0 0 0-.3.6zm-.6 9.8c0 .4.3.7.7.7a.8.8 0 0 0 .2 0V10a.8.8 0 0 0-.2 0c-.4 0-.7.3-.7.7zm.6 1.8c0 .2.1.3.3.4v-.9a.5.5 0 0 0-.3.5zM1.7.6A.4.4 0 0 0 2 .2.3.3 0 0 0 2 0h-.7a.5.5 0 0 0 0 .2c0 .2.2.3.4.4z"/>
      <circle cx="9" cy=".7" r=".2"/>
      <circle cx="12" cy="15.7" r=".2"/>
      <circle cx="9" cy="13" r=".2"/>
      <circle cx="12" cy="13" r=".2"/>
      <circle cx="6" cy="15" r=".2"/>
      <circle cx="4" cy="12" r=".2"/>
      <circle cx="7" cy="11" r=".2"/>
      <circle cx="4.9" cy="7.5" r=".2"/>
      <circle cx="8" cy="10.5" r=".2"/>
      <circle cx="2" cy="15" r=".2"/>
      <circle cx="9.8" cy="11.5" r=".2"/>
      <circle cx="11.8" cy="9.5" r=".3"/>
      <circle cx="13.8" cy="12.5" r=".2"/>
      <path d="M7.4.7c.3 0 .6-.3.6-.6V0H6.7c0 .4.3.7.7.7z"/>
      <circle cx="13.7" cy="4" r=".3"/>
      <circle cx="11.8" cy="3.4" r=".2"/>
      <circle cx="10.7" cy="4.8" r=".1"/>
      <circle cx="12.4" cy="4.5" r=".4"/>
      <circle cx="10.9" cy="5.7" r=".4"/>
      <ellipse cx="13.3" cy="7.5" rx=".7" ry=".6"/>
      <ellipse cx="10.2" cy="3.9" rx=".2" ry=".2"/>
      <circle cx="11.9" cy="5.5" r=".2"/>
      <ellipse cx="14.3" cy="15.4" rx=".4" ry=".4"/>
      <ellipse cx=".7" cy="15.4" rx=".6" ry=".6"/>
      <circle cx="13.1" cy="14.1" r=".6"/>
      <ellipse cx="9.1" cy="5.5" rx=".7" ry=".7"/>
      <path d="M1.7 15.8a.4.4 0 0 0-.4.2H2a.4.4 0 0 0-.3-.2zm5.7-.4a.7.7 0 0 0-.7.6H8a.6.6 0 0 0-.6-.6z"/>
      <ellipse cx=".6" cy="14.2" rx=".3" ry=".3"/>
      <circle cx="14.8" cy="9.5" r=".2"/>
      <circle cx="3" cy="1.7" r=".2"/>
      <circle cx="1" cy="10.7" r=".2"/>
      <circle cx="2" cy="11.7" r=".2"/>
      <circle cx="3.8" cy="10.5" r=".2"/>
      <circle cx=".8" cy="9.5" r=".2"/>
      <circle cx="12.8" cy=".5" r=".2"/>
      <circle cx="1.5" cy="7.6" r=".2"/>
      <circle cx="4.7" cy=".7" r=".3"/>
      <circle cx="14.6" cy="5.5" r=".6"/>
      <circle cx="10" cy="10.3" r=".4"/>
      <circle cx="14.3" cy=".2" r=".2"/>
      <circle cx="3.3" cy="6.8" r=".2"/>
      <circle cx="4.5" cy="6.8" r=".2"/>
      <circle cx="7" cy="7.3" r=".6"/>
      <circle cx="6.1" cy="5.4" r=".4"/>
      <circle cx="1.9" cy="2.3" r=".4"/>
      <circle cx="3.6" cy=".6" r=".5"/>
      <circle cx="9.6" cy="14.5" r=".4"/>
      <circle cx="6.3" cy="9.9" r=".4"/>
      <circle cx="7.9" cy="4.3" r=".4"/>
      <circle cx="10.9" cy="1.9" r=".4"/>
      <circle cx="4.1" cy="8.5" r=".6"/>
      <circle cx=".5" cy="7.7" r=".4"/>
      <circle cx="15.2" cy=".5" r=".4"/>
      <circle cx="15.2" cy="8.5" r=".4"/>
      <circle cx="2.2" cy="8.5" r=".4"/>
      <circle cx="2.2" cy="6.5" r=".4"/>
      <circle cx=".5" cy="6.9" r=".1"/>
      <circle cx="8.3" cy="14.9" r=".3"/>
      <circle cx="14.3" cy="12.9" r=".3"/>
      <circle cx="11.3" cy="14.9" r=".3"/>
      <circle cx="3.3" cy="13.9" r=".3"/>
      <circle cx="3.3" cy="3.9" r=".3"/>
      <circle cx="11.4" cy="11.1" r=".5"/>
      <circle cx="8.4" cy="9.1" r=".5"/>
      <circle cx="12.2" cy="11.8" r=".4"/>
      <circle cx="15.2" cy="14.8" r=".4"/>
      <circle cx="8.2" cy="11.8" r=".3"/>
      <circle cx=".5" cy="5.5" r=".4"/>
      <circle cx="10.4" cy="13.1" r=".5"/>
      <circle cx="9.4" cy="3.1" r=".5"/>
      <circle cx="8" cy="2.1" r=".3"/>
      <circle cx="5.3" cy="12.6" r=".5"/>
      <circle cx="13.5" cy="9.8" r=".7"/>
      <circle cx="5.6" cy="11.8" r=".4"/>
      <circle cx="4" cy="5.8" r=".4"/>
      <circle cx="2.2" cy="5.1" r=".7"/>
      <circle cx="2.7" cy="9.8" r=".4"/>
      <circle cx="10.8" cy="8.6" r=".3"/>
      <circle cx="14.1" cy="12" r=".5"/>
      <circle cx="3.9" cy="14.9" r=".6"/>
      <circle cx="4" cy="2.9" r=".6"/>
      <circle cx="10.7" cy="7.8" r=".5"/>
      <circle cx="15" cy="3.1" r=".7"/>
      <circle cx="10.7" cy=".5" r=".4"/>
      <circle cx="12.7" cy="2.5" r=".4"/>
    </pattern>
    <pattern id="ltLine" width="200" height="187.5" patternTransform="matrix(.99 0 0 .97 110.5 60.8)" patternUnits="userSpaceOnUse">
      <path d="M71 80.6H49.5L0 80.2v-.6h71s.8.1.8.4c0 .4-.9.6-.9.6zm13.2 0l115.8-.3v-.7H84.3s-.7 0-.8.4.7.6.7.6zM200 62h-43a1 1 0 0 1-1-1 1 1 0 0 1 1-.8h43zm0-16.6v2H96a1 1 0 0 1-1-1 1 1 0 0 1 1-1zM153.8 61a1 1 0 0 1-1 1l-70 .8L0 61.9v-1.6l82.7.8 70.1-.9a1 1 0 0 1 1 .9zM89.9 46.4a1 1 0 0 1-1 1H0v-2h88.8a1 1 0 0 1 1 1zM75.1 17.1H0v-1h75.2l-.1 1zm6.4-1H200v1H81.7l-.2-1zM200 29.7v1.9H25.6c-1.2 0-2-.4-2-1 0-.5.9-.9 2-.9zm-179 .9c0 .5-1 1-2 1H0v-1.9h18.9c1.1 0 2.1.4 2.1 1zM0 186.5h200v1H0zM108.9 174a1 1 0 0 1-1 1H0v-2h107.9a1 1 0 0 1 1 1zm57.9-.3a1 1 0 0 1-1 1H121a1 1 0 0 1-1-1 1 1 0 0 1 1-1h44.8a1 1 0 0 1 1 1zm20.2-.9h13v2h-13a1 1 0 0 1-1-1 1 1 0 0 1 1-1zM116.8 159a.8.8 0 0 1-.9.8c-2.7 0-11.6-.4-18.2-.4l-40.1.4a.8.8 0 0 1-.8-.8.8.8 0 0 1 .8-.8h58.3a.8.8 0 0 1 .8.8zm83.2-.8v1.7s-11.2-.5-19-.5l-40.2.4a.8.8 0 0 1-.8-.8.8.8 0 0 1 .8-.8zm-149.8.8a.8.8 0 0 1-.9.8c-2.4 0-9.6-.4-15-.4l-34.3.4v-1.6h49.4a.8.8 0 0 1 .8.8zM200 140.8v2H77.5c-.8 0-1.5-.4-1.5-1 0-.5.7-1 1.6-1zm-130 1c0 .6-.8 1-1.6 1H0v-2h68.4c.8 0 1.5.5 1.5 1zm130-18.5v1.7s-115.2-.9-153.6-.9c-11.6 0-46.4.9-46.4.9v-1.7l45.9-1c38.5-.2 154.1 1 154.1 1zm0-29.8v1H0v-1h200zm-49.2 14c-36.4.3-83.3.5-105.2.5-11.4 0-45.6-.8-45.6-.8V105s58.7 1.5 78.2 1.5c15.3 0 45.7-.4 72.4-.8zm9.4-1.9l39.8-.6v2.3l-39.5.2z"/>
    </pattern>
    <pattern id="line" width="200" height="195" patternTransform="translate(0 63)" patternUnits="userSpaceOnUse">
      <path d="M0 112v-2l150-1 50 1v2zm0 10v-3l107-1 93 1v3l-93-1-107 1zm0 6h41a1 1 0 0 1 1 1 1 1 0 0 1-1 1H0zm46 1a1 1 0 0 1 1-1l70-1 83 1v2l-83-1-70 1a1 1 0 0 1-1-1zm-46 7h200v3H0zm0 13v-4a15262 15262 0 0 0 200 0v4zm0 10v-3a3435 3435 0 0 0 167-1l33 1v3l-33-1-116 1H0zm0 17h200v2H0zm0-7v-4l68 1 105-1a2 2 0 0 1 2 2 2 2 0 0 1-2 2l-97-1-76 1zm180-2a2 2 0 0 1 2-2h18v4h-18a2 2 0 0 1-2-2zM0 184h200v4H0zm0 9h200v2H0zM0 0h200v2H0zm0 5h200v4H0zm0 26h200v2H0zm91-15a1 1 0 0 1 1-1h108v2H92a1 1 0 0 1-1-1zM0 15h85a1 1 0 0 1 1 1 1 1 0 0 1-1 1H0zm0 12v-3l133-1 67 1v3l-95-2-65 3-40-1zm0 16v-4l64 1 136-1v4zm0 11v-3h122a2 2 0 0 1 1 1 2 2 0 0 1-1 2zm124-2a2 2 0 0 1 2-1h74v3h-74a2 2 0 0 1-2-2zM0 62v-2a30360 30360 0 0 0 200 0v2l-46 1L0 62zm0 6h200v3H0zm0 10h200v2H0zm0 19v-2h200v2L98 98 0 97zm0 7v-1h200v1H0zm0-14v-3l154-1 46 1v3z"/>
    </pattern>
    <pattern id="wave" width="40" height="50" patternTransform="translate(-24.4 2.7)" patternUnits="userSpaceOnUse">
      <path class="cls-1" d="M0 0h40v50H0z"/><path class="cls-1" d="M44.7 16.3C43.7 11.5 39.9 0 39.9 0h-1.4s4.2 10.9 5 16a41 41 0 0 1-.2 12.6A178 178 0 0 1 38.5 50h1.4s3.4-11.5 4.5-19.9c1-6.8.9-11 .3-13.8z"/><path class="cls-1" d="M40.1 16.3C39.1 11.5 35.8 0 35.8 0h-3s5 11.3 5.7 16.5c.6 3.2.9 6.4 0 13.2C37.4 38 32.9 50 32.9 50h2.9a170.2 170.2 0 0 0 4-19.9c.9-6.8.9-11 .3-13.8z"/><path class="cls-1" d="M34.7 16.3c-1-4.3-4-13.9-4.7-16V6a80.8 80.8 0 0 1 3 10.7c.5 3.3 1 5 .2 11.9A114.2 114.2 0 0 1 30 42.9v6.7A150.7 150.7 0 0 0 34.4 30c1-6.8.9-11 .3-13.8z"/><path class="cls-1" d="M30 18.4v6.2a37.6 37.6 0 0 0 0-6.2z"/><path d="M43.5 16c-.8-5.1-5-16-5-16h-2.7S39 11.5 40 16.3c.5 2.8.5 7-.3 13.8a170.2 170.2 0 0 1-4 19.9h2.7s3.8-13.2 4.8-21.4c.8-6.8.6-9.3.2-12.6z"/><path d="M48 16.8C47.2 11.6 42.9 0 42.9 0h-3s3.7 11.5 4.8 16.3c.6 2.8.6 7-.3 13.8C43.4 38.5 40 50 40 50h3s4.5-11.5 5.6-19.8a37.9 37.9 0 0 0-.5-13.4zm-9.5-.3C37.7 11.3 33 0 33 0h-3v.4c.7 2 3.7 11.6 4.7 16 .6 2.7.6 7-.3 13.7A150.7 150.7 0 0 1 30 49.6v.4h2.9s4.5-12 5.6-20.3c.9-6.8.6-10 0-13.2z"/><path d="M33 16.8A80.8 80.8 0 0 0 30 6v12.4a37.6 37.6 0 0 1 0 6.1V43a114.2 114.2 0 0 0 3.2-14.3c1-6.8.4-8.6-.2-11.9z"/><path class="cls-1" d="M30 24.6v-6.2a16 16 0 0 0-.3-2c-1-5-4.8-16.4-4.8-16.4h-2s4.3 11.6 5.1 16.8a37.9 37.9 0 0 1 .5 13.4c-1 8.3-5.6 19.8-5.6 19.8h2s3.4-11.5 4.5-19.9l.6-5.6z"/><path class="cls-1" d="M24.7 16.3C23.7 11.5 19.9 0 19.9 0h-1.4s4.2 10.9 5 16a41 41 0 0 1-.2 12.6c-1 8.3-4.8 21.4-4.8 21.4h1.4s3.4-11.5 4.5-19.9c1-6.8.9-11 .3-13.8z"/><path class="cls-1" d="M20.1 16.3C19.1 11.5 15.8 0 15.8 0h-3s5 11.3 5.7 16.5a40 40 0 0 1 0 13.2C17.4 38 12.9 50 12.9 50h2.9a170.2 170.2 0 0 0 4-19.9c.9-6.8.9-11 .3-13.8z"/><path class="cls-1" d="M14.7 16.3c-1-4.3-4-13.9-4.7-16V6a80.8 80.8 0 0 1 3 10.7c.5 3.3 1 5 .2 11.9A114.2 114.2 0 0 1 10 42.9v6.7A150.7 150.7 0 0 0 14.4 30c1-6.8.9-11 .3-13.8zM27.9 50H30v-7l-2.1 7z"/><path class="cls-1" d="M10 18.4v6.2a37.6 37.6 0 0 0 0-6.2zM30 0h-2.1L30 6z"/><path d="M23.4 16c-.7-5.1-5-16-5-16h-2.6S19 11.5 20 16.3c.5 2.8.5 7-.3 13.8a170.2 170.2 0 0 1-4 19.9h2.7s3.8-13.2 4.8-21.4c.8-6.8.6-9.3.1-12.6z"/><path d="M28 16.8C27.2 11.6 22.9 0 22.9 0h-3s3.7 11.5 4.8 16.3c.6 2.8.6 7-.3 13.8C23.4 38.5 20 50 20 50h3s4.5-11.5 5.6-19.8a37.9 37.9 0 0 0-.5-13.4zm-9.5-.3C17.7 11.3 13 0 13 0h-3v.4c.7 2 3.7 11.6 4.7 16 .6 2.7.6 7-.3 13.7A150.7 150.7 0 0 1 10 49.6v.4h2.9s4.5-12 5.6-20.3c.9-6.8.6-10 0-13.2z"/><path d="M13 16.8A80.8 80.8 0 0 0 10 6v12.4a37.6 37.6 0 0 1 0 6.1V43a114.2 114.2 0 0 0 3.2-14.3c1-6.8.4-8.6-.2-11.9zm17 1.6V6l-2.1-6h-3s3.7 11.5 4.8 16.3a16 16 0 0 1 .3 2.1zm0 6.2l-.6 5.5C28.4 38.5 25 50 25 50h3l2.1-7z"/><g><path class="cls-1" d="M10 24.6v-6.2a16 16 0 0 0-.3-2C8.7 11.4 4.9 0 4.9 0h-2S7.2 11.6 8 16.8a37.9 37.9 0 0 1 .5 13.4C7.5 38.5 2.9 50 2.9 50h2s3.4-11.5 4.5-19.9l.6-5.6z"/><path class="cls-1" d="M4.7 16.3C3.7 11.5-.1 0-.1 0h-1.4s4.2 10.9 5 16a41 41 0 0 1-.2 12.6C2.3 36.9-1.5 50-1.5 50h1.4s3.4-11.5 4.5-19.9c1-6.8.9-11 .3-13.8z"/><path class="cls-1" d="M.1 16.3C-.9 11.5-4.2 0-4.2 0h-3s5 11.3 5.7 16.5c.6 3.2.9 6.4 0 13.2C-2.6 38-7.1 50-7.1 50h2.9a170.2 170.2 0 0 0 4-19.9c.9-6.8.9-11 .3-13.8zM7.9 50H10v-7l-2.1 7zM10 0H7.9L10 6z"/><path d="M3.5 16c-.8-5.1-5-16-5-16h-2.8S-.8 11.5.2 16.3c.6 2.8.6 7-.2 13.8A170.2 170.2 0 0 1-4.2 50h2.7s3.8-13.1 4.8-21.4c.8-6.8.6-9.3.2-12.6z"/><path d="M8 16.8C7.2 11.6 2.9 0 2.9 0h-3s3.7 11.5 4.8 16.3c.6 2.8.6 7-.3 13.8C3.4 38.5 0 50 0 50h3s4.5-11.5 5.6-19.8A37.9 37.9 0 0 0 8 16.8zm2 1.6V6L7.9 0h-3s3.7 11.5 4.8 16.3a16 16 0 0 1 .3 2.1zm0 6.2L9.4 30C8.4 38.5 5 50 5 50h3l2.1-7z"/></g>
    </pattern>
    <symbol id="Smoke_Stack" viewBox="0 0 43.9 228">
      <path fill="url(#drkCross)" stroke="#000" stroke-miterlimit="10" d="M.5 155h42.9v72.5H.5z" id="Smoke_Stack-3" />
      <path d="M21 150.7A12.5 12.5 0 0 0 33 135c-3-11-5.8-25.8-3.9-38.3 4.7-30.2 14.2-29.4 11.1-47.2C36.5 28 11 3.8 2 12.8c-5.4 5.4 13.8 27.3 9.1 47.9-3.1 13.8-9 15.6-9 27 .1 12.8 7.8 14.2 9 27a53.9 53.9 0 0 1-2.1 20 12.5 12.5 0 0 0 12 16z" fill="url(#dots)"/>
      <path class="cls-13" d="M20.3 145.3a8.7 8.7 0 0 1-8.7-10.2c2.2-12.3 5-33.6 3.6-50.7-2.8-34.1-12.8-30.8-11-50.9C6.6 9.3 20.8-7 26.3 3.1c3.2 6-2.9 17.4 0 40.6 1.8 15.6 5.4 17.7 5.4 30.5 0 14.4-4.7 16-5.5 30.5a117.6 117.6 0 0 0 2.7 30 8.7 8.7 0 0 1-8.5 10.6z"/>
    </symbol>
    <symbol id="blade" viewBox="0 0 102.8 183.6">
      <path d="M81.3 108.7C98 140 95 183.6 95 183.6h7.8s-.3-46-12-73.5C62.1 42.3 0 0 0 0s38.8 23.4 81.3 108.7z"/>
    </symbol>
    <symbol id="Creep_Leg" viewBox="0 0 85.7 127.7">
      <path d="M85.2 2.1c-.6 15-2 30.7-3.6 45.4-2.1 18.6-9.4 26.2-11.4 38.1-1.8 11 5 21.2 1.6 27-2 3.7-6.7 6.8-12.7 9.2-14.3 5.7-32.8 5.8-46.2 5.1-7.3-.4-12.5-2-12.4-6.2a25 25 0 0 1 9.5-19c9.8-7.5 23.4-8.2 25.1-13.5 2-6 .2-43.7 3.8-69.6L41.4 0" fill="url(#ltCross)" stroke="#000" stroke-miterlimit="10"/>
    </symbol>
    <symbol id="Hat_Ring" viewBox="0 0 160.3 66.3">
      <path d="M24.4 66.2c-6.7.2-13.8.3-17.5-1.5a14 14 0 0 1-6.5-8.2c-4.8-14.7 36.3-34 63.8-43.3 38-13 89.6-18.6 95.1-6.6a11.2 11.2 0 0 1-.2 9.9c-5.5 11.4-31.9 24-68.8 35.4-30.4 9.3-51.7 14-65.9 14.3zM131.8 1.8a242 242 0 0 0-67 11.9C39 22.3-.2 41.8 4 54.9 5 57.6 7 60.6 9.8 62c10.9 5.3 35.5 2.6 79.9-10.8 36.5-11 59.4-25 64.7-35.8a9.2 9.2 0 0 0 .2-8.2c-1.8-4-10.5-5.6-22.8-5.4z"/>
    </symbol>
    <symbol id="Shoe_highlight" viewBox="0 0 41.8 17.7">
      <path d="M.2.9S2.1 5.7 5.4 8a20.4 20.4 0 0 0 8.5 3.3 23.2 23.2 0 0 0 15.2-2.6c5.1-2.7 12.6-3.1 12.6-3.1s-6.6.5-11.3 3.8c-4.9 3.5-7.7 7.2-13.7 8-3.4.5-11-1.8-13-3.6C1 11.7.7 7.8.6 5.3L.2.9z" stroke-width=".3" stroke="#fff" stroke-miterlimit="10" fill="#fff"/>
    </symbol>
    <symbol id="shadow-right" viewBox="0 0 37.9 33">
      <path d="M37 0s-3 12-10 18S0 33 0 33s21.7-8.6 28-14C42 7 37 0 37 0z" fill="url(#grad1)"/>
    </symbol>
    <symbol id="shadow-left" viewBox="0 0 24.6 10.4">
      <path d="M.6 0s2 7 6 8c6 1.5 18-1 18-1s-12 4.8-19 3c-8-2-5-10-5-10z" fill="url(#grad2)"/>
    </symbol>
    <symbol id="Boot" viewBox="0 0 152.9 144.4">
      <path id="boot-top" class="cls-2" d="M25.6 2.3a6.9 6.9 0 0 0-4 5c-2.5 10-1.5 33-5 44-4.7 15.2-18.7 42.5-15 58 .8 3.3 2 9.5 6 14.6s11 9.7 23 8.4c54-6 45 4 71 6 12.8 1 42 0 45-2 4.3-2.9 4.2-6 5-10 1-5-.5-15.7-7-20-9-6-22.5-5.5-30-8-12.6-4.2-12.2-9-21-19-7.8-8.9-8-16.2-8-28 0-9 3.5-33 5-39 1-4-3-7-3-7s2 6.2-.2 7.6c-5.8 3.4-27 3.1-36.8 2.4-8.5-.7-27-2-27-8a7.7 7.7 0 0 1 2-5z"/>
      <path id="boot-main" d="M11.3 67.4l-2.2 4s-9.9 28-7.5 37.9c.8 3.3 2 9.5 6 14.5s11 9.8 23 8.5c54-6 45 4 71 6 12.8 1 42 0 45-2 4.3-2.9 4.2-6 5-10 1-5-.5-15.7-7-20-9-6-22.5-5.5-30-8a25.4 25.4 0 0 1-16-15s-6.2 5.7-11 4C79.6 84.3 54 73 42 76.6c-13.4 3.9-18.3 5-25.5 2-7.7-3.2-5-11.2-5-11.2z"/>
      <path d="M7.6 124.3l42 4v12.1a3 3 0 0 1-2.9 3c-5.8 0-12.3.3-18.1-.3-4.1-.5-12.3-1.8-16.6-3.2-3.6-1.2-6.8-3.2-6.2-7z"/>
      <path d="M117.2 98.3c5.4 7.5 1.1 36.2-3.7 44.4" stroke-dasharray="2.94 3.93" stroke-linecap="round" stroke="#fff" stroke-miterlimit="10" stroke-width="2" fill="none"/>
      <path class="cls-3" d="M112.2 96c6.3 5.3 3.5 32.3-2.2 42.6"/>
      <use width="41.8" height="17.7" transform="translate(6.6 79.3)" xlink:href="#Shoe_highlight"/>
      <use width="41.8" height="17.7" transform="translate(4 84.3)" xlink:href="#Shoe_highlight"/>
      <path d="M62 133.2a76 76 0 0 1 21.4 4.5 86.5 86.5 0 0 0 16.2 3.5c17.7 1.7 46.1.3 49-2.9l.3 1.6a1.6 1.6 0 0 1-1.3 1.7 155.8 155.8 0 0 1-19.9 2.5 247.5 247.5 0 0 1-30.2-.6 89.3 89.3 0 0 1-16.6-4.7c-8.2-4-18.9-5.6-18.9-5.6z"/>
      <use width="41.8" height="17.7" transform="translate(2.9 91.6)" xlink:href="#Shoe_highlight"/>
      <use width="41.8" height="17.7" transform="matrix(.87 0 0 .87 1.9 99.6)" xlink:href="#Shoe_highlight"/>
      <use width="41.8" height="17.7" transform="rotate(-9.7 694.5 47) scale(.7)" xlink:href="#Shoe_highlight"/>
      <use width="41.8" height="17.7" transform="matrix(.43 -.18 .18 .43 5.6 118.9)" xlink:href="#Shoe_highlight"/>
      <use width="37.9" height="33" transform="matrix(.49 .27 -.29 .52 71.6 3.5)" xlink:href="#shadow-right"/>
      <use width="37.9" height="33" transform="matrix(.49 .27 -.29 .52 69.6 18.5)" xlink:href="#shadow-right"/>
      <use width="37.9" height="33" transform="matrix(.35 .19 -.23 .42 77 13.4)" xlink:href="#shadow-right"/>
      <use width="37.9" height="33" transform="matrix(.35 .19 -.23 .42 77 10.4)" xlink:href="#shadow-right"/>
      <use width="37.9" height="33" transform="matrix(.37 .2 -.25 .46 75 16.9)" xlink:href="#shadow-right"/>
      <use width="37.9" height="33" transform="matrix(.49 .27 -.29 .52 68.6 22.5)" xlink:href="#shadow-right"/>
      <use width="37.9" height="33" transform="matrix(.49 .27 -.29 .52 68.6 33.5)" xlink:href="#shadow-right"/>
      <use width="37.9" height="33" transform="matrix(.35 .19 -.23 .42 74 29.4)" xlink:href="#shadow-right"/>
      <use width="37.9" height="33" transform="matrix(.37 .2 -.25 .46 72 32.9)" xlink:href="#shadow-right"/>
      <use width="37.9" height="33" transform="matrix(.49 .27 -.29 .52 68.6 37.5)" xlink:href="#shadow-right"/>
      <use width="37.9" height="33" transform="matrix(.49 .27 -.29 .52 68.6 48.5)" xlink:href="#shadow-right"/>
      <use width="37.9" height="33" transform="matrix(.49 .27 -.29 .52 68.6 53.5)" xlink:href="#shadow-right"/>
      <use width="37.9" height="33" transform="matrix(.33 .09 -.1 .36 74.5 63.6)" xlink:href="#shadow-right"/>
      <use width="37.9" height="33" transform="matrix(.33 .05 -.05 .31 76.3 67.4)" xlink:href="#shadow-right"/>
      <use width="37.9" height="33" transform="matrix(.23 .04 -.04 .24 80.6 70.7)" xlink:href="#shadow-right"/>
      <use width="37.9" height="33" transform="matrix(.23 .04 -.04 .24 82.6 73.7)" xlink:href="#shadow-right"/>
      <use width="37.9" height="33" transform="matrix(.22 0 0 .18 84.7 78.4)" xlink:href="#shadow-right"/>
      <use width="37.9" height="33" transform="matrix(.35 .19 -.23 .42 74 44.4)" xlink:href="#shadow-right"/>
      <use width="37.9" height="33" transform="matrix(.37 .2 -.25 .46 72 47.9)" xlink:href="#shadow-right"/>
      <use width="24.6" height="10.4" transform="matrix(.46 .2 -.34 .77 22 6.7)" xlink:href="#shadow-left"/>
      <use width="24.6" height="10.4" transform="matrix(.3 .13 -.22 .49 20.8 16.6)" xlink:href="#shadow-left"/>
      <use width="24.6" height="10.4" transform="matrix(.3 .13 -.22 .49 19.8 30.6)" xlink:href="#shadow-left"/>
      <use width="24.6" height="10.4" transform="matrix(.46 .2 -.27 .62 19.3 35.3)" xlink:href="#shadow-left"/>
      <use width="24.6" height="10.4" transform="matrix(.28 .12 -.27 .62 17.3 51.3)" xlink:href="#shadow-left"/>
      <use width="24.6" height="10.4" transform="matrix(.26 .18 -.26 .36 14.4 58.5)" xlink:href="#shadow-left"/>
      <use width="24.6" height="10.4" transform="matrix(.31 .1 -.16 .51 18.3 44.9)" xlink:href="#shadow-left"/>
      <use width="24.6" height="10.4" transform="matrix(.26 .19 -.32 .43 12.7 63.1)" xlink:href="#shadow-left"/>
      <use width="24.6" height="10.4" transform="matrix(.47 .17 -.21 .61 19.9 22)" xlink:href="#shadow-left"/>
      <path class="cls-3" d="M8.6 127.4c.5 6.1 13.5 5 16.3 4.6M7.8 130.2c.7 4.5 10.1 5.5 16.6 5.1M7.2 132.9c2 5.6 13.1 5.9 17.3 5.4"/>
      <path class="cls-6" d="M56.8 85.2A59.8 59.8 0 0 1 70.4 90c7.3 3.7 15 9.6 18.5 10.8a101.3 101.3 0 0 0 10.2 2.6c2.9.6 11.9-1.1 11.9-1.1l-7 1.9 6.2.6a45.7 45.7 0 0 1-16.1-.7c-9.1-2.3-10.7-4.2-13.5-5.8-4.2-2.3-8.2-5-12-7.5a60.8 60.8 0 0 0-11.8-5.6zM124.8 103s7.9.3 9.9.6c6.5 1 12.7 7.7 12.7 7.7s-8.4-5-10.9-5.6l-11.7-2.7z"/>
    </symbol>
    <symbol id="sign" viewBox="0 0 290.8 108.3">
      <path d="M226 107.3H1V1h225l63.3 49.7-63.4 56.6z"/>
    </symbol>
    <symbol id="sign-layers" viewBox="0 0 297.5 115.5">
      <use class="cls-13" id="sign-diagnal" width="290.8" height="108.3" transform="matrix(1.02 0 0 1.02 0 4.8)" xlink:href="#sign"/>
      <use class="cls-6" id="sign-solid" width="290.8" height="108.3" xlink:href="#sign"/>
      <use class="cls-13" id="sign-lines" width="290.8" height="108.3" xlink:href="#sign"/>
    </symbol>
    <symbol id="Hat_Hightlight" viewBox="0 0 143.8 65.7">
      <path class="cls-6" d="M0 46.4C2 40.8 35.2 46.2 75 35S140.1-2.8 143.4.2c2.8 2.6-12.7 15.2-19.7 24.4-15 19.8-23.5 34.8-35.6 38.4C68.4 69 54.5 64.3 36 57 21.5 51.5-1.3 50.6 0 46.4z"/>
    </symbol>
  </defs>
  <g id="splotches">
    <path d="M95.2 760.9c47.2-56.1 203.3-15.3 270.6-25.3 165.8-24.6 480.7 81.6 647.5 69.1 239.3-17.9 683.5-41.3 922.9-57 163.4-10.8 361 259.2 495 367.2 69.6 56.2 234 129.4 238.9 227.1 8.8 179.1-62.3 161.6-158.5 302.8-153.2 224.8-574.8 230.5-821.9 260-244.3 29-760.8 86.8-982-35.7-138-76.4-287.9-412.9-397-536.5-53-60.2-200-140-230.1-218.5-31.1-80.8-38.9-289.7 14.6-353.2z" transform="translate(86.2 -38.8)" fill="url(#grad3)"/>
    <path d="M413 42c173.6-29.4 652.7 150.8 817.7 89.7 244-90.6 481 71.4 721.3-41.2 156-73 410.3-14.8 551.3 93.3 73.4 56.2 299.5 130 304.5 227.6 9.3 179.1 30 123.7 30 123.7L65 570.5S111.6 93.3 413 42.1z" transform="translate(86.2 -38.8)" fill="url(#grad4)"/>
  </g>
  <g id="skyline" opacity=".4">
    <path class="cls-15" d="M89.6 33.1H290v465.2H89.6zm2635.2 192.1h200.4V527h-200.4zM294.2 128.4h145.9v369.9H294.2zM1818 306.1h317.6v199.4H1818zm331.2-175.3h145.9v369.9h-145.9zM470.3 229.5H1018v268.8H470.3zM2318 185h389.5v320.5H2318zm-1272.8-85h223.3v400.8h-223.3zm459.8 59.4h186.7v335.8H1505zm-216.3 43.3h190.9v276.9h-190.9z"/>
    <path class="cls-15" d="M1816 462h-90V237h-9l.4-81.4h9l-.5-35.5 18-9 9-18 .5-36.5 18-54 17 54 .5 36.5 9 18 18 9v36l9.5.5-.5 80.5h-9v225z"/>
    <circle cx="1771.2" cy="197.1" r="32" stroke-miterlimit="10" stroke="#000" fill="#fff"/>
    <use width="43.9" height="228" transform="translate(504.3 1)" xlink:href="#Smoke_Stack"/>
    <use width="43.9" height="228" transform="translate(577 1.2)" xlink:href="#Smoke_Stack"/>
    <use width="43.9" height="228" transform="translate(649 1.2)" xlink:href="#Smoke_Stack"/>
    <use width="43.9" height="228" transform="translate(2767.3)" xlink:href="#Smoke_Stack"/>
    <use width="43.9" height="228" transform="translate(2841.3)" xlink:href="#Smoke_Stack"/>
    <path class="cls-6" d="M.8 555.1s162-34 304.7-18.7c83 9 134.6 12.9 167.6 17.4 257.4 35.4 488.6-39.7 895.1-24.3 217.8 8.2 309 35.8 521.8 24.3 88-4.7 107.2-11.3 196.3-17.4 230.9-15.8 325 26 536.1 14a8261.3 8261.3 0 0 0 215.4-15.3v86L1.2 634z" transform="translate(86.2 -92)"/>
    <path d="M.8 555.1s162-34 304.7-18.7c83 9 134.6 12.9 167.6 17.4 158.8 21.9 298.6-2.6 484.7-17.7a3514.8 3514.8 0 0 1 410.4-6.6c217.8 8.2 309 35.8 521.8 24.3 88-4.7 107.2-11.3 196.3-17.4 230.9-15.8 325 26 536.1 14a8261.3 8261.3 0 0 0 215.4-15.3l1 88c1.3 9.2-370.3-5.4-630-24-126-9-292 84.1-468 45-243-54-614.8-47.6-711-36-332.5 40.3-648 36-819 0-71-15-211 34-211 34z" transform="translate(86.2 -92)" fill="url(#ltLine)"/>
    <path d="M.8 555.1s162-34 304.7-18.7c83 9 134.6 12.9 167.6 17.4 158.8 21.9 298.6-2.6 484.7-17.7a3514.8 3514.8 0 0 1 410.4-6.6c217.8 8.2 309 35.8 521.8 24.3 88-4.7 107.2-11.3 196.3-17.4 230.9-15.8 325 26 536.1 14a8261.3 8261.3 0 0 0 215.4-15.3l1 43c1.3 9.2-370.3-5.4-630-24-126-9-292 84.1-468 45-243-54-614.8-47.6-711-36-332.5 40.3-648 36-819 0-71-15-211 34-211 34z" transform="translate(86.2 -92)" fill="url(#line)"/>
  </g>
  <g id="Path" fill="url(#ltLine)">
    <path d="M2839 1366s-335 213-443 239c-146 34-444-7-586 40-172 57-498 335-666 393-5 2-1144 0-1144 0v-428s134-74 334-103c195-28 602 64 789 36 156-24 425-159 580-195 163-36 515-11 680-36 107-16 456-182 456-182z" transform="translate(86 -92)"/>
    <path d="M328 1749c-98 9-98 20-109 61-8 30 104 8 109 27s-60 47-56 67c2 13 187 48 255 46 79-1 74-24 219-31 154-7 251 101 380 54 23-8 97-74 99-122 2-32 56-61 29-98-36-49-349 11-536 29-89 8-217-48-390-33z" transform="translate(86 -92)"/>
  </g>
  <g id="ground">
    <g id="ground-1">
      <path class="cls-24" d="M-86.2 1083.1c3-20.6 171-36.5 321.4-59 90.8-13.6 152.5-42.1 232.2-40 276.3 7.4 293 65.3 589.2 72 190.2 4.3 218.7-39.7 321.4 4 48.7 20.7 216.8 21.8 198.4 51-22 35-81.8 33.3-308 17-125-9-496-48.6-646.2-63-375-36-714 57.8-708.4 18z" transform="translate(86.2 -92)"/>
      <path class="cls-25" d="M-86.2 1083.1c3-20.6 171-36.5 321.4-59 90.8-13.6 152.5-42.1 232.2-40 276.3 7.4 293 65.3 589.2 72 190.2 4.3 218.7-39.7 321.4 4 48.7 20.7 216.8 20.8 198.4 50-22 35-131.3-41.9-357.6-27-136.7 9-458.7-48.6-609-63-375-36-701.6 102.8-696 63z" transform="translate(86.2 -92)"/>
    </g>
    <g id="ground-2">
      <path class="cls-24" d="M2838.8 1848.1c-2-20.6-110-36.5-206.9-59-58.4-13.6-98.1-42.1-149.4-40-177.8 7.4-188.6 65.3-379.2 72-122.4 4.3-140.8-39.7-206.9 4-31.3 20.7-139.5 21.8-127.7 51 14.2 35 52.7 33.3 198.2 17 80.4-9 319.2-48.6 416-63 241.3-36 459.5 57.8 455.9 18z" transform="translate(86.2 -92)"/>
      <path class="cls-25" d="M2838.8 1848.1c-2-20.6-110-36.5-206.9-59-58.4-13.6-98.1-42.1-149.4-40-177.8 7.4-188.6 65.3-379.2 72-122.4 4.3-140.8-39.7-206.9 4-31.3 20.7-139.5 20.8-127.7 50 14.2 35 84.6-41.9 230.2-27 88 9 295.2-48.6 392-63 241.3-36 451.5 102.8 447.9 63z" transform="translate(86.2 -92)"/>
    </g>
    <g id="ground-3">
      <path d="M1156.5 729.2c3.2-20.4 92.2-29.2 172.6-45.4 48.5-9.7 83-35.6 124.5-30.1 143.7 19 147.8 77.4 302 96.5 99 12.2 117.4-30.5 167.5 17.4 23.8 22.7 111.5 30.8 99.6 59.1-14.3 34-45.4 29.8-162.2 4-64.5-14.1-255.2-69.1-332.5-89.8-193-51.6-377.6 27.7-371.5-11.7z" transform="translate(86.2 -92)" fill="url(#ltLine)"/>
      <path d="M1156.5 729.2c3.2-20.4 92.2-29.2 172.6-45.4 48.5-9.7 83-35.6 124.5-30.1 143.7 19 147.8 77.4 302 96.5 99 12.2 117.4-30.5 167.5 17.4 23.8 22.7 111.6 29.8 99.7 58.1-14.4 34-65.3-47.2-184.7-41.8-72.1 3.2-235.7-67.7-313-88.3-193-51.6-374.7 73-368.6 33.6z" transform="translate(86.2 -92)" fill="url(#line)"/>
    </g>
    <g id="tuft-1">
      <use width="102.8" height="183.6" transform="translate(206.4 1211.5)" xlink:href="#blade"/>
      <use width="102.8" height="183.6" transform="matrix(-1 0 0 .93 407 1223.5)" xlink:href="#blade"/>
      <use width="102.8" height="183.6" transform="matrix(1 0 0 1.51 208.8 1118.2)" xlink:href="#blade"/>
    </g>
    <g id="tuft-2">
      <use width="102.8" height="183.6" transform="matrix(.82 0 0 .85 2065.7 1469.5)" xlink:href="#blade"/>
      <use width="102.8" height="183.6" transform="matrix(-1 0 0 1 2245.2 1442.7)" xlink:href="#blade"/>
    </g>
  </g>
  <g id="sign-and-creep">
    <g id="Signpost">
      <use width="298" height="116" transform="matrix(-.72 0 0 .81 2469 260)" xlink:href="#sign-layers"/>
      <use width="298" height="116" transform="translate(2536 300)" xlink:href="#sign-layers"/>
      <path d="M2058 1000c-69 9-69 20-77 62-5 29 74 7 77 26s-42 47-39 67c1 13 132 48 179 46 56-1 53-24 155-31 109-6 153 8 244-39 16-8 52-12 54-60 1-32 59-78 40-115-26-50-248 20-381 38-62 8-130-9-252 6z" transform="translate(86 -92)" fill="url(#ltLine)"/>
      <path class="cls-2" d="M2482 119h38a16 16 0 0 1 17 16v876h-71V136a16 16 0 0 1 16-17z"/>
      <path d="M2482 119h38a16 16 0 0 1 17 16v876h-71V136a16 16 0 0 1 16-17z" fill="url(#ltLine)" stroke-width="2" stroke-miterlimit="10" stroke="#000"/>
      <path d="M2451 1103h-16l-1-892a16 16 0 0 1 17 17z" transform="translate(86 -92)" fill="url(#line)" stroke-width="2" stroke-miterlimit="10" stroke="#000"/>
      <path d="M2382 1103h16l1-892a16 16 0 0 0-17 17z" transform="translate(86 -92)" fill="url(#ltLine)" stroke-width="2" stroke-miterlimit="10" stroke="#000"/>
      <rect class="cls-6" x="2313" y="276" width="123" height="55" rx="24"/>
      <path d="M2240 413h-1v-38h7v15h8v-15h7v38h-6-1v-17h-8v17zm36 1a10 10 0 0 1-6-2 12 12 0 0 1-4-4 11 11 0 0 1-1-5v-18a11 11 0 0 1 1-5 11 11 0 0 1 4-4 10 10 0 0 1 6-2 10 10 0 0 1 5 2 11 11 0 0 1 4 4 11 11 0 0 1 2 5v17a11 11 0 0 1-2 6 11 11 0 0 1-4 4 10 10 0 0 1-5 2zm0-7a4 4 0 0 0 3-1 4 4 0 0 0 1-3v-18a4 4 0 0 0-1-3 4 4 0 0 0-3-1 4 4 0 0 0-3 1 4 4 0 0 0-1 3v17a4 4 0 0 0 1 4 4 4 0 0 0 3 1zm15 6v-38h7l5 7 5-7h7l1 38h-7v-28l-6 8-6-8v28zm29 0v-38h18v6h-11v9h11v6h-11v10h12v7h-1z" transform="translate(86 -92)"/>
      <path class="cls-6" d="M2542 315h237v58h-237z"/>
      <path class="cls-6" d="M2583 357h156v46h-156z"/>
      <path d="M2476 453a11 11 0 0 1-6-2 11 11 0 0 1-4-4 12 12 0 0 1-1-5v-3h6v3a5 5 0 0 0 2 3 4 4 0 0 0 3 1 4 4 0 0 0 2-1 5 5 0 0 0 2-3v-28h6v28a11 11 0 0 1-1 5 12 12 0 0 1-4 4 10 10 0 0 1-5 2zm15-1v-38h18v6l-1 1h-11v8h12v7h-12v10h12v6h-1zm23 0v-38h11a11 11 0 0 1 6 1 11 11 0 0 1 4 4 11 11 0 0 1 0 10 12 12 0 0 1-1 2 10 10 0 0 1-1 2 11 11 0 0 1 3 8v11h-7v-11a5 5 0 0 0-1-4 5 5 0 0 0-4-1h-4v16zm6-23h5a4 4 0 0 0 3-1 4 4 0 0 0 0-6 4 4 0 0 0-3-1h-5zm30 24a10 10 0 0 1-5-2 11 11 0 0 1-4-4 11 11 0 0 1-2-5l1-28h6v28a5 5 0 0 0 1 3 4 4 0 0 0 3 1 4 4 0 0 0 3-1 5 5 0 0 0 1-3v-28h7v28a11 11 0 0 1-5 9 10 10 0 0 1-6 2zm25 0a10 10 0 0 1-6-2 12 12 0 0 1-4-4 11 11 0 0 1-1-5v-3h7v3a4 4 0 0 0 1 3 4 4 0 0 0 6 0 4 4 0 0 0 1-3q0-2-3-4l-2-1-4-2a12 12 0 0 1-4-5 12 12 0 0 1-2-6 10 10 0 0 1 2-5 11 11 0 0 1 4-4 11 11 0 0 1 10 0 11 11 0 0 1 4 4 11 11 0 0 1 2 5v5h-7v-5a4 4 0 0 0-1-3 4 4 0 0 0-3-1 4 4 0 0 0-3 1 4 4 0 0 0-1 3 5 5 0 0 0 1 3 7 7 0 0 0 2 3h1l2 1 2 1 1 1a13 13 0 0 1 4 3 9 9 0 0 1 2 6 11 11 0 0 1-2 5 11 11 0 0 1-4 4 10 10 0 0 1-5 2zm11-1l7-38h9l6 38h-6l-1-4h-7l-1 4h-6zm9-10h5l-2-15-1-2v2zm17 10v-38h6v32h12v6zm22 0v-38h18v7h-12v8h12v7h-12v10h12v6zm23 0v-38h7l5 8 5-8a1 1 0 0 1 1 0h7v38h-7v-28l-6 8-6-8v28c1 0 0 0 0 0zm-149 9a1 1 0 0 1 1-1l2 1a3 3 0 0 1 0 3l-3 14a37 37 0 0 0-2 6l1 1a38 38 0 0 0 10-1 13 13 0 0 1 2-1 1 1 0 0 1 1 1l-4 3a24 24 0 0 1-9 2 5 5 0 0 1-3-1 3 3 0 0 1-1-3l2-11 3-12a2 2 0 0 1 0-1zm22 28a6 6 0 0 1-5-3 9 9 0 0 1-2-5 22 22 0 0 1 1-8 26 26 0 0 1 4-6 20 20 0 0 1 4-5 8 8 0 0 1 5-2 7 7 0 0 1 5 4 11 11 0 0 1 3 7 18 18 0 0 1-3 8 23 23 0 0 1-5 7 11 11 0 0 1-7 3zm5-6a22 22 0 0 0 4-6 14 14 0 0 0 2-6 10 10 0 0 0-1-5 3 3 0 0 0-3-2l-4 2a25 25 0 0 0-4 7 18 18 0 0 0-2 8 6 6 0 0 0 1 3 3 3 0 0 0 2 2l5-3zm31-21l1-2a2 2 0 0 1 2 1 3 3 0 0 1 1 2 60 60 0 0 1-1 9 77 77 0 0 1-3 12l-3 5a2 2 0 0 1-2-1 4 4 0 0 1 0-1l-7-18-3 11-2 7-1 2-1-1a3 3 0 0 1-1-2l3-11q3-10 2-13l1-1a2 2 0 0 1 1 0 5 5 0 0 1 1 2l8 20a63 63 0 0 0 4-16v-5zm9-1a19 19 0 0 1 8 2 22 22 0 0 1 7 5 11 11 0 0 1 3 7l-3 6a33 33 0 0 1-8 5 17 17 0 0 1-7 3l-2-2a4 4 0 0 1-1-2l2-10a75 75 0 0 0 3-11 5 5 0 0 1-2-1 2 2 0 0 1-1-2l1-1zm14 14q0-3-3-6a18 18 0 0 0-6-4 7 7 0 0 1 0 2 18 18 0 0 1-1 3l-2 9a47 47 0 0 0-2 6 16 16 0 0 0 7-2 27 27 0 0 0 5-5c2-1 2-2 2-3zm13 14a6 6 0 0 1-4-3 9 9 0 0 1-2-5 22 22 0 0 1 1-8 26 26 0 0 1 4-6 20 20 0 0 1 4-5 8 8 0 0 1 5-2 7 7 0 0 1 5 4 11 11 0 0 1 2 7 18 18 0 0 1-2 8 22 22 0 0 1-5 7 11 11 0 0 1-8 3zm5-6a22 22 0 0 0 5-6 14 14 0 0 0 2-6 10 10 0 0 0-1-5 3 3 0 0 0-3-2l-4 2a25 25 0 0 0-5 7 18 18 0 0 0-2 8 6 6 0 0 0 1 3 3 3 0 0 0 3 2l4-3zm32-21l1-2a2 2 0 0 1 2 1 3 3 0 0 1 0 2 60 60 0 0 1-1 9 76 76 0 0 1-2 12q-2 5-4 5a2 2 0 0 1-1-1 4 4 0 0 1-1-1l-7-18-2 11-2 7-1 2-1-1a3 3 0 0 1-1-2l2-11 3-13 1-1a2 2 0 0 1 1 0 5 5 0 0 1 1 2l8 20a62 62 0 0 0 4-16v-5z" transform="translate(86 -92)"/>
      <path class="cls-34" d="M2460 416c2-1 20 6 25 6l18 2c25 2 50 5 74 9l76 11c11 1 33 7 43 3-3 2-15-2-20-3l-23-3c-27-3-53-9-79-13l-72-8-19-1c-5-1-18-5-23-3z" transform="translate(86 -92)"/>
      <path class="cls-34" d="M2460 447c2-4 36-3 44-4 25-2 49-4 74-8l76-12c11-2 34-1 43-6-3 2-16 0-20 1l-24 2q-40 4-79 11c-24 4-49 6-73 9-9 1-36 0-42 7z" transform="translate(86 -92)"/>
      <path class="cls-6" d="M2348 1103c-2-8 14-22 28-24 13-1 17 8 33 8 18 1 22-10 38-10 20-1 42 18 40 27-6 21-133 20-139-1z" transform="translate(86 -92)"/>
      <path d="M2342 1103c-3-8 15-22 31-24 15-1 19 8 37 8 20 1 25-10 43-10 22-1 47 18 45 27-6 21-150 20-156-1z" transform="translate(86 -92)" fill="url(#line)"/>
      <path d="M2342 1093c-3-5 15-13 31-14 15-1 19 5 37 5 20 0 25-6 43-6 22-1 47 10 45 16-6 12-150 11-156-1z" transform="translate(86 -92)" fill="url(#line)"/>
    </g>
    <g id="Creep">
      <path d="M2294.8 654.3l3.3-6.7s18.7-10.4 32.2-23.3c7.2-7 21.5-9.1 33.3-11.3 12.6-2.3 18.1-3.8 18.1-3.8s1.2 7.1 2.4 15.9a108 108 0 0 1 1.4 30.5c-.5 2-7.7 6.4-10 14.3-.8 2.7 1 8.2 1 8.2s-6.6 12.8-9 15.2c-6.9 6.8-8.2 14.6-19.7 15.8-4 .4-19.8-11.1-19.8-11.1s1.7-9 .3-9c-7-.4-7.8.4-9.2-1.6-1.8-2.3-1.4-7.4-10.3-7.3-18.4.2-20.4 6-23.7 2.4s1.5-10.5 9.7-28.2z" transform="translate(86.2 -92)" fill="url(#dots)" stroke-miterlimit="10" stroke="#000"/>
      <path d="M2383.1 589.3c-5.5-12.9-39.5-17.6-53.5-16.4s-27.7 6.7-37.2 16.8c-5.6 5.9-19.8 28-24.5 34.6-7.5 10.4-12.5 11.5-17.2 25.3-2.6 7.7 16.8 12.2 25 11.8 16-.8 16.2-12.3 30.8-18.9 23.1-10.5 12.7-24.9 72.4-32.2 9.1-1.1 7.8-12.5 4.2-21z" transform="translate(86.2 -92)" fill="url(#drkCross)" stroke-miterlimit="10" stroke="#000"/>
      <use width="85.7" height="127.7" transform="rotate(7.5 -5764.1 18027.7)" xlink:href="#Creep_Leg"/>
      <use width="85.7" height="127.7" transform="translate(2375 919.5)" xlink:href="#Creep_Leg"/>
      <path class="cls-39" d="M2207.3 735.2a81 81 0 0 0 .7-13.8c-.5-2.7-6.3-3.2-6.6-5.9-1-8 5.7-14.3 7.9-14.8 5.3-1.5 6.2 3.8 6.7 2 1-3-9.9-9.1-11-12.2-1-2.4.7-5.4 4-5.6 1.5-.1 6.2 2.6 9.1 7 3.2 5 7.5 17.4 7.5 17.4s-5-14.5-8-19.3-6.8-6.2-6.4-7.9c0-4 4.4-3.8 6.6-2.5 3 1.8 11.2 15.6 13.6 18.2 5 5.2 5 9.2 5.3 11.1 1.6 11.3-3.2 11.9-3.4 20.5 0 2.6 1.5 6.2 1.8 7.7s-10.6 1.4-12.8 1.3-15.2-.8-15-3.2z" transform="translate(86.2 -92)"/>
      <path class="cls-2" d="M2377.3 677.7c-2.1.7-12.5 24.3-25.3 30.8-6.4 3.3-23-12-26.6-10.5-12.6 5.5-20.2 9.2-29.1 12.3-17.2 6-26.3 22.4-38.1 44-9.2 16.6-15.7 16-14.2 8.4 3.2-16.6.6-20.5-2.5-26.8-2-3.8-10-5.6-4.4-.8 3.8 3.2-7.4 4-15.4 3.7-10.8-.3-21-3.2-16-7.1 3.2-2.5-2.2-3.6-5 .6-2.2 3.2-1 14.5.4 37.3 1.1 17.7-9.2 25.2-6.1 35.6 1.7 5.7 4.4 7 8.1 11.3s3.6 6.2 9.4 7.3c17.8 3.4 26.9-7.2 45.4-12.7 6.2-1.8 37.1-8.4 37.6-4.4 2.2 18.5-10.2 54.4-13.3 71.6-2.9 15.8-24.5 76.7-32.6 112.6-6.6 29.7 3.3 40 3 27 0-9 19.3-6.7 62.3-4 20.3 1.3 66.2 2 60 8.3-5.3 5.3 11 5.7 14.1-7.2 4-17 8.2-47.6 7.6-52.3-4.4-34.2 10-61.4 3.9-95.3-2.8-15.3-13.1-43.5-14.2-59-.5-7-5.2-34.5 1.8-34.5 12.5 0 2.8 58.1 2.8 58.1l11 38s21-25.7 25.6-38.9c3.1-9 5.6-49.7 5.6-49.7s-4.5-84.8-34.7-104c-8.5-5.4-11.4-3-21 .3z" transform="translate(86.2 -92)"/>
      <path d="M2377.3 677.7c-2.1.7-12.5 24.3-25.3 30.8-6.4 3.3-23-12-26.6-10.5-12.6 5.5-20.2 9.2-29.1 12.3-17.2 6-26.3 22.4-38.1 44-9.2 16.6-15.7 16-14.2 8.4 3.2-16.6.6-20.5-2.5-26.8-2-3.8-10-5.6-4.4-.8 3.8 3.2-7.4 4-15.4 3.7-10.8-.3-21-3.2-16-7.1 3.2-2.5-2.2-3.6-5 .6-2.2 3.2-1 14.5.4 37.3 1.1 17.7-9.2 25.2-6.1 35.6 1.7 5.7 4.4 7 8.1 11.3s3.6 6.2 9.4 7.3c17.8 3.4 26.9-7.2 45.4-12.7 6.2-1.8 37.1-8.4 37.6-4.4 2.2 18.5-10.2 54.4-13.3 71.6-2.9 15.8-24.5 76.7-32.6 112.6-6.6 29.7 3.3 40 3 27 0-9 19.3-6.7 62.3-4 20.3 1.3 66.2 2 60 8.3-5.3 5.3 11 5.7 14.1-7.2 4-17 8.2-47.6 7.6-52.3-4.4-34.2 10-61.4 3.9-95.3-2.8-15.3-13.1-43.5-14.2-59-.5-7-5.2-34.5 1.8-34.5 12.5 0 2.8 58.1 2.8 58.1l11 38s21-25.7 25.6-38.9c3.1-9 5.6-49.7 5.6-49.7s-4.5-84.8-34.7-104c-8.5-5.4-11.4-3-21 .3z" transform="translate(86.2 -92)" fill="url(#drkCross)" stroke-width="2" stroke-miterlimit="10" stroke="#000"/>
      <path class="cls-41" d="M2346.3 629.1c-2.2-6.2.8-11.2 6.7-6.5 4 3.2 4.3 4.4 5.6 7.7 1.8 4.8 1.4 11-2 12.2-1.8.7-4-.5-5.3-1.4" transform="translate(86.2 -92)"/>
      <path class="cls-42" d="M2352.4 638a5.2 5.2 0 0 0-.5-4.7 8 8 0 0 0-2.5-2.5" transform="translate(86.2 -92)"/>
      <path class="cls-39" d="M2206 702.7c1 .1 6.5 1.3 8.9 6.2.3.5 2.4 4.8.2 7.8-1 1.4-3 2.5-4.3 2s-.6-3-2.1-5.5a8.6 8.6 0 0 0-4-3.2" transform="translate(86.2 -92)"/>
      <rect class="cls-2" x="2159.6" y="689.8" width="97.9" height="11.6" rx="2.6" transform="rotate(-14.8 1896.2 316.7)"/>
      <path d="M2225 727.3c-1 0-10-4.2-13.4-17.5-.2-.6-4.8-8.1-3.3-11.4.7-1.6 3.5-3 4.8-2.6 1.5.4 3 10.2 5 12.3 1.4 1.5 6 1.4 7.5 1.7" transform="translate(86.2 -92)" stroke-miterlimit="10" stroke="#000" fill="#fff"/>
      <path class="cls-39" d="M2225 727.3c-1 0-10-4.2-13.4-17.5-.2-.6-4.8-8.1-3.3-11.4.7-1.6 3.5-3 4.8-2.6 1.5.4 3 10.2 5 12.3 1.4 1.5 6 1.4 7.5 1.7" transform="translate(86.2 -92)"/>
      <path class="cls-43" d="M2294.7 821.3s-4.5-.4-4 6.1c.5 8.8 42.2 13.4 53.7 12.5 5.7-.5 42.7-3.4 47-16.4 1.6-4.8-3.7-4.1-3.7-4.1" transform="translate(86.2 -92)"/>
      <path class="cls-43" d="M2294.7 814.3s-4.5-.4-4 6.1c.5 8.8 42.2 13.4 53.7 12.5 5.7-.5 42.7-3.4 47-16.4 1.6-4.8-3.7-4.1-3.7-4.1" transform="translate(86.2 -92)"/>
      <path class="cls-41" d="M2367.6 919l27.4-94.7m21.4 97.2l15.6-86.6"/>
      <path stroke-width="4" fill="url(#drkCross)" stroke-miterlimit="10" stroke="#000" d="M2379.9 713.1l7.9-58.1m86.9 27.7l-7-51"/>
      <path class="cls-41" d="M2275.5 611.6c-3.6 10.7-2.8 9.8 5.2 17.1 9.3 8.6 25.2 11.6 36.3 4.2" transform="translate(86.2 -92)"/>
      <path class="cls-42" d="M2145.7 699.3c-9-5-20.7-13.3-22.7-25.7-2-12.1 6.9-18.9 8.3-33 .9-9.3-1.3-23.4-17.5-42m50.9 94.7c-9-5-20.7-13.3-22.7-25.7-2-12.1 6.9-18.9 8.3-33 .9-9.3-1.3-23.4-17.5-42" transform="translate(86.2 -92)"/>
    </g>
  </g>
  <g id="prodigal">
    <path d="M396.8 1865.3c.4-22.2 73.2-38.9 114.4-44 64.9-7.9 151.6.8 157 24.8 4.7 21.7-57.5 55.7-117.7 63-73.4 9-154-20.4-153.7-43.8zm660.2 6.4c41.1-36.6 80.5-53.4 121.6-47.6 58.5 8.2-5.7 33-21 52.1-18.3 22.9-48.1 46.4-108.8 47.6-46.7.9-9.3-36.6 8.2-52.1z" transform="translate(86.2 -92)" fill="url(#line)"/>
    <path id="Head" class="cls-2" d="M722.6 603.7c-.3-7.7-2.7-22.9-3.5-30.6-2-18.5-12.3-56.2-7-74 5.7-19.8 30.7-59.3 50.5-64.8 20.5-5.6 64.6 9.5 82.3 21.2 8.2 5.4 18 23.7 21.2 33 2.2 6.4 1 20.4 2.4 27 .9 4.3 3.3 12.4 3.3 16.8 0 4-4.6 9.3-4.4 13.4.3 6.2 12.7 11.5 14.9 17.8.6 1.8-.2 13.6-2.4 14.8-3.7 2.2-10.2-.3-11.5 2.7-1.6 3.5.9 5.5-1.4 10.8a92 92 0 0 0-5.8 23.6c-.4 3.8-.1 15.9-2.6 18.8-7.1 8.4-32.9.9-41.9 7.2-4.4 3-11.7 15-11.7 15s-23.8 7.4-40 22.8c-25.4 24.4-83.4-9-72.6-15.7 9.1-5.6 30.7-48.9 30.2-59.8z" transform="translate(86.2 -92)"/>
    <path id="Bag" class="cls-2" d="M393.7 526.6C385 563 317.6 551.4 293 590.8c-20 31.8-9 92.2 36.3 120.5 52.2 32.6 125.6 7.8 139.2-25.9 14.5-36.2-15.8-87.9-53.5-133.5-3.4-4.2 9.5-25.6 13.2-34.8 6.2-15.5 17.5-29.7 18-38.8.6-10.5-20.3 36-34.5 32-15.3-4.3-10.7-50.2-15.9-46.1-11.5 9 4 37.2-2 62.4z" transform="translate(86.2 -92)"/>
    <path id="Stick" class="cls-2" d="M640.7 709.1c-61.8-43-124.3-95-186.2-138-9.4-6.6-74.5-42.9-103.3-59.8a17.8 17.8 0 0 1-7.7-21.4l3.7-10.5a10 10 0 0 1 15.4-4.8c20.9 15.4 66.1 48.6 87.5 63.6a14416 14416 0 0 0 208.2 139.2z" transform="translate(86.2 -92)"/>
    <path id="Legs" class="cls-2" d="M585.6 1152.5c-2.9 13.2-11.8 44.1-10.6 57.6 1.2 13.7-10.5 136.4-19.4 166.5-8 26.9-31.2 78.3-43.6 103.5-7.6 15.5-28.8 43.6-34 60-5.9 18-6.8 56.4-8.3 75.3-3 37-3.2 102.2-5.9 125.8-2 17.7-15.9 39.4-15.9 39.4l77.7 10.6a132.6 132.6 0 0 1 1.1-55.3c11.8-47.7 42.4-113 50-165.2 2-13.3 4.9-19.5 8.9-30 18.9-50 67.7-246 121.1-247.7 60-1.8 57.6 134.4 84.1 188.3 7 14.1 74.6 82.2 81.8 121.7 12.4 68 48.4 86.9 65.2 128.4 17.9 44.4 10 68 10 68l75.4-49.4s-16.8-12.7-22.4-42.3a500.5 500.5 0 0 0-34.1-107c-16.5-29.4-18.6-26-20-47-1.7-26-10.6-33.7-14.7-46.6-3.2-10-7.9-30.9-10.6-41.1-24.8-93.5-90.8-277-102.3-373-3.7-30.3-231.8 51.5-233.5 59.5z" transform="translate(86.2 -92)"/>
    <path id="Right_Hand" class="cls-42" d="M1048.7 846.3c14.5-7.8 28.4-9.6 49.7-24.9 9.4-6.7 5.3-16.5 22.5-42 3.7-5.5-8.8-12.6-8-19.4.4-4.8 7.1-7.9 11-6.6 11 3.7 17.9 15 18.4 23.5.4 5.8-9.5 17.4-3 23.4 6.2 5.7 14.1-1 24-20.1.6-1.2-4-2.2-4.8-1.8-1.8 1.3-2.7 11.2-5.8 12.6-4.8 2.3-11.9.7-12.5-3.7-.6-4.8 10-22.5 14.8-23.8 4.5-1.3 16 0 20.1.6 4.5.6 8.2 5.1 7.6 8.7-.5 3.1 1 10.7-7.7 23.8a152.2 152.2 0 0 1-18.2 20.2 81.6 81.6 0 0 0 19.5-21.9c3.7-6.3 6.5-8.3 7-17.5.3-6.5 6.9 0 8.9 4 2.2 4.3.9 7.8-.2 11.9a38 38 0 0 1-7 13.4c-4 5.5-19 19.4-19 19.4s14.3-12 19-19.5c4-6.8 6-8.7 7.4-15.2.5-2.2 4 2.2 5.5 5 3.4 6.5-3.1 14.6-7.6 21-4 5.7-16.3 18.3-16.3 18.3s14.4-12.9 23.4-29c1.8-3.3 4 3.4 4 5.4.2 1.8.2 6.2-1.7 9.5a61.4 61.4 0 0 1-9.8 14c-11.4 11.8-3 8-27.4 23.7-9.9 6.3-28.4 4.8-37.3 9-20.4 9.5-43.7 32.7-43.7 32.7z" transform="translate(86.2 -92)"/>
    <path d="M474.1 1583.4s17.7-2 18.3 2.4c.4 3.1-6.6 35.6-6.7 38.8-.3 4.4 4.5 12.5 4.8 16.9.6 7.4-5.7 21.6-6.4 29-.6 5.3 4.2 16 2.4 21-1 2.7-7.2 22.1-8 24.2-.8 1.7-11 0-11 0s-.6-51.2.2-66.7c.8-17.3 6.4-65.6 6.4-65.6z" transform="translate(86.2 -92)" fill="url(#dots)" opacity=".5"/>
    <path id="Body" class="cls-2" d="M776.2 670c-12.6 6.4-27.1 2.4-36.3 2-25.1-1-39.5-5.7-42.3-13.4-2.7-7.1 5.7-10.2 5.7-10.2s1.1-2.9-1.6-1.8a347 347 0 0 1-48.2 11c-5.2.8-13.8 2.1-18.3 5-9.2 5.6-26.7 13.2-36.6 13.5-27.8 1-58.2 26.4-63.2 56.3-7.2 43.9-82.1 136.1-91.8 184.1-5.4 26.7 10.6 45.8 20.8 48.1 34.7 8 64.7 20.7 103.6 26.1 9.2 1.3 22.2 2.7 22.2 2.7s.8-35.3-1-46.7c-1.7-9.4-5.3-42-5.3-42l-23.1-4.2a226.9 226.9 0 0 0 20.4-23.7" transform="translate(86.2 -92)"/>
    <path id="Body-2" class="cls-2" d="M570.4 803.7c.3 30.8 6.6 41.8 9.9 64.7 1.3 9.2 2.4 22.6 3.6 36.3 1.4 15.6 3.6 31.6 5.2 42s1.5 29.8 1.1 46.5c-.2 8.6-.3 16.4 0 21.6 1.2 15-.8 49-4.6 63.6-3.4 13-13 45.8-16 66.4-1.8 13.4 0 40.7 1.3 54.1s-1.7 42.3-3 56c-4.6 47.8-37.3 109.3-63.5 184.6-54.1 155.3-34.1 148.2-34.1 148.2s-8.4-8.4 14.1-5.9c51.8 6 75.3-18.8 115.3 2.4 22 11.6 84.6-20.8 120-10.6 61.1 17.6 109.2-4.6 162.3-27 30.6-13 35.3-13 57.6-8.3 6.8 1.4 8.3 11.8 8.3 11.8s4.4-1.7 4.7-6c1-15.8-29.2-79-47-171.7-30.6-158.8-50.6-182.3-85.3-279.3-10.3-28.8.7-91.9 3.5-122.4 4.2-45.9 7.5-49.1 13.9-94.8" transform="translate(86.2 -92)"/>
    <path d="M529.6 1718.2s-13.3 3.7-12.7-.7c.2-1.7-.5-16.8 3.6-31.2 3.4-12.5 12.4-25.6 12.9-27 1.4-4.2-1-13.3-.2-17.6 1.3-7.3 11.2-19.4 13.8-26.3 2-5 .2-16.6 3.2-20.9 1.7-2.3 8.8-19.4 7.5-17.5-.3.5 17 .5 17 .5s-12.7 48.2-17.5 63c-5.4 16.4-27.6 77.7-27.6 77.7z" transform="translate(86.2 -92)" fill="url(#dots)" opacity=".5"/>
    <path id="Right_arm" class="cls-2" d="M852.4 696.5c40.7 36.5 92.7 114.7 120.7 151.8 18.9 24.9 4.3 17.5 29.6 7.8 8-3 15.5-6.6 28.2-12.8 14.6-7 33.5-21.9 43.1-23.7 6-1.2 10.3 8.3 10.3 8.3s-4.9-2-8.5-1.8c-12.3.7-1.8 32.6 5 48.2 2.3 5.4 5.5 17.8 9.6 24 2.2 3.4 4.6 3.7 7.3 3 4.3-1 7.3-7.5 7.7-12.4a14.4 14.4 0 0 0-1.5-7s2.8-2.3 5.2 1.3c1.7 2.4 5 18.5.9 20.4-6.6 3-11.1 20.5-14.1 24.5-4.5 6-3.3-9.5-10.7-2.2-7.2 7-6.8-4.3-18.5 1.6-21.2 10.6-42.3 19-57.6 28-12.2 7-33.5 23-54 16.8-22.6-6.6-17.2-4.2-31-17-11.7-10.5-20.4-17-46.5-41.3-16.2-15.1-37.6-34.7-58.6-55" transform="translate(86.2 -92)"/>
    <path class="cls-48" d="M716.1 909c-2.3 82.3-75.3 136.4-75.3 136.4s48.4-130 49.5-156.4c2.6-67 41.1-167 41.1-167s-13.7 132.9-15.3 187z" transform="translate(86.2 -92)"/>
    <path class="cls-49" d="M760.9 1120s37.5-3.6 59.9-31c3-3.8-3.6-5.9-2.4-8.2s8.3 4.7 8.3 10.6c0 8.2-4.7 14.4-8.3 17.6-20 17.8-59.2 27.1-59.2 27.1z" transform="translate(86.2 -92)"/>
    <path class="cls-49" d="M760.9 1112.8s41.4-8.2 58.8-29.7c3-3.8-3.6-6-2.4-8.3s8.2 4.7 8.2 10.6c0 8.3-4.6 14.4-8.2 17.7-18 16-62.7 24.8-62.7 24.8z" transform="translate(86.2 -92)"/>
    <path class="cls-48" d="M763.6 1106.4c-29.2 168.4 18.4 270.8 18.4 270.8s-1.8 2.7-7-1.2c-9.6-7.1-17.7-3.5-27.1-1.2-18.8 4.7-21.8 13.9-42.4 7-17.6-5.8-39.6 2-50.5 6-20 7-29.4-14.2-49.4-3.6-7.3 3.9-6-3.5-6-3.5s4.5-105.8 22.4-182.3c1.6-6.9 54.1 17.6 83.5-2.4 40-27.2 60.4-102.6 58.1-89.6z" transform="translate(86.2 -92)"/>
    <path class="cls-48" d="M818.5 654.9c-19.4-4.1-73 33-87 63.5-14.4 31-9.5 138.8-14.2 175.3-7.8 60.7-26.2 109-62.3 143.5-47.1 45-69.9 22.3-67 14.1.5-1.6-4.8 1.4-6 5.9-1.8 7.2-.7 9-2.3 16.5-2.4 10.5-7 5.8-7 16.4 0 17.8-6 21.2-8.3 28.3-7 22.3 4.5 24.2 4.7 24.7 1.2 2.4-5.9-16.5 3.5-7 19 19 38.4 57.6 55.9 61.7 33 7.6 80.3 12.6 99.4-24.1 10-19.4 55.6-79.5 64.7-183.5 7-81.2-11.1-243.7-3.5-258.8 5.8-11.8 23.5-34.8 37.6-41.2 16.2-7.4 24.7 4.7 24.7 4.7s3.5 4.7 0-5.9c-8.5-25.4-24.3-32.3-33-34.1z" transform="translate(86.2 -92)"/>
    <path id="Hair" d="M710.3 525.4s69.5-47.3 94.8-48.7c16.7-.9 47.6-.8 55.9 14.5 1.9 3.5 2.6 6.3 2 12s-3.9 10.4-8.6 13.7c-4.5 3-7.8 19.4-9.1 26.6a4.7 4.7 0 0 1-4 3.8l-3 .4a4 4 0 0 1-4.4-3c-1.1-4-3-10.5-4.7-13.8-2.6-4.9-5-10.7-11-11.2-10.5-1-16.1 8.7-18 14.2-1.8 5.3 0 18.2-6.3 27.4-12.5 18.4-4.9 22-15.2 31.2-3 2.7-12.7 3.3-17 .3-8-5.5-15.2 4-21.7 9-2.6 2-17.2 1-17.2 1s1-2.2-7.5-38c-4.2-17.3-5-39.4-5-39.4z" transform="translate(86.2 -92)" stroke-width=".8" fill="url(#wave)" stroke-miterlimit="10" stroke="#000"/>
    <path class="cls-51" d="M343.7 497.6c8.6-4.6 29.7 15 31.1 20.8 1 4.3 17.6 8.4 21.1 10.8 4.4 3 31.4 17.2 33.8 20.4 1.1 1.6 20.9 16.9 20.4 18.5m-102.9-88.7c19.3-6.5 20.5 20 49 30.3 23.8 8.6 72.8 49.2 76.8 54.7 18.5 25.6 45.8 31 87.1 56.3 11.4 7 38.6 31.2 62 43.7" transform="translate(86.2 -92)"/>
    <path class="cls-51" d="M627.8 662c-23.4-12.7-56.3-42.3-67.7-49.3-41.3-25.4-70.8-33.8-89.4-59.4m-127.5-63.9c19.3-6.5 20.5 20 49 30.3 23.8 8.6 72.8 49.2 76.8 54.7 18.5 25.6 45.8 31 87.1 56.3 11.4 7 28.6 25.2 52 37.8" transform="translate(86.2 -92)"/>
    <path class="cls-2" d="M705 478.1c-15.5 5.1-53.3 29.9-50.4 45.4 3.6 19.4 37.5 19.6 71.7 14.7 32-4.7 109.5-29.2 138.3-41.8 29.1-12.7 52.3-28.9 51-47-1.4-21-36.7-21.8-62.3-14.8A4530.8 4530.8 0 0 0 705 478.1z" transform="translate(86.2 -92)"/>
    <use width="160.3" height="66.3" transform="matrix(1.62 0 0 1.62 742.5 341.2)" xlink:href="#Hat_Ring"/>
    <path d="M777.4 356.8c5.5 19 12.3 49.2 14.5 59a5.1 5.1 0 0 0 4.4 4c3.9.5 11.6 1 27 1 15.7 0 41-5 65.1-13.5a262.6 262.6 0 0 0 55.3-26c4-3 5.8-5.6 6.6-7.6a7 7 0 0 0 .3-4.5c-1.9-6.5-9.3-33.4-13.7-50.2-5.3-20-6.4-55.1-10-69.7-5.3-21-66.4-6.8-83.8-3.7-25.2 4.4-78 25.7-85 49.6-2.7 9.5 13.4 41 19.3 61.6z" stroke-width="2" stroke-miterlimit="10" stroke="#000"/>
    <use width="160.3" height="66.3" transform="matrix(1.48 0 0 1.48 752 346.2)" xlink:href="#Hat_Ring"/>
    <use width="160.3" height="66.3" transform="matrix(1.28 0 0 1.28 767 352.2)" xlink:href="#Hat_Ring"/>
    <path class="cls-2" d="M673.4 389.2c4.9 16.7 36.9 13.2 93.5-3.7 48.1-14.3 78.2-32 71.6-48.1-5.3-13-57.6-7.7-98.1 5.7-29 9.6-71.5 30.2-67 46z" transform="translate(86.2 -92)"/>
    <use width="160.3" height="66.3" transform="translate(761.8 239.6)" xlink:href="#Hat_Ring"/>
    <path d="M623.8 1196.6s53 11.8 80 1.2c23.2-9.1 57.6-83.5 57.6-83.5s-26.2 95-53.5 107.6c-19.6 9-84.1-25.3-84.1-25.3z" transform="translate(86.2 -92)" fill="url(#drkCross)"/>
    <use width="152.9" height="144.4" transform="rotate(-27.4 3847.6 -1195.6) scale(1.29)" xlink:href="#Boot"/>
    <use width="152.9" height="144.4" transform="matrix(1.18 0 0 1.18 519.3 1610.6)" xlink:href="#Boot"/>
    <path d="M574.8 1577.8l-2.2 8.7s-21.2-3-24.4-3c-4.4 0-25.7 6-30 6.6-7.5 1-11.3 2-18.7 1.6-5.3-.3-14 .7-19-.9-2.7-.9-4.4-.4-6.5-1.3-1.7-.6-.3-7.1-.3-7.1s17.2 1.5 32.8 1.6c5.2 0 30.8-4.8 48.4-6.6 11.9-1.4 19.9.4 19.9.4zm279.9-18.6s22-11.6 22.6-7.3c.4 3.2 15.1 49.6 15 52.7-.2 4.4 4.5 12.6 4.8 17 .7 7.4 2.8 19.3 2 26.7-.5 5.3 17.6 11.6 15.8 16.6-1 2.7 37.2 51.6 36.3 53.6-.8 1.8-15.4 4.9-15.4 4.9s-51.1-65.2-50.4-80.7c.8-17.4-30.7-83.5-30.7-83.5zm142 136.4s-12.2 9.6-11.6 5.2c.2-1.7-12.1-23.4-8.1-37.8 3.5-12.5-16.9-32.8-15.2-38.7 1.1-4.3-13.7-10.8-13.7-25.3 0-7.4-8-13.5-7.9-21 .2-11.3-13.2-16.1-10.2-20.4 1.7-2.4-2.1-19.1-3.4-17.2-.3.5 17 .5 17 .5a229.6 229.6 0 0 1 2.9 26.3c.4 6.5 14.8 21.3 25.4 46.6a549 549 0 0 1 24.8 81.8zM1125.1 854c37.5 5.4 37.7-16 63.5-44.2 16.6-18 8.3 18.6 12.4 4.1 3.5-12.5 3 11.7-12.6 24.2-25.8 20.9-18 15.8-31.3 21.8-19.4 8.6-31 5.6-37.5 9.3-21.5 12.4-36 29.5-32.9 25.2 1.6-2.4-3.4-17.4-3.4-17.4s30-24.8 41.8-23z" transform="translate(86.2 -92)" fill="url(#dots)" opacity=".5"/>
    <path d="M943 1542.2c4.6 4.8 1.2 7.9 1.2 7.9s-18.4-4.1-21.5-4.1c-4.4-.1-11.2 7.8-15.6 8.4-7.4.9-10.3-.3-17.8-.7-5.2-.4-8.7 10.3-13.8 8.7-2.7-.8-12.4 9.6-14.5 8.8a57.6 57.6 0 0 1-7.9-10.7 253.8 253.8 0 0 1 24.6-11c9.3-3.5 18.8-11.9 36.4-12.7 11.4-.5 23.8.2 28.8 5.4zM813.3 579.7c-6 1-11.5-10.8-13.2-17.2-.7-2.7-1.6-33 5-34.2 1.9-.4-4.7 10.6-1.9 26.4 1.5 8.4 3.1 9.8 8.6 18.4 3 4.7 9.4.4 9.4.4s-.5 5.2-7.9 6.2z" transform="translate(86.2 -92)" fill="url(#dots)" opacity=".5"/>
    <path d="M809.3 546.5a52 52 0 0 0 0-9.1c-.3-2.8 2-8.7 8.7-10 1.9-.3 2.7 9.3 2.7 9.3s-3.4-5.4-5.8-4.2c-1.5.8-1.5 6-2.8 9.6s-2.8 4.4-2.8 4.4zm9.8 12.7c-2.8 1-9.3-2.9-6.7-8.6.8-1.7 4.5-2.3 4.5-2.3s-3.2 2.5-1.8 4.8c1.2 2 4.5 3.7 4.5 3.7s.8 2-.5 2.4z" transform="translate(86.2 -92)" fill="url(#dots)" opacity=".5"/>
    <use width="143.8" height="65.7" transform="matrix(.99 -.1 .07 .67 796.1 379.9)" xlink:href="#Hat_Hightlight"/>
    <path d="M585.4 1155.3a170.4 170.4 0 0 1 11.6 57 844 844 0 0 1-21 156.5c-9 34-46.8 132.3-46.8 132.3l-40.3 66.2-21.4 15s-1-9 2.3-25.8a630 630 0 0 1 17.3-62 1366 1366 0 0 1 40-113.4c14.4-33.6 38.4-93 42.3-129 3-27.8 1.3-61.4.5-82.8-.3-6.5 0-13.5 0-20.1 0-2.6 2.3-11.4 2.3-11.4s11 12.7 13.2 17.5zM599 875c-2 35 11.1 62.3 15 91.6 3.2 24.4-1.4 95.8-1.4 95.8s-14.7.5-17.5-.8c-1.4-.7-4.5-6.3-4.5-6.3s-.6-78-1.5-95.1c-.7-13.3-9.7-102.4-16-130.7-3.9-17.4-1.8-25.2-1.8-25.2s28.4 56.8 27.6 70.6zm224.3 229.8s14 35.4 28.1 70.4c14 34.5 23 69.6 27.1 82 11.6 34.5 13.7 59.7 22.1 95.3 7.6 32 14.4 73 32.9 126.5 9 26.4 15 47.4 18 61.5 1.4 6.1-3.3 8-3.3 8s-.6-9.3-11-12a68.3 68.3 0 0 0-30 .2c-14.7 3.3 4.2-2.1 4.2-2.1s-28.7-130-36.4-177c-4.6-28.8-27.5-83.1-38.1-110.3-12-30.5-52.3-118.8-52.3-118.8s17.1-7.5 22.3-10.5c4.6-2.7 16.4-13.2 16.4-13.2zM681 1573s-59.8 17.6-81.7 11.3c-11.8-3.4-22-6.1-22-6.1s27-56 35.6-81c6.7-19.7 37-93 37-93s5.5 70.4 7.7 94.3c1.9 19.1 23.4 74.5 23.4 74.5z" transform="translate(86.2 -92)" fill="url(#ltCross)"/>
    <path d="M647 1477.7c-1 15.2-4.2 50.7-6.5 65.8-2.5 17 7.8 39.1 7.8 39.1s-14.6 2.9-33.6 4.6c-7.8.7-14.6-4.1-14.6-4.1s17.9-65.6 24.4-88c5.2-17.7 23.3-71.1 23.3-71.1s-.4 46.5-.9 53.7zm-83.3-148.8c-3.5 8-14.2 22.4-16.8 30.5-4.1 12.6-11 51.8-11 51.8s-15.8 40.1-23.6 53.3c-4 6.9-25 70.4-31 92.2-6.6 23.2-14.4 18.1-14.4 18.1a513.8 513.8 0 0 1 11-52.4c5.8-21.7 15-45.7 19.3-58.4 11.6-34 31.1-86.7 45-120.7 17.4-43 29-87.6 30.2-128.7.5-19.3-2.7-38.3-3.2-51.3a101 101 0 0 1 2.1-25.8l11.7 11.4s-3.5 85.6-7 112.5c-2.4 18.3-4.8 50.6-12.3 67.5zm327.8-22.6c2 13 22 107 28.8 134.4 9.4 37.7 33.4 96.4 30.6 104.9-2.4 7.6-11.6-24-26.3-35-16.9-12.6-7-39.1-18.7-70.4-11.2-30.1-25.4-92-24.2-133 .5-19.3-78-182-78-182l21.3-16.4s22.2 58 35.9 93c6.7 17.2 26.3 76.3 30.6 104.5zm-67 261.7s-33.7 12.6-56.4 11.7c-21.8-1-44.8-2.6-44.8-2.6s12-34.1 20.5-59.2c6.8-19.5 11.2-104 11.2-104s37 71 39.4 94.9c1.8 19.1 30.1 59.2 30.1 59.2z" transform="translate(86.2 -92)" fill="url(#ltCross)"/>
    <path d="M803.7 1576s-15.8.8-25.6 2.5c-8.5 1.6-25.1 0-25.1 0s9.5-33.8 11.4-50.3c2.1-18.6-6-90.3-6-90.3s11.7 51.8 20.2 72.5c5.2 12.7 25.1 65.6 25.1 65.6z" transform="translate(86.2 -92)" fill="url(#ltCross)"/>
    <path d="M949.7 440c2.7-4 6.2-5.4 11-4.3" stroke-width="4" stroke-linecap="round" stroke-miterlimit="10" stroke="#000" fill="none"/>
    <path class="cls-72" d="M866 538.3a15.1 15.1 0 0 1 9.4-2.6" transform="translate(86.2 -92)"/>
    <path d="M870.2 539s.7 5 .7 6.5a38.3 38.3 0 0 1-.5 4.5s-3-2.7-3-4.8 2.8-6.2 2.8-6.2z" transform="translate(86.2 -92)"/>
    <path class="cls-72" d="M820 545.3s6.6-4.8 7.3-7.3c1-4.5-4.5-15-9-16.2-3.4-1-10.6 3.8-12 7-3.2 7-3.7 23-1.6 30.4 1.4 5 5.5 9.1 6.8 12.2 1 2.3 5 4.5 7.3 3.3 2.4-1.3 4-6.7 3.2-9.3s-9.3-3.5-10.7-5.8c-2-3.3-3-21.4-2-25.2a10 10 0 0 1 8.5-7.8c3.2-.3 3.6 9.5 3.6 9.5" transform="translate(86.2 -92)"/>
    <path class="cls-72" d="M816.9 549s-1.8 2.5-1 4.6c.4 1.2 3.4 2.4 3.4 2.4" transform="translate(86.2 -92)"/>
    <path d="M827.7 852.3c6.5 1.6 9 25 9 25s-11.7 63.3-12.2 78.4c-.2 6.2-7 42.9-8.5 74.3-.6 13.4 1.3 53.7 1.3 53.7s-1.8 5.5-14.3 12.6-19 9.7-19 9.7 21.1-145.6 13.5-192.7c-4.6-28.8 13.7-65 30.2-61z" transform="translate(86.2 -92)" fill="url(#ltCross)"/>
    <path d="M817.1 858.5s44.7 15.8 63.4 24.3c14.6 6.7 33.4 32 49.4 47 18.5 17.4 37.8 4.4 61 11.7 12.8 4 61.2-25.8 82.6-30.9 7.2-1.7 29.7.5 29.7.5s-7.6 20.4-9.3 17.5c-1.4-2.5-6.3-6.2-8.1-4.4-3.2 3.2-6.7 3.8-9.6 2.7-5.6-2.2-6-1.4-9.3 0-9.8 4-18 9.1-30.5 14.6-31.3 13.6-55 31.7-67.4 31.5-8.6 0-25.7-2.1-32.7-7.7a675.4 675.4 0 0 1-51.1-44.7c-24.6-25.2-68.1-62.1-68.1-62.1zm3.7-162.5s9.6-6.6 18.1-6.5c5.1 0 9 3.7 14 7.4 7.2 5.4 53.8 59 88.3 107.2l44.6 62a279.2 279.2 0 0 1 38.4-19.5c12.4-5.2 34.4-20.2 49-25.6 2.2-.9 9.6 0 8.6 4.4-.5 2-7.3-1.3-9.5 1-2.9 3-3 12.4-3 12.4S995.8 879.5 982 876c-22.4-5.6-83.6-102-117-136.2a1477.7 1477.7 0 0 0-44.3-43.8zM583 698c-18.4 18.7-28.8 46.3-29 61-.2 39.5-51 69.5-61 107.7-8.8 34-31.8 56-22.5 72.7 14 25.5 118.4 27.7 118.4 27.7l1.6 25.3s-47.1-5.1-63.4-10.6a928 928 0 0 0-62.1-17.4c-8.5-2-17-12.6-18.8-19-7.6-28-2-31.2 10.5-60.4 14.4-33.6 37.2-64 54.9-95.8 7.9-14.2 21.1-41.5 23.2-51.9a70.7 70.7 0 0 1 16.1-33.8 70.2 70.2 0 0 1 40.6-25.5c4.8-.9 16.9-3 24.7-6a279.5 279.5 0 0 0 26-11.8l57.5-11.9s-26.3 18-33.7 22.4c-12 7.4-77.1 21.3-83 27.2z" transform="translate(86.2 -92)" fill="url(#ltCross)"/>
    <path d="M580.5 876.9l-20.8 23.9 24.6 5 1 18.5s-39.3-1.4-40.1-22.8c-.2-6.5 12.5-17.5 16.8-22.4 5-5.6 16.5-21 16.5-21z" transform="translate(86.2 -92)" fill="url(#ltCross)"/>
    <path d="M554.4 726.4c-3.6 8-30.5 46.3-33.2 54.4-4.1 12.6-58 106.6-65.8 119.7-.8 1.3-8.2 31.3 8.4 43 9.1 6.4 37.6 21.7 65.9 31.1 30 10.1 59.6 9.4 59.6 9.4v9.6s-21-2.8-58.5-11.4c-17.6-4.2-50.3-13.2-65.1-17.2-14-3.7-17-15.9-19.5-21.3a49 49 0 0 1 2-43.7c23.9-42.2 51.9-98 60.5-109 23.7-30.6 25.5-63.4 32-75.1 8.2-15.1 18.2-19.7 18.2-19.7s3 13.3-4.5 30.2z" transform="translate(86.2 -92)" fill="url(#ltCross)"/>
    <path d="M577.7 831.7c-3.6 8 12.2 39.5 9.6 47.6-4.2 12.6 19.4 70.7 11.6 83.9-2.5 4.2-1.7 44.3 2.3 72.4a53 53 0 0 0 13 28l-23.2-5.2s-.1-41.7-.8-66c-.6-22.5-2.1-53.4-3-66.7-2-32-16.2-114.5-16.2-114.5s14.2 3.7 6.7 20.5zm259.8 44.6c-3.5 8-5 35.4-7.7 43.4-4.1 12.6-8 67.3-11 82.3-9 46-.7 82.5-.7 82.5l-19.9 13.3s7.1-43.9 6.4-68.1c-.6-22.5 9.3-53.4 8.5-66.8-2-32 4.5-69 4.5-69s27.5-34.4 20-17.6zm118.4 83.8c33.1 7.4 57.4-6.8 57.4-6.8.6.7-37.8 26-61.5 18.4-22.8-7.3-41.3-27.7-41.3-27.7s27.4 12.1 45.4 16.1z" transform="translate(86.2 -92)" fill="url(#ltCross)"/>
    <path d="M750.8 659.6c12.5-4 33.3-8.6 37.3-10.4 27.3-12.2 9.7-15.3 28.3-27.5 2.3-1.5 19.4 8.5 30.4-2.6 5.8-6 3.3-16.6 7-24.6.5-1.2 4.4-10 7.2-17.2 2.6-6.7 10.5-2 14.9-4.5 4.5-2.7 6-8.4 6-8.4s-.3 10.6-2.5 13.8c-1.2 1.8-8 .6-10.1 2.1-3.2 2.3-1.2 2.9-2.2 9.5-1 7-5.6 15.6-6.7 21-2 10.8 1 18-2.4 23.8-2 3.6-27 2.6-38.7 4.5-5.2.8-13.9 15.8-13.9 15.8S772 672.5 766 672.6c-18.3.3-26.2-3-38.6-2.6-22.3.5-30.3-11.6-30.3-11.6l20-33.2c7.6-13 6.8-24.2 5.5-22.3-.3.5 17 .5 17 .5s-15.3 12-14.5 27.4c.4 6.5-18.6 21.9-3.8 24.4 13.4 2.3 20.9 7.2 29.6 4.4z" transform="translate(86.2 -92)" fill="url(#dots)" opacity=".5"/>
    <path class="cls-2" d="M385.8 534c.8-2.6 9.4 6.3 28.4-1 20.2-7.8 9-15.8 12.8-14.2 4.5 2 9.8 13.8-8.8 24.6-22.4 13-33.6-6-32.4-9.5z" transform="translate(86.2 -92)"/>
    <path d="M385.8 534c.8-2.6 9.4 6.3 28.4-1 20.2-7.8 9-15.8 12.8-14.2 4.5 2 9.8 13.8-8.8 24.6-22.4 13-33.6-6-32.4-9.5z" transform="translate(86.2 -92)" fill="url(#dots)" stroke-width="2" stroke-miterlimit="10" stroke="#000"/>
    <path d="M329.9 677c12.5-4 28.8 31.4 51 26 29-7 60.1-22.4 65.1-38.3 5.5-17.4-8.6-80.8-8.6-80.8s15 22.5 20.4 33a100.5 100.5 0 0 1 10.8 65.4c-3.2 15.6-22.6 31.1-52.4 39.7-37.8 10.8-73.8-3.8-87-10.7-19.8-10.2-42-41.9-45.4-74.3a103.5 103.5 0 0 1 9-46.2c7.7-13 32.4-25 31.1-23.1-.3.5-16.9 18-11.8 21.5 2.2 1.6-8.7 11-7.8 26.5.4 6.5 3 40 17.8 42.5 13.4 2.2-.9 21.6 7.8 18.8z" transform="translate(86.2 -92)" fill="url(#dots)" opacity=".5"/>
    <path class="cls-2" d="M405.6 549.4c-2-1.8 9.5-6.4 9.8-26.8.4-21.6-11.3-14.2-8.3-17.2 3.5-3.4 16.4-3.8 19.5 17.4 3.7 25.7-18.2 29-21 26.6z" transform="translate(86.2 -92)"/>
    <use width="143.8" height="65.7" transform="translate(775.9 269.3)" xlink:href="#Hat_Hightlight"/>
    <use width="143.8" height="65.7" transform="translate(780 286.8)" xlink:href="#Hat_Hightlight"/>
    <use width="143.8" height="65.7" transform="translate(784.8 305)" xlink:href="#Hat_Hightlight"/>
    <use width="143.8" height="65.7" transform="translate(788.7 322.6)" xlink:href="#Hat_Hightlight"/>
    <use width="143.8" height="65.7" transform="translate(796.5 343.1)" xlink:href="#Hat_Hightlight"/>
    <use width="160.3" height="66.3" transform="matrix(.9 0 0 .9 769 242.3)" xlink:href="#Hat_Ring"/>
    <use width="160.3" height="66.3" transform="matrix(.79 0 0 .79 778.8 245)" xlink:href="#Hat_Ring"/>
    <use width="160.3" height="66.3" transform="matrix(.63 0 0 .63 792.7 249)" xlink:href="#Hat_Ring"/>
    <path d="M605.2 687.7c-4 2-12.1-11.7-12.1-11.7s18.2-1 23-3c18.4-7.7 20.6-11 20.6-11s1.3 5.2-1 16c-.9 3.6-10.8.4-30.5 9.7z" transform="translate(86.2 -92)" fill="url(#ltCross)"/>
    <g id="Coin">
      <path class="cls-6" d="M1193.6 775.2c0 9-11 13.6-18.3 15.2a42.3 42.3 0 0 1-32-4.8c-6.6-4.6-8.8-12.5-2.6-18.6 7.3-7.2 19.6-8.8 29.4-7.8 8.5.8 23.5 5.1 23.5 16z" transform="translate(86.2 -92)"/>
      <path d="M1151.8 768.7c0-2.2 3.2-3.5 4-1.7.3.8-.8 2.4 0 3.3.5.7 6.6 2.2 7.7 2.2 1.8 0 1.4-.2 2.6-1.8 1.5-1.8 3.2-4 5.7-4s4 1.6 5.2 3.5c.7 1.2 1 4.4 1.8 5.7 1 1.8 2.9 1.8 2.8 2.4s-1.4-.2-3 .9c-.6 1.3-2.4 4.7-3.7 5.3-2.3 1-3.4.5-2.2-1.6 1-1.7 3.8-3.3 2-4.8-1.1-.9-7.2-2.9-8.6-1.6-1 1-2 3.1-3.1 4-4.7 3.4-8.1-1.7-9.6-5.6-.8-2-.5-2-2-3.1-.7-.4-1.8-.4-2.4-1-2.8-2.5 1.2-2.2 3-1.7zm8.1 9.5c1.2 0 2.6-2.4 3.1-3.1l-6.5-1.8c.5 1.3 1.7 5 3.5 5zm14-6.5c-2-3.3-4.6 0-5.9 2l7.2 2a10.7 10.7 0 0 0-1.3-4z" transform="translate(86.2 -92)"/>
      <path d="M1195.8 774.7c-6.3-27.1-69-25-61.8 5.9 6.9 29.6 68.3 22.1 61.8-5.9zm-31.4-13.7c7.9 0 18.9 1.7 24.1 8.2 7 8.5-2.4 16.1-10.1 18.6a46.4 46.4 0 0 1-24.5 1c-7.5-1.7-19.2-7-15.3-16.9 3.6-8.9 17.5-10.9 25.8-10.9z" transform="translate(86.2 -92)"/>
    </g>
  </g>
</svg>