<?xml version="1.0" encoding="utf-8"?>
<svg viewBox="0 0 2925.7 1947.1" preserveAspectRatio="xMidYMid slice" xmlns="http://www.w3.org/2000/svg" xmlns:xlink="http://www.w3.org/1999/xlink">
  <defs>
    <style>
      .cls-1,.cls-3,.cls-41,.cls-42,.cls-43,.cls-51,.cls-72{
        fill:none 
      }
      .cls-2,.cls-6{
        fill:#fff 
      }
      .cls-15,.cls-2,.cls-39,.cls-41,.cls-42,.cls-43,.cls-48,.cls-49,.cls-51,.cls-72 {
        stroke:#000;
        stroke-miterlimit:10
      }
      .cls-2,.cls-3,.cls-42,.cls-49,.cls-72 {
        stroke-width:2px
      }
      .cls-3 {
        stroke:#fff;
        stroke-miterlimit:10 
      }
      .cls-3,.cls-72{
        stroke-linecap:round 
      }
      .cls-15,.cls-48{
        fill:url(#drkCross) 
      }
      .cls-24{
        fill:url(#ltLine) 
      }
      .cls-25 {
        fill:url(#line) 
      }
      .cls-41,.cls-48{
        stroke-width:4px 
      }
      .cls-43{
        stroke-width:5px 
      }
      .cls-49{
        fill:url(#wave) 
      }
      .cls-13,.cls-39 {
        fill:url(#dots) 
      }
      #Coin {
        animation: coin 3s;
        animation-iteration-count: infinite;
        animation-direction: alternate;
      }
      @keyframes coin {
        0% { transform: translateY(0%) }
        50% { transform: translateY(0%) }
        100% { transform: translateY(-30%) }
      }

      #smoke-small {
        animation: smoke-small 500ms;
        animation-iteration-count: infinite;
        animation-direction: alternate;
      }

      @keyframes smoke-small {
        0% { transform: translateX(0%) }
        100% { transform: translateX(-0.2%) }
      }

      #right-leg {
        animation: right-leg 1s;
        animation-iteration-count: infinite;
        animation-direction: alternate;
      }

      @keyframes right-leg {
        0% { transform: rotate(0) }
        50% { transform: rotate(0)}
        100% { transform: rotate(0.5deg) }
      }

      #left-leg {
        animation: left-leg 1s;
        animation-iteration-count: infinite;
        animation-direction: alternate;
      }

      @keyframes left-leg {
        0% { transform: rotate(0) }
        50% { transform: rotate(0)}
        100% { transform: rotate(-0.5deg) }
      }

      #bundle {
        animation: bundle 1s;
        animation-iteration-count: infinite;
        animation-direction: alternate;
      }

      @keyframes bundle {
        0% { transform: rotate(0) }
        50% { transform: rotate(0)}
        100% { transform: rotate(-0.5deg) }
      }

      #head {
        animation: head 1s;
        animation-iteration-count: infinite;
        animation-direction: alternate;
      }

      @keyframes head {
        0% { transform: rotate(0) }
        50% { transform: rotate(0)}
        100% { transform: rotate(0.2deg) }
      }

       @media (max-aspect-ratio:3/4){
          #sign-and-creep{
              transform:scale(.7) translate(10%,5%)
          }
          #prodigal{
              transform:scale(.8) translate(25%,20%)
          }
          #skyline{
              transform:scale(.6) translateX(40%)
          }
      }
    </style>
    <pattern id="ltCross" width="200.3" height="200.5" patternTransform="rotate(-45 233 -96.4) scale(.6)" patternUnits="userSpaceOnUse">
      <path d="M117 200h-1.4S115 87.6 115 50.2c0-12.6.6-50.2.6-50.2h1.4zm12.3 0v-43a1 1 0 0 1 1-1 1 1 0 0 1 1 1v43zm1-46a1 1 0 0 1-1-1l-1-70.2 1-82.8h2l-1 82.8 1 70.2a1 1 0 0 1-1 1zM145.7 0h1.6v200h-1.6zm32.6 0h2v200h-2zm-13.8 200.5h-1.8V26c0-1.1.4-2 1-2 .4 0 .8.9.8 2zM163.6 21c-.5 0-1-1-1-2.1V0h2v18.9c0 1.2-.5 2.1-1 2.1zm28.7-21h2v200h-2zM6.3 0h2v200h-2zm14 109a1 1 0 0 1-1-1V0h2v108a1 1 0 0 1-1 1zm-1 91v-79a1 1 0 0 1 1-1 1 1 0 0 1 1 1v79zm16.7 0h-1.6s.4-37.2.4-63.6L34.4 0H36zm17.6 0h-2.4V77.5a1.4 1.4 0 0 1 1.2-1.5 1.4 1.4 0 0 1 1.2 1.6zM52.4 70a1.4 1.4 0 0 1-1.2-1.5V0h2.4v68.5a1.4 1.4 0 0 1-1.2 1.5zm18 130h-1s.5-115.2.5-153.6c0-11.6-.5-46.4-.5-46.4h1l.5 45.9c.1 38.5-.5 154.1-.5 154.1zm30.4 0h-1V0h1v200zm-11.5 0H87s-.8-115.8-.8-154.4L87 0h2.3s-1.5 58.6-1.5 78.2c0 30.4 1.5 121.8 1.5 121.8z"/>
      <path d="M72 86.8H50.4L.3 86.5v-.7H72s.9.2.9.5c0 .4-.9.5-.9.5zm12.5 0c47.8 0 115.8-.3 115.8-.3V86H84.5s-.7 0-.7.4.7.5.7.5zm115.8-18.6h-43a1 1 0 0 1-1-.9 1 1 0 0 1 1-.8h43zm0-16.6v2h-104a1 1 0 0 1-1-1 1 1 0 0 1 1-1zM154 67.3a1 1 0 0 1-1 .9l-70.2.8L0 68.2v-1.7l82.8.8 70.2-.8a1 1 0 0 1 1 .8zM90 52.6a1 1 0 0 1-1 1H0v-2h89a1 1 0 0 1 1 1zM75.2 23.4H.3v-1h75l-.1 1zm6.6-1h118.5v1H81.9l-.1-1zM200.3 36v1.9H25.8c-1.1 0-2-.5-2-1s1-.9 2-.9zM21 36.9c0 .5-1 1-2.1 1H0V36h18.9c1.2 0 2.1.4 2.1.9zM.3 6.3h200v2H.3zm0 186.5h200v1H.3zM109 180.3a1 1 0 0 1-1 1H0v-2h108a1 1 0 0 1 1 1zm58-.3a1 1 0 0 1-1 1h-44.8a1 1 0 0 1-1-1 1 1 0 0 1 1-1H166a1 1 0 0 1 1 1zm20.3-1h13v2h-13a1 1 0 0 1-1-1 1 1 0 0 1 1-1zM117 165.3a.8.8 0 0 1-.8.8c-2.8-.1-11.7-.4-18.3-.4l-40 .4a.8.8 0 0 1-.9-.8.8.8 0 0 1 .8-.8h58.4a.8.8 0 0 1 .8.8zm83.3-.8v1.6s-11.2-.4-19.1-.4l-40.1.4a.8.8 0 0 1-.8-.8.8.8 0 0 1 .8-.8zm-150 .8a.8.8 0 0 1-.9.8c-2.4-.1-9.6-.4-15-.4l-34.2.4v-1.6h49.2a.8.8 0 0 1 .9.8zm150-18.2v2H77.8c-.9 0-1.6-.5-1.6-1 0-.6.7-1 1.6-1zm-130.3 1c0 .6-.7 1-1.5 1H0v-2h68.5c.8 0 1.5.5 1.5 1zm130.3-18.6v1.7s-115.3-.8-153.7-.8c-11.6 0-46.4.8-46.4.8v-1.7s34.5-.8 46-.9c38.5-.2 154 1 154 1zm0-29.7v1H.3v-1h200zm-49.3 14c-36.4.2-83.2.5-105.1.5-11.4 0-45.6-.8-45.6-.8v-2.3s58.6 1.5 78.2 1.5c15.2 0 45.6-.3 72.3-.7zm9.4-1.9l39.8-.7v2.3l-39.4.2z"/>
    </pattern>
    <pattern id="drkCross" width="200.5" height="200.5" patternTransform="matrix(.79 0 0 .51 75.3 266.3)" patternUnits="userSpaceOnUse">
      <path d="M114 200h-2l-1-150 1-50h2zm9 0h-3l-1-107 1-93h3l-1 93 1 107zm7 0v-43a1 1 0 0 1 1-1 1 1 0 0 1 1 1v43zm1-46a1 1 0 0 1-1-1l-1-70 1-83h2l-1 83 1 70a1 1 0 0 1-1 1zm6-154h3v200h-3zm10 0h4v200h-4zm13 200h-3l1-52-2-115 1-33h3l-1 33 2 116-1 51zM178 0h2v200h-2zm-7 201h-4V26a2 2 0 0 1 2-2 2 2 0 0 1 2 2zm-2-180a2 2 0 0 1-2-2V0h4v19a2 2 0 0 1-2 2zm17-21h4v200h-4zm9 0h2v200h-2zM2 0h2v200H2zm5 0h4v200H7zm26 0h2v200h-2zM18 109a1 1 0 0 1-1-1V0h2v108a1 1 0 0 1-1 1zm-1 91v-79a1 1 0 0 1 1-1 1 1 0 0 1 1 1v79zm11 0h-3L24 67l1-67h3l1 160-1 40zm17 0h-4l1-64L41 0h4zm10 0h-3V78a2 2 0 0 1 2-2 2 2 0 0 1 1 2zM54 70a2 2 0 0 1-2-1V0h3v69a2 2 0 0 1-1 1zm10 130h-2l1-154-1-46h2l1 46-1 154zM69 0h3v200h-3zm11 0h2v200h-2zm19 200h-2V0h2l1 102-1 98zm6 0h-1V0h1v200zm-14 0h-3L87 46l1-46h3l-2 78 2 122z"/>
      <path d="M1 115v-2l149-1 50 1v2zm0 10v-3l107-1 93 1v3l-93-1-107 1zm0 6h41a1 1 0 0 1 1 1 1 1 0 0 1-1 1H1zm46 1a1 1 0 0 1 1-1l70-1 83 1v2l-83-1-70 1a1 1 0 0 1-1-1zm-46 6h200v3H1zm0 14v-4a15262 15262 0 0 0 200 0v4zm0 9v-3a3435 3435 0 0 0 167-1l32 1v3l-32-1-117 2-50-1zm0 18h200v2H1zm-1-7v-4l69 1 104-1a2 2 0 0 1 2 2 2 2 0 0 1-2 2l-97-1-76 1zm181-2a2 2 0 0 1 2-2h18v4h-18a2 2 0 0 1-2-2zM1 187h200v3H1zm0 9h200v2H1zM1 3h200v2H1zm0 6h200v3H1zm0 25h200v2H1zm91-15a1 1 0 0 1 1-1h108v2H93a1 1 0 0 1-1-1zM1 18h85a1 1 0 0 1 1 1 1 1 0 0 1-1 1H1zm0 11v-3l133-1 66 1v3l-94-1-65 2-40-1zm0 17v-4l63 1 137-1v4zm0 10v-3h121a2 2 0 0 1 2 2 2 2 0 0 1-2 1zm124-1a2 2 0 0 1 1-2h75v3h-75a2 2 0 0 1-1-1zM1 65v-2a30360 30360 0 0 0 200 0v2l-46 1L1 65zm0 5h200v3H1zm0 11h200v2H1zm0 19v-2h200v2l-103 1-97-1zm0 6v-1h200v1H1zm0-13v-3l154-1 45 1v2z"/>
    </pattern>
    <linearGradient id="grad1" x1="1.9" y1="35.2" x2="39.8" y2="3.4" gradientUnits="userSpaceOnUse">
      <stop offset="0" stop-color="#4d4d4d" stop-opacity=".6"/>
      <stop offset="0.2" stop-color="#373737" stop-opacity=".7"/>
      <stop offset="0.7" stop-color="#0f0f0f" stop-opacity=".9"/>
      <stop offset="1"/>
    </linearGradient>
    <linearGradient id="grad2" y1="5.2" x2="24.6" y2="5.2" gradientUnits="userSpaceOnUse">
      <stop offset="0"/>
      <stop offset="0.3" stop-color="#0f0f0f" stop-opacity=".9"/>
      <stop offset="0.8" stop-color="#373737" stop-opacity=".7"/>
      <stop offset="1" stop-color="#4d4d4d" stop-opacity=".6"/>
    </linearGradient>
    <radialGradient id="grad3" cx="1363.5" cy="1416.4" r="1441.2" gradientTransform="matrix(1.049602, 0, 0, 0.652625, 83.416159, 297.107635)" gradientUnits="userSpaceOnUse">
      <stop offset="0" stop-opacity=".3"/>
      <stop offset="1" stop-opacity="0"/>
    </radialGradient>
    <radialGradient id="grad4" cx="1383.4" cy="518.4" r="1367.2" gradientTransform="matrix(1.05 0 0 .22 -4.6 189.2)" xlink:href="#grad3"/>
    <pattern id="dots" width="16" height="16" patternTransform="matrix(2.36 0 0 2.07 560.9 822.8)" patternUnits="userSpaceOnUse">
      <circle cx="15.4" cy="7.1" r=".5"/>
      <circle cx="5.7" cy="9.8" r=".5"/>
      <circle cx="1.5" cy="1.9" r=".1"/>
      <circle cx="6.4" cy="7.9" r=".4"/>
      <circle cx="14" cy="5.8" r=".4"/>
      <circle cx="5.2" cy=".4" r=".4"/>
      <path d="M1 1C1 .6.7.3.3.3a.6.6 0 0 0-.3.1v1.1l.3.1c.4 0 .7-.3.7-.6zm-.4 9.8c0-.4-.3-.6-.6-.7v1.4a.7.7 0 0 0 .6-.7z"/>
      <circle cx="7" cy="13.3" r=".8"/>
      <circle cx="3.1" cy="11.8" r=".5"/>
      <circle cx="6.2" cy="3.7" r=".8"/>
      <circle cx="2.1" cy="13.3" r=".5"/>
      <path d="M.6 4.2a.7.7 0 0 0 .6-.7.7.7 0 0 0-.6-.6c-.3 0-.5.1-.6.4v.5c.1.3.3.4.6.4z"/>
      <circle cx="8.8" cy="7.1" r=".3"/>
      <circle cx="14.1" cy="1.2" r=".5"/>
      <circle cx="6.2" cy="1.5" r=".5"/>
      <path d="M.7 12.6a.5.5 0 0 0-.7-.4v.8h.2c.3 0 .5-.1.5-.4zM15.7 1c0 .2 0 .5.3.6V.4a.6.6 0 0 0-.3.6zm-.6 9.8c0 .4.3.7.7.7a.8.8 0 0 0 .2 0V10a.8.8 0 0 0-.2 0c-.4 0-.7.3-.7.7zm.6 1.8c0 .2.1.3.3.4v-.9a.5.5 0 0 0-.3.5zM1.7.6A.4.4 0 0 0 2 .2.3.3 0 0 0 2 0h-.7a.5.5 0 0 0 0 .2c0 .2.2.3.4.4z"/>
      <circle cx="9" cy=".7" r=".2"/>
      <circle cx="12" cy="15.7" r=".2"/>
      <circle cx="9" cy="13" r=".2"/>
      <circle cx="12" cy="13" r=".2"/>
      <circle cx="6" cy="15" r=".2"/>
      <circle cx="4" cy="12" r=".2"/>
      <circle cx="7" cy="11" r=".2"/>
      <circle cx="4.9" cy="7.5" r=".2"/>
      <circle cx="8" cy="10.5" r=".2"/>
      <circle cx="2" cy="15" r=".2"/>
      <circle cx="9.8" cy="11.5" r=".2"/>
      <circle cx="11.8" cy="9.5" r=".3"/>
      <circle cx="13.8" cy="12.5" r=".2"/>
      <path d="M7.4.7c.3 0 .6-.3.6-.6V0H6.7c0 .4.3.7.7.7z"/>
      <circle cx="13.7" cy="4" r=".3"/>
      <circle cx="11.8" cy="3.4" r=".2"/>
      <circle cx="10.7" cy="4.8" r=".1"/>
      <circle cx="12.4" cy="4.5" r=".4"/>
      <circle cx="10.9" cy="5.7" r=".4"/>
      <ellipse cx="13.3" cy="7.5" rx=".7" ry=".6"/>
      <ellipse cx="10.2" cy="3.9" rx=".2" ry=".2"/>
      <circle cx="11.9" cy="5.5" r=".2"/>
      <ellipse cx="14.3" cy="15.4" rx=".4" ry=".4"/>
      <ellipse cx=".7" cy="15.4" rx=".6" ry=".6"/>
      <circle cx="13.1" cy="14.1" r=".6"/>
      <ellipse cx="9.1" cy="5.5" rx=".7" ry=".7"/>
      <path d="M1.7 15.8a.4.4 0 0 0-.4.2H2a.4.4 0 0 0-.3-.2zm5.7-.4a.7.7 0 0 0-.7.6H8a.6.6 0 0 0-.6-.6z"/>
      <ellipse cx=".6" cy="14.2" rx=".3" ry=".3"/>
      <circle cx="14.8" cy="9.5" r=".2"/>
      <circle cx="3" cy="1.7" r=".2"/>
      <circle cx="1" cy="10.7" r=".2"/>
      <circle cx="2" cy="11.7" r=".2"/>
      <circle cx="3.8" cy="10.5" r=".2"/>
      <circle cx=".8" cy="9.5" r=".2"/>
      <circle cx="12.8" cy=".5" r=".2"/>
      <circle cx="1.5" cy="7.6" r=".2"/>
      <circle cx="4.7" cy=".7" r=".3"/>
      <circle cx="14.6" cy="5.5" r=".6"/>
      <circle cx="10" cy="10.3" r=".4"/>
      <circle cx="14.3" cy=".2" r=".2"/>
      <circle cx="3.3" cy="6.8" r=".2"/>
      <circle cx="4.5" cy="6.8" r=".2"/>
      <circle cx="7" cy="7.3" r=".6"/>
      <circle cx="6.1" cy="5.4" r=".4"/>
      <circle cx="1.9" cy="2.3" r=".4"/>
      <circle cx="3.6" cy=".6" r=".5"/>
      <circle cx="9.6" cy="14.5" r=".4"/>
      <circle cx="6.3" cy="9.9" r=".4"/>
      <circle cx="7.9" cy="4.3" r=".4"/>
      <circle cx="10.9" cy="1.9" r=".4"/>
      <circle cx="4.1" cy="8.5" r=".6"/>
      <circle cx=".5" cy="7.7" r=".4"/>
      <circle cx="15.2" cy=".5" r=".4"/>
      <circle cx="15.2" cy="8.5" r=".4"/>
      <circle cx="2.2" cy="8.5" r=".4"/>
      <circle cx="2.2" cy="6.5" r=".4"/>
      <circle cx=".5" cy="6.9" r=".1"/>
      <circle cx="8.3" cy="14.9" r=".3"/>
      <circle cx="14.3" cy="12.9" r=".3"/>
      <circle cx="11.3" cy="14.9" r=".3"/>
      <circle cx="3.3" cy="13.9" r=".3"/>
      <circle cx="3.3" cy="3.9" r=".3"/>
      <circle cx="11.4" cy="11.1" r=".5"/>
      <circle cx="8.4" cy="9.1" r=".5"/>
      <circle cx="12.2" cy="11.8" r=".4"/>
      <circle cx="15.2" cy="14.8" r=".4"/>
      <circle cx="8.2" cy="11.8" r=".3"/>
      <circle cx=".5" cy="5.5" r=".4"/>
      <circle cx="10.4" cy="13.1" r=".5"/>
      <circle cx="9.4" cy="3.1" r=".5"/>
      <circle cx="8" cy="2.1" r=".3"/>
      <circle cx="5.3" cy="12.6" r=".5"/>
      <circle cx="13.5" cy="9.8" r=".7"/>
      <circle cx="5.6" cy="11.8" r=".4"/>
      <circle cx="4" cy="5.8" r=".4"/>
      <circle cx="2.2" cy="5.1" r=".7"/>
      <circle cx="2.7" cy="9.8" r=".4"/>
      <circle cx="10.8" cy="8.6" r=".3"/>
      <circle cx="14.1" cy="12" r=".5"/>
      <circle cx="3.9" cy="14.9" r=".6"/>
      <circle cx="4" cy="2.9" r=".6"/>
      <circle cx="10.7" cy="7.8" r=".5"/>
      <circle cx="15" cy="3.1" r=".7"/>
      <circle cx="10.7" cy=".5" r=".4"/>
      <circle cx="12.7" cy="2.5" r=".4"/>
    </pattern>
    <pattern id="ltLine" width="200" height="187.5" patternTransform="matrix(.99 0 0 .97 110.5 60.8)" patternUnits="userSpaceOnUse">
      <path d="M71 80.6H49.5L0 80.2v-.6h71s.8.1.8.4c0 .4-.9.6-.9.6zm13.2 0l115.8-.3v-.7H84.3s-.7 0-.8.4.7.6.7.6zM200 62h-43a1 1 0 0 1-1-1 1 1 0 0 1 1-.8h43zm0-16.6v2H96a1 1 0 0 1-1-1 1 1 0 0 1 1-1zM153.8 61a1 1 0 0 1-1 1l-70 .8L0 61.9v-1.6l82.7.8 70.1-.9a1 1 0 0 1 1 .9zM89.9 46.4a1 1 0 0 1-1 1H0v-2h88.8a1 1 0 0 1 1 1zM75.1 17.1H0v-1h75.2l-.1 1zm6.4-1H200v1H81.7l-.2-1zM200 29.7v1.9H25.6c-1.2 0-2-.4-2-1 0-.5.9-.9 2-.9zm-179 .9c0 .5-1 1-2 1H0v-1.9h18.9c1.1 0 2.1.4 2.1 1zM0 186.5h200v1H0zM108.9 174a1 1 0 0 1-1 1H0v-2h107.9a1 1 0 0 1 1 1zm57.9-.3a1 1 0 0 1-1 1H121a1 1 0 0 1-1-1 1 1 0 0 1 1-1h44.8a1 1 0 0 1 1 1zm20.2-.9h13v2h-13a1 1 0 0 1-1-1 1 1 0 0 1 1-1zM116.8 159a.8.8 0 0 1-.9.8c-2.7 0-11.6-.4-18.2-.4l-40.1.4a.8.8 0 0 1-.8-.8.8.8 0 0 1 .8-.8h58.3a.8.8 0 0 1 .8.8zm83.2-.8v1.7s-11.2-.5-19-.5l-40.2.4a.8.8 0 0 1-.8-.8.8.8 0 0 1 .8-.8zm-149.8.8a.8.8 0 0 1-.9.8c-2.4 0-9.6-.4-15-.4l-34.3.4v-1.6h49.4a.8.8 0 0 1 .8.8zM200 140.8v2H77.5c-.8 0-1.5-.4-1.5-1 0-.5.7-1 1.6-1zm-130 1c0 .6-.8 1-1.6 1H0v-2h68.4c.8 0 1.5.5 1.5 1zm130-18.5v1.7s-115.2-.9-153.6-.9c-11.6 0-46.4.9-46.4.9v-1.7l45.9-1c38.5-.2 154.1 1 154.1 1zm0-29.8v1H0v-1h200zm-49.2 14c-36.4.3-83.3.5-105.2.5-11.4 0-45.6-.8-45.6-.8V105s58.7 1.5 78.2 1.5c15.3 0 45.7-.4 72.4-.8zm9.4-1.9l39.8-.6v2.3l-39.5.2z"/>
    </pattern>
    <pattern id="line" width="200" height="195" patternTransform="translate(0 63)" patternUnits="userSpaceOnUse">
      <path d="M0 112v-2l150-1 50 1v2zm0 10v-3l107-1 93 1v3l-93-1-107 1zm0 6h41a1 1 0 0 1 1 1 1 1 0 0 1-1 1H0zm46 1a1 1 0 0 1 1-1l70-1 83 1v2l-83-1-70 1a1 1 0 0 1-1-1zm-46 7h200v3H0zm0 13v-4a15262 15262 0 0 0 200 0v4zm0 10v-3a3435 3435 0 0 0 167-1l33 1v3l-33-1-116 1H0zm0 17h200v2H0zm0-7v-4l68 1 105-1a2 2 0 0 1 2 2 2 2 0 0 1-2 2l-97-1-76 1zm180-2a2 2 0 0 1 2-2h18v4h-18a2 2 0 0 1-2-2zM0 184h200v4H0zm0 9h200v2H0zM0 0h200v2H0zm0 5h200v4H0zm0 26h200v2H0zm91-15a1 1 0 0 1 1-1h108v2H92a1 1 0 0 1-1-1zM0 15h85a1 1 0 0 1 1 1 1 1 0 0 1-1 1H0zm0 12v-3l133-1 67 1v3l-95-2-65 3-40-1zm0 16v-4l64 1 136-1v4zm0 11v-3h122a2 2 0 0 1 1 1 2 2 0 0 1-1 2zm124-2a2 2 0 0 1 2-1h74v3h-74a2 2 0 0 1-2-2zM0 62v-2a30360 30360 0 0 0 200 0v2l-46 1L0 62zm0 6h200v3H0zm0 10h200v2H0zm0 19v-2h200v2L98 98 0 97zm0 7v-1h200v1H0zm0-14v-3l154-1 46 1v3z"/>
    </pattern>
    <pattern id="wave" width="40" height="50" patternTransform="translate(-24.4 2.7)" patternUnits="userSpaceOnUse">
      <path class="cls-1" d="M0 0h40v50H0z"/>
      <path class="cls-1" d="M44.7 16.3C43.7 11.5 39.9 0 39.9 0h-1.4s4.2 10.9 5 16a41 41 0 0 1-.2 12.6A178 178 0 0 1 38.5 50h1.4s3.4-11.5 4.5-19.9c1-6.8.9-11 .3-13.8z"/>
      <path class="cls-1" d="M40.1 16.3C39.1 11.5 35.8 0 35.8 0h-3s5 11.3 5.7 16.5c.6 3.2.9 6.4 0 13.2C37.4 38 32.9 50 32.9 50h2.9a170.2 170.2 0 0 0 4-19.9c.9-6.8.9-11 .3-13.8z"/>
      <path class="cls-1" d="M34.7 16.3c-1-4.3-4-13.9-4.7-16V6a80.8 80.8 0 0 1 3 10.7c.5 3.3 1 5 .2 11.9A114.2 114.2 0 0 1 30 42.9v6.7A150.7 150.7 0 0 0 34.4 30c1-6.8.9-11 .3-13.8z"/>
      <path class="cls-1" d="M30 18.4v6.2a37.6 37.6 0 0 0 0-6.2z"/>
      <path d="M43.5 16c-.8-5.1-5-16-5-16h-2.7S39 11.5 40 16.3c.5 2.8.5 7-.3 13.8a170.2 170.2 0 0 1-4 19.9h2.7s3.8-13.2 4.8-21.4c.8-6.8.6-9.3.2-12.6z"/>
      <path d="M48 16.8C47.2 11.6 42.9 0 42.9 0h-3s3.7 11.5 4.8 16.3c.6 2.8.6 7-.3 13.8C43.4 38.5 40 50 40 50h3s4.5-11.5 5.6-19.8a37.9 37.9 0 0 0-.5-13.4zm-9.5-.3C37.7 11.3 33 0 33 0h-3v.4c.7 2 3.7 11.6 4.7 16 .6 2.7.6 7-.3 13.7A150.7 150.7 0 0 1 30 49.6v.4h2.9s4.5-12 5.6-20.3c.9-6.8.6-10 0-13.2z"/>
      <path d="M33 16.8A80.8 80.8 0 0 0 30 6v12.4a37.6 37.6 0 0 1 0 6.1V43a114.2 114.2 0 0 0 3.2-14.3c1-6.8.4-8.6-.2-11.9z"/>
      <path class="cls-1" d="M30 24.6v-6.2a16 16 0 0 0-.3-2c-1-5-4.8-16.4-4.8-16.4h-2s4.3 11.6 5.1 16.8a37.9 37.9 0 0 1 .5 13.4c-1 8.3-5.6 19.8-5.6 19.8h2s3.4-11.5 4.5-19.9l.6-5.6z"/>
      <path class="cls-1" d="M24.7 16.3C23.7 11.5 19.9 0 19.9 0h-1.4s4.2 10.9 5 16a41 41 0 0 1-.2 12.6c-1 8.3-4.8 21.4-4.8 21.4h1.4s3.4-11.5 4.5-19.9c1-6.8.9-11 .3-13.8z"/>
      <path class="cls-1" d="M20.1 16.3C19.1 11.5 15.8 0 15.8 0h-3s5 11.3 5.7 16.5a40 40 0 0 1 0 13.2C17.4 38 12.9 50 12.9 50h2.9a170.2 170.2 0 0 0 4-19.9c.9-6.8.9-11 .3-13.8z"/>
      <path class="cls-1" d="M14.7 16.3c-1-4.3-4-13.9-4.7-16V6a80.8 80.8 0 0 1 3 10.7c.5 3.3 1 5 .2 11.9A114.2 114.2 0 0 1 10 42.9v6.7A150.7 150.7 0 0 0 14.4 30c1-6.8.9-11 .3-13.8zM27.9 50H30v-7l-2.1 7z"/>
      <path class="cls-1" d="M10 18.4v6.2a37.6 37.6 0 0 0 0-6.2zM30 0h-2.1L30 6z"/>
      <path d="M23.4 16c-.7-5.1-5-16-5-16h-2.6S19 11.5 20 16.3c.5 2.8.5 7-.3 13.8a170.2 170.2 0 0 1-4 19.9h2.7s3.8-13.2 4.8-21.4c.8-6.8.6-9.3.1-12.6z"/>
      <path d="M28 16.8C27.2 11.6 22.9 0 22.9 0h-3s3.7 11.5 4.8 16.3c.6 2.8.6 7-.3 13.8C23.4 38.5 20 50 20 50h3s4.5-11.5 5.6-19.8a37.9 37.9 0 0 0-.5-13.4zm-9.5-.3C17.7 11.3 13 0 13 0h-3v.4c.7 2 3.7 11.6 4.7 16 .6 2.7.6 7-.3 13.7A150.7 150.7 0 0 1 10 49.6v.4h2.9s4.5-12 5.6-20.3c.9-6.8.6-10 0-13.2z"/>
      <path d="M13 16.8A80.8 80.8 0 0 0 10 6v12.4a37.6 37.6 0 0 1 0 6.1V43a114.2 114.2 0 0 0 3.2-14.3c1-6.8.4-8.6-.2-11.9zm17 1.6V6l-2.1-6h-3s3.7 11.5 4.8 16.3a16 16 0 0 1 .3 2.1zm0 6.2l-.6 5.5C28.4 38.5 25 50 25 50h3l2.1-7z"/>
      <g>
        <path class="cls-1" d="M10 24.6v-6.2a16 16 0 0 0-.3-2C8.7 11.4 4.9 0 4.9 0h-2S7.2 11.6 8 16.8a37.9 37.9 0 0 1 .5 13.4C7.5 38.5 2.9 50 2.9 50h2s3.4-11.5 4.5-19.9l.6-5.6z"/>
        <path class="cls-1" d="M4.7 16.3C3.7 11.5-.1 0-.1 0h-1.4s4.2 10.9 5 16a41 41 0 0 1-.2 12.6C2.3 36.9-1.5 50-1.5 50h1.4s3.4-11.5 4.5-19.9c1-6.8.9-11 .3-13.8z"/>
        <path class="cls-1" d="M.1 16.3C-.9 11.5-4.2 0-4.2 0h-3s5 11.3 5.7 16.5c.6 3.2.9 6.4 0 13.2C-2.6 38-7.1 50-7.1 50h2.9a170.2 170.2 0 0 0 4-19.9c.9-6.8.9-11 .3-13.8zM7.9 50H10v-7l-2.1 7zM10 0H7.9L10 6z"/>
        <path d="M3.5 16c-.8-5.1-5-16-5-16h-2.8S-.8 11.5.2 16.3c.6 2.8.6 7-.2 13.8A170.2 170.2 0 0 1-4.2 50h2.7s3.8-13.1 4.8-21.4c.8-6.8.6-9.3.2-12.6z"/>
        <path d="M8 16.8C7.2 11.6 2.9 0 2.9 0h-3s3.7 11.5 4.8 16.3c.6 2.8.6 7-.3 13.8C3.4 38.5 0 50 0 50h3s4.5-11.5 5.6-19.8A37.9 37.9 0 0 0 8 16.8zm2 1.6V6L7.9 0h-3s3.7 11.5 4.8 16.3a16 16 0 0 1 .3 2.1zm0 6.2L9.4 30C8.4 38.5 5 50 5 50h3l2.1-7z"/>
      </g>
    </pattern>
    <symbol id="Smoke_Stack" viewBox="0 0 43.9 228">
      <style>
        .smoke-large {
          animation: smoke-large 1s;
          animation-iteration-count: infinite;
          animation-direction: alternate;
        }
  
        @keyframes smoke-large {
          0% { transform: translateX(10%) }
          100% { transform: translateX(-15%) }
        }
      </style>
      <path fill="url(#drkCross)" stroke="#000" stroke-miterlimit="10" d="M.5 155h42.9v72.5H.5z" id="Smoke_Stack-3"/>
      <path class="smoke-large" d="M21 150.7A12.5 12.5 0 0 0 33 135c-3-11-5.8-25.8-3.9-38.3 4.7-30.2 14.2-29.4 11.1-47.2C36.5 28 11 3.8 2 12.8c-5.4 5.4 13.8 27.3 9.1 47.9-3.1 13.8-9 15.6-9 27 .1 12.8 7.8 14.2 9 27a53.9 53.9 0 0 1-2.1 20 12.5 12.5 0 0 0 12 16z" fill="url(#dots)"/>
      <path class="cls-13" d="M20.3 145.3a8.7 8.7 0 0 1-8.7-10.2c2.2-12.3 5-33.6 3.6-50.7-2.8-34.1-12.8-30.8-11-50.9C6.6 9.3 20.8-7 26.3 3.1c3.2 6-2.9 17.4 0 40.6 1.8 15.6 5.4 17.7 5.4 30.5 0 14.4-4.7 16-5.5 30.5a117.6 117.6 0 0 0 2.7 30 8.7 8.7 0 0 1-8.5 10.6z"/>
    </symbol>
    <symbol id="blade" viewBox="0 0 102.8 183.6">
      <path d="M81.3 108.7C98 140 95 183.6 95 183.6h7.8s-.3-46-12-73.5C62.1 42.3 0 0 0 0s38.8 23.4 81.3 108.7z"/>
    </symbol>
    <symbol id="Creep_Leg" viewBox="0 0 85.7 127.7">
      <path d="M85.2 2.1c-.6 15-2 30.7-3.6 45.4-2.1 18.6-9.4 26.2-11.4 38.1-1.8 11 5 21.2 1.6 27-2 3.7-6.7 6.8-12.7 9.2-14.3 5.7-32.8 5.8-46.2 5.1-7.3-.4-12.5-2-12.4-6.2a25 25 0 0 1 9.5-19c9.8-7.5 23.4-8.2 25.1-13.5 2-6 .2-43.7 3.8-69.6L41.4 0" fill="url(#ltCross)" stroke="#000" stroke-miterlimit="10"/>
    </symbol>
    <symbol id="Hat_Ring" viewBox="0 0 160.3 66.3">
      <path d="M24.4 66.2c-6.7.2-13.8.3-17.5-1.5a14 14 0 0 1-6.5-8.2c-4.8-14.7 36.3-34 63.8-43.3 38-13 89.6-18.6 95.1-6.6a11.2 11.2 0 0 1-.2 9.9c-5.5 11.4-31.9 24-68.8 35.4-30.4 9.3-51.7 14-65.9 14.3zM131.8 1.8a242 242 0 0 0-67 11.9C39 22.3-.2 41.8 4 54.9 5 57.6 7 60.6 9.8 62c10.9 5.3 35.5 2.6 79.9-10.8 36.5-11 59.4-25 64.7-35.8a9.2 9.2 0 0 0 .2-8.2c-1.8-4-10.5-5.6-22.8-5.4z"/>
    </symbol>
    <symbol id="Shoe_highlight" viewBox="0 0 41.8 17.7">
      <path d="M.2.9S2.1 5.7 5.4 8a20.4 20.4 0 0 0 8.5 3.3 23.2 23.2 0 0 0 15.2-2.6c5.1-2.7 12.6-3.1 12.6-3.1s-6.6.5-11.3 3.8c-4.9 3.5-7.7 7.2-13.7 8-3.4.5-11-1.8-13-3.6C1 11.7.7 7.8.6 5.3L.2.9z" stroke-width=".3" stroke="#fff" stroke-miterlimit="10" fill="#fff"/>
    </symbol>
    <symbol id="shadow-right" viewBox="0 0 37.9 33">
      <path d="M37 0s-3 12-10 18S0 33 0 33s21.7-8.6 28-14C42 7 37 0 37 0z" fill="url(#grad1)"/>
    </symbol>
    <symbol id="shadow-left" viewBox="0 0 24.6 10.4">
      <path d="M.6 0s2 7 6 8c6 1.5 18-1 18-1s-12 4.8-19 3c-8-2-5-10-5-10z" fill="url(#grad2)"/>
    </symbol>
    <symbol id="Boot" viewBox="0 0 152.9 144.4">
      <path id="boot-top" class="cls-2" d="M25.6 2.3a6.9 6.9 0 0 0-4 5c-2.5 10-1.5 33-5 44-4.7 15.2-18.7 42.5-15 58 .8 3.3 2 9.5 6 14.6s11 9.7 23 8.4c54-6 45 4 71 6 12.8 1 42 0 45-2 4.3-2.9 4.2-6 5-10 1-5-.5-15.7-7-20-9-6-22.5-5.5-30-8-12.6-4.2-12.2-9-21-19-7.8-8.9-8-16.2-8-28 0-9 3.5-33 5-39 1-4-3-7-3-7s2 6.2-.2 7.6c-5.8 3.4-27 3.1-36.8 2.4-8.5-.7-27-2-27-8a7.7 7.7 0 0 1 2-5z"/>
      <path id="boot-main" d="M11.3 67.4l-2.2 4s-9.9 28-7.5 37.9c.8 3.3 2 9.5 6 14.5s11 9.8 23 8.5c54-6 45 4 71 6 12.8 1 42 0 45-2 4.3-2.9 4.2-6 5-10 1-5-.5-15.7-7-20-9-6-22.5-5.5-30-8a25.4 25.4 0 0 1-16-15s-6.2 5.7-11 4C79.6 84.3 54 73 42 76.6c-13.4 3.9-18.3 5-25.5 2-7.7-3.2-5-11.2-5-11.2z"/>
      <path d="M7.6 124.3l42 4v12.1a3 3 0 0 1-2.9 3c-5.8 0-12.3.3-18.1-.3-4.1-.5-12.3-1.8-16.6-3.2-3.6-1.2-6.8-3.2-6.2-7z"/>
      <path d="M117.2 98.3c5.4 7.5 1.1 36.2-3.7 44.4" stroke-dasharray="2.94 3.93" stroke-linecap="round" stroke="#fff" stroke-miterlimit="10" stroke-width="2" fill="none"/>
      <path class="cls-3" d="M112.2 96c6.3 5.3 3.5 32.3-2.2 42.6"/>
      <use width="41.8" height="17.7" transform="matrix(1, 0, 0, 1, 6.599999904632568, 79.30000305175781)" xlink:href="#Shoe_highlight"/>
      <use width="41.8" height="17.7" transform="matrix(1, 0, 0, 1, 4, 84.30000305175781)" xlink:href="#Shoe_highlight"/>
      <path d="M62 133.2a76 76 0 0 1 21.4 4.5 86.5 86.5 0 0 0 16.2 3.5c17.7 1.7 46.1.3 49-2.9l.3 1.6a1.6 1.6 0 0 1-1.3 1.7 155.8 155.8 0 0 1-19.9 2.5 247.5 247.5 0 0 1-30.2-.6 89.3 89.3 0 0 1-16.6-4.7c-8.2-4-18.9-5.6-18.9-5.6z"/>
      <use width="41.8" height="17.7" transform="matrix(1, 0, 0, 1, 2.9000000953674316, 91.5999984741211)" xlink:href="#Shoe_highlight"/>
      <use width="41.8" height="17.7" transform="matrix(0.8700000047683716, 0, 0, 0.8700000047683716, 1.9000000953674316, 99.5999984741211)" xlink:href="#Shoe_highlight"/>
      <use width="41.8" height="17.7" transform="matrix(0.6899924278259277, -0.11794255673885345, 0.11794255673885345, 0.6899924278259277, 2.009939670562744, 117.68780517578125)" xlink:href="#Shoe_highlight"/>
      <use width="41.8" height="17.7" transform="matrix(0.4300000071525574, -0.18000000715255737, 0.18000000715255737, 0.4300000071525574, 5.599999904632568, 118.9000015258789)" xlink:href="#Shoe_highlight"/>
      <use width="37.9" height="33" transform="matrix(0.49000000953674316, 0.27000001072883606, -0.2900001108646393, 0.5199997425079346, 71.5999984741211, 3.5)" xlink:href="#shadow-right"/>
      <use width="37.9" height="33" transform="matrix(0.49000000953674316, 0.27000001072883606, -0.2900001108646393, 0.5199997425079346, 69.5999984741211, 18.5)" xlink:href="#shadow-right"/>
      <use width="37.9" height="33" transform="matrix(0.3500001132488251, 0.1899999976158142, -0.23000000417232513, 0.42000001668930054, 77, 13.399999618530273)" xlink:href="#shadow-right"/>
      <use width="37.9" height="33" transform="matrix(0.3500001132488251, 0.1899999976158142, -0.23000000417232513, 0.42000001668930054, 77, 10.399999618530273)" xlink:href="#shadow-right"/>
      <use width="37.9" height="33" transform="matrix(0.3700000047683716, 0.20000000298023224, -0.25, 0.46000000834465027, 75, 16.899999618530273)" xlink:href="#shadow-right"/>
      <use width="37.9" height="33" transform="matrix(0.49000000953674316, 0.27000001072883606, -0.2900001108646393, 0.5199997425079346, 68.5999984741211, 22.5)" xlink:href="#shadow-right"/>
      <use width="37.9" height="33" transform="matrix(0.49000000953674316, 0.27000001072883606, -0.2900001108646393, 0.5199997425079346, 68.5999984741211, 33.5)" xlink:href="#shadow-right"/>
      <use width="37.9" height="33" transform="matrix(0.3500001132488251, 0.1899999976158142, -0.23000000417232513, 0.42000001668930054, 74, 29.399999618530273)" xlink:href="#shadow-right"/>
      <use width="37.9" height="33" transform="matrix(0.3700000047683716, 0.20000000298023224, -0.25, 0.46000000834465027, 72, 32.900001525878906)" xlink:href="#shadow-right"/>
      <use width="37.9" height="33" transform="matrix(0.49000000953674316, 0.27000001072883606, -0.2900001108646393, 0.5199997425079346, 68.5999984741211, 37.5)" xlink:href="#shadow-right"/>
      <use width="37.9" height="33" transform="matrix(0.49000000953674316, 0.27000001072883606, -0.2900001108646393, 0.5199997425079346, 68.5999984741211, 48.5)" xlink:href="#shadow-right"/>
      <use width="37.9" height="33" transform="matrix(0.49000000953674316, 0.27000001072883606, -0.2900001108646393, 0.5199997425079346, 68.5999984741211, 53.5)" xlink:href="#shadow-right"/>
      <use width="37.9" height="33" transform="matrix(0.33000001311302185, 0.09000000357627869, -0.10000000149011612, 0.36000001430511475, 74.5, 63.599998474121094)" xlink:href="#shadow-right"/>
      <use width="37.9" height="33" transform="matrix(0.33000001311302185, 0.05000003054738045, -0.05000003054738045, 0.3100000023841858, 76.30000305175781, 67.4000015258789)" xlink:href="#shadow-right"/>
      <use width="37.9" height="33" transform="matrix(0.23000000417232513, 0.04000002145767212, -0.04000002145767212, 0.24000002443790436, 80.5999984741211, 70.69999694824219)" xlink:href="#shadow-right"/>
      <use width="37.9" height="33" transform="matrix(0.23000000417232513, 0.04000002145767212, -0.04000002145767212, 0.24000002443790436, 82.5999984741211, 73.69999694824219)" xlink:href="#shadow-right"/>
      <use width="37.9" height="33" transform="matrix(0.2200000137090683, 0, 0, 0.18000000715255737, 84.69999694824219, 78.4000015258789)" xlink:href="#shadow-right"/>
      <use width="37.9" height="33" transform="matrix(0.3500001132488251, 0.1899999976158142, -0.23000000417232513, 0.42000001668930054, 74, 44.400001525878906)" xlink:href="#shadow-right"/>
      <use width="37.9" height="33" transform="matrix(0.3700000047683716, 0.20000000298023224, -0.25, 0.46000000834465027, 72, 47.900001525878906)" xlink:href="#shadow-right"/>
      <use width="24.6" height="10.4" transform="matrix(0.46000000834465027, 0.20000000298023224, -0.3400000035762787, 0.7699997425079346, 22, 6.699999809265137)" xlink:href="#shadow-left"/>
      <use width="24.6" height="10.4" transform="matrix(0.30000001192092896, 0.12999999523162842, -0.2200000137090683, 0.49000000953674316, 20.799999237060547, 16.600000381469727)" xlink:href="#shadow-left"/>
      <use width="24.6" height="10.4" transform="matrix(0.30000001192092896, 0.12999999523162842, -0.2200000137090683, 0.49000000953674316, 19.799999237060547, 30.600000381469727)" xlink:href="#shadow-left"/>
      <use width="24.6" height="10.4" transform="matrix(0.46000000834465027, 0.20000000298023224, -0.27000001072883606, 0.6200000047683716, 19.299999237060547, 35.29999923706055)" xlink:href="#shadow-left"/>
      <use width="24.6" height="10.4" transform="matrix(0.2800000011920929, 0.12000001221895218, -0.27000001072883606, 0.6200000047683716, 17.299999237060547, 51.29999923706055)" xlink:href="#shadow-left"/>
      <use width="24.6" height="10.4" transform="matrix(0.25999999046325684, 0.18000000715255737, -0.25999999046325684, 0.36000001430511475, 14.399999618530273, 58.5)" xlink:href="#shadow-left"/>
      <use width="24.6" height="10.4" transform="matrix(0.3100000023841858, 0.10000000149011612, -0.1599999964237213, 0.5099999904632568, 18.299999237060547, 44.900001525878906)" xlink:href="#shadow-left"/>
      <use width="24.6" height="10.4" transform="matrix(0.25999999046325684, 0.1899999976158142, -0.3200001120567322, 0.4300000071525574, 12.699999809265137, 63.099998474121094)" xlink:href="#shadow-left"/>
      <use width="24.6" height="10.4" transform="matrix(0.47000011801719666, 0.1700001209974289, -0.21000002324581146, 0.6100000143051147, 19.899999618530273, 22)" xlink:href="#shadow-left"/>
      <path class="cls-3" d="M8.6 127.4c.5 6.1 13.5 5 16.3 4.6M7.8 130.2c.7 4.5 10.1 5.5 16.6 5.1M7.2 132.9c2 5.6 13.1 5.9 17.3 5.4"/>
      <path class="cls-6" d="M56.8 85.2A59.8 59.8 0 0 1 70.4 90c7.3 3.7 15 9.6 18.5 10.8a101.3 101.3 0 0 0 10.2 2.6c2.9.6 11.9-1.1 11.9-1.1l-7 1.9 6.2.6a45.7 45.7 0 0 1-16.1-.7c-9.1-2.3-10.7-4.2-13.5-5.8-4.2-2.3-8.2-5-12-7.5a60.8 60.8 0 0 0-11.8-5.6zM124.8 103s7.9.3 9.9.6c6.5 1 12.7 7.7 12.7 7.7s-8.4-5-10.9-5.6l-11.7-2.7z"/>
    </symbol>
    <symbol id="sign" viewBox="0 0 290.8 108.3">
      <path d="M226 107.3H1V1h225l63.3 49.7-63.4 56.6z"/>
    </symbol>
    <symbol id="sign-layers" viewBox="0 0 297.5 115.5">
      <use id="sign-diagnal" width="290.8" height="108.3" transform="matrix(1.0199999809265137, 0, 0, 1.0199999809265137, 0, 4.800000190734863)" style="fill: url(#drkCross);" xlink:href="#sign"/>
      <use id="sign-solid" width="290.8" height="108.3" transform="matrix(1, 0, 0, 1, 0, 0)" style="fill: rgb(255, 255, 255);" xlink:href="#sign"/>
      <use id="sign-lines" width="290.8" height="108.3" transform="matrix(1, 0, 0, 1, 0, 0)" style="fill: url(#ltLine);" xlink:href="#sign"/>
    </symbol>
    <symbol id="Hat_Hightlight" viewBox="0 0 143.8 65.7">
      <path class="cls-6" d="M0 46.4C2 40.8 35.2 46.2 75 35S140.1-2.8 143.4.2c2.8 2.6-12.7 15.2-19.7 24.4-15 19.8-23.5 34.8-35.6 38.4C68.4 69 54.5 64.3 36 57 21.5 51.5-1.3 50.6 0 46.4z"/>
    </symbol>
    <pattern id="ltLine-0" patternTransform="" xlink:href="#ltLine"/>
  </defs>
  <rect x="5.888" y="459.22" width="2920.953" height="1490.379" style="fill: url(#ltLine-0); opacity: 0.5;" transform="matrix(1, 0, 0, 0.9479952199945519, -5.888000011444092, 101.38846863011544)"/>
  <g id="splotches">
    <path d="M413 42c173.6-29.4 652.7 150.8 817.7 89.7 244-90.6 481 71.4 721.3-41.2 156-73 410.3-14.8 551.3 93.3 73.4 56.2 299.5 130 304.5 227.6 9.3 179.1 30 123.7 30 123.7L65 570.5S111.6 93.3 413 42.1z" transform="translate(86.2 -38.8)" fill="url(#grad4)"/>
  </g>
  <g id="skyline" opacity=".4" transform="matrix(1.030608, 0, 0, 1.030608, -89.533333, 44.998245)">
    <path class="cls-15" d="M89.6 33.1H290v465.2H89.6zm2635.2 192.1h200.4V527h-200.4zM294.2 128.4h145.9v369.9H294.2zM1818 306.1h317.6v199.4H1818zm331.2-175.3h145.9v369.9h-145.9zM470.3 229.5H1018v268.8H470.3zM2318 185h389.5v320.5H2318zm-1272.8-85h223.3v400.8h-223.3zm459.8 59.4h186.7v335.8H1505zm-216.3 43.3h190.9v276.9h-190.9z"/>
    <path class="cls-15" d="M1816 462h-90V237h-9l.4-81.4h9l-.5-35.5 18-9 9-18 .5-36.5 18-54 17 54 .5 36.5 9 18 18 9v36l9.5.5-.5 80.5h-9v225z"/>
    <circle cx="1771.2" cy="197.1" r="32" stroke-miterlimit="10" stroke="#000" fill="#fff"/>
    <use width="43.9" height="228" transform="matrix(1, 0, 0, 1, 504.29998779296875, 1)" xlink:href="#Smoke_Stack"/>
    <use width="43.9" height="228" transform="matrix(1, 0, 0, 1, 577, 1.2000000476837158)" xlink:href="#Smoke_Stack"/>
    <use width="43.9" height="228" transform="matrix(1, 0, 0, 1, 649, 1.2000000476837158)" xlink:href="#Smoke_Stack"/>
    <use width="43.9" height="228" transform="matrix(1, 0, 0, 1, 2767.300048828125, 0)" xlink:href="#Smoke_Stack"/>
    <use width="43.9" height="228" transform="matrix(1, 0, 0, 1, 2841.300048828125, 0)" xlink:href="#Smoke_Stack"/>
    <path class="cls-6" d="M.8 555.1s162-34 304.7-18.7c83 9 134.6 12.9 167.6 17.4 257.4 35.4 488.6-39.7 895.1-24.3 217.8 8.2 309 35.8 521.8 24.3 88-4.7 107.2-11.3 196.3-17.4 230.9-15.8 325 26 536.1 14a8261.3 8261.3 0 0 0 215.4-15.3v86L1.2 634z" transform="translate(86.2 -92)"/>
    <path d="M.8 555.1s162-34 304.7-18.7c83 9 134.6 12.9 167.6 17.4 158.8 21.9 298.6-2.6 484.7-17.7a3514.8 3514.8 0 0 1 410.4-6.6c217.8 8.2 309 35.8 521.8 24.3 88-4.7 107.2-11.3 196.3-17.4 230.9-15.8 325 26 536.1 14a8261.3 8261.3 0 0 0 215.4-15.3l1 88c1.3 9.2-370.3-5.4-630-24-126-9-292 84.1-468 45-243-54-614.8-47.6-711-36-332.5 40.3-648 36-819 0-71-15-211 34-211 34z" transform="translate(86.2 -92)" fill="url(#ltLine)"/>
    <path d="M.8 555.1s162-34 304.7-18.7c83 9 134.6 12.9 167.6 17.4 158.8 21.9 298.6-2.6 484.7-17.7a3514.8 3514.8 0 0 1 410.4-6.6c217.8 8.2 309 35.8 521.8 24.3 88-4.7 107.2-11.3 196.3-17.4 230.9-15.8 325 26 536.1 14a8261.3 8261.3 0 0 0 215.4-15.3l1 43c1.3 9.2-370.3-5.4-630-24-126-9-292 84.1-468 45-243-54-614.8-47.6-711-36-332.5 40.3-648 36-819 0-71-15-211 34-211 34z" transform="translate(86.2 -92)" fill="url(#line)"/>
  </g>
  <g id="Path" fill="url(#ltLine)" transform="matrix(1.029554, 0, 0, 1.029554, -86.446159, -57.538826)">
    <path d="M2839 1366s-335 213-443 239c-146 34-444-7-586 40-172 57-498 335-666 393-5 2-1144 0-1144 0v-428s134-74 334-103c195-28 602 64 789 36 156-24 425-159 580-195 163-36 515-11 680-36 107-16 456-182 456-182z" transform="translate(86 -92)"/>
    <path d="M328 1749c-98 9-98 20-109 61-8 30 104 8 109 27s-60 47-56 67c2 13 187 48 255 46 79-1 74-24 219-31 154-7 251 101 380 54 23-8 97-74 99-122 2-32 56-61 29-98-36-49-349 11-536 29-89 8-217-48-390-33z" transform="translate(86 -92)"/>
  </g>
  <g id="ground">
    <g id="ground-1">
      <path class="cls-24" d="M-86.2 1083.1c3-20.6 171-36.5 321.4-59 90.8-13.6 152.5-42.1 232.2-40 276.3 7.4 293 65.3 589.2 72 190.2 4.3 218.7-39.7 321.4 4 48.7 20.7 216.8 21.8 198.4 51-22 35-81.8 33.3-308 17-125-9-496-48.6-646.2-63-375-36-714 57.8-708.4 18z" transform="translate(86.2 -92)"/>
      <path class="cls-25" d="M-86.2 1083.1c3-20.6 171-36.5 321.4-59 90.8-13.6 152.5-42.1 232.2-40 276.3 7.4 293 65.3 589.2 72 190.2 4.3 218.7-39.7 321.4 4 48.7 20.7 216.8 20.8 198.4 50-22 35-131.3-41.9-357.6-27-136.7 9-458.7-48.6-609-63-375-36-701.6 102.8-696 63z" transform="translate(86.2 -92)"/>
    </g>
    <g id="ground-2">
      <path class="cls-24" d="M2838.8 1848.1c-2-20.6-110-36.5-206.9-59-58.4-13.6-98.1-42.1-149.4-40-177.8 7.4-188.6 65.3-379.2 72-122.4 4.3-140.8-39.7-206.9 4-31.3 20.7-139.5 21.8-127.7 51 14.2 35 52.7 33.3 198.2 17 80.4-9 319.2-48.6 416-63 241.3-36 459.5 57.8 455.9 18z" transform="translate(86.2 -92)"/>
      <path class="cls-25" d="M2838.8 1848.1c-2-20.6-110-36.5-206.9-59-58.4-13.6-98.1-42.1-149.4-40-177.8 7.4-188.6 65.3-379.2 72-122.4 4.3-140.8-39.7-206.9 4-31.3 20.7-139.5 20.8-127.7 50 14.2 35 84.6-41.9 230.2-27 88 9 295.2-48.6 392-63 241.3-36 451.5 102.8 447.9 63z" transform="translate(86.2 -92)"/>
    </g>
    <g id="ground-3">
      <path d="M1156.5 729.2c3.2-20.4 92.2-29.2 172.6-45.4 48.5-9.7 83-35.6 124.5-30.1 143.7 19 147.8 77.4 302 96.5 99 12.2 117.4-30.5 167.5 17.4 23.8 22.7 111.5 30.8 99.6 59.1-14.3 34-45.4 29.8-162.2 4-64.5-14.1-255.2-69.1-332.5-89.8-193-51.6-377.6 27.7-371.5-11.7z" transform="translate(86.2 -92)" fill="url(#ltLine)"/>
      <path d="M1156.5 729.2c3.2-20.4 92.2-29.2 172.6-45.4 48.5-9.7 83-35.6 124.5-30.1 143.7 19 147.8 77.4 302 96.5 99 12.2 117.4-30.5 167.5 17.4 23.8 22.7 111.6 29.8 99.7 58.1-14.4 34-65.3-47.2-184.7-41.8-72.1 3.2-235.7-67.7-313-88.3-193-51.6-374.7 73-368.6 33.6z" transform="translate(86.2 -92)" fill="url(#line)"/>
    </g>
    <g id="tuft-1">
      <use width="102.8" height="183.6" transform="matrix(1, 0, 0, 1, 206.39999389648438, 1211.5)" xlink:href="#blade"/>
      <use width="102.8" height="183.6" transform="matrix(-1, 0, 0, 0.9300004839897156, 407, 1223.5)" xlink:href="#blade"/>
      <use width="102.8" height="183.6" transform="matrix(1, 0, 0, 1.5099999904632568, 208.8000030517578, 1118.199951171875)" xlink:href="#blade"/>
    </g>
    <g id="tuft-2">
      <use width="102.8" height="183.6" transform="matrix(0.8199999928474426, 0, 0, 0.8500000238418579, 2065.699951171875, 1469.5)" xlink:href="#blade"/>
      <use width="102.8" height="183.6" transform="matrix(-1, 0, 0, 1, 2245.199951171875, 1442.699951171875)" xlink:href="#blade"/>
    </g>
  </g>
  <g id="sign-and-creep">
    <g id="Signpost">
      <use width="298" height="116" transform="matrix(-0.7199997901916504, 0, 0, 0.8100000023841858, 2469, 260)" xlink:href="#sign-layers"/>
      <use width="298" height="116" transform="matrix(1, 0, 0, 1, 2536, 300)" xlink:href="#sign-layers"/>
      <path d="M2058 1000c-69 9-69 20-77 62-5 29 74 7 77 26s-42 47-39 67c1 13 132 48 179 46 56-1 53-24 155-31 109-6 153 8 244-39 16-8 52-12 54-60 1-32 59-78 40-115-26-50-248 20-381 38-62 8-130-9-252 6z" transform="translate(86 -92)" fill="url(#ltLine)"/>
      <path class="cls-2" d="M2482 119h38a16 16 0 0 1 17 16v876h-71V136a16 16 0 0 1 16-17z"/>
      <path d="M2482 119h38a16 16 0 0 1 17 16v876h-71V136a16 16 0 0 1 16-17z" fill="url(#ltLine)" stroke-width="2" stroke-miterlimit="10" stroke="#000"/>
      <path d="M2451 1103h-16l-1-892a16 16 0 0 1 17 17z" transform="translate(86 -92)" fill="url(#line)" stroke-width="2" stroke-miterlimit="10" stroke="#000"/>
      <path d="M2382 1103h16l1-892a16 16 0 0 0-17 17z" transform="translate(86 -92)" fill="url(#ltLine)" stroke-width="2" stroke-miterlimit="10" stroke="#000"/>
      <rect class="cls-6" x="2313" y="276" width="123" height="55" rx="24"/>
      <path d="M2240 413h-1v-38h7v15h8v-15h7v38h-6-1v-17h-8v17zm36 1a10 10 0 0 1-6-2 12 12 0 0 1-4-4 11 11 0 0 1-1-5v-18a11 11 0 0 1 1-5 11 11 0 0 1 4-4 10 10 0 0 1 6-2 10 10 0 0 1 5 2 11 11 0 0 1 4 4 11 11 0 0 1 2 5v17a11 11 0 0 1-2 6 11 11 0 0 1-4 4 10 10 0 0 1-5 2zm0-7a4 4 0 0 0 3-1 4 4 0 0 0 1-3v-18a4 4 0 0 0-1-3 4 4 0 0 0-3-1 4 4 0 0 0-3 1 4 4 0 0 0-1 3v17a4 4 0 0 0 1 4 4 4 0 0 0 3 1zm15 6v-38h7l5 7 5-7h7l1 38h-7v-28l-6 8-6-8v28zm29 0v-38h18v6h-11v9h11v6h-11v10h12v7h-1z" transform="translate(86 -92)"/>
      <path class="cls-6" d="M2542 315h237v58h-237z"/>
      <path class="cls-6" d="M2583 357h156v46h-156z"/>
      <path d="M2476 453a11 11 0 0 1-6-2 11 11 0 0 1-4-4 12 12 0 0 1-1-5v-3h6v3a5 5 0 0 0 2 3 4 4 0 0 0 3 1 4 4 0 0 0 2-1 5 5 0 0 0 2-3v-28h6v28a11 11 0 0 1-1 5 12 12 0 0 1-4 4 10 10 0 0 1-5 2zm15-1v-38h18v6l-1 1h-11v8h12v7h-12v10h12v6h-1zm23 0v-38h11a11 11 0 0 1 6 1 11 11 0 0 1 4 4 11 11 0 0 1 0 10 12 12 0 0 1-1 2 10 10 0 0 1-1 2 11 11 0 0 1 3 8v11h-7v-11a5 5 0 0 0-1-4 5 5 0 0 0-4-1h-4v16zm6-23h5a4 4 0 0 0 3-1 4 4 0 0 0 0-6 4 4 0 0 0-3-1h-5zm30 24a10 10 0 0 1-5-2 11 11 0 0 1-4-4 11 11 0 0 1-2-5l1-28h6v28a5 5 0 0 0 1 3 4 4 0 0 0 3 1 4 4 0 0 0 3-1 5 5 0 0 0 1-3v-28h7v28a11 11 0 0 1-5 9 10 10 0 0 1-6 2zm25 0a10 10 0 0 1-6-2 12 12 0 0 1-4-4 11 11 0 0 1-1-5v-3h7v3a4 4 0 0 0 1 3 4 4 0 0 0 6 0 4 4 0 0 0 1-3q0-2-3-4l-2-1-4-2a12 12 0 0 1-4-5 12 12 0 0 1-2-6 10 10 0 0 1 2-5 11 11 0 0 1 4-4 11 11 0 0 1 10 0 11 11 0 0 1 4 4 11 11 0 0 1 2 5v5h-7v-5a4 4 0 0 0-1-3 4 4 0 0 0-3-1 4 4 0 0 0-3 1 4 4 0 0 0-1 3 5 5 0 0 0 1 3 7 7 0 0 0 2 3h1l2 1 2 1 1 1a13 13 0 0 1 4 3 9 9 0 0 1 2 6 11 11 0 0 1-2 5 11 11 0 0 1-4 4 10 10 0 0 1-5 2zm11-1l7-38h9l6 38h-6l-1-4h-7l-1 4h-6zm9-10h5l-2-15-1-2v2zm17 10v-38h6v32h12v6zm22 0v-38h18v7h-12v8h12v7h-12v10h12v6zm23 0v-38h7l5 8 5-8a1 1 0 0 1 1 0h7v38h-7v-28l-6 8-6-8v28c1 0 0 0 0 0zm-149 9a1 1 0 0 1 1-1l2 1a3 3 0 0 1 0 3l-3 14a37 37 0 0 0-2 6l1 1a38 38 0 0 0 10-1 13 13 0 0 1 2-1 1 1 0 0 1 1 1l-4 3a24 24 0 0 1-9 2 5 5 0 0 1-3-1 3 3 0 0 1-1-3l2-11 3-12a2 2 0 0 1 0-1zm22 28a6 6 0 0 1-5-3 9 9 0 0 1-2-5 22 22 0 0 1 1-8 26 26 0 0 1 4-6 20 20 0 0 1 4-5 8 8 0 0 1 5-2 7 7 0 0 1 5 4 11 11 0 0 1 3 7 18 18 0 0 1-3 8 23 23 0 0 1-5 7 11 11 0 0 1-7 3zm5-6a22 22 0 0 0 4-6 14 14 0 0 0 2-6 10 10 0 0 0-1-5 3 3 0 0 0-3-2l-4 2a25 25 0 0 0-4 7 18 18 0 0 0-2 8 6 6 0 0 0 1 3 3 3 0 0 0 2 2l5-3zm31-21l1-2a2 2 0 0 1 2 1 3 3 0 0 1 1 2 60 60 0 0 1-1 9 77 77 0 0 1-3 12l-3 5a2 2 0 0 1-2-1 4 4 0 0 1 0-1l-7-18-3 11-2 7-1 2-1-1a3 3 0 0 1-1-2l3-11q3-10 2-13l1-1a2 2 0 0 1 1 0 5 5 0 0 1 1 2l8 20a63 63 0 0 0 4-16v-5zm9-1a19 19 0 0 1 8 2 22 22 0 0 1 7 5 11 11 0 0 1 3 7l-3 6a33 33 0 0 1-8 5 17 17 0 0 1-7 3l-2-2a4 4 0 0 1-1-2l2-10a75 75 0 0 0 3-11 5 5 0 0 1-2-1 2 2 0 0 1-1-2l1-1zm14 14q0-3-3-6a18 18 0 0 0-6-4 7 7 0 0 1 0 2 18 18 0 0 1-1 3l-2 9a47 47 0 0 0-2 6 16 16 0 0 0 7-2 27 27 0 0 0 5-5c2-1 2-2 2-3zm13 14a6 6 0 0 1-4-3 9 9 0 0 1-2-5 22 22 0 0 1 1-8 26 26 0 0 1 4-6 20 20 0 0 1 4-5 8 8 0 0 1 5-2 7 7 0 0 1 5 4 11 11 0 0 1 2 7 18 18 0 0 1-2 8 22 22 0 0 1-5 7 11 11 0 0 1-8 3zm5-6a22 22 0 0 0 5-6 14 14 0 0 0 2-6 10 10 0 0 0-1-5 3 3 0 0 0-3-2l-4 2a25 25 0 0 0-5 7 18 18 0 0 0-2 8 6 6 0 0 0 1 3 3 3 0 0 0 3 2l4-3zm32-21l1-2a2 2 0 0 1 2 1 3 3 0 0 1 0 2 60 60 0 0 1-1 9 76 76 0 0 1-2 12q-2 5-4 5a2 2 0 0 1-1-1 4 4 0 0 1-1-1l-7-18-2 11-2 7-1 2-1-1a3 3 0 0 1-1-2l2-11 3-13 1-1a2 2 0 0 1 1 0 5 5 0 0 1 1 2l8 20a62 62 0 0 0 4-16v-5z" transform="translate(86 -92)"/>
      <path class="cls-34" d="M2460 416c2-1 20 6 25 6l18 2c25 2 50 5 74 9l76 11c11 1 33 7 43 3-3 2-15-2-20-3l-23-3c-27-3-53-9-79-13l-72-8-19-1c-5-1-18-5-23-3z" transform="translate(86 -92)"/>
      <path class="cls-34" d="M2460 447c2-4 36-3 44-4 25-2 49-4 74-8l76-12c11-2 34-1 43-6-3 2-16 0-20 1l-24 2q-40 4-79 11c-24 4-49 6-73 9-9 1-36 0-42 7z" transform="translate(86 -92)"/>
      <path class="cls-6" d="M2348 1103c-2-8 14-22 28-24 13-1 17 8 33 8 18 1 22-10 38-10 20-1 42 18 40 27-6 21-133 20-139-1z" transform="translate(86 -92)"/>
      <path d="M2342 1103c-3-8 15-22 31-24 15-1 19 8 37 8 20 1 25-10 43-10 22-1 47 18 45 27-6 21-150 20-156-1z" transform="translate(86 -92)" fill="url(#line)"/>
      <path d="M2342 1093c-3-5 15-13 31-14 15-1 19 5 37 5 20 0 25-6 43-6 22-1 47 10 45 16-6 12-150 11-156-1z" transform="translate(86 -92)" fill="url(#line)"/>
    </g>
    <g id="Creep">
      <path d="M2294.8 654.3l3.3-6.7s18.7-10.4 32.2-23.3c7.2-7 21.5-9.1 33.3-11.3 12.6-2.3 18.1-3.8 18.1-3.8s1.2 7.1 2.4 15.9a108 108 0 0 1 1.4 30.5c-.5 2-7.7 6.4-10 14.3-.8 2.7 1 8.2 1 8.2s-6.6 12.8-9 15.2c-6.9 6.8-8.2 14.6-19.7 15.8-4 .4-19.8-11.1-19.8-11.1s1.7-9 .3-9c-7-.4-7.8.4-9.2-1.6-1.8-2.3-1.4-7.4-10.3-7.3-18.4.2-20.4 6-23.7 2.4s1.5-10.5 9.7-28.2z" transform="translate(86.2 -92)" fill="url(#dots)" stroke-miterlimit="10" stroke="#000"/>
      <path d="M2383.1 589.3c-5.5-12.9-39.5-17.6-53.5-16.4s-27.7 6.7-37.2 16.8c-5.6 5.9-19.8 28-24.5 34.6-7.5 10.4-12.5 11.5-17.2 25.3-2.6 7.7 16.8 12.2 25 11.8 16-.8 16.2-12.3 30.8-18.9 23.1-10.5 12.7-24.9 72.4-32.2 9.1-1.1 7.8-12.5 4.2-21z" transform="translate(86.2 -92)" fill="url(#drkCross)" stroke-miterlimit="10" stroke="#000"/>
      <use width="85.7" height="127.7" transform="matrix(0.9914447665214539, 0.13052617013454437, -0.13052617013454437, 0.9914447665214539, 2303.774169921875, 906.5955200195312)" xlink:href="#Creep_Leg"/>
      <use width="85.7" height="127.7" transform="matrix(1, 0, 0, 1, 2375, 919.5)" xlink:href="#Creep_Leg"/>
      <path class="cls-39" d="M2207.3 735.2a81 81 0 0 0 .7-13.8c-.5-2.7-6.3-3.2-6.6-5.9-1-8 5.7-14.3 7.9-14.8 5.3-1.5 6.2 3.8 6.7 2 1-3-9.9-9.1-11-12.2-1-2.4.7-5.4 4-5.6 1.5-.1 6.2 2.6 9.1 7 3.2 5 7.5 17.4 7.5 17.4s-5-14.5-8-19.3-6.8-6.2-6.4-7.9c0-4 4.4-3.8 6.6-2.5 3 1.8 11.2 15.6 13.6 18.2 5 5.2 5 9.2 5.3 11.1 1.6 11.3-3.2 11.9-3.4 20.5 0 2.6 1.5 6.2 1.8 7.7s-10.6 1.4-12.8 1.3-15.2-.8-15-3.2z" transform="translate(86.2 -92)"/>
      <path class="cls-2" d="M2377.3 677.7c-2.1.7-12.5 24.3-25.3 30.8-6.4 3.3-23-12-26.6-10.5-12.6 5.5-20.2 9.2-29.1 12.3-17.2 6-26.3 22.4-38.1 44-9.2 16.6-15.7 16-14.2 8.4 3.2-16.6.6-20.5-2.5-26.8-2-3.8-10-5.6-4.4-.8 3.8 3.2-7.4 4-15.4 3.7-10.8-.3-21-3.2-16-7.1 3.2-2.5-2.2-3.6-5 .6-2.2 3.2-1 14.5.4 37.3 1.1 17.7-9.2 25.2-6.1 35.6 1.7 5.7 4.4 7 8.1 11.3s3.6 6.2 9.4 7.3c17.8 3.4 26.9-7.2 45.4-12.7 6.2-1.8 37.1-8.4 37.6-4.4 2.2 18.5-10.2 54.4-13.3 71.6-2.9 15.8-24.5 76.7-32.6 112.6-6.6 29.7 3.3 40 3 27 0-9 19.3-6.7 62.3-4 20.3 1.3 66.2 2 60 8.3-5.3 5.3 11 5.7 14.1-7.2 4-17 8.2-47.6 7.6-52.3-4.4-34.2 10-61.4 3.9-95.3-2.8-15.3-13.1-43.5-14.2-59-.5-7-5.2-34.5 1.8-34.5 12.5 0 2.8 58.1 2.8 58.1l11 38s21-25.7 25.6-38.9c3.1-9 5.6-49.7 5.6-49.7s-4.5-84.8-34.7-104c-8.5-5.4-11.4-3-21 .3z" transform="translate(86.2 -92)"/>
      <path d="M2377.3 677.7c-2.1.7-12.5 24.3-25.3 30.8-6.4 3.3-23-12-26.6-10.5-12.6 5.5-20.2 9.2-29.1 12.3-17.2 6-26.3 22.4-38.1 44-9.2 16.6-15.7 16-14.2 8.4 3.2-16.6.6-20.5-2.5-26.8-2-3.8-10-5.6-4.4-.8 3.8 3.2-7.4 4-15.4 3.7-10.8-.3-21-3.2-16-7.1 3.2-2.5-2.2-3.6-5 .6-2.2 3.2-1 14.5.4 37.3 1.1 17.7-9.2 25.2-6.1 35.6 1.7 5.7 4.4 7 8.1 11.3s3.6 6.2 9.4 7.3c17.8 3.4 26.9-7.2 45.4-12.7 6.2-1.8 37.1-8.4 37.6-4.4 2.2 18.5-10.2 54.4-13.3 71.6-2.9 15.8-24.5 76.7-32.6 112.6-6.6 29.7 3.3 40 3 27 0-9 19.3-6.7 62.3-4 20.3 1.3 66.2 2 60 8.3-5.3 5.3 11 5.7 14.1-7.2 4-17 8.2-47.6 7.6-52.3-4.4-34.2 10-61.4 3.9-95.3-2.8-15.3-13.1-43.5-14.2-59-.5-7-5.2-34.5 1.8-34.5 12.5 0 2.8 58.1 2.8 58.1l11 38s21-25.7 25.6-38.9c3.1-9 5.6-49.7 5.6-49.7s-4.5-84.8-34.7-104c-8.5-5.4-11.4-3-21 .3z" transform="translate(86.2 -92)" fill="url(#drkCross)" stroke-width="2" stroke-miterlimit="10" stroke="#000"/>
      <path class="cls-41" d="M2346.3 629.1c-2.2-6.2.8-11.2 6.7-6.5 4 3.2 4.3 4.4 5.6 7.7 1.8 4.8 1.4 11-2 12.2-1.8.7-4-.5-5.3-1.4" transform="translate(86.2 -92)"/>
      <path class="cls-42" d="M2352.4 638a5.2 5.2 0 0 0-.5-4.7 8 8 0 0 0-2.5-2.5" transform="translate(86.2 -92)"/>
      <path class="cls-39" d="M2206 702.7c1 .1 6.5 1.3 8.9 6.2.3.5 2.4 4.8.2 7.8-1 1.4-3 2.5-4.3 2s-.6-3-2.1-5.5a8.6 8.6 0 0 0-4-3.2" transform="translate(86.2 -92)"/>
      <rect class="cls-2" x="2159.6" y="689.8" width="97.9" height="11.6" rx="2.6" transform="rotate(-14.8 1896.2 316.7)"/>
      <path d="M2225 727.3c-1 0-10-4.2-13.4-17.5-.2-.6-4.8-8.1-3.3-11.4.7-1.6 3.5-3 4.8-2.6 1.5.4 3 10.2 5 12.3 1.4 1.5 6 1.4 7.5 1.7" transform="translate(86.2 -92)" stroke-miterlimit="10" stroke="#000" fill="#fff"/>
      <path class="cls-39" d="M2225 727.3c-1 0-10-4.2-13.4-17.5-.2-.6-4.8-8.1-3.3-11.4.7-1.6 3.5-3 4.8-2.6 1.5.4 3 10.2 5 12.3 1.4 1.5 6 1.4 7.5 1.7" transform="translate(86.2 -92)"/>
      <path class="cls-43" d="M2294.7 821.3s-4.5-.4-4 6.1c.5 8.8 42.2 13.4 53.7 12.5 5.7-.5 42.7-3.4 47-16.4 1.6-4.8-3.7-4.1-3.7-4.1" transform="translate(86.2 -92)"/>
      <path class="cls-43" d="M2294.7 814.3s-4.5-.4-4 6.1c.5 8.8 42.2 13.4 53.7 12.5 5.7-.5 42.7-3.4 47-16.4 1.6-4.8-3.7-4.1-3.7-4.1" transform="translate(86.2 -92)"/>
      <path class="cls-41" d="M2367.6 919l27.4-94.7m21.4 97.2l15.6-86.6"/>
      <path stroke-width="4" fill="url(#drkCross)" stroke-miterlimit="10" stroke="#000" d="M2379.9 713.1l7.9-58.1m86.9 27.7l-7-51"/>
      <path class="cls-41" d="M2275.5 611.6c-3.6 10.7-2.8 9.8 5.2 17.1 9.3 8.6 25.2 11.6 36.3 4.2" transform="translate(86.2 -92)"/>
      <path id="smoke-small" class="cls-42" d="M2220 600c-9-5-20.7-13.3-22.7-25.7-2-12.1 6.9-18.9 8.3-33 .9-9.3-1.3-23.4-17.5-42m50.9 94.7c-9-5-20.7-13.3-22.7-25.7-2-12.1 6.9-18.9 8.3-33 .9-9.3-1.3-23.4-17.5-42"/>
    </g>
  </g>
  <g id="prodigal">
    <g id="bundle">
      <path class="cls-2" d="M 726.9 617.1 C 665.1 574.1 602.6 522.1 540.7 479.1 C 531.3 472.5 466.2 436.2 437.4 419.3 C 430.017 414.95 426.781 405.957 429.7 397.9 L 433.4 387.4 C 435.592 381.007 443.364 378.585 448.8 382.6 C 469.7 398 514.9 431.2 536.3 446.2 C 605.296 493.202 674.698 539.604 744.5 585.4 Z"/>
      <path class="cls-51" d="M 429.9 405.6 C 438.5 401 459.6 420.6 461 426.4 C 462 430.7 478.6 434.8 482.1 437.2 C 486.5 440.2 513.5 454.4 515.9 457.6 C 517 459.2 536.8 474.5 536.3 476.1 M 433.4 387.4 C 452.7 380.9 453.9 407.4 482.4 417.7 C 506.2 426.3 555.2 466.9 559.2 472.4 C 577.7 498 605 503.4 646.3 528.7 C 657.7 535.7 684.9 559.9 708.3 572.4"/>
      <path class="cls-2" d="M 479.9 434.6 C 471.2 471 403.8 459.4 379.2 498.8 C 359.2 530.6 370.2 591 415.5 619.3 C 467.7 651.9 541.1 627.1 554.7 593.4 C 569.2 557.2 538.9 505.5 501.2 459.9 C 497.8 455.7 510.7 434.3 514.4 425.1 C 520.6 409.6 531.9 395.4 532.4 386.3 C 533 375.8 512.1 422.3 497.9 418.3 C 482.6 414 487.2 368.1 482 372.2 C 470.5 381.2 486 409.4 480 434.6 Z"/>
      <path class="cls-2" d="M 472 442 C 472.8 439.4 481.4 448.3 500.4 441 C 520.6 433.2 509.4 425.2 513.2 426.8 C 517.7 428.8 523 440.6 504.4 451.4 C 482 464.4 470.8 445.4 472 441.9 Z"/>
      <path d="M 472 442 C 472.8 439.4 481.4 448.3 500.4 441 C 520.6 433.2 509.4 425.2 513.2 426.8 C 517.7 428.8 523 440.6 504.4 451.4 C 482 464.4 470.8 445.4 472 441.9 Z" fill="url(#dots)" stroke-width="2" stroke-miterlimit="10" stroke="#000"/>
      <path d="M 416.1 585 C 428.6 581 444.9 616.4 467.1 611 C 496.1 604 527.2 588.6 532.2 572.7 C 537.7 555.3 523.6 491.9 523.6 491.9 C 523.6 491.9 538.6 514.4 544 524.9 C 554.892 544.851 558.7 567.906 554.8 590.3 C 551.6 605.9 532.2 621.4 502.4 630 C 464.6 640.8 428.6 626.2 415.4 619.3 C 395.6 609.1 373.4 577.4 370 545 C 369.412 529.113 372.492 513.304 379 498.8 C 386.7 485.8 411.4 473.8 410.1 475.7 C 409.8 476.2 393.2 493.7 398.3 497.2 C 400.5 498.8 389.6 508.2 390.5 523.7 C 390.9 530.2 393.5 563.7 408.3 566.2 C 421.7 568.4 407.4 587.8 416.1 585 Z" fill="url(#dots)" opacity=".5"/>
      <path class="cls-2" d="M 491.8 457.4 C 489.8 455.6 501.3 451 501.6 430.6 C 502 409 490.3 416.4 493.3 413.4 C 496.8 410 509.7 409.6 512.8 430.8 C 516.5 456.5 494.6 459.8 491.8 457.4 Z"/>
    </g>
    <g id="left-leg">
      <path d="M 471.632 1777.638 C 472.032 1755.438 544.832 1738.738 586.032 1733.638 C 650.932 1725.738 737.632 1734.438 743.032 1758.438 C 747.732 1780.138 685.532 1814.138 625.332 1821.438 C 551.932 1830.438 471.332 1801.038 471.632 1777.638 Z" fill="url(#line)" transform="matrix(0.999975, 0.007005, -0.007005, 0.999975, 12.463102, -4.211859)"/>
      <path class="cls-2" d="M 671.8 1448.7 C 690.7 1398.7 610.6 1362.9 598.2 1388.1 C 590.6 1403.6 569.4 1431.7 564.2 1448.1 C 558.3 1466.1 557.4 1504.5 555.9 1523.4 C 552.9 1560.4 552.7 1625.6 550 1649.2 C 548 1666.9 534.1 1688.6 534.1 1688.6 L 611.8 1699.2 C 608.275 1680.894 608.65 1662.051 612.9 1643.9 C 624.7 1596.2 655.3 1530.9 662.9 1478.7 C 664.9 1465.4 667.8 1459.2 671.8 1448.7 Z"/>
      <path d="M 648.115 1485.475 L 645.915 1494.175 C 645.915 1494.175 624.715 1491.175 621.515 1491.175 C 617.115 1491.175 595.815 1497.175 591.515 1497.775 C 584.015 1498.775 580.215 1499.775 572.815 1499.375 C 567.515 1499.075 558.815 1500.075 553.815 1498.475 C 551.115 1497.575 549.415 1498.075 547.315 1497.175 C 545.615 1496.575 547.015 1490.075 547.015 1490.075 C 547.015 1490.075 564.215 1491.575 579.815 1491.675 C 585.015 1491.675 610.615 1486.875 628.215 1485.075 C 640.115 1483.675 648.115 1485.475 648.115 1485.475 Z" fill="url(#dots)" opacity=".5"/>
      <path d="M 615.8 1626.2 C 615.8 1626.2 602.5 1629.9 603.1 1625.5 C 603.3 1623.8 602.6 1608.7 606.7 1594.3 C 610.1 1581.8 619.1 1568.7 619.6 1567.3 C 621 1563.1 618.6 1554 619.4 1549.7 C 620.7 1542.4 630.6 1530.3 633.2 1523.4 C 635.2 1518.4 633.4 1506.8 636.4 1502.5 C 638.1 1500.2 645.2 1483.1 643.9 1485 C 643.6 1485.5 660.9 1485.5 660.9 1485.5 C 660.9 1485.5 648.2 1533.7 643.4 1548.5 C 638 1564.9 615.8 1626.2 615.8 1626.2 Z" fill="url(#dots)" opacity=".5"/>
      <path d="M 560.3 1491.4 C 560.3 1491.4 578 1489.4 578.6 1493.8 C 579 1496.9 572 1529.4 571.9 1532.6 C 571.6 1537 576.4 1545.1 576.7 1549.5 C 577.3 1556.9 571 1571.1 570.3 1578.5 C 569.7 1583.8 574.5 1594.5 572.7 1599.5 C 571.7 1602.2 565.5 1621.6 564.7 1623.7 C 563.9 1625.4 553.7 1623.7 553.7 1623.7 C 553.7 1623.7 553.1 1572.5 553.9 1557 C 554.7 1539.7 560.3 1491.4 560.3 1491.4 Z" fill="url(#dots)" opacity=".5"/>
      <use width="152.9" height="144.4" transform="matrix(1.1800000667572021, 0, 0, 1.1800000667572021, 519.2999877929688, 1610.5999755859375)" xlink:href="#Boot"/>
    </g>
    <g id="right-leg">
      <path d="M 1143.2 1779.7 C 1184.3 1743.1 1223.7 1726.3 1264.8 1732.1 C 1323.3 1740.3 1259.1 1765.1 1243.8 1784.2 C 1225.5 1807.1 1195.7 1830.6 1135 1831.8 C 1088.3 1832.7 1125.7 1795.2 1143.2 1779.7 Z" fill="url(#line)"/>
      <path class="cls-2" d="M 1018.41 1418.329 C 1015.21 1408.329 850.71 1338.629 877.21 1392.529 C 884.21 1406.629 951.81 1474.729 959.01 1514.229 C 971.41 1582.229 1007.41 1601.129 1024.21 1642.629 C 1042.11 1687.029 1034.21 1710.629 1034.21 1710.629 L 1109.61 1661.229 C 1109.61 1661.229 1092.81 1648.529 1087.21 1618.929 C 1079.894 1582.096 1068.455 1546.203 1053.11 1511.929 C 1036.61 1482.529 1034.51 1485.929 1033.11 1464.929 C 1031.41 1438.929 1022.51 1431.229 1018.41 1418.329 Z"/>
      <path d="M 933.885 1459.27 C 933.885 1459.27 962.9 1455.6 963.5 1459.9 C 963.9 1463.1 978.6 1509.5 978.5 1512.6 C 978.3 1517 983 1525.2 983.3 1529.6 C 984 1537 986.1 1548.9 985.3 1556.3 C 984.8 1561.6 1002.9 1567.9 1001.1 1572.9 C 1000.1 1575.6 1038.3 1624.5 1037.4 1626.5 C 1036.6 1628.3 1022 1631.4 1022 1631.4 C 1022 1631.4 970.9 1566.2 971.6 1550.7 C 972.4 1533.3 933.885 1459.27 933.885 1459.27 Z M 1082.9 1603.6 C 1082.9 1603.6 1070.7 1613.2 1071.3 1608.8 C 1071.5 1607.1 1059.2 1585.4 1063.2 1571 C 1066.7 1558.5 1046.3 1538.2 1048 1532.3 C 1049.1 1528 1034.3 1521.5 1034.3 1507 C 1034.3 1499.6 1026.3 1493.5 1026.4 1486 C 1026.6 1474.7 1013.2 1469.9 1016.2 1465.6 C 1017.9 1463.2 1013.592 1435.52 1012.292 1437.42 C 1011.992 1437.92 1026.242 1435.582 1026.242 1435.582 C 1027.713 1444.286 1032.24 1466.385 1032.7 1475.2 C 1033.1 1481.7 1047.5 1496.5 1058.1 1521.8 C 1068.48 1548.381 1076.772 1575.73 1082.9 1603.6 Z" fill="url(#dots)" opacity=".5"/>
      <path d="M 1029.505 1435.357 C 1034.105 1440.157 1030.4 1458.1 1030.4 1458.1 C 1030.4 1458.1 1012 1454 1008.9 1454 C 1004.5 1453.9 997.7 1461.8 993.3 1462.4 C 985.9 1463.3 983 1462.1 975.5 1461.7 C 970.3 1461.3 966.8 1472 961.7 1470.4 C 959 1469.6 949.3 1480 947.2 1479.2 C 944.162 1475.95 941.511 1472.36 939.3 1468.5 C 947.299 1464.4 953.226 1454.034 961.615 1450.806 C 970.915 1447.306 980.26 1435.128 997.86 1434.328 C 1009.26 1433.828 1024.1 1445 1029.1 1450.2 L 1029.505 1435.357 Z" fill="url(#dots)" opacity=".5"/>
      <use width="152.9" height="144.4" transform="matrix(1.1452820301055908, -0.5936580896377563, 0.5936580896377563, 1.1452820301055908, 981.8563842773438, 1636.5367431640625)" xlink:href="#Boot"/>
    </g>
    <g id="head">
      <path class="cls-2" d="M 808.8 511.7 C 808.5 504 806.1 488.8 805.3 481.1 C 803.3 462.6 793 424.9 798.3 407.1 C 804 387.3 829 347.8 848.8 342.3 C 869.3 336.7 913.4 351.8 931.1 363.5 C 939.3 368.9 949.1 387.2 952.3 396.5 C 954.5 402.9 953.3 416.9 954.7 423.5 C 955.6 427.8 958 435.9 958 440.3 C 958 444.3 953.4 449.6 953.6 453.7 C 953.9 459.9 966.3 465.2 968.5 471.5 C 969.1 473.3 968.3 485.1 966.1 486.3 C 962.4 488.5 955.9 486 954.6 489 C 953 492.5 955.5 494.5 953.2 499.8 C 950.232 507.376 948.281 515.311 947.4 523.4 C 947 527.2 947.3 539.3 944.8 542.2 C 937.7 550.6 911.9 543.1 902.9 549.4 C 898.5 552.4 891.2 564.4 891.2 564.4 C 891.2 564.4 867.4 571.8 851.2 587.2 C 825.8 611.6 767.8 578.2 778.6 571.5 C 787.7 565.9 809.3 522.6 808.8 511.7 Z"/>
      <path d="M 898.938 488.339 C 892.938 489.339 887.438 477.539 885.738 471.139 C 885.038 468.439 884.138 438.139 890.738 436.939 C 892.638 436.539 886.038 447.539 888.838 463.339 C 890.338 471.739 891.938 473.139 897.438 481.739 C 900.438 486.439 906.838 482.139 906.838 482.139 C 906.838 482.139 906.338 487.339 898.938 488.339 Z" fill="url(#dots)" opacity=".5" transform="matrix(0.99998, -0.006345, 0.006345, 0.99998, -2.917563, 5.694732)"/>
      <path id="Hair" d="M 796.5 433.4 C 796.5 433.4 866 386.1 891.3 384.7 C 908 383.8 938.9 383.9 947.2 399.2 C 949.1 402.7 949.8 405.5 949.2 411.2 C 948.6 416.9 945.3 421.6 940.6 424.9 C 936.1 427.9 932.8 444.3 931.5 451.5 C 931.129 453.498 929.515 455.031 927.5 455.3 L 924.5 455.7 C 922.484 455.964 920.591 454.673 920.1 452.7 C 919 448.7 917.1 442.2 915.4 438.9 C 912.8 434 910.4 428.2 904.4 427.7 C 893.9 426.7 888.3 436.4 886.4 441.9 C 884.6 447.2 886.4 460.1 880.1 469.3 C 867.6 487.7 875.2 491.3 864.9 500.5 C 861.9 503.2 852.2 503.8 847.9 500.8 C 839.9 495.3 832.7 504.8 826.2 509.8 C 823.6 511.8 809 510.8 809 510.8 C 809 510.8 810 508.6 801.5 472.8 C 797.3 455.5 796.5 433.4 796.5 433.4 Z" stroke-width=".8" fill="url(#wave)" stroke-miterlimit="10" stroke="#000"/>
      <path class="cls-2" d="M 791.2 386.1 C 775.7 391.2 737.9 416 740.8 431.5 C 744.4 450.9 778.3 451.1 812.5 446.2 C 844.5 441.5 922 417 950.8 404.4 C 979.9 391.7 1003.1 375.5 1001.8 357.4 C 1000.4 336.4 965.1 335.6 939.5 342.6 C 889.823 356.256 840.382 370.758 791.2 386.1 Z"/>
      <path d="M 777.4 356.8 C 782.9 375.8 789.7 406 791.9 415.8 C 792.357 417.939 794.127 419.548 796.3 419.8 C 800.2 420.3 807.9 420.8 823.3 420.8 C 839 420.8 864.3 415.8 888.4 407.3 C 907.782 400.815 926.341 392.089 943.7 381.3 C 947.7 378.3 949.5 375.7 950.3 373.7 C 950.894 372.274 950.999 370.692 950.6 369.2 C 948.7 362.7 941.3 335.8 936.9 319 C 931.6 299 930.5 263.9 926.9 249.3 C 921.6 228.3 860.5 242.5 843.1 245.6 C 817.9 250 765.1 271.3 758.1 295.2 C 755.4 304.7 771.5 336.2 777.4 356.8 Z" stroke-width="2" stroke-miterlimit="10" stroke="#000"/>
      <use width="160.3" height="66.3" transform="matrix(1.6200000047683716, 0, 0, 1.6200000047683716, 742.5, 341.20001220703125)" xlink:href="#Hat_Ring"/>
      <use width="160.3" height="66.3" transform="matrix(1.4800000190734863, 0, 0, 1.4800000190734863, 752, 346.20001220703125)" xlink:href="#Hat_Ring"/>
      <use width="160.3" height="66.3" transform="matrix(1.2799999713897705, 0, 0, 1.2799999713897705, 767, 352.20001220703125)" xlink:href="#Hat_Ring"/>
      <path class="cls-2" d="M 759.6 297.2 C 764.5 313.9 796.5 310.4 853.1 293.5 C 901.2 279.2 931.3 261.5 924.7 245.4 C 919.4 232.4 867.1 237.7 826.6 251.1 C 797.6 260.7 755.1 281.3 759.6 297.1 Z"/>
      <use width="160.3" height="66.3" transform="matrix(1, 0, 0, 1, 761.7999877929688, 239.60000610351562)" xlink:href="#Hat_Ring"/>
      <path d="M 895.5 454.5 C 895.766 451.472 895.766 448.428 895.5 445.4 C 895.2 442.6 897.5 436.7 904.2 435.4 C 906.1 435.1 906.9 444.7 906.9 444.7 C 906.9 444.7 903.5 439.3 901.1 440.5 C 899.6 441.3 899.6 446.5 898.3 450.1 C 897 453.7 895.5 454.5 895.5 454.5 Z M 905.3 467.2 C 902.5 468.2 896 464.3 898.6 458.6 C 899.4 456.9 903.1 456.3 903.1 456.3 C 903.1 456.3 899.9 458.8 901.3 461.1 C 902.5 463.1 905.8 464.8 905.8 464.8 C 905.8 464.8 906.6 466.8 905.3 467.2 Z" fill="url(#dots)" opacity=".5"/>
      <use width="143.8" height="65.7" transform="matrix(0.9900000095367432, -0.10000000149011612, 0.07000001519918442, 0.6700000166893005, 796.0999755859375, 379.8999938964844)" xlink:href="#Hat_Hightlight"/>
      <path d="M 949.7 440 C 952.4 436 955.9 434.6 960.7 435.7" stroke-width="4" stroke-linecap="round" stroke-miterlimit="10" stroke="#000" fill="none"/>
      <path class="cls-72" d="M 952.2 446.3 C 954.959 444.417 958.265 443.503 961.6 443.7"/>
      <path d="M 956.4 447 C 956.4 447 957.1 452 957.1 453.5 C 957.022 455.009 956.855 456.511 956.6 458 C 956.6 458 953.6 455.3 953.6 453.2 C 953.6 451.1 956.4 447 956.4 447 Z"/>
      <path class="cls-72" d="M 906.2 453.3 C 906.2 453.3 912.8 448.5 913.5 446 C 914.5 441.5 909 431 904.5 429.8 C 901.1 428.8 893.9 433.6 892.5 436.8 C 889.3 443.8 888.8 459.8 890.9 467.2 C 892.3 472.2 896.4 476.3 897.7 479.4 C 898.7 481.7 902.7 483.9 905 482.7 C 907.4 481.4 909 476 908.2 473.4 C 907.4 470.8 898.9 469.9 897.5 467.6 C 895.5 464.3 894.5 446.2 895.5 442.4 C 896.397 438.263 899.801 435.139 904 434.6 C 907.2 434.3 907.6 444.1 907.6 444.1"/>
      <path class="cls-72" d="M 903.1 457 C 903.1 457 901.3 459.5 902.1 461.6 C 902.5 462.8 905.5 464 905.5 464"/>
      <path d="M 837 567.6 C 849.5 563.6 870.3 559 874.3 557.2 C 901.6 545 884 541.9 902.6 529.7 C 904.9 528.2 922 538.2 933 527.1 C 938.8 521.1 936.3 510.5 940 502.5 C 940.5 501.3 944.4 492.5 947.2 485.3 C 949.8 478.6 957.7 483.3 962.1 480.8 C 966.6 478.1 968.1 472.4 968.1 472.4 C 968.1 472.4 967.8 483 965.6 486.2 C 964.4 488 957.6 486.8 955.5 488.3 C 952.3 490.6 954.3 491.2 953.3 497.8 C 952.3 504.8 947.7 513.4 946.6 518.8 C 944.6 529.6 947.6 536.8 944.2 542.6 C 942.2 546.2 917.2 545.2 905.5 547.1 C 900.3 547.9 891.6 562.9 891.6 562.9 C 891.6 562.9 858.2 580.5 852.2 580.6 C 833.9 580.9 826 577.6 813.6 578 C 791.3 578.5 783.3 566.4 783.3 566.4 L 803.3 533.2 C 810.9 520.2 810.1 509 808.8 510.9 C 808.5 511.4 825.8 511.4 825.8 511.4 C 825.8 511.4 810.5 523.4 811.3 538.8 C 811.7 545.3 792.7 560.7 807.5 563.2 C 820.9 565.5 828.4 570.4 837.1 567.6 Z" fill="url(#dots)" opacity=".5"/>
      <use width="143.8" height="65.7" transform="matrix(1, 0, 0, 1, 775.9000244140625, 269.29998779296875)" xlink:href="#Hat_Hightlight"/>
      <use width="143.8" height="65.7" transform="matrix(1, 0, 0, 1, 780, 286.79998779296875)" xlink:href="#Hat_Hightlight"/>
      <use width="143.8" height="65.7" transform="matrix(1, 0, 0, 1, 784.7999877929688, 305)" xlink:href="#Hat_Hightlight"/>
      <use width="143.8" height="65.7" transform="matrix(1, 0, 0, 1, 788.7000122070312, 322.6000061035156)" xlink:href="#Hat_Hightlight"/>
      <use width="143.8" height="65.7" transform="matrix(1, 0, 0, 1, 796.5, 343.1000061035156)" xlink:href="#Hat_Hightlight"/>
      <use width="160.3" height="66.3" transform="matrix(0.9000000953674316, 0, 0, 0.9000000953674316, 769, 242.3000030517578)" xlink:href="#Hat_Ring"/>
      <use width="160.3" height="66.3" transform="matrix(0.7899999022483826, 0, 0, 0.7899999022483826, 778.7999877929688, 245)" xlink:href="#Hat_Ring"/>
      <use width="160.3" height="66.3" transform="matrix(0.6299999952316284, 0, 0, 0.6299999952316284, 792.7000122070312, 249)" xlink:href="#Hat_Ring"/>
    </g>
    <path id="Right_Hand" class="cls-42" d="M 1134.9 754.3 C 1149.4 746.5 1163.3 744.7 1184.6 729.4 C 1194 722.7 1189.9 712.9 1207.1 687.4 C 1210.8 681.9 1198.3 674.8 1199.1 668 C 1199.5 663.2 1206.2 660.1 1210.1 661.4 C 1221.1 665.1 1228 676.4 1228.5 684.9 C 1228.9 690.7 1219 702.3 1225.5 708.3 C 1231.7 714 1239.6 707.3 1249.5 688.2 C 1250.1 687 1245.5 686 1244.7 686.4 C 1242.9 687.7 1242 697.6 1238.9 699 C 1234.1 701.3 1227 699.7 1226.4 695.3 C 1225.8 690.5 1236.4 672.8 1241.2 671.5 C 1245.7 670.2 1257.2 671.5 1261.3 672.1 C 1265.8 672.7 1269.5 677.2 1268.9 680.8 C 1268.4 683.9 1269.9 691.5 1261.2 704.6 C 1255.748 711.863 1249.657 718.623 1243 724.8 C 1250.769 718.737 1257.376 711.318 1262.5 702.9 C 1266.2 696.6 1269 694.6 1269.5 685.4 C 1269.8 678.9 1276.4 685.4 1278.4 689.4 C 1280.6 693.7 1279.3 697.2 1278.2 701.3 C 1276.788 706.19 1274.407 710.747 1271.2 714.7 C 1267.2 720.2 1252.2 734.1 1252.2 734.1 C 1252.2 734.1 1266.5 722.1 1271.2 714.6 C 1275.2 707.8 1277.2 705.9 1278.6 699.4 C 1279.1 697.2 1282.6 701.6 1284.1 704.4 C 1287.5 710.9 1281 719 1276.5 725.4 C 1272.5 731.1 1260.2 743.7 1260.2 743.7 C 1260.2 743.7 1274.6 730.8 1283.6 714.7 C 1285.4 711.4 1287.6 718.1 1287.6 720.1 C 1287.8 721.9 1287.8 726.3 1285.9 729.6 C 1283.302 734.701 1280.003 739.413 1276.1 743.6 C 1264.7 755.4 1273.1 751.6 1248.7 767.3 C 1238.8 773.6 1220.3 772.1 1211.4 776.3 C 1191 785.8 1167.7 809 1167.7 809 Z" style="fill: rgb(255, 255, 255);"/>
    <path class="cls-2" d="M 776.2 670 C 763.6 676.4 749.1 672.4 739.9 672 C 714.8 671 700.4 666.3 697.6 658.6 C 694.9 651.5 703.3 648.4 703.3 648.4 C 703.3 648.4 704.4 645.5 701.7 646.6 C 685.915 651.408 669.808 655.084 653.5 657.6 C 648.3 658.4 639.7 659.7 635.2 662.6 C 626 668.2 608.5 675.8 598.6 676.1 C 570.8 677.1 540.4 702.5 535.4 732.4 C 528.2 776.3 453.3 868.5 443.6 916.5 C 438.2 943.2 454.2 962.3 464.4 964.6 C 499.1 972.6 529.1 985.3 568 990.7 C 577.2 992 590.2 993.4 590.2 993.4 C 590.2 993.4 591 958.1 589.2 946.7 C 587.5 937.3 583.9 904.7 583.9 904.7 L 560.8 900.5 C 565.72 895.524 815.623 896.921 838.206 872.066 C 849.3 859.856 877.497 726.673 843.043 672.793 C 817.864 633.418 776.2 670 776.2 670 Z" transform="translate(86.2 -92)"/>
    <path class="cls-2" d="M570.4 803.7c.3 30.8 6.6 41.8 9.9 64.7 1.3 9.2 2.4 22.6 3.6 36.3 1.4 15.6 3.6 31.6 5.2 42s1.5 29.8 1.1 46.5c-.2 8.6-.3 16.4 0 21.6 1.2 15-.8 49-4.6 63.6-3.4 13-13 45.8-16 66.4-1.8 13.4 0 40.7 1.3 54.1s-1.7 42.3-3 56c-4.6 47.8-37.3 109.3-63.5 184.6-54.1 155.3-34.1 148.2-34.1 148.2s-8.4-8.4 14.1-5.9c51.8 6 75.3-18.8 115.3 2.4 22 11.6 84.6-20.8 120-10.6 61.1 17.6 109.2-4.6 162.3-27 30.6-13 35.3-13 57.6-8.3 6.8 1.4 8.3 11.8 8.3 11.8s4.4-1.7 4.7-6c1-15.8-29.2-79-47-171.7-30.6-158.8-50.6-182.3-85.3-279.3-10.3-28.8.7-91.9 3.5-122.4 4.2-45.9 7.5-49.1 13.9-94.8" transform="translate(86.2 -92)"/>
    <path id="Right_arm" class="cls-2" d="M852.4 696.5c40.7 36.5 92.7 114.7 120.7 151.8 18.9 24.9 4.3 17.5 29.6 7.8 8-3 15.5-6.6 28.2-12.8 14.6-7 33.5-21.9 43.1-23.7 6-1.2 10.3 8.3 10.3 8.3s-4.9-2-8.5-1.8c-12.3.7-1.8 32.6 5 48.2 2.3 5.4 5.5 17.8 9.6 24 2.2 3.4 4.6 3.7 7.3 3 4.3-1 7.3-7.5 7.7-12.4a14.4 14.4 0 0 0-1.5-7s2.8-2.3 5.2 1.3c1.7 2.4 5 18.5.9 20.4-6.6 3-11.1 20.5-14.1 24.5-4.5 6-3.3-9.5-10.7-2.2-7.2 7-6.8-4.3-18.5 1.6-21.2 10.6-42.3 19-57.6 28-12.2 7-33.5 23-54 16.8-22.6-6.6-17.2-4.2-31-17-11.7-10.5-20.4-17-46.5-41.3-16.2-15.1-37.6-34.7-58.6-55" transform="translate(86.2 -92)"/>
    <path class="cls-48" d="M716.1 909c-2.3 82.3-75.3 136.4-75.3 136.4s48.4-130 49.5-156.4c2.6-67 41.1-167 41.1-167s-13.7 132.9-15.3 187z" transform="translate(86.2 -92)"/>
    <path class="cls-49" d="M760.9 1120s37.5-3.6 59.9-31c3-3.8-3.6-5.9-2.4-8.2s8.3 4.7 8.3 10.6c0 8.2-4.7 14.4-8.3 17.6-20 17.8-59.2 27.1-59.2 27.1z" transform="translate(86.2 -92)"/>
    <path class="cls-49" d="M760.9 1112.8s41.4-8.2 58.8-29.7c3-3.8-3.6-6-2.4-8.3s8.2 4.7 8.2 10.6c0 8.3-4.6 14.4-8.2 17.7-18 16-62.7 24.8-62.7 24.8z" transform="translate(86.2 -92)"/>
    <path class="cls-48" d="M763.6 1106.4c-29.2 168.4 18.4 270.8 18.4 270.8s-1.8 2.7-7-1.2c-9.6-7.1-17.7-3.5-27.1-1.2-18.8 4.7-21.8 13.9-42.4 7-17.6-5.8-39.6 2-50.5 6-20 7-29.4-14.2-49.4-3.6-7.3 3.9-6-3.5-6-3.5s4.5-105.8 22.4-182.3c1.6-6.9 54.1 17.6 83.5-2.4 40-27.2 60.4-102.6 58.1-89.6z" transform="translate(86.2 -92)"/>
    <path class="cls-48" d="M 826.144 657.923 C 786.388 646.712 745.5 687.9 731.5 718.4 C 717.1 749.4 722 857.2 717.3 893.7 C 709.5 954.4 691.1 1002.7 655 1037.2 C 607.9 1082.2 585.1 1059.5 588 1051.3 C 588.5 1049.7 583.2 1052.7 582 1057.2 C 580.2 1064.4 581.3 1066.2 579.7 1073.7 C 577.3 1084.2 572.7 1079.5 572.7 1090.1 C 572.7 1107.9 566.7 1111.3 564.4 1118.4 C 557.4 1140.7 568.9 1142.6 569.1 1143.1 C 570.3 1145.5 563.2 1126.6 572.6 1136.1 C 591.6 1155.1 611 1193.7 628.5 1197.8 C 661.5 1205.4 708.8 1210.4 727.9 1173.7 C 737.9 1154.3 783.5 1094.2 792.6 990.2 C 799.6 909 781.5 746.5 789.1 731.4 C 794.9 719.6 812.6 696.6 826.7 690.2 C 842.9 682.8 851.4 694.9 851.4 694.9 C 851.4 694.9 854.9 699.6 851.4 689 C 842.9 663.6 826.144 657.923 826.144 657.923 Z" transform="translate(86.2 -92)"/>
    <path d="M 1210.167 761.947 C 1247.667 767.347 1247.867 745.947 1273.667 717.747 C 1290.267 699.747 1281.967 736.347 1286.067 721.847 C 1289.567 709.347 1289.067 733.547 1273.467 746.047 C 1247.667 766.947 1255.467 761.847 1242.167 767.847 C 1222.767 776.447 1211.167 773.447 1204.667 777.147 C 1183.167 789.547 1168.667 806.647 1171.767 802.347 C 1173.367 799.947 1168.367 784.947 1168.367 784.947 C 1168.367 784.947 1198.367 760.147 1210.167 761.947 Z" fill="url(#dots)" opacity=".5"/>
    <path d="M623.8 1196.6s53 11.8 80 1.2c23.2-9.1 57.6-83.5 57.6-83.5s-26.2 95-53.5 107.6c-19.6 9-84.1-25.3-84.1-25.3z" transform="translate(86.2 -92)" fill="url(#drkCross)"/>
    <path d="M585.4 1155.3a170.4 170.4 0 0 1 11.6 57 844 844 0 0 1-21 156.5c-9 34-46.8 132.3-46.8 132.3l-40.3 66.2-21.4 15s-1-9 2.3-25.8a630 630 0 0 1 17.3-62 1366 1366 0 0 1 40-113.4c14.4-33.6 38.4-93 42.3-129 3-27.8 1.3-61.4.5-82.8-.3-6.5 0-13.5 0-20.1 0-2.6 2.3-11.4 2.3-11.4s11 12.7 13.2 17.5zM599 875c-2 35 11.1 62.3 15 91.6 3.2 24.4-1.4 95.8-1.4 95.8s-14.7.5-17.5-.8c-1.4-.7-4.5-6.3-4.5-6.3s-.6-78-1.5-95.1c-.7-13.3-9.7-102.4-16-130.7-3.9-17.4-1.8-25.2-1.8-25.2s28.4 56.8 27.6 70.6zm224.3 229.8s14 35.4 28.1 70.4c14 34.5 23 69.6 27.1 82 11.6 34.5 13.7 59.7 22.1 95.3 7.6 32 14.4 73 32.9 126.5 9 26.4 15 47.4 18 61.5 1.4 6.1-3.3 8-3.3 8s-.6-9.3-11-12a68.3 68.3 0 0 0-30 .2c-14.7 3.3 4.2-2.1 4.2-2.1s-28.7-130-36.4-177c-4.6-28.8-27.5-83.1-38.1-110.3-12-30.5-52.3-118.8-52.3-118.8s17.1-7.5 22.3-10.5c4.6-2.7 16.4-13.2 16.4-13.2zM681 1573s-59.8 17.6-81.7 11.3c-11.8-3.4-22-6.1-22-6.1s27-56 35.6-81c6.7-19.7 37-93 37-93s5.5 70.4 7.7 94.3c1.9 19.1 23.4 74.5 23.4 74.5z" transform="translate(86.2 -92)" fill="url(#ltCross)"/>
    <path d="M647 1477.7c-1 15.2-4.2 50.7-6.5 65.8-2.5 17 7.8 39.1 7.8 39.1s-14.6 2.9-33.6 4.6c-7.8.7-14.6-4.1-14.6-4.1s17.9-65.6 24.4-88c5.2-17.7 23.3-71.1 23.3-71.1s-.4 46.5-.9 53.7zm-83.3-148.8c-3.5 8-14.2 22.4-16.8 30.5-4.1 12.6-11 51.8-11 51.8s-15.8 40.1-23.6 53.3c-4 6.9-25 70.4-31 92.2-6.6 23.2-14.4 18.1-14.4 18.1a513.8 513.8 0 0 1 11-52.4c5.8-21.7 15-45.7 19.3-58.4 11.6-34 31.1-86.7 45-120.7 17.4-43 29-87.6 30.2-128.7.5-19.3-2.7-38.3-3.2-51.3a101 101 0 0 1 2.1-25.8l11.7 11.4s-3.5 85.6-7 112.5c-2.4 18.3-4.8 50.6-12.3 67.5zm327.8-22.6c2 13 22 107 28.8 134.4 9.4 37.7 33.4 96.4 30.6 104.9-2.4 7.6-11.6-24-26.3-35-16.9-12.6-7-39.1-18.7-70.4-11.2-30.1-25.4-92-24.2-133 .5-19.3-78-182-78-182l21.3-16.4s22.2 58 35.9 93c6.7 17.2 26.3 76.3 30.6 104.5zm-67 261.7s-33.7 12.6-56.4 11.7c-21.8-1-44.8-2.6-44.8-2.6s12-34.1 20.5-59.2c6.8-19.5 11.2-104 11.2-104s37 71 39.4 94.9c1.8 19.1 30.1 59.2 30.1 59.2z" transform="translate(86.2 -92)" fill="url(#ltCross)"/>
    <path d="M803.7 1576s-15.8.8-25.6 2.5c-8.5 1.6-25.1 0-25.1 0s9.5-33.8 11.4-50.3c2.1-18.6-6-90.3-6-90.3s11.7 51.8 20.2 72.5c5.2 12.7 25.1 65.6 25.1 65.6z" transform="translate(86.2 -92)" fill="url(#ltCross)"/>
    <path d="M827.7 852.3c6.5 1.6 9 25 9 25s-11.7 63.3-12.2 78.4c-.2 6.2-7 42.9-8.5 74.3-.6 13.4 1.3 53.7 1.3 53.7s-1.8 5.5-14.3 12.6-19 9.7-19 9.7 21.1-145.6 13.5-192.7c-4.6-28.8 13.7-65 30.2-61z" transform="translate(86.2 -92)" fill="url(#ltCross)"/>
    <path d="M817.1 858.5s44.7 15.8 63.4 24.3c14.6 6.7 33.4 32 49.4 47 18.5 17.4 37.8 4.4 61 11.7 12.8 4 61.2-25.8 82.6-30.9 7.2-1.7 29.7.5 29.7.5s-7.6 20.4-9.3 17.5c-1.4-2.5-6.3-6.2-8.1-4.4-3.2 3.2-6.7 3.8-9.6 2.7-5.6-2.2-6-1.4-9.3 0-9.8 4-18 9.1-30.5 14.6-31.3 13.6-55 31.7-67.4 31.5-8.6 0-25.7-2.1-32.7-7.7a675.4 675.4 0 0 1-51.1-44.7c-24.6-25.2-68.1-62.1-68.1-62.1zm3.7-162.5s9.6-6.6 18.1-6.5c5.1 0 9 3.7 14 7.4 7.2 5.4 53.8 59 88.3 107.2l44.6 62a279.2 279.2 0 0 1 38.4-19.5c12.4-5.2 34.4-20.2 49-25.6 2.2-.9 9.6 0 8.6 4.4-.5 2-7.3-1.3-9.5 1-2.9 3-3 12.4-3 12.4S995.8 879.5 982 876c-22.4-5.6-83.6-102-117-136.2a1477.7 1477.7 0 0 0-44.3-43.8zM583 698c-18.4 18.7-28.8 46.3-29 61-.2 39.5-51 69.5-61 107.7-8.8 34-31.8 56-22.5 72.7 14 25.5 118.4 27.7 118.4 27.7l1.6 25.3s-47.1-5.1-63.4-10.6a928 928 0 0 0-62.1-17.4c-8.5-2-17-12.6-18.8-19-7.6-28-2-31.2 10.5-60.4 14.4-33.6 37.2-64 54.9-95.8 7.9-14.2 21.1-41.5 23.2-51.9a70.7 70.7 0 0 1 16.1-33.8 70.2 70.2 0 0 1 40.6-25.5c4.8-.9 16.9-3 24.7-6a279.5 279.5 0 0 0 26-11.8l57.5-11.9s-26.3 18-33.7 22.4c-12 7.4-77.1 21.3-83 27.2z" transform="translate(86.2 -92)" fill="url(#ltCross)"/>
    <path d="M580.5 876.9l-20.8 23.9 24.6 5 1 18.5s-39.3-1.4-40.1-22.8c-.2-6.5 12.5-17.5 16.8-22.4 5-5.6 16.5-21 16.5-21z" transform="translate(86.2 -92)" fill="url(#ltCross)"/>
    <path d="M554.4 726.4c-3.6 8-30.5 46.3-33.2 54.4-4.1 12.6-58 106.6-65.8 119.7-.8 1.3-8.2 31.3 8.4 43 9.1 6.4 37.6 21.7 65.9 31.1 30 10.1 59.6 9.4 59.6 9.4v9.6s-21-2.8-58.5-11.4c-17.6-4.2-50.3-13.2-65.1-17.2-14-3.7-17-15.9-19.5-21.3a49 49 0 0 1 2-43.7c23.9-42.2 51.9-98 60.5-109 23.7-30.6 25.5-63.4 32-75.1 8.2-15.1 18.2-19.7 18.2-19.7s3 13.3-4.5 30.2z" transform="translate(86.2 -92)" fill="url(#ltCross)"/>
    <path d="M577.7 831.7c-3.6 8 12.2 39.5 9.6 47.6-4.2 12.6 19.4 70.7 11.6 83.9-2.5 4.2-1.7 44.3 2.3 72.4a53 53 0 0 0 13 28l-23.2-5.2s-.1-41.7-.8-66c-.6-22.5-2.1-53.4-3-66.7-2-32-16.2-114.5-16.2-114.5s14.2 3.7 6.7 20.5zm259.8 44.6c-3.5 8-5 35.4-7.7 43.4-4.1 12.6-8 67.3-11 82.3-9 46-.7 82.5-.7 82.5l-19.9 13.3s7.1-43.9 6.4-68.1c-.6-22.5 9.3-53.4 8.5-66.8-2-32 4.5-69 4.5-69s27.5-34.4 20-17.6zm118.4 83.8c33.1 7.4 57.4-6.8 57.4-6.8.6.7-37.8 26-61.5 18.4-22.8-7.3-41.3-27.7-41.3-27.7s27.4 12.1 45.4 16.1z" transform="translate(86.2 -92)" fill="url(#ltCross)"/>
    <path d="M605.2 687.7c-4 2-12.1-11.7-12.1-11.7s18.2-1 23-3c18.4-7.7 20.6-11 20.6-11s1.3 5.2-1 16c-.9 3.6-10.8.4-30.5 9.7z" transform="translate(86.2 -92)" fill="url(#ltCross)"/>
    <g id="Coin">
      <path class="cls-6" d="M1270 680c0 9-11 13.6-18.3 15.2a42.3 42.3 0 0 1-32-4.8c-6.6-4.6-8.8-12.5-2.6-18.6 7.3-7.2 19.6-8.8 29.4-7.8 8.5.8 23.5 5.1 23.5 16z"/>
      <path d="M1225 675c0-2.2 3.2-3.5 4-1.7.3.8-.8 2.4 0 3.3.5.7 6.6 2.2 7.7 2.2 1.8 0 1.4-.2 2.6-1.8 1.5-1.8 3.2-4 5.7-4s4 1.6 5.2 3.5c.7 1.2 1 4.4 1.8 5.7 1 1.8 2.9 1.8 2.8 2.4s-1.4-.2-3 .9c-.6 1.3-2.4 4.7-3.7 5.3-2.3 1-3.4.5-2.2-1.6 1-1.7 3.8-3.3 2-4.8-1.1-.9-7.2-2.9-8.6-1.6-1 1-2 3.1-3.1 4-4.7 3.4-8.1-1.7-9.6-5.6-.8-2-.5-2-2-3.1-.7-.4-1.8-.4-2.4-1-2.8-2.5 1.2-2.2 3-1.7zm8.1 9.5c1.2 0 2.6-2.4 3.1-3.1l-6.5-1.8c.5 1.3 1.7 5 3.5 5zm14-6.5c-2-3.3-4.6 0-5.9 2l7.2 2a10.7 10.7 0 0 0-1.3-4z"/>
      <path d="M1270 680c-6.3-27.1-69-25-61.8 5.9 6.9 29.6 68.3 22.1 61.8-5.9zm-31.4-13.7c7.9 0 18.9 1.7 24.1 8.2 7 8.5-2.4 16.1-10.1 18.6a46.4 46.4 0 0 1-24.5 1c-7.5-1.7-19.2-7-15.3-16.9 3.6-8.9 17.5-10.9 25.8-10.9z"/>
    </g>
  </g>
</svg>