<svg xmlns="http://www.w3.org/2000/svg" xmlns:xlink="http://www.w3.org/1999/xlink" id="Layer_1" data-name="Layer 1" viewBox="0 0 200 200">
  <defs>
    <style>
      .pt-1,.pt-4{fill:none}.pt-2,.pt-3{fill:#fff}.pt-10,.pt-11,.pt-13,.pt-14,.pt-3,.pt-4,.pt-5,.pt-6,.pt-7,.pt-8{stroke:#000;stroke-miterlimit:10}.pt-4{stroke-linecap:round}.pt-14,.pt-5,.pt-7,.pt-8{fill:url(#dots)}.pt-10,.pt-11,.pt-6{fill:url(#Dark_Ink_Crosshatch)}.pt-12,.pt-15,.pt-9{fill:url(#linear-gradient)}.pt-13{fill:url(#Lines)}.pt-16{clip-path:url(#clip-path)}
    </style>
    <pattern id="dots" width="16" height="16" data-name="New Pattern Swatch 8" patternTransform="translate(14.9 53)" patternUnits="userSpaceOnUse">
      <path d="M0 0h16v16H0z" class="pt-1"/>
      <path d="M0 .1h16v16.1H0z" class="pt-2"/>
      <path d="M12.6 2.9a.4.4 0 1 0 0-.8.4.4 0 0 0 0 .8zM1 1A.7.7 0 0 0 .3.3a.6.6 0 0 0-.3.1v1.2a.7.7 0 0 0 .3 0A.7.7 0 0 0 1 1zM15 2.4a.7.7 0 1 0 .7.7.7.7 0 0 0-.7-.7zM10.7 8.3a.3.3 0 0 1 .1 0 .5.5 0 0 0 .4-.5.5.5 0 1 0-1 0 .5.5 0 0 0 .5.5zM.6 10.8A.7.7 0 0 0 0 10v1.4a.7.7 0 0 0 .6-.7z"/>
      <circle cx="7" cy="13.3" r=".8"/>
      <path d="M3.4 2.9a.6.6 0 1 0 .6-.6.6.6 0 0 0-.6.6z"/>
      <circle cx="3.1" cy="11.8" r=".5"/>
      <circle cx="6.2" cy="3.7" r=".8"/>
      <path d="M4 14.3a.6.6 0 1 0 0 1.2.6.6 0 0 0 0-1.2zM14.2 11.6a.5.5 0 0 0-.5.4.5.5 0 0 0 .1.3.2.2 0 0 1 .2.1.7.7 0 0 0 .2 0 .5.5 0 0 0 0-.9z"/>
      <circle cx="2.1" cy="13.3" r=".5"/>
      <path d="M10.7 8.3a.3.3 0 0 0 .1.6.3.3 0 0 0 .3-.3.3.3 0 0 0-.2-.4.3.3 0 0 0-.2 0zM15.3 6.6a.5.5 0 1 0 .2 0 .5.5 0 0 0-.3 0zM2.7 10.2a.4.4 0 1 0-.4-.3.4.4 0 0 0 .4.3zM1.6 5a.7.7 0 1 0 .6-.6.7.7 0 0 0-.6.7zM.6 4.2a.7.7 0 0 0 0-1.3.7.7 0 0 0-.6.4v.5a.7.7 0 0 0 .6.4z"/>
      <circle cx="8.8" cy="7.1" r=".3"/>
      <path d="M3.6 5.8a.4.4 0 1 0 .4-.3.4.4 0 0 0-.4.3zM14 5.5a.4.4 0 0 0 0 .7.3.3 0 0 0 .3-.3.5.5 0 0 1-.3-.4zM5.6 10.2a.4.4 0 0 0 .4-.1.5.5 0 0 1 0-.2.4.4 0 0 1 .1-.3.4.4 0 0 0-.4-.3.5.5 0 0 0 0 1zM5.6 12.2a.4.4 0 1 0-.4-.4.5.5 0 0 0 0 .3.4.4 0 0 1 .4.1zM14.1 10a.8.8 0 1 0-.7.8.8.8 0 0 0 .7-.8z"/>
      <circle cx="14.1" cy="1.2" r=".5"/>
      <path d="M.9 5.5a.4.4 0 1 0-.4.4.4.4 0 0 0 .4-.4z"/>
      <circle cx="6.2" cy="1.5" r=".5"/>
      <path d="M5.3 12a.5.5 0 1 0 .5.6.5.5 0 0 0-.2-.4.4.4 0 0 0-.3-.1zM8 2.4a.3.3 0 1 0-.3-.3.3.3 0 0 0 .3.3zM8.9 3.1a.5.5 0 1 0 .5-.5.5.5 0 0 0-.5.5zM10.4 12.6a.5.5 0 1 0 .5.5.5.5 0 0 0-.5-.5zM.7 12.6a.5.5 0 0 0-.5-.5.5.5 0 0 0-.2 0v.9a.4.4 0 0 0 .2 0 .5.5 0 0 0 .5-.4zM15.7 1a.7.7 0 0 0 .3.6V.4a.6.6 0 0 0-.3.6zM15.1 10.8a.7.7 0 0 0 .7.7.9.9 0 0 0 .2 0V10a.9.9 0 0 0-.2 0 .7.7 0 0 0-.7.7zM15.7 12.6a.5.5 0 0 0 .3.4v-.9a.5.5 0 0 0-.3.5zM8.4 8.6a.5.5 0 1 0 .5.5.5.5 0 0 0-.5-.5zM11.4 10.6a.5.5 0 1 0 .5.5.5.5 0 0 0-.5-.5zM4.4 4.4a.4.4 0 0 0 .4.5.4.4 0 0 0 .4-.5.4.4 0 0 0-.4-.4.4.4 0 0 0-.4.4zM8.6 11.8a.4.4 0 1 0-.4.3.4.4 0 0 0 .4-.3zM15.2 14.4a.4.4 0 1 0 .4.4.4.4 0 0 0-.4-.4zM11.8 11.8a.4.4 0 1 0 .4-.4.4.4 0 0 0-.4.4zM3.3 4.2a.3.3 0 0 0 0-.5.3.3 0 1 0 0 .5zM3.6 14a.3.3 0 1 0-.3.2.3.3 0 0 0 .3-.3zM11.3 14.7a.3.3 0 1 0 0 .5.3.3 0 0 0 0-.5zM14.3 12.7a.3.3 0 1 0 0 .5.3.3 0 0 0 0-.5zM8.3 14.7a.3.3 0 1 0 0 .5.3.3 0 0 0 0-.5zM.4 6.8a.1.1 0 0 0 .2.2.1.1 0 0 0 0-.1.1.1 0 0 0 0-.1.1.1 0 0 0-.2 0zM1.7 1.8a.1.1 0 0 0-.2 0 .1.1 0 0 0 0 .2.1.1 0 0 0 .2-.2zM2.6 6.5a.4.4 0 0 0-.8 0 .4.4 0 1 0 .8 0zM2.6 8.5a.4.4 0 0 0-.8 0 .4.4 0 1 0 .8 0zM14.8 8.5a.4.4 0 1 0 .8 0 .4.4 0 0 0-.8 0zM15.2.9a.4.4 0 0 0 .4-.4.4.4 0 0 0-.8 0 .4.4 0 0 0 .4.4zM.8 7.8a.4.4 0 0 0-.4-.4.4.4 0 0 0 0 .7.4.4 0 0 0 .4-.3zM4 8a.6.6 0 1 0 .7.5.6.6 0 0 0-.6-.6zM10.9 2.4a.4.4 0 1 0-.4-.5.4.4 0 0 0 .4.5zM8.3 4.4a.4.4 0 1 0-.8 0 .4.4 0 0 0 .8 0zM6.5 7.6a.4.4 0 0 0-.2-.1.4.4 0 0 0 0 .8.4.4 0 0 0 .4-.4.3.3 0 0 0 0-.2.6.6 0 0 1-.2-.1zM6 9.9a.5.5 0 0 0 0 .2.4.4 0 0 0 .3.2.4.4 0 1 0-.4-.4zM1.7.6A.4.4 0 0 0 2 .2.3.3 0 0 0 2 0h-.7a.5.5 0 0 0 0 .2.4.4 0 0 0 .4.4zM9.6 14.1a.4.4 0 1 0 0 .8.4.4 0 0 0 0-.8zM3.6 1a.5.5 0 0 0 .5-.4.5.5 0 0 0-.5-.5.5.5 0 0 0-.5.5.5.5 0 0 0 .5.5zM2 2.7a.4.4 0 0 0 .3-.4.4.4 0 0 0-.7 0 .4.4 0 0 0 .3.4zM6.6 5.5a.4.4 0 0 0-.4-.5.4.4 0 0 0-.5.4.4.4 0 0 0 .5.4.4.4 0 0 0 .4-.3z"/>
      <path d="M6.4 7.3a.5.5 0 0 0 .1.3.6.6 0 0 0 .2.1.6.6 0 1 0-.3-.4zM4.5 6.7a.2.2 0 1 0 .2.1.2.2 0 0 0-.2-.1zM3.3 6.7a.2.2 0 1 0 .2.1.2.2 0 0 0-.2-.1z"/>
      <circle cx="9" cy=".7" r=".2"/>
      <path d="M14.3.4a.2.2 0 0 0 .2-.2.2.2 0 0 0-.4 0 .2.2 0 0 0 .2.2zM10.4 10.3a.4.4 0 1 0-.4.4.4.4 0 0 0 .4-.4zM14.6 5a.6.6 0 0 0-.6.5.5.5 0 0 0 .3.4.6.6 0 1 0 .3-1zM4.8.4a.5.5 0 0 0 0 .1.4.4 0 0 0 .4.3.4.4 0 0 0 .4-.4.4.4 0 0 0-.8 0z"/>
      <path d="M4.8.6a.2.2 0 0 0-.1-.1.2.2 0 1 0 0 .4.2.2 0 0 0 .2-.2.2.2 0 0 0 0-.1z"/>
      <circle cx="9" cy="13" r=".2"/>
      <circle cx="12" cy="13" r=".2"/>
      <circle cx="6" cy="15" r=".2"/>
      <circle cx="4" cy="12" r=".2"/>
      <circle cx="7" cy="11" r=".2"/>
      <circle cx="5.9" cy="7.5" r=".2"/>
      <circle cx="8" cy="10.5" r=".2"/>
      <circle cx="2" cy="15" r=".2"/>
      <path d="M1.5 8a.2.2 0 0 0 .3-.3.2.2 0 1 0-.5 0 .2.2 0 0 0 .2.2zM12.8.7a.2.2 0 0 0 .2-.2.2.2 0 1 0-.5 0 .2.2 0 0 0 .3.2zM1 9.5a.2.2 0 1 0-.2.2.2.2 0 0 0 .2-.2zM3.8 10.3a.2.2 0 1 0 .2.2.2.2 0 0 0-.2-.3zM9.8 11.3a.2.2 0 1 0 .2.2.2.2 0 0 0-.2-.3zM11.8 9.7a.2.2 0 1 0-.3-.2.2.2 0 0 0 .3.2zM13.8 12.3a.2.2 0 1 0 .2.2.2.2 0 0 0-.2-.2zM7.4.7A.7.7 0 0 0 8 .1V0H6.7a.7.7 0 0 0 .7.7zM13.7 4.3A.3.3 0 0 0 14 4a.3.3 0 0 0-.6 0 .3.3 0 0 0 .3.3z"/>
      <circle cx="11.8" cy="3.4" r=".2"/>
      <path d="M10.8 4.8a.1.1 0 0 0-.2 0 .1.1 0 1 0 .2 0zM12.3 4.8a.4.4 0 1 0-.3-.4.4.4 0 0 0 .3.4zM11 6a.4.4 0 1 0-.5-.3.4.4 0 0 0 .4.4zM12.6 7.5a.6.6 0 0 0 1.3 0 .6.6 0 1 0-1.3 0zM10.2 4.1a.2.2 0 0 0 .1-.2.2.2 0 0 0-.1-.1.2.2 0 0 0-.2.1.2.2 0 0 0 .2.2z"/>
      <circle cx="11.9" cy="5.5" r=".2"/>
      <path d="M14.3 15a.4.4 0 1 0 .3.4.4.4 0 0 0-.3-.3zM.7 14.7a.6.6 0 0 0 0 1.3.6.6 0 1 0 0-1.2z"/>
      <circle cx="13.1" cy="14.4" r=".9"/>
      <path d="M9.1 6.2a.8.8 0 0 0 .8-.7.8.8 0 0 0-1.5 0 .8.8 0 0 0 .7.7zM11 1.3a.9.9 0 0 0 1-.9.9.9 0 0 0-.2-.4h-1.5a.9.9 0 0 0-.1.4.9.9 0 0 0 .9.9zM1.7 15.8a.4.4 0 0 0-.4.2H2a.4.4 0 0 0-.3-.2zM7.4 15.4a.7.7 0 0 0-.7.6H8a.6.6 0 0 0-.6-.6zM11 15.5a.9.9 0 0 0-.7.5h1.5a.9.9 0 0 0-.7-.5zM.6 14.5a.3.3 0 0 0 0-.5.3.3 0 0 0 0 .5zM15 9.5a.2.2 0 1 0-.2.2.2.2 0 0 0 .2-.2z"/>
      <circle cx="3" cy="1.7" r=".2"/>
      <circle cx="1" cy="10.7" r=".2"/>
      <circle cx="2" cy="11.7" r=".2"/>
      <path d="M0-15.9h16V.2H0z" class="pt-2"/>
    </pattern>
    <pattern id="Dark_Ink_Crosshatch" width="200.5" height="200.5" data-name="Dark Ink Crosshatch" patternTransform="rotate(106 14.6 46.6) scale(.2)" patternUnits="userSpaceOnUse">
      <path d="M0 0h200.5v200.5H0z" class="pt-1"/>
      <path d="M.6 200.5h200.1v200.1H.6zM-199.9 200.5H.2v200.1h-200.1zM.6 0h200.1v200.1H.6z" class="pt-2"/>
      <path d="M113.8 200h-2s-1-112.4-1-149.8c0-12.6 1-50.2 1-50.2h2zM123.3 200h-3l-1-107.1 1-92.9h3l-1 92.9 1 107.1zM129.8 200v-43a1 1 0 0 1 1-1 1 1 0 0 1 1 1v43zM130.8 154a1 1 0 0 1-1-1l-1-70.2 1-82.8h2l-1 82.8 1 70.2a1 1 0 0 1-1 1zM137.3 0h3v200h-3zM146.8 0h4v200h-4zM160.3 200h-3s.7-39 .6-52c-.1-28.8-1.7-115.3-1.7-115.3l1-32.7h3s-1 24.8-1 33c0 24.2 1.4 76.4 1.7 116 .2 28.9-.7 51-.7 51zM177.8 0h2v200h-2zM170.8 200.5h-4V26a2 2 0 0 1 2-2 2 2 0 0 1 2 2zM168.8 21a2 2 0 0 1-2-2.1V0h4v18.9a2 2 0 0 1-2 2.1zM185.8 0h4v200h-4zM194.8 0h2v200h-2zM1.8 0h2v200h-2zM6.8 0h4v200h-4zM32.8 0h2v200h-2zM17.8 109a1 1 0 0 1-1-1V0h2v108a1 1 0 0 1-1 1zM16.8 200v-79a1 1 0 0 1 1-1 1 1 0 0 1 1 1v79zM28.3 200h-3s-1.2-100-1-133.4c0-16.7 1-66.6 1-66.6h3s1.3 120 1 159.9c-.1 10-1 40.1-1 40.1zM44.8 200h-4s1-37.2 1-63.6c0-23.6-1-136.4-1-136.4h4zM55.3 200h-3V77.5a1.5 1.5 0 0 1 1.5-1.5 1.5 1.5 0 0 1 1.5 1.6zM53.8 70a1.5 1.5 0 0 1-1.5-1.5V0h3v68.5a1.5 1.5 0 0 1-1.5 1.5zM63.8 200h-2s1-115.2 1-153.6c0-11.6-1-46.4-1-46.4h2s.9 34.4 1 45.9c.2 38.5-1 154.1-1 154.1zM69.3 0h3v200h-3zM79.8 0h2v200h-2zM98.8 200h-2V0h2l1 102.3-1 97.7zM105.3 200h-1V0h1v200zM91.3 200h-3s-1-115.8-1-154.4c0-11.4 1-45.6 1-45.6h3s-2 58.6-2 78.2c0 30.4 2 121.8 2 121.8z"/>
      <path d="M.5 114.8v-2s112.4-1 149.8-1c12.6 0 50.2 1 50.2 1v2zM.5 124.5V122l107.1-.8 92.9.8v2.5l-92.9-.8-107.1.8zM.5 130.8h41a1 1 0 0 1 1 1 1 1 0 0 1-1 1H.5zM46.5 131.8a1 1 0 0 1 1-1l70.2-1 82.8 1v2l-82.8-1-70.2 1a1 1 0 0 1-1-1zM.5 138.3h200v3H.5zM.5 151.8v-4s81.7 1 109 1c22.8 0 91-1 91-1v4zM.5 161.3v-3s39 .7 52 .6c28.8-.1 115.3-1.7 115.3-1.7l32.7 1v3s-24.8-1-33-1c-24.2 0-76.4 1.4-116 1.7-28.9.2-51-.7-51-.7zM.5 178.8h200v2H.5zM0 171.8v-4s51.5 1 68.7 1c26 0 104.3-1 104.3-1a2 2 0 0 1 2 2 2 2 0 0 1-2 2s-72.7-1-97-1c-19 0-76 1-76 1zM180.5 169.8a2 2 0 0 1 2-2h18v4h-18a2 2 0 0 1-2-2zM.5 186.8h200v4H.5zM.5 195.8h200v2H.5zM.5 2.8h200v2H.5zM.5 7.8h200v4H.5zM.5 33.8h200v2H.5zM91.5 18.8a1 1 0 0 1 1-1h108v2h-108a1 1 0 0 1-1-1zM.5 17.8h85.2a1 1 0 0 1 1 1 1 1 0 0 1-1 1H.5zM.5 29.3v-3s100-1.2 133.4-1c16.7 0 66.6 1 66.6 1v3s-49.1-1.5-95-1.2c-25.8.2-50.5 2.3-65 2.1-10 0-40-1-40-1zM.5 45.8v-4s37.2 1 63.6 1c23.6 0 136.4-1 136.4-1v4zM.5 56.3v-3h121.7a1.5 1.5 0 0 1 1.5 1.5 1.5 1.5 0 0 1-1.5 1.5zM124.8 54.8a1.6 1.6 0 0 1 1.6-1.5h74.1v3h-74.1a1.6 1.6 0 0 1-1.7-1.5zM.5 64.8v-2s115.2 1 153.6 1c11.6 0 46.4-1 46.4-1v2s-34.4.9-45.9 1c-38.5.2-154.1-1-154.1-1zM.5 70.3h200v3H.5zM.5 80.8h200v2H.5zM.5 99.8v-2h200v2l-102.3 1-97.7-1zM.5 106.3v-1h200v1H.5zM.5 92.5V90s115.8-.8 154.4-.8c11.4 0 45.6.8 45.6.8v2.5z"/>
      <path d="M-199.9 0H.2v200.1h-200.1z" class="pt-2"/>
    </pattern>
    <linearGradient id="linear-gradient-crowd" x1="25.3" x2="25.3" y1="105.6" y2="81.4" gradientUnits="userSpaceOnUse">
      <stop offset="0" stop-color="#fff"/>
      <stop offset=".3" stop-color="#fff"/>
      <stop offset=".6" stop-color="#fff" stop-opacity=".7"/>
      <stop offset="1" stop-color="#fff" stop-opacity="0"/>
    </linearGradient>
    <pattern id="Lines" width="200" height="195" data-name="Lines" patternTransform="matrix(.2 0 0 .2 44.5 80)" patternUnits="userSpaceOnUse">
      <path d="M0 0h200v195H0z" class="pt-1"/>
      <path d="M0 0h200v195H0z" class="pt-2"/>
      <path d="M0 112v-2s112.4-1 149.8-1c12.6 0 50.2 1 50.2 1v2zM0 121.8v-2.5l107.1-.8 92.9.8v2.5l-92.9-.9-107.1.9zM0 128h41a1 1 0 0 1 1 1 1 1 0 0 1-1 1H0zM46 129a1 1 0 0 1 1-1l70.2-1 82.8 1v2l-82.8-1-70.2 1a1 1 0 0 1-1-1zM0 135.5h200v3H0zM0 149v-4s81.7 1 109 1c22.8 0 91-1 91-1v4zM0 158.5v-3s39 .8 52 .7c28.8-.2 115.3-1.7 115.3-1.7l32.7 1v3s-24.8-1-33-1c-24.2 0-76.4 1.3-116 1.6-28.9.2-51-.6-51-.6zM0 176h200v2H0zM0 169v-4s51.4 1 68.5 1c26 0 104-1 104-1a2 2 0 0 1 2 2 2 2 0 0 1-2 2s-72.5-1-96.7-1c-19 0-75.8 1-75.8 1zM180 167a2 2 0 0 1 2-2h18v4h-18a2 2 0 0 1-2-2zM0 184h200v4H0zM0 193h200v2H0zM0 0h200v2H0zM0 5h200v4H0zM0 31h200v2H0zM91 16a1 1 0 0 1 1-1h108v2H92a1 1 0 0 1-1-1zM0 15h85.2a1 1 0 0 1 1 1 1 1 0 0 1-1 1H0zM0 26.5v-3s100-1.1 133.4-1c16.7 0 66.6 1 66.6 1v3s-49.1-1.4-95-1.1c-25.8.1-50.5 2.2-65 2.1-10 0-40-1-40-1zM0 43v-4s37.2 1 63.6 1C87.2 40 200 39 200 39v4zM0 53.5v-3h121.7a1.5 1.5 0 0 1 1.5 1.5 1.5 1.5 0 0 1-1.5 1.5zM124.3 52a1.6 1.6 0 0 1 1.6-1.5H200v3h-74.1a1.6 1.6 0 0 1-1.7-1.5zM0 62v-2s115.2 1 153.6 1c11.6 0 46.4-1 46.4-1v2s-34.4 1-45.9 1C115.6 63.3 0 62 0 62zM0 67.5h200v3H0zM0 78h200v2H0zM0 97v-2h200v2L97.7 98 0 97zM0 103.5v-1h200v1H0zM0 89.8v-2.5s115.8-.8 154.4-.8c11.4 0 45.6.8 45.6.8v2.5z"/>
    </pattern>
    <clipPath id="clip-path-crowd">
      <path d="M0 0h200v200H0z" class="pt-1"/>
    </clipPath>
    <symbol id="face" data-name="face" viewBox="0 0 31.1 38.6">
      <path d="M6 36.5c-.8-.5.1-3.3-.4-5.3-.8-3-2.9-5.5-4.3-8.5s-1-11.4.3-14.4a12 12 0 0 1 6.2-6.8 27 27 0 0 1 13.3-.4c3.3 1.3 5.1 3.4 5.4 5.5.5 3 1.1 5.3 3 7.6a5.2 5.2 0 0 1 1 3c.1 1.6-1.4.5-2 2-1 2.6.2 5.5-1 8-.9 2-3.1 2-4 4-.6 1.6.2 3.1 0 4.2 0 .3-5.1 2.7-10 2.6A20.8 20.8 0 0 1 6 36.5z" class="pt-3"/>
      <ellipse cx="27.3" cy="12.2" rx=".8" ry=".7"/>
      <path d="M25.1 12.3a3 3 0 0 1 1.3-1.3 1.8 1.8 0 0 1 1.4-.1" class="pt-4"/>
    </symbol>
    <symbol id="male-2" data-name="male-2" viewBox="0 0 50.4 97.9">
      <use width="31.1" height="38.6" transform="translate(11.7 1.4)" xlink:href="#face"/>
      <path d="M.7 85.6c.4-5.8 1-24.8 1.1-30.5C2 52 3.1 44.5 8.6 44c1 0 5.7-.3 7.3-1.4s-.1-4.2.8-4.3c3.1-.6 5.4 1.5 10 1.3 3.8 0 6-2.2 9.8-2.2 1.2 0 .3 3.8 2 4.2a24.2 24.2 0 0 1 8 3.6c3 2 3.6 11.7 3.4 14.3-.6 6-.6 19.6-.7 24.3C49 102.3 0 97.4.7 85.6z" class="pt-13"/>
      <path id="hair-male" d="M28.3 3.5c-.3-1.4 3.2-2 1.8-2.4a13.5 13.5 0 0 0-5.4-.5c-2 .2-6 1-7.5 2.1a15.9 15.9 0 0 0-4 5 27 27 0 0 0-2.1 7.7 29.7 29.7 0 0 0 4 15.9c.7 1 0 2.1.2 3 .2 1.7 2.6 2.2 3.2 2.3a7.4 7.4 0 0 0 4-.3c1.6-.6 3 1.3 4 1.3.7 0 2.4-1.4 3.1-1.3 1.6 0 3.6-5.5 5.1-5.9 1.8-.4 5.5 4 6.5 1 .5-1.8-.4-3.2-2.4-3.6-3.6-.5 2.2-4.4 1.7-6.3-.2-.8-3.4.4-3.8.3-2.3-.7.2-4.1-1-4.8-.5-.3-1.6-.2-2-.5-1-.7-1-3.2-.5-4.4.4-.8 1 .2 1.6-.6s-6.1-2.2-5.4-4.3c.2-.8-1-3-1.1-3.7z" class="pt-14"/>
      <path d="M0 73.7h50.1v24.2H0z" class="pt-15"/>
    </symbol>
    <symbol id="male" data-name="male" viewBox="0 0 50.5 98">
      <use width="31.1" height="38.6" transform="translate(11.8 1.5)" xlink:href="#face"/>
      <path d="M.8 85.7c.4-5.8 1-24.8 1.2-30.5 0-3.1 1.3-10.6 6.7-11 1-.1 5.7-.3 7.3-1.4s-.1-4.2.8-4.3c3.1-.6 5.5 1.4 10.1 1.3 3.7 0 6-2.3 9.8-2.3 1.1 0 .2 4 1.9 4.3a23.8 23.8 0 0 1 8 3.6c3 2 3.7 11.7 3.4 14.2-.6 6-.6 19.7-.7 24.3C49.1 102.4 0 97.5.8 85.7z" class="pt-10"/>
      <path id="hair-male-2" d="M38.6 4.7c-.4-1.4-4.4-3.5-5.8-3.8a29 29 0 0 0-8-.2c-2 .2-5.9 1-7.5 2.1a15.8 15.8 0 0 0-3.9 5 27 27 0 0 0-2.2 7.8 29.8 29.8 0 0 0 4 15.8c.7 1 0 2.1.2 3 .3 1.7 2.6 2.2 3.2 2.3a7.3 7.3 0 0 0 4-.3c1.6-.6 3 1.3 4 1.3.7 0 2.4-1.4 3.2-1.3 1.5 0 3.2.5 4.3-.6.9-.8-.9-6.3 1.7-8.8 1-1 1-3.6 1-5 .1-1.4.5-4.8-.6-5.5-.6-.3-2 .5-2.4.1-1-.7-1-3.2-.4-4.3.4-1 2.3 0 2.8-.8s-.1-3 .2-3.8 2.4-2.2 2.2-3z" class="pt-11" data-name="hair-male"/>
      <path d="M0 73.8h50V98H0z" class="pt-12"/>
    </symbol>
    <symbol id="female" data-name="female" viewBox="0 0 50.7 105.6">
      <path d="M.8 99.2c-.5-5.7.8-34.2 1-40 0-3 1.2-10.6 6.7-11 1 0 5.7-.2 7.3-1.4s-.1-4.1.8-4.3c3.1-.6 5.5 1.5 10.1 1.4 3.7-.1 6-2.3 9.8-2.3 1.1 0 .3 3.9 1.9 4.3a24 24 0 0 1 8 3.5c3 2 3.7 11.7 3.4 14.3-.6 6 .7 31 0 35.5-1.2 7.6-48.5 7.4-49 0z" class="pt-5"/>
      <use width="31.1" height="38.6" transform="translate(12.8 6.3)" xlink:href="#face"/>
      <path id="hair-female" d="M38.6 9.8a1.5 1.5 0 0 0-.3-.6c-3 2.2-8 4.6-14 6.5a63.2 63.2 0 0 1-12.7 2.9 14.9 14.9 0 0 0-.3 2c-.5 7 3.2 14.8 4.5 16.8.8 1.1-3.4 4.7-3 9.4.2 1.8 3.6 2.7 5.1 1.1 1-1 3 2.2 4 1.4 2.5-2.2 3.7.6 4.7.6.8 0 2.5-1.4 3.3-1.4 1.5.1 3.8 1 4.3-.6 1.4-4.6-2.3-5.1-2-9.4.1-2.6 2.8-5.5 3.8-6.4s.9-3.6 1-5.1c0-1.3.4-4.7-.7-5.4-.5-.3-1.9.5-2.4.1-1-.7-1-3.2-.4-4.4.4-.8 2.4.2 2.9-.7s-.2-3 .1-3.8 2.3-2.2 2.1-3z" class="pt-6"/>
      <ellipse cx="22.9" cy="11.5" class="pt-7" rx="19" ry="4.4" transform="rotate(-17.9 23 11.5)"/>
      <path d="M11 14.3c-1.2-1.5-.2-6.5.5-7.8C14 1.8 23.7-.3 28 .7c2.4.6 5.5 3.6 5.6 5.2.3 3.5-20.7 10.6-22.6 8.4z" class="pt-8"/>
      <path d="M0 81.4h50.7v24.2H0z" class="pt-9"/>
    </symbol>
  </defs>
  <g class="pt-16">
    <use width="50.4" height="97.9" transform="translate(.7 -78.1)" xlink:href="#male-2"/>
    <use width="50.5" height="98" transform="matrix(.95 0 0 .95 41.7 -79.4)" xlink:href="#male"/>
    <use width="50.4" height="97.9" transform="translate(87.5 -84.8)" xlink:href="#male-2"/>
    <use width="50.7" height="105.6" transform="matrix(.81 0 0 .81 130.8 -61.1)" xlink:href="#female"/>
    <use width="50.7" height="105.6" transform="translate(159.7 -67.9)" xlink:href="#female"/>
    <use width="50.5" height="98" transform="translate(155.5 -4.7)" xlink:href="#male"/>
    <use width="50.7" height="105.6" transform="matrix(.81 0 0 .81 121.8 10.3)" xlink:href="#female"/>
    <use width="50.5" height="98" transform="matrix(1.04 0 0 1.04 81.5 -4.6)" xlink:href="#male"/>
    <use width="50.4" height="97.9" transform="translate(40 6.2)" xlink:href="#male-2"/>
    <use width="50.7" height="105.6" transform="translate(.2 -7.4)" xlink:href="#female"/>
    <use width="50.5" height="98" transform="translate(1 53.1)" xlink:href="#male"/>
    <use width="50.7" height="105.6" transform="matrix(.81 0 0 .81 81.3 70.2)" xlink:href="#female"/>
    <use width="50.5" height="98" transform="matrix(.95 0 0 .95 117.3 59.4)" xlink:href="#male"/>
    <use width="50.4" height="97.9" transform="translate(158.8 64.1)" xlink:href="#male-2"/>
    <use width="50.7" height="105.6" transform="translate(36.2 55.5)" xlink:href="#female"/>
    <use width="50.4" height="97.9" transform="translate(.7 121.9)" xlink:href="#male-2"/>
    <use width="50.5" height="98" transform="matrix(.95 0 0 .95 41.7 120.6)" xlink:href="#male"/>
    <use width="50.4" height="97.9" transform="translate(87.5 115.2)" xlink:href="#male-2"/>
    <use width="50.7" height="105.6" transform="matrix(.81 0 0 .81 130.8 138.9)" xlink:href="#female"/>
    <use width="50.7" height="105.6" transform="translate(159.7 132.1)" xlink:href="#female"/>
    <use width="50.7" height="105.6" transform="translate(-40.3 -67.9)" xlink:href="#female"/>
    <use width="50.5" height="98" transform="translate(-44.5 -4.7)" xlink:href="#male"/>
    <use width="50.4" height="97.9" transform="translate(-41.2 64.1)" xlink:href="#male-2"/>
    <use width="50.7" height="105.6" transform="translate(-40.3 132.1)" xlink:href="#female"/>
    <use width="50.5" height="98" transform="translate(155.5 195.3)" xlink:href="#male"/>
    <use width="50.5" height="98" transform="matrix(1.04 0 0 1.04 81.5 195.4)" xlink:href="#male"/>
    <use width="50.7" height="105.6" transform="translate(.2 192.6)" xlink:href="#female"/>
  </g>
</svg>
